<svg width="609" height="609" viewBox="0 0 609 609" fill="none" xmlns="http://www.w3.org/2000/svg">
<path d="M95.5871 482.062C94.8197 482.476 80.4717 486.556 75.1612 479.528C69.8507 472.5 78.6691 461.575 73.6753 457.543C68.6815 453.512 54.7354 457.543 51.3737 449.078C48.012 440.613 57.9752 436.898 52.3724 428.372C48.8402 422.989 38.9744 420.017 39.4251 414.974C40.0828 407.666 53.5661 405.669 65.3563 413.525C77.1466 421.381 82.6276 414.938 86.379 414.414C90.1304 413.89 98.1814 415.047 97.9135 428.177C97.6455 441.307 95.5871 482.062 95.5871 482.062Z" fill="#455A64"/>
<path d="M96.5362 463.39C96.351 463.39 96.1721 463.323 96.0315 463.203C95.8909 463.082 95.7977 462.915 95.7688 462.733C91.6641 437.812 62.7001 417.533 47.6335 413.184C47.4358 413.122 47.2697 412.986 47.1698 412.805C47.07 412.623 47.0441 412.41 47.0975 412.21C47.1268 412.111 47.1753 412.02 47.2402 411.94C47.3051 411.86 47.3852 411.794 47.4757 411.745C47.5663 411.697 47.6656 411.666 47.7679 411.656C47.8703 411.646 47.9736 411.656 48.0719 411.686C63.4675 416.132 93.1379 436.911 97.3157 462.477C97.3475 462.682 97.2977 462.891 97.177 463.059C97.0563 463.228 96.8743 463.342 96.6701 463.378L96.5362 463.39Z" fill="white"/>
<path d="M62.3829 442.525C62.2481 442.525 62.1156 442.491 61.9982 442.425C61.8807 442.358 61.7825 442.263 61.713 442.147C61.6092 441.969 61.5791 441.757 61.6291 441.557C61.6792 441.357 61.8054 441.184 61.981 441.076C62.456 440.795 73.6007 434.279 84.5749 437.324C84.6743 437.351 84.7674 437.397 84.8489 437.46C84.9303 437.523 84.9985 437.602 85.0495 437.691C85.1004 437.781 85.1332 437.879 85.1458 437.981C85.1584 438.084 85.1506 438.187 85.123 438.286C85.0977 438.387 85.0524 438.481 84.9898 438.563C84.9272 438.646 84.8486 438.714 84.7587 438.766C84.6688 438.817 84.5695 438.849 84.4668 438.861C84.364 438.873 84.2599 438.864 84.1607 438.835C73.8321 435.972 62.8945 442.355 62.7848 442.415C62.6635 442.488 62.5244 442.526 62.3829 442.525Z" fill="white"/>
<path d="M515.333 415.899L511.557 414.121C511.557 414.121 510.339 400.491 511.557 391.393C513.993 374.451 525.82 359.847 536.355 358.129C549.924 355.925 547.512 368.409 539.754 373.805C527.391 382.453 517.769 395.522 515.333 415.899Z" fill="#005656"/>
<g opacity="0.1">
<path d="M515.333 415.899L511.557 414.121C511.557 414.121 510.339 400.491 511.557 391.393C513.993 374.451 525.82 359.847 536.355 358.129C549.924 355.925 547.512 368.409 539.754 373.805C527.391 382.453 517.769 395.522 515.333 415.899Z" fill="black"/>
</g>
<path d="M513.894 410.466H513.992C514.163 410.434 514.314 410.335 514.412 410.191C514.51 410.047 514.547 409.87 514.515 409.699C511.885 395.777 523.346 369.968 538.681 362.635C538.842 362.56 538.967 362.423 539.027 362.255C539.088 362.087 539.079 361.902 539.003 361.74C538.927 361.579 538.79 361.454 538.623 361.393C538.455 361.333 538.27 361.342 538.108 361.417C522.274 368.969 510.508 395.521 513.212 409.918C513.239 410.077 513.323 410.221 513.449 410.322C513.575 410.423 513.733 410.474 513.894 410.466Z" fill="white"/>
<path d="M511.555 414.12C511.275 412.098 511.153 409.151 511.117 408.42C510.959 405.853 511.337 403.282 512.225 400.869C513.392 397.68 515.614 394.985 518.522 393.232C520.106 392.318 521.957 391.66 522.98 390.15C523.722 388.758 524.119 387.209 524.137 385.631C524.454 383.086 525.246 380.394 527.292 378.835C529.338 377.276 532.164 377.239 534.6 377.507C538.254 377.897 541.677 378.384 545.087 376.716C547.812 375.269 550.627 373.999 553.516 372.915C557.17 371.697 565.342 369.87 567.06 374.998C567.254 375.706 567.289 376.448 567.16 377.171C567.032 377.894 566.744 378.579 566.317 379.176C565.453 380.364 564.419 381.419 563.247 382.306L557.535 387.056C556.854 387.556 556.264 388.17 555.793 388.871C554.685 390.771 555.476 393.171 555.233 395.351C555.078 396.46 554.684 397.523 554.079 398.465C553.473 399.407 552.67 400.206 551.725 400.808C549.821 402 547.581 402.542 545.343 402.354C542.359 402.147 537.487 399.858 535.66 403.378C535.154 404.577 534.857 405.854 534.783 407.153C534.711 408.458 534.29 409.72 533.565 410.807C532.347 412.293 530.313 412.72 528.413 412.915C525.751 412.962 523.108 413.372 520.556 414.133C519.533 414.534 518.888 415.838 518.291 416.703C516.427 416.081 514.381 415.338 511.555 414.12Z" fill="#005656"/>
<path d="M513.228 413.098C513.136 413.121 513.039 413.121 512.947 413.098C512.796 413.035 512.676 412.916 512.612 412.766C512.548 412.615 512.546 412.446 512.606 412.294C520.28 393.232 544.762 379.578 559.353 375.047C559.431 375.023 559.512 375.015 559.593 375.022C559.674 375.03 559.753 375.054 559.824 375.093C559.896 375.131 559.959 375.184 560.01 375.247C560.061 375.31 560.098 375.383 560.121 375.461C560.167 375.616 560.15 375.783 560.075 375.927C560 376.07 559.872 376.178 559.719 376.229C545.358 380.687 521.266 394.085 513.751 412.769C513.699 412.864 513.624 412.944 513.532 413.001C513.441 413.059 513.336 413.092 513.228 413.098Z" fill="white"/>
<path d="M339.628 379.042C339.755 381.412 340.441 383.719 341.628 385.774C342.816 387.829 344.471 389.575 346.461 390.869C347.617 391.63 349.018 391.925 350.383 391.697C350.163 391.926 349.913 392.123 349.64 392.282L351.284 391.344L351.369 391.283L351.613 391.125C351.722 391.045 351.824 390.956 351.917 390.857L352.1 390.674C352.1 390.613 352.21 390.553 352.258 390.479C352.485 390.162 352.673 389.819 352.819 389.456L352.94 389.128C352.946 389.071 352.946 389.014 352.94 388.957C352.97 388.861 352.995 388.763 353.013 388.665C353.14 388.105 353.202 387.533 353.196 386.959C353.068 384.593 352.383 382.289 351.198 380.237C350.013 378.184 348.361 376.44 346.375 375.145C345.458 374.566 344.403 374.242 343.318 374.207H342.892L342.502 374.28L342.271 374.341H342.125C342.027 374.367 341.933 374.404 341.844 374.451L341.589 374.585L340.164 375.401C340.395 375.283 340.64 375.197 340.894 375.145C339.979 376.229 339.525 377.628 339.628 379.042Z" fill="#005656"/>
<path d="M197.84 457.627L207.474 474.363L209.106 473.413L349.639 392.282C349.913 392.122 350.163 391.925 350.382 391.697C351.265 390.621 351.7 389.248 351.6 387.86C351.469 385.491 350.781 383.186 349.594 381.132C348.407 379.077 346.754 377.331 344.767 376.034C343.847 375.462 342.793 375.143 341.71 375.108C341.419 375.103 341.128 375.136 340.845 375.205C340.591 375.257 340.345 375.343 340.114 375.461L339.993 375.522L197.84 457.627Z" fill="#EBEBEB"/>
<path d="M202.677 458.102C198.901 455.922 195.844 457.688 195.844 462.037C195.972 464.407 196.657 466.713 197.844 468.768C199.032 470.823 200.687 472.569 202.677 473.863C206.44 476.044 209.498 474.277 209.498 469.917C209.369 467.55 208.685 465.247 207.5 463.194C206.315 461.141 204.662 459.397 202.677 458.102Z" fill="#005656"/>
<path d="M188 468.248C188.047 468.175 188.105 468.11 188.171 468.053L196.879 458.468L196.952 458.395L197.111 458.224L197.196 458.127C198.414 456.909 200.412 456.836 202.653 458.127C204.638 459.421 206.291 461.166 207.476 463.218C208.661 465.271 209.345 467.574 209.474 469.941C209.474 472.475 208.438 474.119 206.843 474.643H206.745C206.582 474.691 206.415 474.728 206.246 474.752H206.136L193.518 477.505C192.749 477.633 191.961 477.463 191.313 477.03C190.177 476.292 189.23 475.297 188.551 474.124C187.871 472.952 187.478 471.635 187.403 470.282C187.363 469.556 187.574 468.838 188 468.248Z" fill="#E0E0E0"/>
<path d="M299.629 406.082L299.861 405.948C300.124 405.859 300.405 405.834 300.68 405.874C300.955 405.914 301.217 406.019 301.444 406.179C302.152 406.638 302.742 407.258 303.166 407.989C303.589 408.719 303.834 409.539 303.88 410.381C303.902 410.653 303.862 410.925 303.763 411.178C303.663 411.432 303.508 411.659 303.308 411.843L303.003 412.014L199.266 471.903L192.445 467.956L299.629 406.082Z" fill="#455A64"/>
<path d="M208.889 466.324L199.254 471.89L192.434 467.944L205.478 460.404C207.015 462.118 208.177 464.135 208.889 466.324Z" fill="#37474F"/>
<path d="M184.564 472.792L192.444 464.059L192.651 463.828C193.528 462.951 194.941 462.878 196.549 463.828C197.963 464.737 199.142 465.968 199.989 467.42C200.835 468.873 201.326 470.505 201.421 472.183C201.421 473.962 200.702 475.119 199.582 475.496H199.509L199.192 475.57L187.572 478.127C187.148 478.181 186.717 478.086 186.354 477.859C185.716 477.44 185.184 476.877 184.803 476.215C184.423 475.552 184.203 474.81 184.162 474.047C184.125 473.592 184.27 473.141 184.564 472.792Z" fill="#005656"/>
<path opacity="0.1" d="M184.564 472.792L192.444 464.059L192.651 463.828C193.528 462.951 194.941 462.878 196.549 463.828C197.963 464.737 199.142 465.968 199.989 467.42C200.835 468.873 201.326 470.505 201.421 472.183C201.421 473.962 200.702 475.119 199.582 475.496H199.509L199.192 475.57L187.572 478.127C187.148 478.181 186.717 478.086 186.354 477.859C185.716 477.44 185.184 476.877 184.803 476.215C184.423 475.552 184.203 474.81 184.162 474.047C184.125 473.592 184.27 473.141 184.564 472.792Z" fill="black"/>
<path d="M184.126 474.046C184.167 474.809 184.386 475.552 184.767 476.214C185.148 476.876 185.679 477.44 186.318 477.859C186.68 478.089 187.112 478.18 187.536 478.114L193.382 476.836C194.308 476.641 194.917 475.776 194.917 474.4C194.853 473.18 194.502 471.993 193.892 470.935C193.283 469.876 192.432 468.977 191.409 468.31C191.01 467.99 190.514 467.816 190.002 467.816C189.491 467.816 188.995 467.99 188.596 468.31L188.437 468.48L184.515 472.792C184.37 472.964 184.26 473.164 184.193 473.379C184.126 473.595 184.103 473.822 184.126 474.046Z" fill="#005656"/>
<path opacity="0.1" d="M186.356 472.779C185.138 472.085 184.164 472.645 184.164 473.997C184.205 474.76 184.425 475.503 184.806 476.165C185.186 476.827 185.718 477.391 186.356 477.81C187.574 478.504 188.549 477.931 188.549 476.531C188.499 475.778 188.274 475.048 187.894 474.397C187.514 473.746 186.987 473.192 186.356 472.779Z" fill="black"/>
<path d="M325.414 391.162C325.689 391.034 325.994 390.982 326.296 391.012C326.598 391.042 326.887 391.153 327.131 391.333C327.837 391.789 328.425 392.405 328.849 393.13C329.272 393.856 329.518 394.672 329.567 395.51C329.601 395.81 329.554 396.113 329.429 396.387C329.305 396.662 329.108 396.898 328.861 397.069L303.283 411.807C303.483 411.623 303.639 411.396 303.738 411.143C303.837 410.889 303.877 410.617 303.855 410.346C303.809 409.503 303.564 408.683 303.141 407.953C302.717 407.223 302.128 406.603 301.419 406.144C301.192 405.983 300.931 405.878 300.655 405.838C300.38 405.798 300.099 405.823 299.836 405.912L325.414 391.162Z" fill="#FAFAFA"/>
<path d="M324.707 392.72C324.756 393.561 325.002 394.378 325.425 395.106C325.848 395.834 326.437 396.452 327.143 396.91C327.373 397.122 327.665 397.255 327.977 397.289C328.288 397.324 328.602 397.258 328.873 397.102C329.145 396.946 329.359 396.707 329.486 396.421C329.613 396.135 329.645 395.816 329.579 395.51C329.529 394.671 329.283 393.856 328.86 393.13C328.437 392.404 327.848 391.788 327.143 391.332C326.912 391.122 326.622 390.991 326.312 390.956C326.003 390.922 325.69 390.986 325.42 391.141C325.149 391.295 324.934 391.531 324.806 391.815C324.678 392.098 324.643 392.416 324.707 392.72Z" fill="#F5F5F5"/>
<path d="M330.082 382.453H330.167L330.264 382.392L340.337 376.583L340.581 376.449C341.264 376.183 342.003 376.091 342.73 376.183C343.457 376.274 344.15 376.546 344.746 376.972C346.526 378.141 348.005 379.713 349.063 381.561C350.121 383.408 350.729 385.479 350.836 387.606C350.918 388.373 350.793 389.148 350.473 389.85C350.154 390.553 349.653 391.157 349.022 391.601L338.827 397.483H338.766C338.074 397.774 337.319 397.882 336.573 397.799C335.827 397.716 335.114 397.444 334.503 397.008C332.725 395.835 331.247 394.261 330.189 392.412C329.131 390.563 328.523 388.491 328.413 386.363C328.338 385.624 328.452 384.877 328.744 384.193C329.035 383.509 329.496 382.911 330.082 382.453Z" fill="#005656"/>
<path opacity="0.05" d="M330.082 382.453H330.167L330.264 382.392L340.337 376.583L340.581 376.449C341.264 376.183 342.003 376.091 342.73 376.183C343.457 376.274 344.15 376.546 344.746 376.972C346.526 378.141 348.005 379.713 349.063 381.561C350.121 383.408 350.729 385.479 350.836 387.606C350.918 388.373 350.793 389.148 350.473 389.85C350.154 390.553 349.653 391.157 349.022 391.601L338.827 397.483H338.766C338.074 397.774 337.319 397.882 336.573 397.799C335.827 397.716 335.114 397.444 334.503 397.008C332.725 395.835 331.247 394.261 330.189 392.412C329.131 390.563 328.523 388.491 328.413 386.363C328.338 385.624 328.452 384.877 328.744 384.193C329.035 383.509 329.496 382.911 330.082 382.453Z" fill="black"/>
<path opacity="0.1" d="M334.574 382.734C331.188 380.773 328.484 382.368 328.484 386.278C328.594 388.405 329.203 390.477 330.261 392.326C331.318 394.176 332.796 395.75 334.574 396.923C337.973 398.884 340.725 397.289 340.725 393.379C340.61 391.246 339.992 389.17 338.923 387.32C337.855 385.471 336.365 383.899 334.574 382.734Z" fill="black"/>
<path d="M181.337 476.458L185.502 473.949C185.63 473.88 185.775 473.849 185.919 473.86C186.064 473.87 186.203 473.923 186.318 474.01C186.65 474.22 186.926 474.506 187.124 474.846C187.321 475.185 187.433 475.567 187.451 475.959C187.463 476.099 187.438 476.239 187.381 476.367C187.323 476.495 187.234 476.606 187.122 476.69L182.969 479.199C182.729 479.326 182.461 479.393 182.189 479.394C181.766 479.394 181.36 479.226 181.061 478.926C180.762 478.627 180.594 478.221 180.594 477.798C180.594 477.53 180.662 477.267 180.792 477.032C180.922 476.798 181.11 476.6 181.337 476.458Z" fill="#455A64"/>
<path d="M181.094 476.64L181.313 476.457C181.436 476.42 181.566 476.412 181.693 476.433C181.82 476.454 181.94 476.504 182.044 476.579C182.374 476.79 182.648 477.077 182.843 477.417C183.038 477.756 183.148 478.137 183.165 478.528C183.179 478.665 183.157 478.803 183.102 478.929C183.046 479.055 182.959 479.165 182.848 479.247H182.763H182.677C182.515 479.311 182.341 479.34 182.166 479.332C181.743 479.332 181.337 479.164 181.038 478.864C180.738 478.565 180.57 478.159 180.57 477.736C180.596 477.317 180.784 476.924 181.094 476.64Z" fill="#263238"/>
<path d="M100.691 487.577L96.4399 485.141C95.7323 484.681 95.143 484.061 94.7198 483.331C94.2966 482.601 94.0513 481.781 94.0039 480.939V166C94.0504 165.158 94.2952 164.338 94.7185 163.607C95.1418 162.877 95.7316 162.257 96.4399 161.798L291.807 48.9992C292.561 48.6133 293.396 48.4121 294.243 48.4121C295.09 48.4121 295.925 48.6133 296.679 48.9992L300.93 51.4352C301.638 51.8951 302.227 52.5151 302.65 53.2452C303.073 53.9753 303.319 54.7948 303.366 55.6373V370.576C303.32 371.419 303.076 372.239 302.653 372.969C302.229 373.7 301.639 374.319 300.93 374.778L105.538 487.577C104.788 487.96 103.957 488.161 103.115 488.161C102.272 488.161 101.441 487.96 100.691 487.577Z" fill="#005656"/>
<path opacity="0.4" d="M303.281 55.2608C303.123 54.0428 302.063 53.5435 300.845 54.2499L105.539 167.049C104.826 167.499 104.236 168.118 103.822 168.852L94.7109 163.602C95.1258 162.868 95.7158 162.249 96.4283 161.799L291.808 49.0003C292.561 48.6125 293.396 48.4102 294.244 48.4102C295.091 48.4102 295.926 48.6125 296.68 49.0003L300.943 51.4363C301.584 51.8689 302.124 52.4344 302.528 53.0942C302.931 53.7541 303.188 54.493 303.281 55.2608Z" fill="white"/>
<path opacity="0.15" d="M105.11 487.772C105.062 487.781 105.012 487.781 104.964 487.772L104.72 487.857H104.623C104.477 487.857 104.331 487.93 104.172 487.967C103.207 488.149 102.21 488.069 101.286 487.735C101.102 487.666 100.923 487.585 100.75 487.492L96.4868 485.056C95.7812 484.594 95.1934 483.973 94.7705 483.243C94.3475 482.514 94.101 481.695 94.0508 480.853V166C94.0786 165.142 94.3215 164.304 94.7572 163.564L103.868 168.814C103.417 169.548 103.169 170.389 103.149 171.25V486.188C103.123 486.646 103.256 487.098 103.527 487.467C103.677 487.656 103.88 487.797 104.109 487.87C104.339 487.944 104.586 487.948 104.818 487.881C104.919 487.854 105.017 487.818 105.11 487.772Z" fill="black"/>
<path d="M242.308 106.988L241.955 106.769L237.923 104.455C236.457 103.637 234.863 103.073 233.209 102.786C232.515 102.628 231.894 102.445 231.346 102.263C230.738 102.063 230.143 101.823 229.568 101.544L229.86 101.166L225.329 98.5232C224.947 98.3099 224.537 98.1501 224.111 98.0482C222.394 97.6219 219.824 98.6207 217.266 98.3284C216.335 98.2374 215.435 97.9425 214.631 97.4646C213.827 96.9868 213.138 96.3377 212.613 95.5635C211.054 93.4685 210.116 89.8024 208.74 86.7574L209.958 84.9913C209.836 84.9151 209.71 84.8459 209.58 84.7842L205.403 82.3482C204.698 81.9331 203.894 81.7144 203.076 81.7148C201.515 81.7972 200.003 82.2887 198.691 83.1399C188.692 88.9254 188.351 102.628 184.745 111.665C181.14 120.703 176.037 123.517 173.26 127.402C170.482 131.287 170.288 134.162 164.137 142.639C157.986 151.116 157.742 153.187 157.742 154.819V167.45L162.298 170.081L244.171 122.786L242.308 106.988ZM167.23 155.708C166.171 156.305 165.294 155.489 165.294 153.845C165.284 153.058 165.453 152.28 165.788 151.569C166.124 150.858 166.617 150.232 167.23 149.74C168.29 149.131 169.155 149.972 169.155 151.616C169.164 152.396 168.995 153.167 168.662 153.872C168.328 154.577 167.839 155.196 167.23 155.684V155.708ZM203.198 120.252C202.682 120.629 202.085 120.88 201.455 120.986C200.825 121.092 200.179 121.05 199.569 120.863C198.958 120.677 198.399 120.35 197.936 119.91C197.473 119.47 197.118 118.929 196.901 118.328C193.722 118.937 191.359 115.892 191.359 110.606C191.359 104.394 194.635 97.488 198.667 95.1494C199.184 94.7732 199.781 94.5225 200.412 94.4173C201.042 94.312 201.689 94.355 202.3 94.543C202.911 94.7309 203.47 95.0585 203.932 95.4999C204.395 95.9413 204.748 96.4844 204.964 97.086C208.143 96.4526 210.494 99.522 210.494 104.796C210.494 110.983 207.242 117.889 203.198 120.228V120.252ZM230.396 119.229C229.324 119.85 228.459 119.022 228.459 117.378C228.44 116.59 228.605 115.809 228.941 115.096C229.277 114.383 229.775 113.759 230.396 113.273C231.468 112.652 232.333 113.48 232.333 115.125C232.347 115.908 232.18 116.684 231.844 117.392C231.508 118.1 231.012 118.721 230.396 119.205V119.229Z" fill="#455A64"/>
<path opacity="0.5" d="M166.864 157.938L158.058 152.859C157.858 153.493 157.759 154.155 157.766 154.82V167.451L162.321 170.082L166.864 167.451V157.938Z" fill="#37474F"/>
<path opacity="0.5" d="M175.915 142.178L180.47 131.666L173.235 127.428C171.116 130.363 170.495 132.738 167.645 137.403L175.915 142.178Z" fill="#37474F"/>
<path opacity="0.5" d="M194.122 121.167L194.707 118.097C192.697 117.257 191.358 114.541 191.358 110.582C191.358 105.308 193.72 99.5471 196.899 96.4899L190.59 92.8359C187.911 98.9259 186.936 106.234 184.719 111.678C184.257 112.896 183.757 113.907 183.258 114.882L194.122 121.167Z" fill="#37474F"/>
<path d="M242.308 106.99L241.955 106.77C240.614 106.148 239.203 105.69 237.753 105.406C235.372 104.988 233.154 103.917 231.346 102.313C230.888 101.899 230.391 101.532 229.86 101.216C229.482 100.992 229.071 100.827 228.642 100.729C225.89 100.059 220.871 103.068 217.266 98.3906C217.223 98.3472 217.186 98.298 217.157 98.2444C214.635 94.8584 213.71 87.2824 209.934 85.0535C209.812 84.9773 209.686 84.9081 209.556 84.8464C207.997 84.1156 205.975 84.2496 203.198 85.833C193.198 91.6185 192.857 105.321 189.252 114.359C185.647 123.396 180.556 126.21 177.779 130.095C175.002 133.981 174.819 136.855 168.656 145.332C162.493 153.81 162.273 155.892 162.273 157.512V170.155L244.147 122.86V110.169C244.209 109.513 244.065 108.855 243.736 108.285C243.406 107.716 242.907 107.263 242.308 106.99ZM171.737 158.341C170.665 158.962 169.801 158.133 169.801 156.477C169.786 155.692 169.953 154.914 170.289 154.204C170.625 153.494 171.121 152.871 171.737 152.385C172.809 151.763 173.662 152.604 173.662 154.248C173.678 155.032 173.513 155.81 173.179 156.52C172.845 157.23 172.352 157.853 171.737 158.341ZM203.162 120.266C202.646 120.642 202.049 120.893 201.419 121C200.789 121.106 200.143 121.064 199.532 120.877C198.921 120.69 198.362 120.364 197.899 119.924C197.436 119.484 197.082 118.942 196.865 118.341C196.15 116.738 195.808 114.993 195.866 113.238C195.866 107.038 199.13 100.12 203.174 97.7937C203.72 97.4665 204.317 97.2319 204.94 97.0995C208.119 96.4661 210.47 99.5355 210.47 104.809C210.494 110.985 207.242 117.891 203.198 120.229L203.162 120.266ZM234.939 121.801C233.867 122.422 233.003 121.593 233.003 119.961C232.985 119.176 233.151 118.397 233.487 117.686C233.823 116.976 234.321 116.353 234.939 115.869C235.999 115.248 236.864 116.076 236.864 117.72C236.879 118.503 236.713 119.278 236.379 119.986C236.046 120.694 235.553 121.315 234.939 121.801Z" fill="#37474F"/>
<path d="M210.492 104.748C210.492 110.959 207.24 117.865 203.184 120.204C202.668 120.58 202.071 120.832 201.441 120.938C200.811 121.044 200.165 121.002 199.554 120.815C198.944 120.628 198.384 120.302 197.921 119.862C197.458 119.422 197.104 118.88 196.887 118.28C197.508 118.142 198.104 117.908 198.653 117.585C202.684 115.247 205.961 108.341 205.961 102.129C206.014 100.378 205.672 98.6384 204.962 97.0377C208.141 96.4287 210.492 99.4859 210.492 104.748Z" fill="#263238"/>
<path d="M171.738 158.341C170.666 158.95 169.802 158.122 169.802 156.49C169.787 155.703 169.954 154.923 170.29 154.211C170.626 153.499 171.121 152.874 171.738 152.385C172.798 151.764 173.663 152.616 173.663 154.249C173.676 155.032 173.51 155.809 173.176 156.518C172.842 157.228 172.351 157.851 171.738 158.341Z" fill="#263238"/>
<path d="M234.938 121.801C233.866 122.41 233.001 121.594 233.001 119.95C232.986 119.162 233.153 118.383 233.489 117.671C233.825 116.959 234.321 116.334 234.938 115.845C235.997 115.236 236.862 116.076 236.862 117.721C236.874 118.503 236.707 119.277 236.374 119.984C236.04 120.692 235.549 121.313 234.938 121.801Z" fill="#263238"/>
<path d="M118.219 196.513L288.228 98.3546C288.679 98.1266 289.178 98.0078 289.683 98.0078C290.189 98.0078 290.688 98.1266 291.139 98.3546L292.783 99.3047C293.206 99.5815 293.557 99.954 293.809 100.392C294.061 100.83 294.206 101.321 294.233 101.826V361.187C294.208 361.692 294.064 362.184 293.812 362.622C293.56 363.061 293.207 363.433 292.783 363.708L122.775 461.867C122.323 462.095 121.825 462.214 121.319 462.214C120.814 462.214 120.315 462.095 119.864 461.867L118.219 460.917C117.794 460.642 117.439 460.27 117.185 459.832C116.931 459.394 116.785 458.901 116.758 458.395V199.035C116.787 198.529 116.934 198.038 117.188 197.6C117.442 197.162 117.795 196.789 118.219 196.513Z" fill="#F5F5F5"/>
<path d="M294.183 101.387C294.001 100.791 293.44 100.596 292.783 100.986L122.774 199.144C122.336 199.404 121.978 199.779 121.739 200.228L117.184 197.609C117.43 197.162 117.786 196.784 118.219 196.513L288.227 98.3546C288.679 98.1266 289.177 98.0078 289.683 98.0078C290.188 98.0078 290.687 98.1266 291.138 98.3546L292.783 99.3047C293.143 99.5407 293.453 99.8466 293.694 100.204C293.934 100.562 294.101 100.964 294.183 101.387Z" fill="#FAFAFA"/>
<path d="M122.421 462.025C122.247 462.088 122.067 462.137 121.885 462.171H121.605C121.309 462.202 121.011 462.202 120.716 462.171C120.534 462.135 120.355 462.086 120.18 462.025L119.851 461.867L118.219 460.929C117.797 460.651 117.446 460.279 117.194 459.841C116.942 459.403 116.797 458.912 116.77 458.408V199.034C116.778 198.531 116.921 198.039 117.184 197.609L121.739 200.228C121.48 200.664 121.333 201.158 121.313 201.665V461.026C121.313 461.818 121.8 462.208 122.421 462.025Z" fill="#E0E0E0"/>
<path d="M255.936 135.088L251.405 132.469C250.694 132.12 249.908 131.95 249.117 131.974C248.325 131.997 247.551 132.213 246.862 132.603C241.576 134.929 239.286 135.989 236.557 137.134L234.584 137.926C233.512 138.352 231.381 137.987 232.039 134.272L239.066 115.356H238.957L234.511 112.786C234.286 112.644 234.032 112.553 233.768 112.518C233.634 112.518 233.464 112.518 233.281 112.518C230.406 112.445 229.627 93.8949 229.566 93.3225L229.359 93.2129L224.962 90.6794C224.198 90.246 223.331 90.0271 222.453 90.0461C220.983 90.1138 219.551 90.5314 218.275 91.2641C211.369 94.9181 204.39 105.649 202.685 115.307C201.613 121.397 195.486 130.776 191.942 134.235C188.398 137.694 188.154 140.569 188.154 140.569L185.401 156.183L184.512 161.189C183.867 164.917 180.042 168.497 180.042 168.497L165.779 179.045C156.851 186.451 154.33 193.941 152.625 203.198V203.271C152.625 203.6 152.625 203.819 152.783 203.905C152.807 203.92 152.834 203.928 152.863 203.928C152.891 203.928 152.918 203.92 152.942 203.905L154.769 202.869L252.891 146.281C253.122 146.124 253.319 145.922 253.472 145.688C253.624 145.454 253.729 145.192 253.78 144.917C254.34 141.543 255.972 135.173 255.972 135.173L255.936 135.088ZM227.569 106.428C226.509 112.36 222.234 118.986 217.983 121.215C215.048 122.749 212.904 121.799 212.185 119.095C211.658 119.302 211.086 119.372 210.524 119.3C209.962 119.227 209.428 119.015 208.97 118.681C207.606 117.609 220.102 96.1482 221.15 96.6233C221.637 96.8799 222.059 97.2432 222.386 97.6861C222.713 98.129 222.936 98.64 223.038 99.1811C226.545 98.1214 228.506 101.093 227.569 106.428Z" fill="#455A64"/>
<path opacity="0.5" d="M166.865 189.473L159.716 185.344C155.575 190.8 153.906 196.537 152.676 203.2V203.273C152.676 203.602 152.676 203.821 152.834 203.906C152.858 203.921 152.885 203.929 152.913 203.929C152.941 203.929 152.969 203.921 152.992 203.906L158.632 199.448L166.865 189.473Z" fill="#37474F"/>
<path opacity="0.5" d="M184.039 162.64L194.124 168.45L198.667 142.177L189.581 136.928C188.858 137.967 188.371 139.152 188.156 140.399L185.403 156.014L184.514 161.02C184.414 161.575 184.255 162.118 184.039 162.64Z" fill="#37474F"/>
<path opacity="0.5" d="M207.46 102.592C205.162 106.469 203.547 110.713 202.685 115.137C201.961 118.273 200.762 121.28 199.129 124.053L207.765 129.047L212.064 119.12C211.552 119.305 211.002 119.362 210.463 119.285C209.923 119.209 209.411 119.002 208.97 118.682C208.264 118.121 211.236 112.19 214.415 106.611L207.46 102.592Z" fill="#37474F"/>
<path d="M255.998 135.125H255.938C255.225 134.788 254.442 134.626 253.654 134.651C252.867 134.676 252.096 134.889 251.407 135.271C244.927 138.133 242.966 139.071 239.117 140.594C238.094 141.008 236.011 140.679 236.559 137.171C236.553 137.09 236.553 137.008 236.559 136.927L237.448 131.934L239.884 118.329C239.884 118.329 240.445 116.185 239.032 115.381H238.922C238.567 115.217 238.18 115.134 237.789 115.137C236.962 115.038 236.167 114.753 235.465 114.304C234.763 113.854 234.171 113.253 233.733 112.543C232.974 111.412 232.449 110.142 232.187 108.805C231.926 107.469 231.934 106.093 232.211 104.76C233.246 98.9258 232.113 94.8333 229.531 93.3108L229.324 93.189C227.656 92.2999 225.414 92.446 222.796 93.8224C215.878 97.4764 208.898 108.207 207.205 117.866C206.121 123.956 199.995 133.346 196.45 136.793C192.906 140.24 192.675 143.127 192.675 143.127L190.007 158.656L189.13 163.65C188.473 167.377 184.648 170.958 184.648 170.958L170.397 181.652C164.71 186.179 160.604 192.392 158.668 199.399C158.668 199.399 153.321 203.552 152.992 203.881L154.819 202.846L253.221 146.282C253.221 146.282 254.342 145.66 254.598 145.502C254.854 145.344 258.812 141.605 258.812 141.605C258.593 138.413 257.643 136.111 255.998 135.125ZM227.57 106.429C226.511 112.36 222.235 118.986 217.985 121.215C215.049 122.75 212.906 121.8 212.187 119.096C211.866 117.578 211.866 116.01 212.187 114.492C213.247 108.548 217.534 101.934 221.785 99.7175C222.174 99.5038 222.582 99.3245 223.003 99.1816C226.547 98.1219 228.508 101.094 227.57 106.429Z" fill="#37474F"/>
<path d="M227.571 106.429C226.511 112.36 222.236 118.986 217.985 121.215C215.05 122.75 212.906 121.8 212.188 119.096C212.606 118.958 213.014 118.787 213.406 118.584C217.669 116.355 221.931 109.729 222.991 103.786C223.311 102.268 223.311 100.7 222.991 99.1816C226.548 98.1219 228.509 101.094 227.571 106.429Z" fill="#263238"/>
<path d="M223.465 99.4367C223.863 99.4127 224.261 99.4921 224.619 99.667C224.978 99.842 225.285 100.107 225.511 100.436C227.277 102.945 225.584 109.327 224.853 111.398C223.842 114.235 217.241 120.91 215.426 120.91C214.825 120.811 214.25 120.59 213.737 120.261C213.224 119.933 212.783 119.503 212.442 118.998C212.142 117.535 212.142 116.027 212.442 114.564C213.477 108.694 217.716 102.165 221.893 99.9483C222.265 99.752 222.652 99.585 223.05 99.4489H223.452M223.452 99.1688H223.002C222.581 99.3117 222.173 99.491 221.784 99.7047C217.533 101.921 213.258 108.535 212.186 114.479C211.865 115.997 211.865 117.565 212.186 119.083C212.553 119.632 213.029 120.099 213.584 120.455C214.139 120.811 214.762 121.049 215.414 121.154C217.387 121.154 224.025 114.418 225.085 111.41C226.144 108.401 228.446 99.0957 223.428 99.0957L223.452 99.1688Z" fill="#263238"/>
<path d="M152.941 203.917L253.158 146.306L254.547 145.539C254.79 145.393 258.749 141.629 258.749 141.629L158.605 199.435C158.605 199.435 152.539 204.137 152.941 203.917Z" fill="#263238"/>
<path d="M139.508 244.319V246.597C139.508 247.815 140.385 248.338 141.457 247.717L274.048 171.154C274.613 170.785 275.084 170.289 275.423 169.705C275.761 169.121 275.958 168.466 275.997 167.792V165.502C275.997 164.284 275.12 163.761 274.048 164.382L141.457 240.957C140.891 241.325 140.419 241.821 140.081 242.405C139.742 242.99 139.546 243.645 139.508 244.319Z" fill="#E0E0E0"/>
<path d="M139.508 258.093V260.371C139.508 261.589 140.385 262.113 141.457 261.492L274.048 184.916C274.614 184.548 275.085 184.052 275.424 183.468C275.762 182.884 275.959 182.228 275.997 181.554V179.265C275.997 178.047 275.12 177.535 274.048 178.144L141.457 254.732C140.891 255.1 140.419 255.596 140.081 256.18C139.742 256.764 139.546 257.419 139.508 258.093Z" fill="#E0E0E0"/>
<path d="M139.508 271.784V274.049C139.508 275.267 140.385 275.791 141.457 275.17L274.048 198.619C274.613 198.25 275.084 197.754 275.423 197.17C275.761 196.586 275.958 195.931 275.997 195.257V192.967C275.997 191.749 275.12 191.225 274.048 191.847L141.457 268.422C140.891 268.79 140.419 269.286 140.081 269.87C139.742 270.454 139.546 271.11 139.508 271.784Z" fill="#E0E0E0"/>
<path d="M139.508 302.125V304.403C139.508 305.621 140.385 306.145 141.457 305.524L274.048 228.984C274.614 228.616 275.085 228.12 275.424 227.536C275.762 226.952 275.959 226.297 275.997 225.623V223.333C275.997 222.115 275.12 221.603 274.048 222.212L141.457 298.764C140.891 299.132 140.419 299.628 140.081 300.212C139.742 300.796 139.546 301.451 139.508 302.125Z" fill="#E0E0E0"/>
<path d="M139.508 315.889V318.179C139.508 319.397 140.385 319.909 141.457 319.3L274.048 242.724C274.614 242.356 275.085 241.86 275.424 241.276C275.762 240.692 275.959 240.036 275.997 239.362V237.073C275.997 235.855 275.12 235.331 274.048 235.952L141.457 312.528C140.891 312.896 140.421 313.393 140.082 313.977C139.744 314.56 139.547 315.216 139.508 315.889Z" fill="#E0E0E0"/>
<path d="M139.508 329.592V331.869C139.508 333.087 140.385 333.611 141.457 332.99L274.048 256.414C274.614 256.046 275.085 255.55 275.424 254.966C275.762 254.382 275.959 253.726 275.997 253.052V250.763C275.997 249.545 275.12 249.033 274.048 249.642L141.457 326.23C140.891 326.598 140.419 327.094 140.081 327.678C139.742 328.262 139.546 328.918 139.508 329.592Z" fill="#E0E0E0"/>
<path d="M139.508 359.919V362.209C139.508 363.427 140.385 363.938 141.457 363.329L274.048 286.753C274.614 286.385 275.085 285.889 275.424 285.305C275.762 284.721 275.959 284.066 275.997 283.392V281.102C275.997 279.884 275.12 279.36 274.048 279.981L141.457 356.557C140.891 356.926 140.421 357.422 140.082 358.006C139.744 358.59 139.547 359.245 139.508 359.919Z" fill="#E0E0E0"/>
<path d="M139.508 373.694V375.972C139.508 377.19 140.385 377.713 141.457 377.092L274.048 300.517C274.614 300.151 275.085 299.657 275.424 299.075C275.762 298.493 275.959 297.839 275.997 297.167V294.877C275.997 293.659 275.12 293.136 274.048 293.757L141.457 370.332C140.891 370.7 140.419 371.196 140.081 371.781C139.742 372.365 139.546 373.02 139.508 373.694Z" fill="#E0E0E0"/>
<path d="M139.508 387.385V389.674C139.508 390.892 140.385 391.404 141.457 390.795L274.048 314.244C274.614 313.876 275.085 313.38 275.424 312.796C275.762 312.211 275.959 311.556 275.997 310.882V308.592C275.997 307.374 275.12 306.85 274.048 307.472L141.457 384.023C140.891 384.392 140.421 384.888 140.082 385.472C139.744 386.056 139.547 386.711 139.508 387.385Z" fill="#E0E0E0"/>
<path d="M207.766 389.225L276.035 349.822V351.138L207.766 390.54V389.225Z" fill="#E0E0E0"/>
<path d="M223.647 368.761C226.485 366.861 229.651 363.658 229.14 359.87C228.835 357.568 226.96 356.678 224.84 357.495C220.687 359.09 218.068 365.338 216.619 369.114C215.401 372.415 213.732 378.639 218.689 379.699C224.499 380.917 228.994 372.391 230.309 367.957C230.492 367.336 229.481 366.995 229.189 367.555C228.677 368.566 225.254 375.241 229.018 374.4C230.358 374.108 231.125 372.025 231.612 370.966C232.465 369.066 232.891 366.422 234.231 364.79L233.245 364.34C233.305 366.094 233.245 367.287 234.463 368.651C234.555 368.778 234.694 368.863 234.849 368.888C235.004 368.914 235.163 368.877 235.291 368.785C237.215 366.995 237.349 364.084 239.469 362.464L238.604 362.05C238.604 362.61 238.348 364.206 238.311 364.949C238.311 365.302 238.786 365.533 239.067 365.424C239.342 365.367 239.598 365.241 239.811 365.057C240.024 364.874 240.187 364.64 240.285 364.376L239.359 364.035C240.163 368.335 243.829 364.035 245.083 362.403C248.737 357.531 251.344 352.306 251.441 346.07C251.441 345.57 250.504 345.315 250.491 345.911C250.406 350.71 248.311 355.107 246.959 359.638C245.51 364.51 244.304 369.492 243.305 374.51L244.17 374.827C244.445 371.276 245.352 367.803 246.85 364.571C247.794 361.693 249.371 359.062 251.466 356.873L250.662 356.569C250.874 357.821 250.81 359.105 250.473 360.329C250.137 361.554 249.536 362.69 248.713 363.658C248.457 363.986 249.03 364.608 249.286 364.279C250.625 362.598 252.83 362.062 254.267 360.43C255.618 358.596 256.819 356.658 257.86 354.632L257.203 354.303C257.117 358.396 260.978 352.014 261.502 351.331L260.869 351.088C261.125 351.928 261.466 352.489 262.416 352.501C264.304 352.501 265.01 349.748 266.435 349.431C266.435 349.431 267.056 349.955 267.275 349.979C268.061 350.095 268.862 349.945 269.553 349.553C271.146 348.523 272.433 347.085 273.28 345.388C273.499 344.998 272.756 344.511 272.513 344.937C271.575 346.52 268.652 350.722 266.532 348.664C266.398 348.542 266.118 348.42 265.972 348.591C265.4 349.297 262.123 353.049 261.514 351.027C261.441 350.783 261.088 350.515 260.893 350.783C260.394 351.441 259.992 352.172 259.529 352.866C259.273 353.244 257.848 355.643 257.897 354.425C257.897 354.133 257.446 353.792 257.239 354.096C255.912 356.13 254.937 358.798 253.086 360.454C251.709 361.672 249.907 362.135 248.713 363.609L249.286 364.23C250.206 363.193 250.883 361.964 251.269 360.633C251.654 359.301 251.738 357.9 251.515 356.532C251.497 356.449 251.458 356.371 251.402 356.306C251.347 356.241 251.275 356.191 251.196 356.161C251.116 356.131 251.029 356.121 250.945 356.133C250.86 356.144 250.779 356.177 250.711 356.228C248.433 358.323 247.154 361.27 246.021 364.096C244.502 367.395 243.578 370.937 243.293 374.559C243.293 374.936 244.06 375.363 244.158 374.875C245.187 369.46 246.525 364.109 248.165 358.846C249.505 354.608 251.32 350.528 251.405 346.021L250.455 345.863C250.365 350.529 248.894 355.064 246.228 358.895C245.546 359.955 244.828 361.015 244.048 362.013C243.707 362.464 240.687 366.41 240.297 364.12C240.236 363.792 239.59 363.329 239.371 363.779L238.494 364.559L239.249 365.022C239.31 364.035 239.505 363.109 239.554 362.111C239.554 361.733 238.969 361.49 238.689 361.709C236.533 363.353 236.375 366.264 234.438 368.055L235.266 368.189C234.609 367.087 234.287 365.817 234.341 364.535C234.341 364.108 233.683 363.694 233.354 364.084C231.868 365.862 231.405 368.7 230.431 370.771C229.895 371.903 227.995 374.924 228.604 371.709C229.007 370.376 229.585 369.102 230.321 367.921L229.201 367.519C228.056 371.392 224.999 377.263 220.821 378.481C215.486 380.076 216.412 373.463 217.386 370.515C218.546 367.081 220.266 363.862 222.477 360.99C222.883 360.418 223.344 359.888 223.854 359.407C224.938 358.432 225.254 358.189 226.765 359.054C228.275 359.918 228.348 360.393 227.983 362.025C227.759 362.836 227.423 363.611 226.984 364.327C226.019 365.799 224.808 367.093 223.403 368.152C223.208 368.31 223.488 368.834 223.708 368.676L223.647 368.761Z" fill="#455A64"/>
<path d="M387.325 292.783C382.916 291.736 378.056 294.878 375.218 301.796C372.38 308.715 366.692 326.4 365.474 331.028C364.938 333.099 380.675 351.442 380.09 351.174C379.92 351.089 385.218 342.222 385.218 342.222L377.581 330.468L382.453 317.716L387.325 292.783Z" fill="#B16668"/>
<path d="M377.12 456.969C376.523 457.201 376.365 458.333 376.28 460.623C376.207 462.341 375.841 465.325 377.851 465.922C379.861 466.518 382.796 466.214 384.087 464.606C385.641 462.441 387.304 460.355 389.069 458.358C391.054 456.214 393.198 454.229 394.002 451.233C394.733 448.529 394.124 447.359 392.284 446.568C389.739 445.496 385.756 449.004 383.758 449.576C382.065 450.039 377.717 456.75 377.12 456.969Z" fill="#263238"/>
<path d="M377.117 454.874V457.651C378.161 458.319 379.366 458.69 380.604 458.724C381.842 458.758 383.066 458.455 384.145 457.846C384.267 457.578 384.876 453.863 384.876 453.863L377.117 454.874Z" fill="#B16668"/>
<path d="M397.801 471.744C397.319 473.233 396.913 474.745 396.583 476.275C396.23 477.956 395.742 480.77 396.339 482.024C396.936 483.279 399.214 484.107 402.783 484.082C405.085 484.082 408.678 485.629 411.138 487.006C413.611 488.218 416.406 488.607 419.116 488.114C422.283 487.736 425.571 485.897 426.083 484.594C426.594 483.291 425.937 482.645 418.47 479.466C418.397 479.466 410.602 475.91 406.985 471.927L397.801 471.744Z" fill="#263238"/>
<path d="M397.801 468.734C397.801 468.734 397.801 470.793 397.801 471.974C397.801 473.156 399.189 474.91 402.795 474.788C405.328 474.69 407.094 474.008 406.985 471.926V468.929L397.801 468.734Z" fill="#B16668"/>
<path d="M374.376 416.338C374.974 411.46 376.113 406.663 377.775 402.038C377.775 402.038 376.203 389.737 375.339 377.922C373.719 356.741 375.022 349.823 379.188 340.322C379.188 340.322 414.717 336.668 415.801 351.491C417.153 369.883 415.362 405.424 414.875 411.916C414.388 418.408 413.779 421.344 411.489 434.912C409.735 445.241 407.031 468.931 407.031 468.931C405.602 469.656 404.017 470.018 402.415 469.984C400.813 469.95 399.244 469.521 397.847 468.736C397.847 468.736 394.948 439.163 395.253 431.672C395.467 426.13 396.405 420.639 398.042 415.339C398.042 415.339 395.838 385.364 395.204 380.589C395.204 380.589 394.084 390.102 393.596 396.594C393.109 403.086 391.16 409.298 389.309 421.368C387.677 431.831 384.644 455.228 384.644 455.228C379.931 457.786 377.117 454.9 377.117 454.9C377.117 454.9 373.11 425.412 374.376 416.338Z" fill="#005656"/>
<g opacity="0.35">
<path d="M374.376 416.338C374.974 411.46 376.113 406.663 377.775 402.038C377.775 402.038 376.203 389.737 375.339 377.922C373.719 356.741 375.022 349.823 379.188 340.322C379.188 340.322 414.717 336.668 415.801 351.491C417.153 369.883 415.362 405.424 414.875 411.916C414.388 418.408 413.779 421.344 411.489 434.912C409.735 445.241 407.031 468.931 407.031 468.931C405.602 469.656 404.017 470.018 402.415 469.984C400.813 469.95 399.244 469.521 397.847 468.736C397.847 468.736 394.948 439.163 395.253 431.672C395.467 426.13 396.405 420.639 398.042 415.339C398.042 415.339 395.838 385.364 395.204 380.589C395.204 380.589 394.084 390.102 393.596 396.594C393.109 403.086 391.16 409.298 389.309 421.368C387.677 431.831 384.644 455.228 384.644 455.228C379.931 457.786 377.117 454.9 377.117 454.9C377.117 454.9 373.11 425.412 374.376 416.338Z" fill="black"/>
</g>
<path d="M405.485 287.997L403.816 301.724L391.746 300.64L393.122 285.402L405.485 287.997Z" fill="#B16668"/>
<path d="M378.494 299.628C379.821 295.974 384.34 291.991 388.981 292.856L392.391 293.477C392.488 296.644 398.481 298.276 404.401 296.364C406.179 296.875 407.823 297.399 409.273 297.923C413.523 299.445 415.229 306.449 415.363 318.312C415.496 330.176 416.715 359.566 416.715 359.566L411.684 361.161L409.37 352.55L408.432 362.867C402.784 364.184 396.905 364.155 391.27 362.781C378.506 359.992 374.535 353.11 374.535 353.11C376.097 345.144 379.2 337.56 383.67 330.784C377.288 313.769 376.533 305.024 378.494 299.628Z" fill="#EBEBEB"/>
<path d="M414.461 270.554C415.183 268.914 415.478 267.117 415.318 265.333C415.158 263.548 414.549 261.832 413.547 260.347C409.491 253.989 401.684 252.905 392.427 255.39C389.196 256.379 386.349 258.342 384.276 261.011C382.203 263.679 381.004 266.923 380.844 270.298C380.393 277.082 399.333 282.088 398.895 286.741L414.461 270.554Z" fill="#263238"/>
<path d="M414.863 273.137C414.863 273.137 417.433 277.254 417.068 277.68C416.431 278.075 415.731 278.355 414.997 278.508L414.863 273.137Z" fill="#9A4A4D"/>
<path d="M407.031 260.092C409.589 261.505 414.023 264.112 414.924 273.734C415.85 283.6 413.56 286.961 412.184 288.216C411.258 289.068 406.569 289.251 404.157 288.435C401.136 287.4 394.608 283.965 391.648 278.801C388.165 272.711 387.629 264.733 391.916 261.749C394.089 260.215 396.616 259.258 399.26 258.968C401.904 258.679 404.578 259.065 407.031 260.092Z" fill="#B16668"/>
<path d="M407.789 260.519C407.789 260.519 409.811 269.556 406.936 275.135C406.936 275.135 405.45 271.59 402.405 272.516C399.36 273.442 399.518 277.498 401.845 279.629C402.439 280.238 403.194 280.667 404.021 280.865C404.849 281.064 405.716 281.024 406.522 280.75C405.496 283.307 403.958 285.628 402.003 287.57C402.003 287.57 393.002 291.578 385.219 282.784C378.143 274.806 379.458 260.86 390.286 257.608C401.114 254.356 407.789 260.519 407.789 260.519Z" fill="#263238"/>
<path d="M382.125 261.455C382.55 261.821 382.814 262.34 382.857 262.899C382.901 263.459 382.72 264.013 382.356 264.439L379.141 261.674C379.322 261.463 379.542 261.29 379.791 261.164C380.039 261.039 380.31 260.964 380.587 260.943C380.864 260.923 381.143 260.958 381.407 261.045C381.671 261.133 381.915 261.273 382.125 261.455Z" fill="#263238"/>
<path d="M439.859 319.713C441.613 317.716 442.295 313.258 444.61 310.213C446.924 307.168 447.801 304.939 448.726 306.267C449.944 308.033 447.192 311.553 447.801 311.906C448.41 312.259 450.7 316.9 450.931 319.482C451.162 322.064 444.329 328.544 444.329 328.544L439.859 319.713Z" fill="#B16668"/>
<path d="M447.605 311.503C447.605 311.503 455.864 310.797 457.069 311.503C458.275 312.21 457.91 315.791 457.069 317.983C456.229 320.176 452.015 321.637 448.105 324.244C448.105 323.854 447.605 311.503 447.605 311.503Z" fill="#B16668"/>
<path d="M408.251 297.594C411.795 298.812 414.901 300.261 418.214 306.485C422.465 314.487 430.211 330.151 430.211 330.151L439.858 319.713C439.858 319.713 441.258 317.739 443.865 322.051C446.471 326.363 445.326 327.557 445.326 327.557C445.326 327.557 434.109 342.587 432.05 344.499C429.992 346.411 426.606 344.925 424.389 341.917C422.172 338.908 408.251 321.479 408.251 321.479C408.251 321.479 400.638 311.467 408.251 297.594Z" fill="#B16668"/>
<path opacity="0.2" d="M395.206 380.564L394.524 373.39C390.658 372.815 386.961 371.415 383.684 369.285C383.684 369.285 385.998 372.939 392.331 374.669L392.989 383.804L393.379 398.785L395.206 380.564Z" fill="black"/>
<path d="M369.906 295.694C371.551 295.699 373.18 295.379 374.702 294.753C376.223 294.128 377.605 293.208 378.771 292.047C379.936 290.887 380.861 289.507 381.492 287.989C382.124 286.47 382.45 284.842 382.452 283.197V264.208C381.018 263.743 379.495 263.624 378.007 263.86C376.519 264.097 375.107 264.682 373.888 265.568C372.67 266.454 371.678 267.616 370.994 268.959C370.311 270.302 369.954 271.788 369.955 273.295L369.906 295.694Z" fill="#263238"/>
<path d="M415.632 330.748C415.632 330.748 408.701 321.808 406.484 318.215L415.875 338.044L415.632 330.748Z" fill="#E0E0E0"/>
<path d="M476.398 257.327C473.767 265.086 468.152 288.228 468.152 288.228C468.152 288.228 457.446 302.466 454.498 305.182C452.866 306.693 449.176 309.409 449.176 309.409L452.245 311.674C452.245 311.674 457.361 310.115 457.787 312.892C463.121 308.601 468.166 303.962 472.89 299.007C474.082 297.763 474.923 296.224 475.326 294.549L479.894 274.903C479.894 274.903 479.894 259.069 482.33 256.998C484.766 254.928 483.804 250.238 483.804 250.238C482.135 250.287 478.469 251.249 476.398 257.327Z" fill="#FFA8A7"/>
<path d="M483.888 249.459C484.634 251.554 485.538 253.59 486.592 255.549C487.663 257.388 479.466 290.457 478.918 292.917C478.37 295.378 462.475 309.713 462.475 309.713C459.604 308.498 457.322 306.207 456.117 303.331L467.591 288.398C467.591 288.398 471.159 272.735 473.035 265.549C474.911 258.363 476.908 250.239 483.888 249.459Z" fill="#005656"/>
<path opacity="0.1" d="M483.888 249.459C484.634 251.554 485.538 253.59 486.592 255.549C487.663 257.388 479.466 290.457 478.918 292.917C478.37 295.378 462.475 309.713 462.475 309.713C459.604 308.498 457.322 306.207 456.117 303.331L467.591 288.398C467.591 288.398 471.159 272.735 473.035 265.549C474.911 258.363 476.908 250.239 483.888 249.459Z" fill="black"/>
<path d="M517.456 404.863H509.539V418.432H517.456V404.863Z" fill="#FFA8A7"/>
<path d="M485.057 408.153L477.14 408.433L476.75 394.073L485.057 393.805V408.153Z" fill="#FFA8A7"/>
<path d="M516.348 308.045C516.348 315.608 516.871 359.603 516.871 359.603C517.054 361.771 519.149 365.693 519.307 373.488C519.539 384.864 517.785 411.648 517.785 411.648C516.417 412.319 514.918 412.682 513.395 412.711C511.871 412.741 510.36 412.436 508.967 411.818C508.967 411.818 502.743 373.938 501.33 362.672C500.112 352.855 495.812 326.631 495.812 326.631L489.722 359.834C490.641 363.965 490.973 368.205 490.709 372.428C490.331 377.629 485.508 403.706 485.508 403.706C484.128 404.487 482.594 404.955 481.013 405.078C479.432 405.2 477.844 404.973 476.361 404.413C476.361 404.413 475.886 363.476 475.801 358.701C475.691 353.257 478.066 306.4 478.066 306.4L516.348 308.045Z" fill="#37474F"/>
<path d="M509.538 414.522V413.389C509.112 413.389 508.856 413.803 508.685 414.814C508.573 415.569 508.418 416.317 508.222 417.055C507.873 418.442 507.413 419.798 506.846 421.111C505.726 423.876 504.788 424.899 502.218 428.127C501.347 429.021 500.534 429.969 499.782 430.965C499.307 431.817 499.136 434.18 499.952 434.728C502.936 436.726 507.479 436.775 510.695 435.837C511.892 435.501 512.967 434.829 513.794 433.901C514.621 432.973 515.164 431.827 515.36 430.599C515.482 429.869 515.433 429.113 515.518 428.383C515.801 426.711 516.482 425.132 517.504 423.779C518.096 422.997 518.607 422.156 519.026 421.27C519.684 419.65 519.16 417.81 518.734 416.19C518.368 414.79 517.966 413.255 517.516 413.389V414.242C516.387 415.135 514.984 415.608 513.545 415.581C512.339 415.63 509.526 415.399 509.538 414.522Z" fill="#263238"/>
<path d="M477.056 405.984C476.642 405.984 476.313 406.58 475.4 407.567C474.044 408.932 472.472 410.063 470.747 410.916C467.775 412.402 462.014 414.68 459.395 415.862C457.763 416.592 457.849 418.566 459.529 419.686C461.21 420.807 465.291 421.611 470.175 420.526C472.83 419.93 476.265 417.469 478.494 417.603C480.723 417.737 484.791 417.701 486.411 416.58C488.031 415.46 487.385 413.085 486.922 411.038C486.423 408.809 485.802 405.314 485.059 405.472V406.239C484.109 407.689 479.188 408.273 477.105 407.214L477.056 405.984Z" fill="#263238"/>
<path d="M495.825 326.631C491.723 325.364 487.948 323.215 484.766 320.334C484.766 320.334 486.897 324.329 493.292 328.032L490.222 357.568L495.825 326.631Z" fill="#263238"/>
<path d="M502.61 249.994C505.314 250.652 510.746 251.541 511.964 256.912C513.426 263.355 513.901 277.399 513.901 277.399L514.4 308.653C508.944 312.623 488.908 314.743 477.422 306.399C477.422 306.399 478.835 268.885 478.835 263.039C478.835 257.192 482.075 250.177 491.015 249.641L502.61 249.994Z" fill="#F5F5F5"/>
<path d="M491.161 249.057C488.697 251.12 486.914 253.88 486.045 256.974C484.949 261.7 484.827 314.476 484.827 314.476C484.827 314.476 479.224 313.44 476.605 311.382C476.605 311.382 476.934 269.726 477.47 262.832C478.286 252.394 478.201 249.434 491.197 248.277L491.161 249.057Z" fill="#005656"/>
<path d="M504.973 248.277C504.973 248.277 497.506 252.869 497.421 271.151C497.348 286.985 496.824 314.476 496.824 314.476C496.824 314.476 509.187 316.29 517.019 311.613C517.019 311.613 517.957 273.295 517.798 267.363C517.628 260.567 516.044 251.785 513.864 250.908C510.97 249.811 507.998 248.932 504.973 248.277Z" fill="#005656"/>
<path d="M532.743 290.249C525.313 259.872 519.82 249.739 510.819 249.86C508.176 253.003 508.907 262.528 513.072 268.301C513.072 268.301 522.365 287.886 523.839 294.853C525.142 300.943 526.616 308.678 526.531 313.939C526.5 314.87 526.132 315.757 525.496 316.436C523.803 318.276 523.791 319.761 522.694 321.796C521.83 323.379 520.892 323.976 521.16 324.341C521.514 324.718 521.998 324.948 522.514 324.987C523.03 325.025 523.542 324.869 523.949 324.548C524.742 323.971 525.451 323.286 526.056 322.514C525.764 324.462 525.203 326.36 524.387 328.154C522.475 332.453 522.938 334.645 528.748 333.111C532.402 332.149 534.667 329.128 535.203 320.383C535.471 317.166 535.504 313.933 535.301 310.712C534.509 302.429 533.949 295.146 532.743 290.249Z" fill="#FFA8A7"/>
<path d="M509.248 249.361C509.248 249.361 515.229 249.093 518.468 252.369C521.708 255.646 526.081 262.54 530.32 277.606C534.558 292.673 535.861 303.684 536.069 312.161C536.069 312.161 530.758 314.597 525.862 311.82C525.862 311.82 523.694 298.702 521.769 291.723C519.845 284.744 512.671 270.042 512.671 270.042C512.671 270.042 505.813 259.848 509.248 249.361Z" fill="#005656"/>
<path opacity="0.1" d="M509.248 249.361C509.248 249.361 515.229 249.093 518.468 252.369C521.708 255.646 526.081 262.54 530.32 277.606C534.558 292.673 535.861 303.684 536.069 312.161C536.069 312.161 530.758 314.597 525.862 311.82C525.862 311.82 523.694 298.702 521.769 291.723C519.845 284.744 512.671 270.042 512.671 270.042C512.671 270.042 505.813 259.848 509.248 249.361Z" fill="black"/>
<path opacity="0.1" d="M505.813 258.277L502.39 262.504L504.108 267.327L499.613 278.849L505.021 267.327L503.133 262.772L505.813 258.277Z" fill="black"/>
<path opacity="0.1" d="M481.697 256.912L482.44 261.285L479.48 265.146L483.597 278.105L480.406 265.292L483.134 261.687L481.697 256.912Z" fill="black"/>
<path d="M500.55 225.718C501.513 219.782 497.482 214.188 491.546 213.225C485.61 212.261 480.017 216.292 479.053 222.228C478.09 228.164 482.121 233.758 488.057 234.721C493.993 235.685 499.586 231.654 500.55 225.718Z" fill="#263238"/>
<path d="M508.612 231.701C508.612 231.701 506.846 239.996 506.176 241.36C505.702 242.196 504.926 242.819 504.008 243.102L504.13 237.267L508.612 231.701Z" fill="#263238"/>
<path d="M506.395 219.824C507.015 219.755 507.643 219.829 508.23 220.04C508.817 220.251 509.348 220.594 509.781 221.042C511.231 222.528 510.427 227.132 508.563 231.724L505.238 232.102L506.395 219.824Z" fill="#263238"/>
<path d="M504.253 232.09C504.923 232.479 505.873 231.201 506.689 230.348C507.01 229.97 507.423 229.682 507.888 229.51C508.353 229.338 508.855 229.289 509.344 229.367C509.834 229.446 510.295 229.649 510.683 229.957C511.071 230.265 511.374 230.668 511.561 231.127C512.925 234.002 510.343 237.802 508.272 238.435C504.618 239.58 504.082 237.217 504.082 237.217L503.814 250.749C501.293 253.977 495.642 257.777 492.597 257.229C490.161 256.803 489.637 252.698 491.963 250.006V246.036C490.353 246.292 488.719 246.374 487.091 246.279C484.412 245.865 482.731 243.758 481.915 240.859C480.612 236.206 480.112 232.455 481.221 223.296C482.439 213.259 494.107 213.162 500.404 217.12C506.701 221.079 504.253 232.09 504.253 232.09Z" fill="#FFA8A7"/>
<path d="M504.255 233.21C504.596 233.21 505.875 231.103 506.691 230.348C507.836 229.3 506.35 219.824 506.35 219.824C506.748 218.991 506.885 218.057 506.744 217.144C506.602 216.232 506.189 215.383 505.558 214.709C503.987 212.979 501.794 210.86 494.596 211.712C489.505 212.309 483.963 213.893 479.481 211.712C479.066 213.173 479.098 214.725 479.571 216.168C480.044 217.611 480.937 218.88 482.136 219.812C483.972 220.723 485.973 221.254 488.019 221.371C491.955 221.669 495.911 221.595 499.833 221.152C501.051 220.981 501.332 222.175 502.002 225.451C502.684 228.314 503.171 233.186 504.255 233.21Z" fill="#263238"/>
<path d="M506.399 220.568L510.43 218.4C510.301 218.128 510.118 217.885 509.892 217.686C509.667 217.487 509.403 217.336 509.118 217.242C508.832 217.147 508.53 217.111 508.23 217.137C507.931 217.162 507.639 217.248 507.373 217.389C506.838 217.697 506.44 218.196 506.259 218.786C506.078 219.376 506.128 220.013 506.399 220.568Z" fill="#263238"/>
<path d="M491.988 246.036C494.741 245.511 497.44 244.736 500.051 243.722C501.28 243.081 502.287 242.083 502.938 240.859C502.624 242.084 502.065 243.231 501.294 244.233C499.771 246.182 491.988 247.619 491.988 247.619V246.036Z" fill="#F28F8F"/>
<path d="M493.426 230.591C493.426 230.914 493.554 231.224 493.783 231.452C494.011 231.681 494.321 231.809 494.644 231.809C494.967 231.809 495.277 231.681 495.505 231.452C495.733 231.224 495.862 230.914 495.862 230.591C495.862 230.268 495.733 229.958 495.505 229.73C495.277 229.501 494.967 229.373 494.644 229.373C494.321 229.373 494.011 229.501 493.783 229.73C493.554 229.958 493.426 230.268 493.426 230.591Z" fill="#263238"/>
<path d="M494.691 226.073L497.249 227.485C497.431 227.133 497.471 226.724 497.359 226.343C497.248 225.962 496.995 225.639 496.652 225.439C496.483 225.348 496.297 225.291 496.105 225.274C495.913 225.256 495.72 225.277 495.536 225.337C495.353 225.396 495.184 225.491 495.039 225.618C494.893 225.744 494.775 225.899 494.691 226.073Z" fill="#263238"/>
<path d="M492.525 238.861L489.797 239.884C489.854 240.069 489.949 240.239 490.074 240.386C490.2 240.533 490.354 240.653 490.527 240.738C490.7 240.824 490.889 240.873 491.081 240.883C491.274 240.893 491.467 240.864 491.648 240.798C492.016 240.651 492.313 240.367 492.476 240.006C492.64 239.645 492.657 239.235 492.525 238.861Z" fill="#F28F8F"/>
<path d="M482.742 227.072L485.081 225.27C484.97 225.112 484.83 224.978 484.666 224.876C484.503 224.774 484.321 224.707 484.131 224.677C483.941 224.648 483.747 224.657 483.561 224.704C483.374 224.752 483.199 224.836 483.046 224.953C482.735 225.201 482.53 225.558 482.473 225.952C482.416 226.346 482.513 226.747 482.742 227.072Z" fill="#263238"/>
<path d="M483.461 230.202C483.461 230.525 483.589 230.835 483.818 231.064C484.046 231.292 484.356 231.42 484.679 231.42C485.002 231.42 485.312 231.292 485.54 231.064C485.769 230.835 485.897 230.525 485.897 230.202C485.897 229.879 485.769 229.57 485.54 229.341C485.312 229.113 485.002 228.984 484.679 228.984C484.356 228.984 484.046 229.113 483.818 229.341C483.589 229.57 483.461 229.879 483.461 230.202Z" fill="#263238"/>
<path d="M489.564 229.117L489.174 236.316L485.41 235.037L489.564 229.117Z" fill="#F28F8F"/>
<path d="M488.262 256.45C488.993 258.204 490.357 258.886 492.805 259.191C494.044 259.267 495.285 259.09 496.454 258.672C497.622 258.253 498.693 257.601 499.601 256.755L496.556 253.722L492.671 256.633L492.342 253.381L488.262 256.45Z" fill="#005656"/>
<path opacity="0.1" d="M488.262 256.45C488.993 258.204 490.357 258.886 492.805 259.191C494.044 259.267 495.285 259.09 496.454 258.672C497.622 258.253 498.693 257.601 499.601 256.755L496.556 253.722L492.671 256.633L492.342 253.381L488.262 256.45Z" fill="black"/>
<path d="M490.185 255.5C489.826 256.553 489.689 257.668 489.783 258.776C489.899 259.763 490.278 260.701 490.879 261.493C491.265 261.741 491.704 261.897 492.16 261.948C492.617 261.999 493.079 261.943 493.51 261.785C494.298 261.108 494.931 260.269 495.366 259.325C495.802 258.382 496.028 257.355 496.031 256.316L492.669 256.694L490.185 255.5Z" fill="#005656"/>
<path d="M490.856 261.492C490.856 261.492 486.873 283.416 486.714 285.219C486.556 287.021 488.992 293.282 490.515 293.331C492.037 293.379 495.009 287.691 495.045 286.023C495.082 284.354 493.486 261.724 493.486 261.724L490.856 261.492Z" fill="#005656"/>
<path opacity="0.1" d="M493.51 261.784C493.085 261.973 492.617 262.045 492.155 261.993C491.693 261.942 491.252 261.769 490.879 261.492V261.845C491.259 262.149 491.706 262.356 492.184 262.449C492.661 262.542 493.153 262.519 493.619 262.381L493.51 261.784Z" fill="black"/>
<path d="M492.672 256.694L503.877 248.168V245.635C503.877 245.635 506.484 246.621 507.069 251.213C505.271 255.195 502.198 258.465 498.336 260.507L495.985 256.317L492.672 256.694Z" fill="#E0E0E0"/>
<path d="M491.989 246.791C490.525 247.022 489.211 247.824 488.335 249.02C487.215 250.859 487.47 257.936 487.47 257.936L490.15 255.5L492.586 256.718C492.355 254.367 491.892 250.08 491.892 250.08L491.989 246.791Z" fill="#E0E0E0"/>
<path d="M448.227 324.316C449.273 322.846 449.885 321.111 449.993 319.31C450.309 317.008 456.619 314.536 456.826 316.253C457.033 317.97 457.605 319.395 455.608 321.478C453.61 323.561 451.162 325.863 448.227 324.316Z" fill="#FFA8A7"/>
<path d="M448.554 309.445C447.044 311.394 446.118 315.182 445.314 316.461C444.511 317.74 443.561 318.897 445.314 319.08C447.068 319.262 449.614 315.901 450.564 313.83C450.932 313.011 451.492 312.292 452.196 311.735C452.473 311.513 452.781 311.332 453.11 311.199C452.294 310.919 452.72 307.63 452.147 307.18C452.147 307.18 449.176 308.398 448.554 309.445Z" fill="#FFA8A7"/>
</svg>
