<svg width="437" height="542" viewBox="0 0 437 542" fill="none" xmlns="http://www.w3.org/2000/svg">
<path d="M211.474 398.987C318.718 398.987 405.656 348.795 405.656 286.879C405.656 224.964 318.718 174.772 211.474 174.772C104.231 174.772 17.293 224.964 17.293 286.879C17.293 348.795 104.231 398.987 211.474 398.987Z" fill="#F5F5F5"/>
<path d="M250.626 289.51L196.663 320.707L196.537 320.64L176.006 308.776C174.219 307.629 172.8 305.992 171.918 304.06C171.036 302.129 170.728 299.984 171.031 297.883L178.62 258.321L232.582 227.124L224.994 266.685C224.691 268.787 224.999 270.932 225.881 272.863C226.763 274.795 228.182 276.432 229.969 277.579L250.626 289.51Z" fill="#37474F"/>
<path d="M178.641 258.321L171.086 297.537L225.066 266.382L232.047 230.109L228.641 229.426L178.641 258.321Z" fill="#263238"/>
<path d="M196.647 320.699L175.998 308.776C174.213 307.627 172.795 305.99 171.914 304.059C171.032 302.128 170.723 299.984 171.023 297.883L178.612 258.321L169.615 253.119L160.914 298.38C159.759 304.367 163.14 311.761 168.418 314.805L196.622 331.086L196.647 320.699Z" fill="#263238"/>
<path d="M250.624 289.51L196.645 320.699V331.095L250.624 299.906V289.51Z" fill="#455A64"/>
<path d="M303.43 33.1448C305.909 34.5782 307.924 38.2038 307.924 41.2814V206.93C307.834 208.594 307.352 210.213 306.519 211.656C305.685 213.099 304.523 214.326 303.127 215.235L96.6602 334.451C94.0126 335.977 89.8474 336.053 87.3853 334.619C84.9233 333.186 82.8828 329.56 82.8828 326.483V160.834C82.9739 159.169 83.4557 157.549 84.2892 156.105C85.1227 154.66 86.2844 153.432 87.6804 152.52L294.13 33.3134C296.778 31.7789 300.943 31.703 303.43 33.1448Z" fill="#455A64"/>
<path d="M96.0893 334.738C93.4417 335.977 89.6728 335.952 87.3541 334.619C84.8667 333.186 82.8516 329.56 82.8516 326.483V160.834C82.9115 159.163 83.3961 157.536 84.2597 156.104L93.29 161.306C92.4257 162.734 91.941 164.36 91.8819 166.028V331.677C91.8566 334.518 93.7031 335.791 96.0893 334.738Z" fill="#263238"/>
<path d="M307.929 206.93V41.3151C307.929 38.2544 305.787 37.0149 303.131 38.5411L96.6648 157.723C95.2685 158.632 94.1064 159.859 93.2728 161.302C92.4392 162.745 91.9576 164.364 91.8672 166.028V331.677C91.8672 334.737 94.0173 335.977 96.6648 334.451L303.131 215.235C304.528 214.326 305.69 213.099 306.523 211.656C307.357 210.213 307.838 208.594 307.929 206.93Z" fill="#37474F"/>
<path d="M297.387 46.9643L100.196 160.876C99.0792 161.604 98.15 162.585 97.4834 163.74C96.8169 164.894 96.4318 166.189 96.3594 167.52V314.594C96.3594 317.039 98.0457 318.034 100.196 316.812L297.396 202.9C298.512 202.172 299.442 201.191 300.108 200.036C300.775 198.882 301.16 197.587 301.232 196.256V49.1818C301.232 46.7366 299.512 45.7417 297.387 46.9643Z" fill="#008080"/>
<path opacity="0.8" d="M297.387 46.9643L100.196 160.876C99.0792 161.604 98.15 162.585 97.4834 163.74C96.8169 164.894 96.4318 166.189 96.3594 167.52V314.594C96.3594 317.039 98.0457 318.034 100.196 316.812L297.396 202.9C298.512 202.172 299.442 201.191 300.108 200.036C300.775 198.882 301.16 197.587 301.232 196.256V49.1818C301.232 46.7366 299.512 45.7417 297.387 46.9643Z" fill="white"/>
<path d="M110.417 298.726C109.371 298.726 108.73 297.883 108.73 296.441V179.966L288.848 75.9861V191.972C288.777 193.208 288.418 194.41 287.799 195.482C287.179 196.554 286.317 197.466 285.281 198.144L111.892 298.262C111.449 298.542 110.941 298.702 110.417 298.726Z" fill="#F5F5F5"/>
<path d="M288.425 76.7281V191.989C288.353 193.154 288.011 194.287 287.426 195.296C286.84 196.306 286.028 197.166 285.052 197.807L111.68 297.899C111.3 298.139 110.864 298.279 110.415 298.304C109.285 298.304 109.167 297.006 109.167 296.441V180.21L288.425 76.7281ZM289.268 75.2694L108.324 179.738V296.441C108.324 298.127 109.167 299.147 110.415 299.147C111.014 299.126 111.596 298.945 112.102 298.625L285.482 198.524C286.584 197.807 287.501 196.839 288.159 195.701C288.817 194.563 289.197 193.285 289.268 191.972V75.2526V75.2694Z" fill="#E0E0E0"/>
<path d="M108.324 179.721V196.104L289.268 91.6353V75.2526L108.324 179.721Z" fill="#008080"/>
<path d="M221.855 120.573V124.097C221.855 124.814 222.37 125.109 222.994 124.755L278.643 92.6302V86.5088L222.994 118.633C222.667 118.847 222.395 119.133 222.197 119.47C222 119.806 221.883 120.184 221.855 120.573Z" fill="#FAFAFA"/>
<path d="M284.59 83.0686C285.214 82.7061 285.72 83.0012 285.72 83.7263V87.2507C285.697 87.6435 285.583 88.0256 285.387 88.3666C285.191 88.7077 284.918 88.9983 284.59 89.2153L278.629 92.6554V86.5087L284.59 83.0686Z" fill="#455A64"/>
<path d="M284.142 87.9L283.485 87.6977C283.55 87.4214 283.584 87.1385 283.586 86.8545C283.616 86.586 283.576 86.3143 283.47 86.066C283.363 85.8177 283.194 85.6013 282.979 85.438C282.833 85.3494 282.665 85.3026 282.494 85.3026C282.323 85.3026 282.155 85.3494 282.009 85.438C281.586 85.7616 281.245 86.1809 281.015 86.6616C280.785 87.1424 280.672 87.6708 280.685 88.2036C280.655 88.4732 280.696 88.7461 280.802 88.9957C280.908 89.2454 281.077 89.4633 281.293 89.6285C281.421 89.7014 281.566 89.7391 281.714 89.7381C281.908 89.7353 282.097 89.6799 282.262 89.5779C282.767 89.2306 283.143 88.7269 283.333 88.1445L283.999 88.3469H284.075C284.128 88.3458 284.179 88.3281 284.221 88.2964C284.264 88.2646 284.295 88.2203 284.311 88.1698C284.317 88.1126 284.303 88.0551 284.273 88.0063C284.242 87.9575 284.196 87.9202 284.142 87.9ZM282.009 89.1816C281.938 89.2239 281.856 89.2462 281.773 89.2462C281.69 89.2462 281.609 89.2239 281.537 89.1816C281.402 89.0567 281.298 88.9012 281.235 88.7282C281.172 88.5551 281.151 88.3694 281.174 88.1867C281.167 87.7405 281.262 87.2985 281.45 86.8939C281.638 86.4894 281.916 86.1328 282.262 85.8511C282.351 85.7949 282.452 85.7629 282.557 85.7584C282.615 85.7447 282.676 85.7447 282.734 85.7584C282.868 85.8845 282.97 86.0402 283.033 86.2129C283.096 86.3856 283.118 86.5707 283.097 86.7533C283.116 87.2146 283.027 87.674 282.839 88.0954C282.65 88.5167 282.366 88.8886 282.009 89.1816Z" fill="#FAFAFA"/>
<path d="M108.324 171.804C108.394 170.491 108.772 169.214 109.428 168.076C110.085 166.937 111.001 165.97 112.102 165.252L285.482 65.1513C287.573 63.9456 289.268 64.9237 289.268 67.3351V75.2525L108.324 179.721V171.804Z" fill="#37474F"/>
<path d="M267.978 79.3418C267.462 79.6784 267.033 80.1317 266.726 80.6649C266.418 81.1981 266.241 81.7962 266.207 82.4109C266.207 83.5492 267 84.0045 267.978 83.4396C268.497 83.104 268.929 82.6501 269.238 82.115C269.547 81.58 269.725 80.9792 269.757 80.362C269.757 79.2574 268.964 78.7768 267.978 79.3418Z" fill="#008080"/>
<path d="M274.193 75.7668C273.675 76.1015 273.244 76.5542 272.935 77.0876C272.626 77.6211 272.447 78.2202 272.414 78.8359C272.414 79.9658 273.207 80.4295 274.193 79.8646C274.71 79.5271 275.139 79.0725 275.447 78.5377C275.754 78.003 275.932 77.4032 275.964 76.787C275.964 75.6572 275.171 75.2019 274.193 75.7668Z" fill="#008080"/>
<path d="M280.4 72.1918C279.884 72.5285 279.455 72.9817 279.148 73.5149C278.84 74.0481 278.662 74.6463 278.629 75.2609C278.629 76.3908 279.421 76.8545 280.4 76.2896C280.916 75.9516 281.345 75.4969 281.652 74.9622C281.96 74.4276 282.137 73.828 282.17 73.212C282.162 72.0822 281.378 71.669 280.4 72.1918Z" fill="#008080"/>
<path d="M187.647 183.574L209.94 170.708C211.348 169.864 212.47 170.547 212.47 172.183V197.917C212.423 198.801 212.17 199.662 211.731 200.431C211.292 201.199 210.678 201.854 209.94 202.343L187.647 215.21C186.239 216.053 185.117 215.362 185.117 213.734V188.026C185.158 187.137 185.408 186.27 185.848 185.497C186.287 184.723 186.904 184.064 187.647 183.574Z" fill="#008080"/>
<path d="M193.771 215.631L207.262 207.857C208.274 207.267 209.083 207.689 209.083 208.777C209.037 209.39 208.849 209.983 208.533 210.51C208.216 211.038 207.781 211.483 207.262 211.812L193.771 219.586C192.759 220.168 191.941 219.755 191.941 218.667C191.986 218.053 192.175 217.458 192.493 216.93C192.811 216.403 193.249 215.958 193.771 215.631Z" fill="#455A64"/>
<path d="M198.603 182.63C200.972 181.264 202.886 182.369 202.886 185.1C202.807 186.586 202.377 188.031 201.633 189.319C200.888 190.607 199.85 191.701 198.603 192.512C196.242 193.878 194.328 192.773 194.328 190.041C194.408 188.557 194.837 187.112 195.58 185.825C196.323 184.537 197.358 183.443 198.603 182.63Z" fill="#FAFAFA"/>
<path d="M207.043 197.225C207.043 192.748 203.89 190.75 200.011 193.009L197.583 194.417C193.696 196.66 190.551 202.107 190.551 206.593V207.799L207.043 198.288V197.225Z" fill="#FAFAFA"/>
<path d="M228.768 159.814L251.053 146.947C252.469 146.104 253.582 146.787 253.582 148.423V174.156C253.537 175.041 253.285 175.902 252.845 176.671C252.406 177.44 251.792 178.095 251.053 178.583L228.768 191.45C227.36 192.293 226.238 191.601 226.238 189.974V164.24C226.283 163.356 226.536 162.495 226.975 161.726C227.415 160.957 228.029 160.302 228.768 159.814Z" fill="#008080"/>
<path opacity="0.2" d="M228.768 159.814L251.053 146.947C252.469 146.104 253.582 146.787 253.582 148.423V174.156C253.537 175.041 253.285 175.902 252.845 176.671C252.406 177.44 251.792 178.095 251.053 178.583L228.768 191.45C227.36 192.293 226.238 191.601 226.238 189.974V164.24C226.283 163.356 226.536 162.495 226.975 161.726C227.415 160.957 228.029 160.302 228.768 159.814Z" fill="black"/>
<path d="M234.892 191.871L248.383 184.097C249.386 183.515 250.204 183.928 250.204 185.016C250.16 185.629 249.972 186.224 249.656 186.751C249.339 187.278 248.903 187.724 248.383 188.051L234.892 195.825C233.88 196.407 233.062 195.994 233.062 194.906C233.107 194.292 233.296 193.697 233.614 193.17C233.932 192.642 234.37 192.197 234.892 191.871Z" fill="#455A64"/>
<path d="M239.724 158.87C242.093 157.504 244.007 158.608 244.007 161.34C243.928 162.826 243.499 164.271 242.755 165.559C242.01 166.848 240.972 167.941 239.724 168.751C237.363 170.117 235.449 169.013 235.449 166.281C235.53 164.797 235.959 163.352 236.702 162.065C237.444 160.777 238.48 159.683 239.724 158.87Z" fill="#FAFAFA"/>
<path d="M248.164 173.465C248.164 168.987 245.011 166.989 241.132 169.249L238.704 170.657C234.817 172.9 231.672 178.347 231.672 182.832V184.038L248.164 174.536V173.465Z" fill="#FAFAFA"/>
<path d="M146.569 207.276L168.862 194.409C170.27 193.566 171.391 194.257 171.391 195.885V221.618C171.347 222.503 171.095 223.364 170.655 224.134C170.216 224.903 169.601 225.557 168.862 226.045L146.569 238.911C145.16 239.755 144.039 239.072 144.039 237.436V211.702C144.086 210.818 144.339 209.957 144.778 209.189C145.217 208.42 145.83 207.765 146.569 207.276Z" fill="#008080"/>
<path opacity="0.5" d="M146.569 207.276L168.862 194.409C170.27 193.566 171.391 194.257 171.391 195.885V221.618C171.347 222.503 171.095 223.364 170.655 224.134C170.216 224.903 169.601 225.557 168.862 226.045L146.569 238.911C145.16 239.755 144.039 239.072 144.039 237.436V211.702C144.086 210.818 144.339 209.957 144.778 209.189C145.217 208.42 145.83 207.765 146.569 207.276Z" fill="white"/>
<path d="M152.693 239.333L166.184 231.559C167.195 230.977 168.005 231.39 168.005 232.478C167.961 233.091 167.773 233.686 167.456 234.213C167.14 234.74 166.704 235.186 166.184 235.514L152.693 243.288C151.681 243.869 150.863 243.456 150.863 242.368C150.908 241.754 151.097 241.159 151.415 240.632C151.733 240.104 152.171 239.659 152.693 239.333Z" fill="#455A64"/>
<path d="M157.521 206.331C159.89 204.965 161.804 206.078 161.804 208.802C161.724 210.288 161.295 211.735 160.551 213.025C159.806 214.314 158.768 215.409 157.521 216.222C155.16 217.579 153.246 216.475 153.246 213.743C153.327 212.259 153.756 210.814 154.499 209.527C155.241 208.239 156.277 207.145 157.521 206.331Z" fill="#FAFAFA"/>
<path d="M165.963 220.91C165.963 216.424 162.81 214.434 158.931 216.694L156.528 218.102C152.641 220.345 149.496 225.8 149.496 230.286V231.491L165.988 221.972L165.963 220.91Z" fill="#FAFAFA"/>
<path d="M360.305 153.988L351.351 148.819C342.321 143.76 329.943 144.477 316.225 152.394C303.392 159.789 291.688 172.133 282.869 186.416C272.666 202.858 266.25 221.896 266.25 238.962C266.25 254.881 271.823 266.045 280.837 271.281L289.884 276.466C298.99 282.267 311.806 281.753 326.14 273.523C353.746 257.579 376.123 218.819 376.123 186.947C376.089 170.32 370.019 158.912 360.305 153.988Z" fill="#008080"/>
<path opacity="0.1" d="M289.533 276.256L280.84 271.281C271.827 266.053 266.262 254.873 266.262 238.954C266.262 221.888 272.678 202.866 282.872 186.424L292.72 192.15C282.518 208.591 276.118 227.605 276.118 244.654C276.118 259.873 281.211 270.75 289.533 276.256Z" fill="black"/>
<path opacity="0.4" d="M359.945 153.777C351.041 149.46 339.161 150.556 326.117 158.077C313.267 165.505 301.564 177.858 292.719 192.15L282.871 186.424C291.699 172.091 303.411 159.797 316.235 152.403C329.945 144.477 342.331 143.726 351.37 148.819L359.945 153.777Z" fill="white"/>
<path d="M303.686 273.591C300.052 273.667 296.473 272.689 293.383 270.775L293.24 270.682L292.953 270.522C286.368 266.036 282.742 256.863 282.742 244.645C282.742 229.468 288.417 211.669 298.324 195.741C306.924 181.846 317.944 170.556 329.369 163.954C336.073 160.084 342.632 158.052 348.315 158.052C351.203 158.009 354.063 158.611 356.688 159.814L356.992 159.983L357.143 160.059C364.825 163.946 369.226 173.76 369.226 186.989C369.226 216.677 348.315 252.891 322.607 267.723C315.887 271.551 309.369 273.591 303.686 273.591Z" fill="#FAFAFA"/>
<mask id="mask0_19719_2360" style="mask-type:luminance" maskUnits="userSpaceOnUse" x="282" y="158" width="88" height="116">
<path d="M303.686 273.591C300.052 273.667 296.473 272.689 293.383 270.775L293.24 270.682L292.953 270.522C286.368 266.036 282.742 256.863 282.742 244.645C282.742 229.468 288.417 211.669 298.324 195.741C306.924 181.846 317.944 170.556 329.369 163.954C336.073 160.084 342.632 158.052 348.315 158.052C351.203 158.009 354.063 158.611 356.688 159.814L356.992 159.983L357.143 160.059C364.825 163.946 369.226 173.76 369.226 186.989C369.226 216.677 348.315 252.891 322.607 267.723C315.887 271.551 309.369 273.591 303.686 273.591Z" fill="white"/>
</mask>
<g mask="url(#mask0_19719_2360)">
<path d="M328.298 225.539C315.574 228.912 305.254 221.391 305.254 208.676V200.522C305.254 189.738 313.998 178.659 324.782 175.767L331.805 173.887C342.589 170.995 351.333 177.394 351.333 188.178V196.332C351.299 209.047 341.021 222.124 328.298 225.539Z" fill="#263238"/>
<path d="M359.618 257.681L369.786 289.51L357.071 296.475L349.449 266.534L359.618 257.681Z" fill="#FFA8A7"/>
<path d="M337.359 230.421C344.105 228.735 351.584 229.578 354.147 234.974C356.71 240.37 362.317 259.755 362.317 259.755C358.829 264.456 353.722 267.697 347.983 268.853L337.359 230.421Z" fill="#008080"/>
<path opacity="0.3" d="M337.359 230.421C344.105 228.735 351.584 229.578 354.147 234.974C356.71 240.37 362.317 259.755 362.317 259.755C358.829 264.456 353.722 267.697 347.983 268.853L337.359 230.421Z" fill="black"/>
<path d="M323.35 234.451L317.717 236.231C311.587 239.603 309.378 245.016 306.807 251.989C304.93 256.941 304.758 262.376 306.318 267.436L313.493 289.485C313.493 289.485 310.12 299.755 306.233 309.662C324.235 316.407 346.705 304.316 352.127 294.401C352.363 292.537 352.051 284.527 352.481 275.202C352.953 265.252 354.117 253.853 352.785 248.136C350.297 237.537 345.651 228.204 336.393 230.682L323.35 234.451Z" fill="#F5F5F5"/>
<path d="M317.716 236.23C311.577 238.878 302.539 242.723 299.444 260.421C296.291 278.355 295.684 282.588 295.684 282.588C295.684 282.588 301.055 287.335 311.248 284.544C311.248 284.544 320.237 248.583 317.716 236.23Z" fill="#008080"/>
<path opacity="0.3" d="M317.716 236.23C311.577 238.878 302.539 242.723 299.444 260.421C296.291 278.355 295.684 282.588 295.684 282.588C295.684 282.588 301.055 287.335 311.248 284.544C311.248 284.544 320.237 248.583 317.716 236.23Z" fill="black"/>
<path d="M308.145 260.101C315.354 258.17 321.205 250.758 321.205 243.549V220.362C313.988 222.301 308.145 229.713 308.145 236.922V260.101Z" fill="#263238"/>
<path d="M311.52 283.431C312.658 278.65 313.855 273.212 314.985 267.411C314.985 267.411 314.934 279.401 313.164 288.49L311.52 283.431Z" fill="#E0E0E0"/>
<path d="M343.768 181.433C346.196 182.436 349.206 188.701 348.911 203.6C348.658 216.247 345.134 220.269 343.363 221.635C341.592 223.001 338.177 223.372 334.864 223.625V231.163C334.864 231.163 339.451 236.087 339.156 239.595C338.86 243.102 332.537 245.64 328.245 243.414C325.411 241.788 322.999 239.517 321.204 236.787V218.591C321.204 218.591 318.962 222.647 315.302 220.817C311.643 218.988 311.5 212.074 313.616 209.013C315.732 205.952 320.361 205.505 321.204 208.726C321.204 208.726 326.491 207.537 333.54 201.138C339.194 196.002 342.822 189.012 343.768 181.433Z" fill="#FFA8A7"/>
<path d="M336.77 203.693C336.789 204.128 336.675 204.559 336.443 204.929C336.211 205.298 335.872 205.587 335.471 205.758C334.721 205.994 334.071 205.472 334.038 204.578C334.016 204.143 334.128 203.712 334.359 203.343C334.59 202.974 334.928 202.684 335.328 202.512C336.12 202.276 336.727 202.799 336.77 203.693Z" fill="#263238"/>
<path d="M337.132 214.241L340.311 214.561C340.233 215.062 339.985 215.521 339.609 215.862C339.233 216.203 338.752 216.404 338.245 216.433C337.368 216.34 336.871 215.362 337.132 214.241Z" fill="#F28F8F"/>
<path d="M347.985 195.843L345.211 194.367C345.717 193.322 346.746 192.799 347.513 193.212C348.28 193.625 348.482 194.772 347.985 195.843Z" fill="#263238"/>
<path d="M347.344 199.721C347.365 200.156 347.252 200.587 347.02 200.955C346.787 201.323 346.447 201.611 346.045 201.779C345.295 202.023 344.654 201.492 344.612 200.598C344.591 200.165 344.703 199.735 344.934 199.367C345.165 198.999 345.502 198.711 345.902 198.541C346.661 198.296 347.302 198.828 347.344 199.721Z" fill="#263238"/>
<path d="M340.895 200.548L341.114 209.991L345.439 207.285L340.895 200.548Z" fill="#F28F8F"/>
<path d="M334.867 223.625C331.368 224.03 324.175 223.575 323.062 220.59C323.457 222.027 324.355 223.274 325.592 224.106C327.742 225.657 334.867 226.138 334.867 226.138V223.625Z" fill="#F28F8F"/>
</g>
<path d="M313.83 258.111L306.942 254.131H306.866C303.442 252.191 298.746 252.444 293.544 255.48C288.679 258.288 284.269 262.967 280.896 268.38C277.034 274.62 274.598 281.871 274.598 288.313C274.598 294.341 276.714 298.583 280.129 300.564L287.127 304.561C290.576 306.761 295.449 306.567 300.862 303.439C311.326 297.394 319.817 282.697 319.817 270.615C319.817 264.308 317.515 259.974 313.83 258.111Z" fill="#37474F"/>
<path d="M286.984 304.468L280.129 300.556C276.706 298.574 274.598 294.333 274.598 288.296C274.598 281.829 277.026 274.611 280.896 268.38L288.215 272.596C284.345 278.836 281.916 286.036 281.916 292.503C281.899 298.254 283.847 302.385 286.984 304.468Z" fill="#263238"/>
<path d="M313.689 258.009C310.317 256.374 305.814 256.787 300.865 259.645C295.915 262.503 291.59 267.141 288.217 272.562L280.898 268.347C284.271 262.925 288.689 258.229 293.546 255.446C298.748 252.444 303.445 252.158 306.868 254.089H306.944L313.689 258.009Z" fill="#455A64"/>
<path d="M309.083 274.257L302.768 277.908V267.79C302.768 266.163 301.925 265.345 300.862 265.952C299.8 266.559 298.957 268.363 298.957 269.991V280.109L292.633 283.76C292.11 284.175 291.69 284.705 291.405 285.309C291.12 285.913 290.977 286.574 290.989 287.242C290.989 288.642 291.731 289.35 292.633 288.819L298.957 285.176V295.294C298.957 296.922 299.8 297.739 300.862 297.132C301.925 296.525 302.768 294.712 302.768 293.094V282.976L309.083 279.325C309.608 278.911 310.029 278.381 310.314 277.777C310.6 277.172 310.741 276.51 310.727 275.842C310.727 274.443 309.985 273.734 309.083 274.257Z" fill="#F5F5F5"/>
<path d="M29.1053 436.481C29.1053 440.731 25.8877 443.726 21.881 443.726C17.8945 443.726 14.6365 440.731 14.6365 436.481C14.6365 432.252 17.8945 429.257 21.881 429.257C25.908 429.257 29.1053 432.252 29.1053 436.481ZM17.5505 436.481C17.5505 439.355 19.311 441.196 21.881 441.196C24.4308 441.196 26.1913 439.355 26.1913 436.481C26.1913 433.608 24.4308 431.806 21.881 431.806C19.311 431.806 17.5505 433.608 17.5505 436.481ZM39.0646 443.584V437.392C39.0646 435.591 38.073 434.619 36.5755 434.619C35.0376 434.619 34.046 435.591 34.046 437.392V443.584H31.213V432.373H34.046V433.769C34.7745 432.818 35.9887 432.211 37.4254 432.211C40.0359 432.211 41.8976 433.911 41.8976 437.007V443.584H39.0646ZM43.8632 437.978C43.8632 434.457 46.1701 432.191 49.4079 432.191C52.2004 432.191 54.0824 433.648 54.6895 436.157H51.6338C51.31 435.206 50.5613 434.599 49.3876 434.599C47.8092 434.599 46.7569 435.793 46.7569 437.978C46.7569 440.164 47.8092 441.338 49.3876 441.338C50.5613 441.338 51.2898 440.812 51.6338 439.8H54.6895C54.0824 442.188 52.2004 443.766 49.4079 443.766C46.1701 443.766 43.8632 441.5 43.8632 437.978ZM61.5811 434.518C60.2253 434.518 59.1528 435.388 58.9302 436.926H64.2522C64.2118 435.449 63.0381 434.518 61.5811 434.518ZM66.9032 440.063C66.2961 442.127 64.4344 443.766 61.662 443.766C58.404 443.766 56.0364 441.5 56.0364 437.978C56.0364 434.437 58.3433 432.191 61.662 432.191C64.8998 432.191 67.1865 434.397 67.1865 437.736C67.1865 438.1 67.1662 438.464 67.1055 438.828H58.9099C59.0516 440.488 60.1848 441.419 61.6013 441.419C62.8155 441.419 63.4833 440.812 63.8475 440.063H66.9032ZM78.8519 440.204L81.7861 432.373H84.8013L77.8603 448.886H74.8452L77.2735 443.301L72.7811 432.373H75.9582L78.8519 440.204ZM97.1548 437.978C97.1548 441.5 94.5645 443.766 91.3065 443.766C88.0688 443.766 85.6202 441.5 85.6202 437.978C85.6202 434.437 88.1497 432.191 91.3875 432.191C94.6253 432.191 97.1548 434.437 97.1548 437.978ZM88.4937 437.978C88.4937 440.204 89.7888 441.297 91.3065 441.297C92.804 441.297 94.2408 440.204 94.2408 437.978C94.2408 435.732 92.8445 434.66 91.347 434.66C89.8496 434.66 88.4937 435.732 88.4937 437.978ZM109.816 432.373V443.584H106.963V442.167C106.255 443.118 105.02 443.726 103.624 443.726C101.014 443.726 99.1317 442.026 99.1317 438.95V432.373H101.965V438.545C101.965 440.346 102.956 441.317 104.454 441.317C105.992 441.317 106.963 440.346 106.963 438.545V432.373H109.816ZM126.135 440.387C126.135 442.309 124.455 443.766 121.724 443.766C118.911 443.766 116.948 442.127 116.826 440.043H119.68C119.781 440.892 120.57 441.54 121.703 441.54C122.816 441.54 123.423 441.034 123.423 440.387C123.423 438.383 117.089 439.658 117.089 435.55C117.089 433.688 118.749 432.191 121.521 432.191C124.233 432.191 125.872 433.668 126.034 435.894H123.322C123.241 435.024 122.553 434.437 121.44 434.437C120.388 434.437 119.842 434.862 119.842 435.51C119.842 437.554 126.054 436.279 126.135 440.387ZM139.044 432.373V443.584H136.191V442.167C135.482 443.118 134.248 443.726 132.852 443.726C130.241 443.726 128.359 442.026 128.359 438.95V432.373H131.192V438.545C131.192 440.346 132.184 441.317 133.681 441.317C135.219 441.317 136.191 440.346 136.191 438.545V432.373H139.044ZM144.672 434.012C145.36 432.98 146.676 432.191 148.375 432.191C151.249 432.191 153.495 434.437 153.495 437.938C153.495 441.439 151.249 443.766 148.375 443.766C146.615 443.766 145.36 442.957 144.672 441.985V443.584H141.839V428.609H144.672V434.012ZM150.601 437.938C150.601 435.813 149.165 434.68 147.627 434.68C146.109 434.68 144.672 435.854 144.672 437.978C144.672 440.103 146.109 441.277 147.627 441.277C149.165 441.277 150.601 440.063 150.601 437.938ZM171.237 443.584V437.392C171.237 435.611 170.245 434.68 168.748 434.68C167.23 434.68 166.238 435.611 166.238 437.392V443.584H163.405V437.392C163.405 435.611 162.414 434.68 160.916 434.68C159.378 434.68 158.387 435.611 158.387 437.392V443.584H155.554V432.373H158.387V433.729C159.095 432.798 160.289 432.211 161.685 432.211C163.426 432.211 164.862 432.96 165.631 434.356C166.36 433.081 167.837 432.211 169.476 432.211C172.168 432.211 174.07 433.911 174.07 437.007V443.584H171.237ZM176.758 443.584V432.373H179.591V443.584H176.758ZM178.195 431.038C177.183 431.038 176.455 430.309 176.455 429.378C176.455 428.447 177.183 427.719 178.195 427.719C179.187 427.719 179.935 428.447 179.935 429.378C179.935 430.309 179.187 431.038 178.195 431.038ZM182.836 440.103V434.7H181.5V432.373H182.836V429.601H185.689V432.373H188.198V434.7H185.689V440.124C185.689 440.872 185.992 441.196 186.883 441.196H188.198V443.584H186.417C184.272 443.584 182.836 442.673 182.836 440.103ZM194.329 437.938C194.329 434.437 196.596 432.191 199.449 432.191C201.25 432.191 202.484 433.041 203.152 433.972V432.373H206.005V443.584H203.152V441.945C202.484 442.916 201.209 443.766 199.429 443.766C196.596 443.766 194.329 441.439 194.329 437.938ZM203.152 437.978C203.152 435.854 201.735 434.68 200.177 434.68C198.66 434.68 197.223 435.813 197.223 437.938C197.223 440.063 198.66 441.277 200.177 441.277C201.735 441.277 203.152 440.103 203.152 437.978ZM215.031 431.038C213.999 431.038 213.27 430.309 213.27 429.378C213.27 428.447 213.999 427.719 215.031 427.719C216.022 427.719 216.751 428.447 216.751 429.378C216.751 430.309 216.022 431.038 215.031 431.038ZM213.594 432.373H216.427V445.425C216.427 448.016 215.031 448.926 212.866 448.926H211.611V446.518H212.42C213.291 446.518 213.594 446.194 213.594 445.446V432.373ZM230.052 437.978C230.052 441.5 227.462 443.766 224.204 443.766C220.966 443.766 218.518 441.5 218.518 437.978C218.518 434.437 221.047 432.191 224.285 432.191C227.523 432.191 230.052 434.437 230.052 437.978ZM221.391 437.978C221.391 440.204 222.687 441.297 224.204 441.297C225.702 441.297 227.138 440.204 227.138 437.978C227.138 435.732 225.742 434.66 224.245 434.66C222.747 434.66 221.391 435.732 221.391 437.978ZM234.964 434.012C235.652 432.98 236.967 432.191 238.667 432.191C241.54 432.191 243.787 434.437 243.787 437.938C243.787 441.439 241.54 443.766 238.667 443.766C236.906 443.766 235.652 442.957 234.964 441.985V443.584H232.131V428.609H234.964V434.012ZM240.893 437.938C240.893 435.813 239.456 434.68 237.918 434.68C236.4 434.68 234.964 435.854 234.964 437.978C234.964 440.103 236.4 441.277 237.918 441.277C239.456 441.277 240.893 440.063 240.893 437.938ZM261.493 437.978C261.493 441.5 258.903 443.766 255.645 443.766C252.407 443.766 249.959 441.5 249.959 437.978C249.959 434.437 252.488 432.191 255.726 432.191C258.964 432.191 261.493 434.437 261.493 437.978ZM252.832 437.978C252.832 440.204 254.127 441.297 255.645 441.297C257.143 441.297 258.579 440.204 258.579 437.978C258.579 435.732 257.183 434.66 255.686 434.66C254.188 434.66 252.832 435.732 252.832 437.978ZM266.405 437.999V443.584H263.572V432.373H266.405V434.113C267.113 432.96 268.287 432.211 269.845 432.211V435.186H269.096C267.416 435.186 266.405 435.833 266.405 437.999ZM271.024 437.938C271.024 434.437 273.291 432.191 276.164 432.191C277.642 432.191 279.058 432.879 279.827 433.931V428.609H282.701V443.584H279.827V441.925C279.159 442.957 277.905 443.766 276.144 443.766C273.291 443.766 271.024 441.439 271.024 437.938ZM279.847 437.978C279.847 435.854 278.431 434.68 276.873 434.68C275.355 434.68 273.918 435.813 273.918 437.938C273.918 440.063 275.355 441.277 276.873 441.277C278.431 441.277 279.847 440.103 279.847 437.978ZM290.284 434.518C288.928 434.518 287.855 435.388 287.633 436.926H292.955C292.914 435.449 291.741 434.518 290.284 434.518ZM295.606 440.063C294.999 442.127 293.137 443.766 290.365 443.766C287.107 443.766 284.739 441.5 284.739 437.978C284.739 434.437 287.046 432.191 290.365 432.191C293.602 432.191 295.889 434.397 295.889 437.736C295.889 438.1 295.869 438.464 295.808 438.828H287.613C287.754 440.488 288.887 441.419 290.304 441.419C291.518 441.419 292.186 440.812 292.55 440.063H295.606ZM300.79 437.999V443.584H297.957V432.373H300.79V434.113C301.498 432.96 302.672 432.211 304.23 432.211V435.186H303.481C301.802 435.186 300.79 435.833 300.79 437.999ZM304.985 446.498L306.341 440.468H309.336L306.826 446.498H304.985ZM320.894 440.204L323.828 432.373H326.843L319.902 448.886H316.887L319.315 443.301L314.823 432.373H318L320.894 440.204ZM339.197 437.978C339.197 441.5 336.606 443.766 333.348 443.766C330.111 443.766 327.662 441.5 327.662 437.978C327.662 434.437 330.192 432.191 333.429 432.191C336.667 432.191 339.197 434.437 339.197 437.978ZM330.536 437.978C330.536 440.204 331.831 441.297 333.348 441.297C334.846 441.297 336.283 440.204 336.283 437.978C336.283 435.732 334.886 434.66 333.389 434.66C331.891 434.66 330.536 435.732 330.536 437.978ZM351.858 432.373V443.584H349.005V442.167C348.297 443.118 347.062 443.726 345.666 443.726C343.056 443.726 341.174 442.026 341.174 438.95V432.373H344.007V438.545C344.007 440.346 344.998 441.317 346.496 441.317C348.034 441.317 349.005 440.346 349.005 438.545V432.373H351.858ZM361.519 443.584L358.221 432.373H361.094L363.077 440.913L365.222 432.373H368.217L370.322 440.892L372.305 432.373H375.017L371.738 443.584H368.683L366.639 435.753L364.595 443.584H361.519ZM376.549 443.584V432.373H379.382V443.584H376.549ZM377.986 431.038C376.974 431.038 376.246 430.309 376.246 429.378C376.246 428.447 376.974 427.719 377.986 427.719C378.978 427.719 379.726 428.447 379.726 429.378C379.726 430.309 378.978 431.038 377.986 431.038ZM382.182 443.584V428.609H385.015V443.584H382.182ZM387.814 443.584V428.609H390.647V443.584H387.814ZM401.101 434.012C401.789 432.98 403.104 432.191 404.804 432.191C407.677 432.191 409.924 434.437 409.924 437.938C409.924 441.439 407.677 443.766 404.804 443.766C403.043 443.766 401.789 442.957 401.101 441.985V443.584H398.268V428.609H401.101V434.012ZM407.03 437.938C407.03 435.813 405.593 434.68 404.055 434.68C402.537 434.68 401.101 435.854 401.101 437.978C401.101 440.103 402.537 441.277 404.055 441.277C405.593 441.277 407.03 440.063 407.03 437.938ZM416.798 434.518C415.443 434.518 414.37 435.388 414.148 436.926H419.47C419.429 435.449 418.255 434.518 416.798 434.518ZM422.121 440.063C421.513 442.127 419.652 443.766 416.879 443.766C413.621 443.766 411.254 441.5 411.254 437.978C411.254 434.437 413.561 432.191 416.879 432.191C420.117 432.191 422.404 434.397 422.404 437.736C422.404 438.1 422.384 438.464 422.323 438.828H414.127C414.269 440.488 415.402 441.419 416.819 441.419C418.033 441.419 418.701 440.812 419.065 440.063H422.121ZM65.9667 467.938C65.9667 464.437 68.2331 462.191 71.0864 462.191C72.8874 462.191 74.1218 463.041 74.7896 463.972V462.373H77.6429V473.584H74.7896V471.945C74.1218 472.916 72.8469 473.766 71.0662 473.766C68.2331 473.766 65.9667 471.439 65.9667 467.938ZM74.7896 467.978C74.7896 465.854 73.3731 464.68 71.8149 464.68C70.2972 464.68 68.8604 465.813 68.8604 467.938C68.8604 470.063 70.2972 471.277 71.8149 471.277C73.3731 471.277 74.7896 470.103 74.7896 467.978ZM83.2429 464.012C83.9309 462.98 85.2462 462.191 86.9461 462.191C89.8196 462.191 92.0658 464.437 92.0658 467.938C92.0658 471.439 89.8196 473.766 86.9461 473.766C85.1855 473.766 83.9309 472.957 83.2429 471.985V473.584H80.4098V458.609H83.2429V464.012ZM89.172 467.938C89.172 465.813 87.7353 464.68 86.1973 464.68C84.6796 464.68 83.2429 465.854 83.2429 467.978C83.2429 470.103 84.6796 471.277 86.1973 471.277C87.7353 471.277 89.172 470.063 89.172 467.938ZM94.1245 473.584V458.609H96.9575V473.584H94.1245ZM104.573 464.518C103.217 464.518 102.144 465.388 101.922 466.926H107.244C107.203 465.449 106.03 464.518 104.573 464.518ZM109.895 470.063C109.288 472.127 107.426 473.766 104.654 473.766C101.396 473.766 99.0281 471.5 99.0281 467.978C99.0281 464.437 101.335 462.191 104.654 462.191C107.891 462.191 110.178 464.397 110.178 467.736C110.178 468.1 110.158 468.464 110.097 468.828H101.902C102.043 470.488 103.176 471.419 104.593 471.419C105.807 471.419 106.475 470.812 106.839 470.063H109.895ZM117.513 470.103V464.7H116.177V462.373H117.513V459.601H120.366V462.373H122.876V464.7H120.366V470.124C120.366 470.872 120.67 471.196 121.56 471.196H122.876V473.584H121.095C118.95 473.584 117.513 472.673 117.513 470.103ZM135.74 467.978C135.74 471.5 133.149 473.766 129.891 473.766C126.654 473.766 124.205 471.5 124.205 467.978C124.205 464.437 126.735 462.191 129.972 462.191C133.21 462.191 135.74 464.437 135.74 467.978ZM127.079 467.978C127.079 470.204 128.374 471.297 129.891 471.297C131.389 471.297 132.826 470.204 132.826 467.978C132.826 465.732 131.429 464.66 129.932 464.66C128.434 464.66 127.079 465.732 127.079 467.978ZM141.446 462.373H144.481L147.314 470.973L150.147 462.373H153.162L149.014 473.584H145.574L141.446 462.373ZM154.754 473.584V462.373H157.587V473.584H154.754ZM156.19 461.038C155.178 461.038 154.45 460.309 154.45 459.378C154.45 458.447 155.178 457.719 156.19 457.719C157.182 457.719 157.931 458.447 157.931 459.378C157.931 460.309 157.182 461.038 156.19 461.038ZM165.202 464.518C163.846 464.518 162.773 465.388 162.551 466.926H167.873C167.832 465.449 166.659 464.518 165.202 464.518ZM170.524 470.063C169.917 472.127 168.055 473.766 165.283 473.766C162.025 473.766 159.657 471.5 159.657 467.978C159.657 464.437 161.964 462.191 165.283 462.191C168.52 462.191 170.807 464.397 170.807 467.736C170.807 468.1 170.787 468.464 170.726 468.828H162.531C162.672 470.488 163.805 471.419 165.222 471.419C166.436 471.419 167.104 470.812 167.468 470.063H170.524ZM174.919 473.584L171.62 462.373H174.494L176.477 470.913L178.622 462.373H181.617L183.722 470.892L185.705 462.373H188.416L185.138 473.584H182.082L180.039 465.753L177.995 473.584H174.919ZM194.771 473.584V462.373H197.604V473.584H194.771ZM196.208 461.038C195.196 461.038 194.468 460.309 194.468 459.378C194.468 458.447 195.196 457.719 196.208 457.719C197.199 457.719 197.948 458.447 197.948 459.378C197.948 460.309 197.199 461.038 196.208 461.038ZM200.848 470.103V464.7H199.513V462.373H200.848V459.601H203.702V462.373H206.211V464.7H203.702V470.124C203.702 470.872 204.005 471.196 204.896 471.196H206.211V473.584H204.43C202.285 473.584 200.848 472.673 200.848 470.103ZM216.95 470.387C216.95 472.309 215.27 473.766 212.539 473.766C209.726 473.766 207.763 472.127 207.641 470.043H210.495C210.596 470.892 211.385 471.54 212.518 471.54C213.631 471.54 214.238 471.034 214.238 470.387C214.238 468.383 207.905 469.658 207.905 465.55C207.905 463.688 209.564 462.191 212.336 462.191C215.048 462.191 216.687 463.668 216.849 465.894H214.137C214.056 465.024 213.368 464.437 212.255 464.437C211.203 464.437 210.657 464.862 210.657 465.51C210.657 467.554 216.869 466.279 216.95 470.387ZM232.799 470.387C232.799 472.309 231.119 473.766 228.388 473.766C225.575 473.766 223.612 472.127 223.49 470.043H226.344C226.445 470.892 227.234 471.54 228.367 471.54C229.48 471.54 230.087 471.034 230.087 470.387C230.087 468.383 223.753 469.658 223.753 465.55C223.753 463.688 225.413 462.191 228.185 462.191C230.897 462.191 232.536 463.668 232.698 465.894H229.986C229.905 465.024 229.217 464.437 228.104 464.437C227.052 464.437 226.506 464.862 226.506 465.51C226.506 467.554 232.718 466.279 232.799 470.387ZM235.57 470.103V464.7H234.234V462.373H235.57V459.601H238.423V462.373H240.932V464.7H238.423V470.124C238.423 470.872 238.727 471.196 239.617 471.196H240.932V473.584H239.151C237.006 473.584 235.57 472.673 235.57 470.103ZM242.241 467.938C242.241 464.437 244.508 462.191 247.361 462.191C249.162 462.191 250.397 463.041 251.064 463.972V462.373H253.918V473.584H251.064V471.945C250.397 472.916 249.122 473.766 247.341 473.766C244.508 473.766 242.241 471.439 242.241 467.938ZM251.064 467.978C251.064 465.854 249.648 464.68 248.09 464.68C246.572 464.68 245.135 465.813 245.135 467.938C245.135 470.063 246.572 471.277 248.09 471.277C249.648 471.277 251.064 470.103 251.064 467.978ZM257.13 470.103V464.7H255.794V462.373H257.13V459.601H259.983V462.373H262.492V464.7H259.983V470.124C259.983 470.872 260.287 471.196 261.177 471.196H262.492V473.584H260.712C258.567 473.584 257.13 472.673 257.13 470.103ZM275.113 462.373V473.584H272.26V472.167C271.552 473.118 270.318 473.726 268.921 473.726C266.311 473.726 264.429 472.026 264.429 468.95V462.373H267.262V468.545C267.262 470.346 268.253 471.317 269.751 471.317C271.289 471.317 272.26 470.346 272.26 468.545V462.373H275.113ZM286.61 470.387C286.61 472.309 284.931 473.766 282.199 473.766C279.386 473.766 277.423 472.127 277.302 470.043H280.155C280.256 470.892 281.045 471.54 282.178 471.54C283.291 471.54 283.899 471.034 283.899 470.387C283.899 468.383 277.565 469.658 277.565 465.55C277.565 463.688 279.224 462.191 281.996 462.191C284.708 462.191 286.347 463.668 286.509 465.894H283.797C283.716 465.024 283.028 464.437 281.915 464.437C280.863 464.437 280.317 464.862 280.317 465.51C280.317 467.554 286.529 466.279 286.61 470.387ZM293.029 467.938C293.029 464.437 295.296 462.191 298.149 462.191C299.95 462.191 301.184 463.041 301.852 463.972V462.373H304.705V473.584H301.852V471.945C301.184 472.916 299.909 473.766 298.129 473.766C295.296 473.766 293.029 471.439 293.029 467.938ZM301.852 467.978C301.852 465.854 300.436 464.68 298.877 464.68C297.36 464.68 295.923 465.813 295.923 467.938C295.923 470.063 297.36 471.277 298.877 471.277C300.436 471.277 301.852 470.103 301.852 467.978ZM315.324 473.584V467.392C315.324 465.591 314.332 464.619 312.835 464.619C311.297 464.619 310.305 465.591 310.305 467.392V473.584H307.472V462.373H310.305V463.769C311.034 462.818 312.248 462.211 313.685 462.211C316.295 462.211 318.157 463.911 318.157 467.007V473.584H315.324ZM320.122 467.938C320.122 464.437 322.389 462.191 325.262 462.191C326.74 462.191 328.156 462.879 328.925 463.931V458.609H331.799V473.584H328.925V471.925C328.257 472.957 327.003 473.766 325.242 473.766C322.389 473.766 320.122 471.439 320.122 467.938ZM328.945 467.978C328.945 465.854 327.529 464.68 325.971 464.68C324.453 464.68 323.016 465.813 323.016 467.938C323.016 470.063 324.453 471.277 325.971 471.277C327.529 471.277 328.945 470.103 328.945 467.978ZM339.833 470.103V464.7H338.497V462.373H339.833V459.601H342.686V462.373H345.195V464.7H342.686V470.124C342.686 470.872 342.99 471.196 343.88 471.196H345.195V473.584H343.414C341.269 473.584 339.833 472.673 339.833 470.103ZM347.233 473.584V458.609H350.066V463.769C350.794 462.818 352.049 462.211 353.547 462.211C356.076 462.211 357.918 463.911 357.918 467.007V473.584H355.084V467.392C355.084 465.591 354.093 464.619 352.595 464.619C351.058 464.619 350.066 465.591 350.066 467.392V473.584H347.233ZM365.428 464.518C364.072 464.518 362.999 465.388 362.777 466.926H368.099C368.058 465.449 366.885 464.518 365.428 464.518ZM370.75 470.063C370.143 472.127 368.281 473.766 365.509 473.766C362.251 473.766 359.883 471.5 359.883 467.978C359.883 464.437 362.19 462.191 365.509 462.191C368.747 462.191 371.033 464.397 371.033 467.736C371.033 468.1 371.013 468.464 370.952 468.828H362.757C362.898 470.488 364.032 471.419 365.448 471.419C366.662 471.419 367.33 470.812 367.694 470.063H370.75ZM5.64397 497.978C5.64397 494.457 7.95088 492.191 11.1886 492.191C13.9812 492.191 15.8632 493.648 16.4702 496.157H13.4146C13.0908 495.206 12.3421 494.599 11.1684 494.599C9.59 494.599 8.53772 495.793 8.53772 497.978C8.53772 500.164 9.59 501.338 11.1684 501.338C12.3421 501.338 13.0706 500.812 13.4146 499.8H16.4702C15.8632 502.188 13.9812 503.766 11.1886 503.766C7.95088 503.766 5.64397 501.5 5.64397 497.978ZM29.372 497.978C29.372 501.5 26.7818 503.766 23.5238 503.766C20.286 503.766 17.8374 501.5 17.8374 497.978C17.8374 494.437 20.3669 492.191 23.6047 492.191C26.8425 492.191 29.372 494.437 29.372 497.978ZM20.711 497.978C20.711 500.204 22.0061 501.297 23.5238 501.297C25.0212 501.297 26.458 500.204 26.458 497.978C26.458 495.732 25.0617 494.66 23.5642 494.66C22.0668 494.66 20.711 495.732 20.711 497.978ZM34.2832 497.999V503.584H31.4501V492.373H34.2832V494.113C34.9914 492.96 36.1651 492.211 37.7233 492.211V495.186H36.9746C35.295 495.186 34.2832 495.833 34.2832 497.999ZM42.4645 497.999V503.584H39.6315V492.373H42.4645V494.113C43.1728 492.96 44.3465 492.211 45.9046 492.211V495.186H45.1559C43.4763 495.186 42.4645 495.833 42.4645 497.999ZM52.629 494.518C51.2732 494.518 50.2007 495.388 49.9781 496.926H55.3002C55.2597 495.449 54.086 494.518 52.629 494.518ZM57.9511 500.063C57.344 502.127 55.4823 503.766 52.71 503.766C49.452 503.766 47.0843 501.5 47.0843 497.978C47.0843 494.437 49.3913 492.191 52.71 492.191C55.9477 492.191 58.2344 494.397 58.2344 497.736C58.2344 498.1 58.2142 498.464 58.1535 498.828H49.9579C50.0995 500.488 51.2327 501.419 52.6493 501.419C53.8634 501.419 54.5312 500.812 54.8955 500.063H57.9511ZM69.0038 500.387C69.0038 502.309 67.3242 503.766 64.5923 503.766C61.7795 503.766 59.8166 502.127 59.6952 500.043H62.5485C62.6496 500.892 63.4388 501.54 64.5721 501.54C65.685 501.54 66.2921 501.034 66.2921 500.387C66.2921 498.383 59.9582 499.658 59.9582 495.55C59.9582 493.688 61.6176 492.191 64.3899 492.191C67.1016 492.191 68.7407 493.668 68.9026 495.894H66.1909C66.11 495.024 65.422 494.437 64.309 494.437C63.2567 494.437 62.7103 494.862 62.7103 495.51C62.7103 497.554 68.9228 496.279 69.0038 500.387ZM74.1624 493.992C74.8301 493.041 76.1253 492.191 77.8656 492.191C80.7391 492.191 82.9853 494.437 82.9853 497.938C82.9853 501.439 80.7391 503.766 77.8656 503.766C76.105 503.766 74.8504 502.896 74.1624 501.985V508.926H71.3293V492.373H74.1624V493.992ZM80.0915 497.938C80.0915 495.813 78.6548 494.68 77.1168 494.68C75.5991 494.68 74.1624 495.854 74.1624 497.978C74.1624 500.103 75.5991 501.277 77.1168 501.277C78.6548 501.277 80.0915 500.063 80.0915 497.938ZM95.8702 497.978C95.8702 501.5 93.28 503.766 90.022 503.766C86.7843 503.766 84.3357 501.5 84.3357 497.978C84.3357 494.437 86.8652 492.191 90.103 492.191C93.3407 492.191 95.8702 494.437 95.8702 497.978ZM87.2092 497.978C87.2092 500.204 88.5043 501.297 90.022 501.297C91.5195 501.297 92.9563 500.204 92.9563 497.978C92.9563 495.732 91.56 494.66 90.0625 494.66C88.565 494.66 87.2092 495.732 87.2092 497.978ZM105.8 503.584V497.392C105.8 495.591 104.808 494.619 103.311 494.619C101.773 494.619 100.781 495.591 100.781 497.392V503.584H97.9484V492.373H100.781V493.769C101.51 492.818 102.724 492.211 104.161 492.211C106.771 492.211 108.633 493.911 108.633 497.007V503.584H105.8ZM110.599 497.938C110.599 494.437 112.865 492.191 115.739 492.191C117.216 492.191 118.632 492.879 119.401 493.931V488.609H122.275V503.584H119.401V501.925C118.733 502.957 117.479 503.766 115.718 503.766C112.865 503.766 110.599 501.439 110.599 497.938ZM119.421 497.978C119.421 495.854 118.005 494.68 116.447 494.68C114.929 494.68 113.492 495.813 113.492 497.938C113.492 500.063 114.929 501.277 116.447 501.277C118.005 501.277 119.421 500.103 119.421 497.978ZM125.042 503.584V492.373H127.875V503.584H125.042ZM126.478 491.038C125.467 491.038 124.738 490.309 124.738 489.378C124.738 488.447 125.467 487.719 126.478 487.719C127.47 487.719 128.219 488.447 128.219 489.378C128.219 490.309 127.47 491.038 126.478 491.038ZM138.525 503.584V497.392C138.525 495.591 137.534 494.619 136.036 494.619C134.498 494.619 133.507 495.591 133.507 497.392V503.584H130.674V492.373H133.507V493.769C134.235 492.818 135.45 492.211 136.886 492.211C139.497 492.211 141.358 493.911 141.358 497.007V503.584H138.525ZM143.324 497.938C143.324 494.437 145.59 492.191 148.444 492.191C150.204 492.191 151.479 493 152.147 493.972V492.373H155V503.665C155 506.7 153.139 509.108 149.456 509.108C146.299 509.108 144.093 507.53 143.81 504.96H146.623C146.906 505.972 147.958 506.64 149.375 506.64C150.933 506.64 152.147 505.749 152.147 503.665V501.925C151.479 502.896 150.204 503.766 148.444 503.766C145.59 503.766 143.324 501.439 143.324 497.938ZM152.147 497.978C152.147 495.854 150.73 494.68 149.172 494.68C147.655 494.68 146.218 495.813 146.218 497.938C146.218 500.063 147.655 501.277 149.172 501.277C150.73 501.277 152.147 500.103 152.147 497.978ZM162.589 503.584V492.373H165.422V503.584H162.589ZM164.026 491.038C163.014 491.038 162.286 490.309 162.286 489.378C162.286 488.447 163.014 487.719 164.026 487.719C165.017 487.719 165.766 488.447 165.766 489.378C165.766 490.309 165.017 491.038 164.026 491.038ZM176.073 503.584V497.392C176.073 495.591 175.081 494.619 173.584 494.619C172.046 494.619 171.054 495.591 171.054 497.392V503.584H168.221V492.373H171.054V493.769C171.783 492.818 172.997 492.211 174.434 492.211C177.044 492.211 178.906 493.911 178.906 497.007V503.584H176.073ZM181.903 503.584V494.7H180.629V492.373H181.903V491.806C181.903 489.054 183.462 487.78 186.618 487.86V490.248C185.242 490.208 184.777 490.653 184.777 491.908V492.373H186.74V494.7H184.777V503.584H181.903ZM199.402 497.978C199.402 501.5 196.812 503.766 193.554 503.766C190.316 503.766 187.867 501.5 187.867 497.978C187.867 494.437 190.397 492.191 193.635 492.191C196.872 492.191 199.402 494.437 199.402 497.978ZM190.741 497.978C190.741 500.204 192.036 501.297 193.554 501.297C195.051 501.297 196.488 500.204 196.488 497.978C196.488 495.732 195.092 494.66 193.594 494.66C192.097 494.66 190.741 495.732 190.741 497.978ZM204.313 497.999V503.584H201.48V492.373H204.313V494.113C205.021 492.96 206.195 492.211 207.753 492.211V495.186H207.005C205.325 495.186 204.313 495.833 204.313 497.999ZM225.344 503.584V497.392C225.344 495.611 224.353 494.68 222.855 494.68C221.338 494.68 220.346 495.611 220.346 497.392V503.584H217.513V497.392C217.513 495.611 216.522 494.68 215.024 494.68C213.486 494.68 212.495 495.611 212.495 497.392V503.584H209.662V492.373H212.495V493.729C213.203 492.798 214.397 492.211 215.793 492.211C217.533 492.211 218.97 492.96 219.739 494.356C220.468 493.081 221.945 492.211 223.584 492.211C226.275 492.211 228.177 493.911 228.177 497.007V503.584H225.344ZM230.137 497.938C230.137 494.437 232.404 492.191 235.257 492.191C237.058 492.191 238.292 493.041 238.96 493.972V492.373H241.814V503.584H238.96V501.945C238.292 502.916 237.018 503.766 235.237 503.766C232.404 503.766 230.137 501.439 230.137 497.938ZM238.96 497.978C238.96 495.854 237.544 494.68 235.986 494.68C234.468 494.68 233.031 495.813 233.031 497.938C233.031 500.063 234.468 501.277 235.986 501.277C237.544 501.277 238.96 500.103 238.96 497.978ZM245.026 500.103V494.7H243.69V492.373H245.026V489.601H247.879V492.373H250.388V494.7H247.879V500.124C247.879 500.872 248.183 501.196 249.073 501.196H250.388V503.584H248.607C246.462 503.584 245.026 502.673 245.026 500.103ZM252.426 503.584V492.373H255.259V503.584H252.426ZM253.863 491.038C252.851 491.038 252.122 490.309 252.122 489.378C252.122 488.447 252.851 487.719 253.863 487.719C254.854 487.719 255.603 488.447 255.603 489.378C255.603 490.309 254.854 491.038 253.863 491.038ZM268.884 497.978C268.884 501.5 266.294 503.766 263.036 503.766C259.798 503.766 257.35 501.5 257.35 497.978C257.35 494.437 259.879 492.191 263.117 492.191C266.355 492.191 268.884 494.437 268.884 497.978ZM260.223 497.978C260.223 500.204 261.518 501.297 263.036 501.297C264.534 501.297 265.97 500.204 265.97 497.978C265.97 495.732 264.574 494.66 263.077 494.66C261.579 494.66 260.223 495.732 260.223 497.978ZM278.814 503.584V497.392C278.814 495.591 277.822 494.619 276.325 494.619C274.787 494.619 273.795 495.591 273.795 497.392V503.584H270.962V492.373H273.795V493.769C274.524 492.818 275.738 492.211 277.175 492.211C279.785 492.211 281.647 493.911 281.647 497.007V503.584H278.814ZM288.435 497.938C288.435 494.437 290.701 492.191 293.574 492.191C295.052 492.191 296.468 492.879 297.237 493.931V488.609H300.111V503.584H297.237V501.925C296.569 502.957 295.315 503.766 293.554 503.766C290.701 503.766 288.435 501.439 288.435 497.938ZM297.257 497.978C297.257 495.854 295.841 494.68 294.283 494.68C292.765 494.68 291.328 495.813 291.328 497.938C291.328 500.063 292.765 501.277 294.283 501.277C295.841 501.277 297.257 500.103 297.257 497.978ZM302.878 503.584V492.373H305.711V503.584H302.878ZM304.314 491.038C303.303 491.038 302.574 490.309 302.574 489.378C302.574 488.447 303.303 487.719 304.314 487.719C305.306 487.719 306.055 488.447 306.055 489.378C306.055 490.309 305.306 491.038 304.314 491.038ZM317.211 500.387C317.211 502.309 315.532 503.766 312.8 503.766C309.987 503.766 308.024 502.127 307.903 500.043H310.756C310.857 500.892 311.646 501.54 312.78 501.54C313.893 501.54 314.5 501.034 314.5 500.387C314.5 498.383 308.166 499.658 308.166 495.55C308.166 493.688 309.825 492.191 312.597 492.191C315.309 492.191 316.948 493.668 317.11 495.894H314.398C314.317 495.024 313.629 494.437 312.516 494.437C311.464 494.437 310.918 494.862 310.918 495.51C310.918 497.554 317.13 496.279 317.211 500.387ZM322.37 493.992C323.038 493.041 324.333 492.191 326.073 492.191C328.947 492.191 331.193 494.437 331.193 497.938C331.193 501.439 328.947 503.766 326.073 503.766C324.312 503.766 323.058 502.896 322.37 501.985V508.926H319.537V492.373H322.37V493.992ZM328.299 497.938C328.299 495.813 326.862 494.68 325.324 494.68C323.807 494.68 322.37 495.854 322.37 497.978C322.37 500.103 323.807 501.277 325.324 501.277C326.862 501.277 328.299 500.063 328.299 497.938ZM333.251 503.584V488.609H336.084V503.584H333.251ZM338.155 497.938C338.155 494.437 340.421 492.191 343.275 492.191C345.076 492.191 346.31 493.041 346.978 493.972V492.373H349.831V503.584H346.978V501.945C346.31 502.916 345.035 503.766 343.255 503.766C340.421 503.766 338.155 501.439 338.155 497.938ZM346.978 497.978C346.978 495.854 345.561 494.68 344.003 494.68C342.486 494.68 341.049 495.813 341.049 497.938C341.049 500.063 342.486 501.277 344.003 501.277C345.561 501.277 346.978 500.103 346.978 497.978ZM357.374 500.204L360.308 492.373H363.323L356.382 508.886H353.367L355.795 503.301L351.303 492.373H354.48L357.374 500.204ZM369.667 494.518C368.311 494.518 367.238 495.388 367.016 496.926H372.338C372.297 495.449 371.124 494.518 369.667 494.518ZM374.989 500.063C374.382 502.127 372.52 503.766 369.748 503.766C366.49 503.766 364.122 501.5 364.122 497.978C364.122 494.437 366.429 492.191 369.748 492.191C372.985 492.191 375.272 494.397 375.272 497.736C375.272 498.1 375.252 498.464 375.191 498.828H366.996C367.137 500.488 368.27 501.419 369.687 501.419C370.901 501.419 371.569 500.812 371.933 500.063H374.989ZM376.611 497.938C376.611 494.437 378.878 492.191 381.751 492.191C383.229 492.191 384.645 492.879 385.414 493.931V488.609H388.288V503.584H385.414V501.925C384.746 502.957 383.492 503.766 381.731 503.766C378.878 503.766 376.611 501.439 376.611 497.938ZM385.434 497.978C385.434 495.854 384.018 494.68 382.46 494.68C380.942 494.68 379.505 495.813 379.505 497.938C379.505 500.063 380.942 501.277 382.46 501.277C384.018 501.277 385.434 500.103 385.434 497.978ZM395.876 503.584V492.373H398.709V503.584H395.876ZM397.313 491.038C396.301 491.038 395.573 490.309 395.573 489.378C395.573 488.447 396.301 487.719 397.313 487.719C398.305 487.719 399.053 488.447 399.053 489.378C399.053 490.309 398.305 491.038 397.313 491.038ZM409.36 503.584V497.392C409.36 495.591 408.369 494.619 406.871 494.619C405.333 494.619 404.342 495.591 404.342 497.392V503.584H401.509V492.373H404.342V493.769C405.07 492.818 406.284 492.211 407.721 492.211C410.331 492.211 412.193 493.911 412.193 497.007V503.584H409.36ZM418.981 497.938C418.981 494.437 421.247 492.191 424.1 492.191C425.901 492.191 427.136 493.041 427.804 493.972V492.373H430.657V503.584H427.804V501.945C427.136 502.916 425.861 503.766 424.08 503.766C421.247 503.766 418.981 501.439 418.981 497.938ZM427.804 497.978C427.804 495.854 426.387 494.68 424.829 494.68C423.311 494.68 421.874 495.813 421.874 497.938C421.874 500.063 423.311 501.277 424.829 501.277C426.387 501.277 427.804 500.103 427.804 497.978ZM153.193 530.103V524.7H151.857V522.373H153.193V519.601H156.046V522.373H158.555V524.7H156.046V530.124C156.046 530.872 156.35 531.196 157.24 531.196H158.555V533.584H156.775C154.63 533.584 153.193 532.673 153.193 530.103ZM159.865 527.938C159.865 524.437 162.131 522.191 164.984 522.191C166.785 522.191 168.02 523.041 168.688 523.972V522.373H171.541V533.584H168.688V531.945C168.02 532.916 166.745 533.766 164.964 533.766C162.131 533.766 159.865 531.439 159.865 527.938ZM168.688 527.978C168.688 525.854 167.271 524.68 165.713 524.68C164.195 524.68 162.758 525.813 162.758 527.938C162.758 530.063 164.195 531.277 165.713 531.277C167.271 531.277 168.688 530.103 168.688 527.978ZM177.141 524.012C177.829 522.98 179.144 522.191 180.844 522.191C183.718 522.191 185.964 524.437 185.964 527.938C185.964 531.439 183.718 533.766 180.844 533.766C179.083 533.766 177.829 532.957 177.141 531.985V533.584H174.308V518.609H177.141V524.012ZM183.07 527.938C183.07 525.813 181.633 524.68 180.095 524.68C178.578 524.68 177.141 525.854 177.141 527.978C177.141 530.103 178.578 531.277 180.095 531.277C181.633 531.277 183.07 530.063 183.07 527.938ZM188.022 533.584V518.609H190.855V533.584H188.022ZM198.471 524.518C197.115 524.518 196.042 525.388 195.82 526.926H201.142C201.101 525.449 199.928 524.518 198.471 524.518ZM203.793 530.063C203.186 532.127 201.324 533.766 198.552 533.766C195.294 533.766 192.926 531.5 192.926 527.978C192.926 524.437 195.233 522.191 198.552 522.191C201.789 522.191 204.076 524.397 204.076 527.736C204.076 528.1 204.056 528.464 203.995 528.828H195.8C195.941 530.488 197.074 531.419 198.491 531.419C199.705 531.419 200.373 530.812 200.737 530.063H203.793ZM211.269 533.584V524.7H209.994V522.373H211.269V521.806C211.269 519.054 212.828 517.78 215.984 517.86V520.248C214.608 520.208 214.143 520.653 214.143 521.908V522.373H216.106V524.7H214.143V533.584H211.269ZM228.768 527.978C228.768 531.5 226.178 533.766 222.92 533.766C219.682 533.766 217.233 531.5 217.233 527.978C217.233 524.437 219.763 522.191 223.001 522.191C226.238 522.191 228.768 524.437 228.768 527.978ZM220.107 527.978C220.107 530.204 221.402 531.297 222.92 531.297C224.417 531.297 225.854 530.204 225.854 527.978C225.854 525.732 224.458 524.66 222.96 524.66C221.463 524.66 220.107 525.732 220.107 527.978ZM233.679 527.999V533.584H230.846V522.373H233.679V524.113C234.387 522.96 235.561 522.211 237.119 522.211V525.186H236.371C234.691 525.186 233.679 525.833 233.679 527.999ZM254.71 533.584V527.392C254.71 525.611 253.719 524.68 252.221 524.68C250.704 524.68 249.712 525.611 249.712 527.392V533.584H246.879V527.392C246.879 525.611 245.887 524.68 244.39 524.68C242.852 524.68 241.861 525.611 241.861 527.392V533.584H239.027V522.373H241.861V523.729C242.569 522.798 243.763 522.211 245.159 522.211C246.899 522.211 248.336 522.96 249.105 524.356C249.834 523.081 251.311 522.211 252.95 522.211C255.641 522.211 257.543 523.911 257.543 527.007V533.584H254.71ZM259.503 527.938C259.503 524.437 261.77 522.191 264.623 522.191C266.424 522.191 267.658 523.041 268.326 523.972V522.373H271.179V533.584H268.326V531.945C267.658 532.916 266.384 533.766 264.603 533.766C261.77 533.766 259.503 531.439 259.503 527.938ZM268.326 527.978C268.326 525.854 266.91 524.68 265.352 524.68C263.834 524.68 262.397 525.813 262.397 527.938C262.397 530.063 263.834 531.277 265.352 531.277C266.91 531.277 268.326 530.103 268.326 527.978ZM274.392 530.103V524.7H273.056V522.373H274.392V519.601H277.245V522.373H279.754V524.7H277.245V530.124C277.245 530.872 277.548 531.196 278.439 531.196H279.754V533.584H277.973C275.828 533.584 274.392 532.673 274.392 530.103ZM284.767 532.066C284.767 532.997 284.038 533.726 283.046 533.726C282.014 533.726 281.286 532.997 281.286 532.066C281.286 531.135 282.014 530.407 283.046 530.407C284.038 530.407 284.767 531.135 284.767 532.066Z" fill="#008080"/>
</svg>
