<svg width="261" height="213" viewBox="0 0 261 213" fill="none" xmlns="http://www.w3.org/2000/svg">
<circle cx="124.73" cy="118.973" r="78.6757" fill="#EBF8E8"/>
<circle cx="124.732" cy="118.972" r="57.5676" fill="#C5EBBA"/>
<path opacity="0.99" d="M117.971 133.374C117.519 133.374 117.072 133.283 116.655 133.107C116.238 132.93 115.859 132.67 115.54 132.343L105.871 122.449C105.233 121.787 104.876 120.895 104.879 119.966C104.882 119.037 105.244 118.147 105.886 117.49C106.528 116.833 107.398 116.462 108.306 116.459C109.214 116.456 110.086 116.821 110.732 117.474L117.971 124.881L136.813 105.601C137.459 104.948 138.331 104.583 139.239 104.586C140.147 104.589 141.017 104.959 141.659 105.616C142.301 106.273 142.663 107.163 142.666 108.093C142.669 109.022 142.313 109.914 141.675 110.575L120.402 132.343C120.083 132.67 119.704 132.93 119.287 133.107C118.87 133.283 118.422 133.374 117.971 133.374Z" fill="white"/>
<path d="M123.771 83.791C116.971 83.791 110.324 85.8543 104.67 89.7199C99.0165 93.5856 94.6099 99.08 92.0077 105.508C89.4055 111.937 88.7247 119.01 90.0513 125.835C91.3778 132.659 94.6523 138.927 99.4605 143.847C104.269 148.767 110.395 152.118 117.064 153.475C123.733 154.833 130.646 154.136 136.928 151.473C143.21 148.811 148.58 144.302 152.358 138.516C156.135 132.731 158.152 125.929 158.152 118.971C158.141 109.644 154.516 100.702 148.071 94.1068C141.625 87.5116 132.886 83.8017 123.771 83.791ZM141.673 110.575L120.4 132.342C120.081 132.669 119.702 132.928 119.285 133.105C118.868 133.282 118.421 133.373 117.969 133.373C117.518 133.373 117.071 133.282 116.654 133.105C116.237 132.928 115.858 132.669 115.539 132.342L105.869 122.448C105.231 121.787 104.875 120.894 104.878 119.965C104.88 119.036 105.242 118.146 105.884 117.489C106.526 116.832 107.396 116.462 108.304 116.459C109.212 116.456 110.085 116.82 110.731 117.473L117.969 124.88L136.812 105.6C137.458 104.947 138.33 104.582 139.238 104.585C140.146 104.588 141.016 104.959 141.658 105.616C142.3 106.273 142.662 107.163 142.665 108.092C142.668 109.021 142.311 109.914 141.673 110.575Z" fill="#53C330"/>
<path d="M54.1765 14.9055L60.9609 8.12109" stroke="#B5B5B5" stroke-width="1.5" stroke-linecap="round"/>
<path d="M54.1765 8.12185L60.9609 14.9062" stroke="#B5B5B5" stroke-width="1.5" stroke-linecap="round"/>
<path d="M200.012 204.878L206.797 198.094" stroke="#B5B5B5" stroke-width="1.5" stroke-linecap="round"/>
<path d="M200.012 198.095L206.797 204.879" stroke="#B5B5B5" stroke-width="1.5" stroke-linecap="round"/>
<path d="M24.9433 198.928C23.6782 198.928 22.4415 199.303 21.3896 200.006C20.3377 200.709 19.5179 201.708 19.0338 202.876C18.5496 204.045 18.423 205.331 18.6698 206.572C18.9166 207.813 19.5258 208.953 20.4203 209.847C21.3149 210.742 22.4546 211.351 23.6954 211.598C24.9362 211.844 26.2223 211.718 27.3911 211.234C28.5599 210.75 29.5588 209.93 30.2617 208.878C30.9645 207.826 31.3397 206.589 31.3397 205.324C31.3397 204.484 31.1742 203.652 30.8528 202.876C30.5313 202.1 30.0602 201.395 29.4662 200.801C28.8722 200.207 28.1671 199.736 27.3911 199.415C26.615 199.093 25.7833 198.928 24.9433 198.928ZM24.9433 210.441C23.9312 210.441 22.9419 210.141 22.1004 209.579C21.2589 209.017 20.603 208.217 20.2157 207.282C19.8284 206.347 19.727 205.318 19.9245 204.326C20.1219 203.333 20.6093 202.421 21.3249 201.706C22.0406 200.99 22.9524 200.503 23.945 200.305C24.9376 200.108 25.9665 200.209 26.9015 200.597C27.8365 200.984 28.6357 201.64 29.198 202.481C29.7603 203.323 30.0604 204.312 30.0604 205.324C30.0604 206.681 29.5213 207.983 28.5616 208.942C27.602 209.902 26.3004 210.441 24.9433 210.441Z" fill="#B5B5B5"/>
<path d="M253.295 106.82C252.03 106.82 250.793 107.195 249.741 107.898C248.689 108.601 247.869 109.6 247.385 110.769C246.901 111.938 246.775 113.224 247.021 114.465C247.268 115.705 247.877 116.845 248.772 117.74C249.666 118.634 250.806 119.243 252.047 119.49C253.288 119.737 254.574 119.61 255.743 119.126C256.911 118.642 257.91 117.822 258.613 116.77C259.316 115.718 259.691 114.482 259.691 113.217C259.691 112.377 259.526 111.545 259.204 110.769C258.883 109.993 258.412 109.288 257.818 108.694C257.224 108.1 256.519 107.629 255.743 107.307C254.967 106.986 254.135 106.82 253.295 106.82ZM253.295 118.334C252.283 118.334 251.293 118.034 250.452 117.471C249.61 116.909 248.955 116.11 248.567 115.175C248.18 114.24 248.079 113.211 248.276 112.218C248.473 111.226 248.961 110.314 249.676 109.598C250.392 108.883 251.304 108.395 252.297 108.198C253.289 108 254.318 108.102 255.253 108.489C256.188 108.876 256.987 109.532 257.55 110.374C258.112 111.215 258.412 112.205 258.412 113.217C258.412 114.574 257.873 115.875 256.913 116.835C255.954 117.795 254.652 118.334 253.295 118.334Z" fill="#B5B5B5"/>
<circle cx="4.7973" cy="93.0668" r="4.7973" fill="#53C330"/>
<circle cx="208.204" cy="31.6625" r="4.7973" fill="#53C330"/>
</svg>
