<svg width="102" height="74" viewBox="0 0 102 74" fill="none" xmlns="http://www.w3.org/2000/svg">
<g filter="url(#filter0_d_34278_5794)">
<rect x="14.75" y="14.75" width="72.3064" height="44.5" rx="2.60484" fill="white"/>
<rect x="14.75" y="14.75" width="72.3064" height="44.5" rx="2.60484" stroke="#005656" stroke-width="1.5"/>
<path d="M58.0885 41.7923C57.7073 41.7923 57.3417 41.9438 57.0721 42.2134C56.8025 42.4829 56.651 42.8486 56.651 43.2298C56.651 43.6111 56.8025 43.9767 57.0721 44.2463C57.3417 44.5159 57.7073 44.6673 58.0885 44.6673H62.8802C63.2615 44.6673 63.6271 44.5159 63.8967 44.2463C64.1663 43.9767 64.3177 43.6111 64.3177 43.2298C64.3177 42.8486 64.1663 42.4829 63.8967 42.2134C63.6271 41.9438 63.2615 41.7923 62.8802 41.7923H58.0885ZM31.7344 29.8132C31.7344 28.1611 32.3907 26.5767 33.5589 25.4085C34.7271 24.2403 36.3115 23.584 37.9635 23.584H63.8385C64.6566 23.584 65.4666 23.7451 66.2223 24.0582C66.9781 24.3712 67.6648 24.83 68.2432 25.4085C68.8217 25.9869 69.2805 26.6736 69.5935 27.4294C69.9066 28.1851 70.0677 28.9951 70.0677 29.8132V44.1882C70.0677 45.0062 69.9066 45.8162 69.5935 46.572C69.2805 47.3277 68.8217 48.0144 68.2432 48.5928C67.6648 49.1713 66.9781 49.6301 66.2223 49.9432C65.4666 50.2562 64.6566 50.4173 63.8385 50.4173H37.9635C36.3115 50.4173 34.7271 49.761 33.5589 48.5928C32.3907 47.4246 31.7344 45.8402 31.7344 44.1882V29.8132ZM67.1927 32.209V29.8132C67.1927 28.9236 66.8393 28.0704 66.2103 27.4414C65.5813 26.8124 64.7281 26.459 63.8385 26.459H37.9635C37.074 26.459 36.2208 26.8124 35.5918 27.4414C34.9628 28.0704 34.6094 28.9236 34.6094 29.8132V32.209H67.1927ZM34.6094 35.084V44.1882C34.6094 46.0397 36.112 47.5423 37.9635 47.5423H63.8385C64.7281 47.5423 65.5813 47.1889 66.2103 46.5599C66.8393 45.9309 67.1927 45.0777 67.1927 44.1882V35.084H34.6094Z" fill="#005656"/>
</g>
<defs>
<filter id="filter0_d_34278_5794" x="0.580646" y="0.580646" width="100.643" height="72.8387" filterUnits="userSpaceOnUse" color-interpolation-filters="sRGB">
<feFlood flood-opacity="0" result="BackgroundImageFix"/>
<feColorMatrix in="SourceAlpha" type="matrix" values="0 0 0 0 0 0 0 0 0 0 0 0 0 0 0 0 0 0 127 0" result="hardAlpha"/>
<feOffset/>
<feGaussianBlur stdDeviation="6.70968"/>
<feComposite in2="hardAlpha" operator="out"/>
<feColorMatrix type="matrix" values="0 0 0 0 0 0 0 0 0 0 0 0 0 0 0 0 0 0 0.04 0"/>
<feBlend mode="normal" in2="BackgroundImageFix" result="effect1_dropShadow_34278_5794"/>
<feBlend mode="normal" in="SourceGraphic" in2="effect1_dropShadow_34278_5794" result="shape"/>
</filter>
</defs>
</svg>
