<svg width="240" height="240" viewBox="0 0 240 240" fill="none" xmlns="http://www.w3.org/2000/svg">
<g filter="url(#filter0_d_4085_11136)">
<path d="M132.5 138H107.5C103.358 138 100 134.642 100 130.5V105.5C100 101.358 103.358 98 107.5 98H132.5C136.642 98 140 101.358 140 105.5V130.5C140 134.642 136.642 138 132.5 138Z" fill="white" fill-opacity="0.7" shape-rendering="crispEdges"/>
</g>
<path fill-rule="evenodd" clip-rule="evenodd" d="M129.419 121.732C129.419 125.31 127.31 127.419 123.732 127.419H115.95C112.363 127.419 110.25 125.31 110.25 121.732V113.932C110.25 110.359 111.564 108.25 115.143 108.25H117.143C117.861 108.251 118.537 108.588 118.967 109.163L119.88 110.377C120.312 110.951 120.988 111.289 121.706 111.29H124.536C128.123 111.29 129.447 113.116 129.447 116.767L129.419 121.732Z" fill="#36978D"/>
<path d="M115.48 120.463H124.215" stroke="#FAFAFA" stroke-width="1.5" stroke-linecap="round" stroke-linejoin="round"/>
<defs>
<filter id="filter0_d_4085_11136" x="0" y="0" width="240" height="240" filterUnits="userSpaceOnUse" color-interpolation-filters="sRGB">
<feFlood flood-opacity="0" result="BackgroundImageFix"/>
<feColorMatrix in="SourceAlpha" type="matrix" values="0 0 0 0 0 0 0 0 0 0 0 0 0 0 0 0 0 0 127 0" result="hardAlpha"/>
<feOffset dy="2"/>
<feGaussianBlur stdDeviation="50"/>
<feComposite in2="hardAlpha" operator="out"/>
<feColorMatrix type="matrix" values="0 0 0 0 0 0 0 0 0 0 0 0 0 0 0 0 0 0 0.1 0"/>
<feBlend mode="normal" in2="BackgroundImageFix" result="effect1_dropShadow_4085_11136"/>
<feBlend mode="normal" in="SourceGraphic" in2="effect1_dropShadow_4085_11136" result="shape"/>
</filter>
</defs>
</svg>
