<svg width="20" height="20" viewBox="0 0 20 20" fill="none" xmlns="http://www.w3.org/2000/svg">
<path d="M9.88198 10.0003C12.2158 10.0003 14.1077 8.13485 14.1077 5.83366C14.1077 3.53247 12.2158 1.66699 9.88198 1.66699C7.54817 1.66699 5.65625 3.53247 5.65625 5.83366C5.65625 8.13485 7.54817 10.0003 9.88198 10.0003Z" stroke="#20AEF3" stroke-width="2"/>
<path d="M13.2625 13.3359H18.3333M14.1076 18.3359H4.19066C3.95096 18.336 3.71399 18.2858 3.49548 18.1886C3.27697 18.0915 3.08191 17.9496 2.92326 17.7724C2.7646 17.5953 2.64598 17.3869 2.57525 17.161C2.50453 16.9352 2.48332 16.6971 2.51305 16.4626L2.84265 13.8593C2.9193 13.2545 3.2174 12.6981 3.6809 12.2948C4.14439 11.8915 4.74134 11.669 5.3595 11.6693H5.65614L14.1076 18.3359ZM15.7979 10.8359V15.8359V10.8359Z" stroke="#20AEF3" stroke-width="2" stroke-linecap="round" stroke-linejoin="round"/>
</svg>
