<svg width="63" height="63" viewBox="0 0 93 93" fill="none" xmlns="http://www.w3.org/2000/svg">
<g filter="url(#filter0_d_18025_37638)">
<rect x="12.3906" y="6.1366" width="68.3268" height="68.3268" rx="4.58484" fill="white"/>
<rect x="12.6199" y="6.36584" width="67.8684" height="67.8684" rx="4.3556" stroke="#EDEDED" stroke-width="0.458484"/>
</g>
<g clip-path="url(#clip0_18025_37638)">
<path d="M33.8357 26.2427C33.8357 26.5282 33.8357 26.7226 33.8357 26.9189C33.8357 29.705 33.8239 32.4931 33.8455 35.2792C33.8494 35.773 33.7219 35.9237 33.2177 35.9138C31.5541 35.8781 29.8885 35.888 28.2249 35.9098C27.8306 35.9158 27.7227 35.7829 27.7227 35.4042C27.7325 30.986 27.7148 26.5659 27.7364 22.1478C27.7442 20.3413 28.6918 19.1019 30.3025 18.7013C31.0342 18.5189 31.764 18.5923 32.4487 18.9155C35.0167 20.1212 37.5789 21.3367 40.143 22.5503C42.6188 23.7223 45.0868 24.9081 47.5685 26.0662C47.906 26.2229 47.9001 26.4509 47.9001 26.7365C47.8981 33.2169 47.9001 39.6974 47.9001 46.1778C47.9001 48.1073 47.8942 50.0367 47.906 51.9662C47.9079 52.2914 47.8137 52.4342 47.5038 52.577C46.0226 53.2532 44.563 53.977 43.0916 54.6789C42.6836 54.8733 42.2696 55.0517 41.787 55.2679C41.787 55.0279 41.787 54.8554 41.787 54.6809C41.787 46.7668 41.7831 38.8506 41.7988 30.9364C41.7988 30.4863 41.6536 30.2741 41.2671 30.0758C38.9012 28.8602 36.5509 27.6129 34.1947 26.3795C34.1123 26.3359 34.0201 26.3141 33.8377 26.2466L33.8357 26.2427Z" fill="#005656"/>
<path d="M48.8516 51.841V26.6787C49.2714 26.8651 49.6598 27.0218 50.0345 27.2042C51.914 28.1124 53.7954 29.0206 55.663 29.9546C55.8141 30.03 55.9593 30.3056 55.9495 30.4781C55.922 30.9541 56.1005 31.1821 56.5439 31.3328C57.3129 31.5946 58.0565 31.9337 58.8196 32.2152C58.9687 32.2708 59.1747 32.2589 59.3258 32.2014C60.1929 31.8742 61.0541 31.5311 61.9095 31.1742C62.0409 31.1206 62.1331 30.9719 62.2744 30.8351C63.0238 31.19 63.8184 31.5589 64.609 31.9396C65.637 32.4354 66.6571 32.9509 67.689 33.4388C67.9598 33.5657 68.0716 33.7203 68.0716 34.0337C68.0598 37.5297 68.0677 41.0257 68.0559 44.5218C68.0559 44.6863 67.9735 44.9441 67.8538 45.0036C65.9881 45.9277 64.1087 46.826 62.0998 47.7937C62.3234 47.0917 61.833 46.947 61.4916 46.705C60.7971 46.2152 60.083 45.7492 59.3944 45.2515C59.159 45.0829 58.9687 45.0631 58.7353 45.2257C57.9054 45.8028 57.0599 46.356 56.2516 46.9628C56.0868 47.0878 55.9652 47.413 55.9887 47.6271C56.0593 48.2696 55.7945 48.5889 55.2255 48.8507C53.2264 49.7688 51.2528 50.7424 49.2694 51.6903C49.1556 51.7439 49.0301 51.7736 48.8535 51.8351L48.8516 51.841ZM53.0832 33.0501V45.5509C54.3427 44.845 55.5394 44.1866 56.7185 43.4985C56.848 43.4232 56.9441 43.1753 56.9461 43.0067C56.9598 40.3535 56.95 37.6982 56.9637 35.045C56.9637 34.7396 56.8382 34.6107 56.5851 34.5056C55.924 34.2339 55.2707 33.9405 54.6115 33.6628C54.123 33.4586 53.6286 33.2662 53.0832 33.0481V33.0501ZM61.2503 44.5337C61.4504 44.4405 61.5976 44.3829 61.7329 44.3076C62.5432 43.8535 63.3416 43.3815 64.1617 42.9473C64.4344 42.8025 64.5148 42.628 64.5128 42.3286C64.5011 40.3674 64.4599 38.4022 64.5285 36.443C64.558 35.622 64.3461 35.1818 63.5476 34.9419C62.7786 34.7099 62.0507 34.339 61.2503 34.0079V44.5356V44.5337Z" fill="#005656"/>
<path d="M27.7521 62.0002C27.7423 61.792 27.7266 61.6016 27.7266 61.4093C27.7266 55.72 27.7266 50.0288 27.7266 44.3396C27.7266 43.6713 27.7266 43.6713 28.3955 43.6713C30.0435 43.6713 31.6934 43.6832 33.3413 43.6614C33.7396 43.6554 33.8416 43.7943 33.8396 44.171C33.8318 49.0195 33.8357 53.8679 33.8239 58.7164C33.8239 58.8909 33.7101 59.1586 33.5728 59.226C31.7052 60.158 29.8257 61.0603 27.9463 61.9685C27.9071 61.9883 27.856 61.9824 27.754 61.9982L27.7521 62.0002Z" fill="#005656"/>
<path d="M61.1615 49.5111C61.9424 49.5111 62.6427 49.5309 63.3392 49.5032C63.7158 49.4873 63.8159 49.6321 63.812 49.987C63.7963 51.0737 63.7943 52.1624 63.812 53.2491C63.8179 53.6357 63.6805 53.7785 63.2999 53.7627C62.731 53.7408 62.1582 53.7686 61.5873 53.7547C61.2714 53.7468 61.1498 53.8797 61.1576 54.193C61.1674 54.538 61.1439 54.885 61.14 55.2301C61.136 55.7258 60.8378 55.9578 60.4023 55.9717C59.5058 55.9995 58.6092 55.9975 57.7127 55.9717C57.179 55.9578 56.9534 55.704 56.9515 55.1567C56.9436 52.7513 56.9417 50.3459 56.9554 47.9406C56.9554 47.7898 57.0554 47.5876 57.1751 47.5003C57.7009 47.1117 58.2404 46.7408 58.7975 46.3998C58.9211 46.3244 59.1664 46.3284 59.2958 46.4037C59.7157 46.6476 60.0865 46.9887 60.5181 47.2049C61.0791 47.4825 61.2302 47.9029 61.1674 48.4839C61.1341 48.8051 61.1615 49.1323 61.1615 49.5091V49.5111Z" fill="#005656"/>
<path d="M30.1613 42.6733C29.2314 42.6733 28.3035 42.6812 27.3736 42.6713C26.475 42.6614 26.0081 42.1716 26.0062 41.2554C26.0042 40.2679 26.0022 39.2804 26.0062 38.2909C26.0081 37.4025 26.5025 36.8611 27.3775 36.8552C29.3001 36.8393 31.2246 36.8433 33.1472 36.8631C33.2904 36.8631 33.5043 37.0217 33.5651 37.1586C33.8947 37.924 34.2007 38.6994 34.4832 39.4846C34.546 39.6611 34.5342 39.905 34.4675 40.0855C34.2007 40.8232 33.879 41.543 33.6181 42.2826C33.5102 42.588 33.3454 42.6812 33.0452 42.6773C32.0839 42.6654 31.1226 42.6733 30.1613 42.6733Z" fill="#005656"/>
<path d="M61.1641 28.3052C61.1641 28.8644 61.1523 29.4236 61.168 29.9828C61.1778 30.3021 61.1013 30.5262 60.756 30.5956C60.6304 30.6213 60.5029 30.6749 60.3989 30.7482C59.263 31.5415 58.2174 30.9941 57.1757 30.5143C57.0697 30.4647 56.9716 30.2644 56.9697 30.1315C56.954 28.9477 56.954 27.7618 56.9638 26.578C56.9677 26.1021 57.2247 25.8522 57.6897 25.8482C58.5862 25.8403 59.4808 25.8403 60.3774 25.8482C60.9267 25.8522 61.1386 26.0565 61.1562 26.6276C61.1739 27.1868 61.1601 27.746 61.1601 28.3052C61.1601 28.3052 61.1601 28.3052 61.1621 28.3052H61.1641Z" fill="#005656"/>
</g>
<defs>
<filter id="filter0_d_18025_37638" x="0.164389" y="0.0234785" width="92.7806" height="92.7793" filterUnits="userSpaceOnUse" color-interpolation-filters="sRGB">
<feFlood flood-opacity="0" result="BackgroundImageFix"/>
<feColorMatrix in="SourceAlpha" type="matrix" values="0 0 0 0 0 0 0 0 0 0 0 0 0 0 0 0 0 0 127 0" result="hardAlpha"/>
<feMorphology radius="6.11312" operator="erode" in="SourceAlpha" result="effect1_dropShadow_18025_37638"/>
<feOffset dy="6.11312"/>
<feGaussianBlur stdDeviation="9.16968"/>
<feColorMatrix type="matrix" values="0 0 0 0 0 0 0 0 0 0 0 0 0 0 0 0 0 0 0.1 0"/>
<feBlend mode="normal" in2="BackgroundImageFix" result="effect1_dropShadow_18025_37638"/>
<feBlend mode="normal" in="SourceGraphic" in2="effect1_dropShadow_18025_37638" result="shape"/>
</filter>
<clipPath id="clip0_18025_37638">
<rect width="42.0714" height="43.4" fill="white" transform="translate(26.0039 18.6)"/>
</clipPath>
</defs>
</svg>
