<svg width="134" height="72" viewBox="0 0 134 72" fill="none" xmlns="http://www.w3.org/2000/svg">
<path d="M99.4218 49.6436C99.3812 49.691 99.3271 49.735 99.2594 49.7756C99.1951 49.8128 99.1241 49.8466 99.0462 49.8771C98.9718 49.9042 98.894 49.9261 98.8128 49.9431C98.7316 49.96 98.6537 49.9684 98.5793 49.9684C98.4846 49.9684 98.3797 49.9566 98.2646 49.9329C98.153 49.9092 98.0464 49.8686 97.9449 49.8111C97.8434 49.7536 97.7537 49.6775 97.6759 49.5827C97.5981 49.4846 97.549 49.3628 97.5287 49.2173L96.8638 49.263C96.8029 50.0412 96.605 50.6198 96.27 50.9987C95.935 51.3777 95.4562 51.5672 94.8337 51.5672C94.8235 51.5672 94.8151 51.5638 94.8083 51.557H93.5394C93.4312 51.557 93.2874 51.579 93.108 51.623C92.9321 51.6636 92.746 51.7093 92.5497 51.7601C92.3535 51.8108 92.1589 51.8582 91.9661 51.9022C91.7766 51.9428 91.6108 51.9631 91.4687 51.9631C91.2724 51.9631 91.1049 51.9242 90.9662 51.8463C90.8309 51.7685 90.7192 51.6636 90.6312 51.5317C90.5467 51.3997 90.4841 51.2474 90.4435 51.0749C90.4062 50.9023 90.3876 50.7213 90.3876 50.5318C90.3876 49.9769 90.4621 49.4863 90.6109 49.0599C90.7598 48.6302 90.9696 48.2682 91.2403 47.9738C91.5144 47.6794 91.8426 47.4527 92.2249 47.2937C92.6106 47.1347 93.0387 47.045 93.509 47.0247C93.6105 47.0213 93.7188 47.018 93.8338 47.0146C93.9319 47.0112 94.047 47.0078 94.1789 47.0044C94.3109 46.9976 94.4513 46.9909 94.6002 46.9841L94.6916 47.2024C94.7931 47.1584 94.8861 47.1195 94.9707 47.0856C95.0587 47.0484 95.1433 47.018 95.2245 46.9943C95.3091 46.9706 95.392 46.9537 95.4732 46.9435C95.5544 46.93 95.6407 46.9232 95.732 46.9232C95.9959 46.9232 96.204 46.979 96.3563 47.0907C96.5085 47.2024 96.6236 47.3445 96.7014 47.517C96.7792 47.6896 96.8283 47.8825 96.8486 48.0956C96.8723 48.3088 96.8841 48.5169 96.8841 48.7199V48.8874L97.5287 48.8468C97.6133 48.6471 97.7588 48.4949 97.9652 48.39C98.1716 48.2851 98.4423 48.2327 98.7772 48.2327C98.8923 48.2327 98.9904 48.2411 99.0716 48.258C99.1528 48.275 99.2171 48.2969 99.2645 48.324C99.234 48.3849 99.2086 48.4391 99.1883 48.4864C99.168 48.5338 99.1528 48.5812 99.1427 48.6285C99.1325 48.6725 99.1241 48.7199 99.1173 48.7707C99.1139 48.8214 99.1122 48.8806 99.1122 48.9483C99.1122 49.0667 99.1207 49.1682 99.1376 49.2528C99.1545 49.3374 99.1765 49.4085 99.2036 49.466C99.234 49.5201 99.2679 49.5624 99.3051 49.5929C99.3423 49.6199 99.3812 49.6368 99.4218 49.6436ZM95.5138 48.6082C95.5138 48.2631 95.4613 47.9941 95.3564 47.8013C95.2549 47.605 95.0857 47.5069 94.8489 47.5069C94.8083 47.5069 94.7778 47.5086 94.7575 47.512C94.7372 47.5153 94.7186 47.5204 94.7017 47.5272C94.6882 47.5306 94.6746 47.5339 94.6611 47.5373C94.651 47.5407 94.634 47.5441 94.6103 47.5475L94.2145 50.3339C94.2043 50.4117 94.1959 50.4811 94.1891 50.542C94.1857 50.5995 94.184 50.6435 94.184 50.6739C94.1874 50.7314 94.1992 50.789 94.2195 50.8465C94.2432 50.9006 94.2754 50.9514 94.316 50.9987C94.3566 51.0427 94.4073 51.08 94.4682 51.1104C94.5291 51.1375 94.6002 51.151 94.6814 51.151C94.7626 51.151 94.8506 51.1172 94.9453 51.0495C95.0434 50.9784 95.1348 50.8499 95.2194 50.6638C95.304 50.4743 95.3733 50.2154 95.4275 49.8872C95.485 49.5556 95.5138 49.1293 95.5138 48.6082ZM93.2349 47.4967C93.1943 47.4798 93.1554 47.4714 93.1182 47.4714C92.9896 47.4714 92.8509 47.5458 92.702 47.6947C92.5531 47.8435 92.4144 48.0499 92.2858 48.3139C92.1572 48.5778 92.049 48.8925 91.961 49.2579C91.8764 49.6233 91.8341 50.0226 91.8341 50.4557C91.8341 50.6553 91.8476 50.8177 91.8747 50.9429C91.9018 51.0681 91.939 51.1662 91.9864 51.2373C92.0337 51.3083 92.0896 51.3574 92.1539 51.3845C92.2181 51.4115 92.2875 51.4251 92.362 51.4251C92.4364 51.4251 92.4973 51.4065 92.5447 51.3692C92.5954 51.3286 92.6377 51.2796 92.6716 51.2221C92.7054 51.1612 92.7308 51.0952 92.7477 51.0241C92.7646 50.9531 92.7781 50.8854 92.7883 50.8211L93.2349 47.4967ZM103.919 52.9934C103.848 53.0035 103.783 53.0086 103.726 53.0086C103.567 53.0086 103.457 52.9663 103.396 52.8817C103.335 52.7971 103.304 52.6533 103.304 52.4503C103.304 52.2507 103.31 52.0257 103.32 51.7753C103.33 51.5215 103.34 51.2694 103.35 51.019C103.36 50.7687 103.37 50.5335 103.381 50.3136C103.391 50.0903 103.396 49.9092 103.396 49.7705C103.396 49.175 103.318 48.7233 103.162 48.4154C103.01 48.1075 102.78 47.9535 102.472 47.9535C102.293 47.9535 102.142 47.9992 102.02 48.0905C101.902 48.1819 101.807 48.3088 101.736 48.4712C101.665 48.6302 101.614 48.8197 101.584 49.0396C101.553 49.2596 101.538 49.4964 101.538 49.7502C101.538 50.0006 101.542 50.1968 101.548 50.3389C101.559 50.4811 101.575 50.591 101.599 50.6688C101.626 50.7467 101.663 50.8025 101.711 50.8363C101.762 50.8668 101.828 50.8955 101.909 50.9226V51.0596L100.848 51.2474C100.811 51.2542 100.774 51.2593 100.736 51.2627C100.703 51.266 100.67 51.2677 100.64 51.2677C100.555 51.2677 100.483 51.2525 100.422 51.2221C100.364 51.1882 100.315 51.129 100.274 51.0444C100.237 50.9564 100.208 50.838 100.188 50.6891C100.171 50.5403 100.163 50.3491 100.163 50.1156C100.163 49.8991 100.171 49.7164 100.188 49.5675C100.208 49.4152 100.236 49.285 100.269 49.1767C100.303 49.0684 100.344 48.9737 100.391 48.8925C100.442 48.8079 100.498 48.7233 100.559 48.6387C100.694 48.456 100.872 48.2817 101.092 48.1159C101.312 47.9467 101.584 47.8131 101.909 47.715V46.7253C101.909 46.6542 101.899 46.5984 101.878 46.5578C101.858 46.5172 101.836 46.4884 101.812 46.4715C101.785 46.4512 101.755 46.4394 101.721 46.436L101.701 46.3091L102.878 46.1111C102.939 46.101 102.993 46.0959 103.041 46.0959C103.105 46.0959 103.156 46.1061 103.193 46.1264C103.233 46.1433 103.262 46.167 103.279 46.1974C103.299 46.2245 103.311 46.2583 103.315 46.2989C103.321 46.3362 103.325 46.3751 103.325 46.4157V47.5576C103.609 47.5779 103.842 47.6355 104.025 47.7302C104.208 47.8249 104.35 47.9552 104.452 48.121C104.556 48.2834 104.627 48.4797 104.665 48.7097C104.705 48.9364 104.726 49.1936 104.726 49.4812C104.726 49.6944 104.722 49.9008 104.715 50.1004C104.709 50.3 104.7 50.5014 104.69 50.7044C104.68 50.9074 104.671 51.1172 104.665 51.3337C104.658 51.5469 104.655 51.777 104.655 52.024C104.655 52.1153 104.656 52.1948 104.66 52.2625C104.663 52.3302 104.675 52.3894 104.695 52.4402C104.719 52.4909 104.753 52.5349 104.797 52.5721C104.844 52.6093 104.912 52.6415 105 52.6685V52.836L103.919 52.9934ZM110.212 51.5976C110.212 51.9766 110.078 52.2777 109.811 52.5011C109.544 52.721 109.168 52.8394 108.684 52.8563C108.681 52.853 108.662 52.8513 108.629 52.8513C108.561 52.8513 108.453 52.8563 108.304 52.8665C108.155 52.8766 107.994 52.8902 107.822 52.9071C107.652 52.9206 107.485 52.9358 107.319 52.9528C107.157 52.9663 107.03 52.9798 106.938 52.9934C106.894 53.0001 106.852 53.0052 106.812 53.0086C106.771 53.0086 106.732 53.0086 106.695 53.0086C106.546 53.0086 106.421 52.9934 106.319 52.9629C106.218 52.9291 106.137 52.8851 106.076 52.831C106.015 52.7734 105.971 52.7075 105.944 52.633C105.92 52.5586 105.908 52.4774 105.908 52.3894C105.908 52.3488 105.922 52.2913 105.949 52.2168C105.979 52.139 106.022 52.0477 106.076 51.9428C106.299 51.5198 106.514 51.1104 106.72 50.7145C106.808 50.5453 106.898 50.3711 106.989 50.1918C107.084 50.0124 107.175 49.8382 107.263 49.669C107.351 49.4964 107.436 49.334 107.517 49.1818C107.598 49.0261 107.669 48.8891 107.73 48.7707L106.801 48.8874C106.737 48.8942 106.678 48.9009 106.624 48.9077C106.573 48.9145 106.524 48.9178 106.477 48.9178C106.365 48.9178 106.279 48.8942 106.218 48.8468C106.157 48.7994 106.126 48.7097 106.126 48.5778L106.192 46.9384C106.192 46.9012 106.187 46.8674 106.177 46.8369C106.167 46.8031 106.143 46.7828 106.106 46.776V46.6542L107.096 46.5172C107.123 46.5138 107.148 46.5121 107.172 46.5121C107.196 46.5087 107.218 46.507 107.238 46.507C107.329 46.507 107.404 46.5206 107.461 46.5476C107.522 46.5713 107.568 46.6052 107.598 46.6491C107.632 46.6931 107.656 46.7422 107.669 46.7963C107.683 46.8505 107.69 46.908 107.69 46.9689C107.69 46.9858 107.688 47.0027 107.685 47.0196C107.685 47.0366 107.685 47.0535 107.685 47.0704L107.583 48.4408C107.806 48.4137 108.011 48.3883 108.197 48.3646L108.431 48.3342C108.508 48.324 108.579 48.3156 108.644 48.3088C108.711 48.302 108.769 48.2969 108.816 48.2936C108.864 48.2868 108.896 48.2834 108.913 48.2834C109.001 48.2834 109.074 48.2868 109.131 48.2936C109.189 48.2969 109.233 48.3088 109.263 48.3291C109.297 48.346 109.319 48.3714 109.329 48.4052C109.342 48.4391 109.349 48.4847 109.349 48.5423C109.349 48.5896 109.315 48.6861 109.248 48.8316C109.183 48.977 109.097 49.1513 108.989 49.3543C108.884 49.5573 108.766 49.779 108.634 50.0192C108.502 50.2594 108.37 50.4963 108.238 50.7297C108.211 50.7771 108.184 50.8262 108.157 50.8769C108.133 50.9243 108.107 50.9717 108.08 51.019C108.165 51.0157 108.278 51.0089 108.42 50.9987C108.566 50.9886 108.713 50.9784 108.862 50.9683C109.011 50.9581 109.151 50.9497 109.283 50.9429C109.415 50.9361 109.513 50.9328 109.578 50.9328C109.659 50.9328 109.737 50.9446 109.811 50.9683C109.889 50.9886 109.957 51.0258 110.014 51.08C110.075 51.1307 110.122 51.1984 110.156 51.283C110.193 51.3676 110.212 51.4724 110.212 51.5976ZM108.755 51.7956C108.755 51.7448 108.745 51.6941 108.725 51.6433C108.705 51.5892 108.671 51.5401 108.623 51.4961C108.579 51.4488 108.522 51.4115 108.451 51.3845C108.38 51.354 108.295 51.3388 108.197 51.3388C108.16 51.3388 108.113 51.3405 108.055 51.3439C108.001 51.3473 107.947 51.3489 107.893 51.3489C107.828 51.4708 107.767 51.5841 107.71 51.689C107.656 51.7905 107.608 51.8802 107.568 51.958C107.527 52.0358 107.495 52.1018 107.471 52.1559C107.448 52.2067 107.436 52.2388 107.436 52.2524C107.436 52.3302 107.468 52.3979 107.532 52.4554C107.597 52.5095 107.717 52.5366 107.893 52.5366C108.085 52.5366 108.238 52.5044 108.349 52.4402C108.464 52.3759 108.552 52.3014 108.613 52.2168C108.674 52.1322 108.713 52.0493 108.73 51.9681C108.747 51.8869 108.755 51.8294 108.755 51.7956ZM119.602 52.9934C119.53 53.0035 119.466 53.0086 119.409 53.0086C119.253 53.0086 119.143 52.9663 119.079 52.8817C119.018 52.7971 118.987 52.6533 118.987 52.4503C118.987 52.2507 118.992 52.0257 119.003 51.7753C119.013 51.5215 119.023 51.2694 119.033 51.019C119.043 50.7687 119.053 50.5335 119.064 50.3136C119.074 50.0903 119.079 49.9092 119.079 49.7705C119.079 49.175 119.001 48.7233 118.845 48.4154C118.693 48.1075 118.463 47.9535 118.155 47.9535C117.976 47.9535 117.823 47.9958 117.698 48.0804C117.573 48.165 117.472 48.3206 117.394 48.5473C117.316 48.7707 117.258 49.0819 117.221 49.4812C117.187 49.8771 117.17 50.3863 117.17 51.0089C117.17 51.3676 117.172 51.6518 117.176 51.8616C117.182 52.0713 117.198 52.2338 117.221 52.3488C117.245 52.4638 117.28 52.545 117.328 52.5924C117.375 52.6364 117.439 52.6736 117.521 52.7041V52.836L116.47 52.9934C116.429 53.0001 116.391 53.0069 116.353 53.0137C116.316 53.0171 116.281 53.0187 116.247 53.0187C116.169 53.0187 116.101 53.0001 116.044 52.9629C115.99 52.9223 115.944 52.8428 115.907 52.7244C115.869 52.6059 115.841 52.4385 115.82 52.2219C115.803 52.0054 115.795 51.7211 115.795 51.3692C115.795 50.9091 115.805 50.5267 115.825 50.2222C115.849 49.9177 115.88 49.6656 115.917 49.466C115.957 49.2663 116.005 49.1056 116.059 48.9838C116.113 48.8586 116.174 48.7436 116.242 48.6387C116.367 48.4458 116.543 48.2682 116.769 48.1058C116.996 47.9434 117.272 47.8131 117.597 47.715V46.7253C117.597 46.6542 117.587 46.5984 117.566 46.5578C117.546 46.5172 117.524 46.4884 117.5 46.4715C117.473 46.4512 117.443 46.4394 117.409 46.436L117.389 46.3091L118.561 46.1111C118.622 46.101 118.676 46.0959 118.724 46.0959C118.788 46.0959 118.839 46.1061 118.876 46.1264C118.916 46.1433 118.945 46.167 118.962 46.1974C118.982 46.2245 118.994 46.2583 118.998 46.2989C119.004 46.3362 119.008 46.3751 119.008 46.4157V47.5576C119.292 47.5779 119.525 47.6355 119.708 47.7302C119.891 47.8249 120.035 47.9552 120.14 48.121C120.244 48.2834 120.315 48.4797 120.353 48.7097C120.393 48.9364 120.414 49.1936 120.414 49.4812C120.414 49.6944 120.409 49.9008 120.398 50.1004C120.392 50.3 120.383 50.5014 120.373 50.7044C120.366 50.9074 120.358 51.1172 120.348 51.3337C120.341 51.5469 120.337 51.777 120.337 52.024C120.337 52.1153 120.339 52.1948 120.343 52.2625C120.346 52.3302 120.358 52.3894 120.378 52.4402C120.402 52.4909 120.436 52.5349 120.48 52.5721C120.527 52.6093 120.595 52.6415 120.683 52.6685V52.836L119.602 52.9934ZM132.579 53.6582C132.508 53.709 132.405 53.7598 132.27 53.8105C132.134 53.8613 131.975 53.8866 131.793 53.8866C131.701 53.8866 131.607 53.8714 131.508 53.841C131.41 53.8139 131.319 53.7614 131.234 53.6836C131.153 53.6092 131.084 53.5043 131.026 53.3689C130.969 53.237 130.937 53.0661 130.93 52.8563C130.706 52.8868 130.519 52.9122 130.366 52.9325C130.218 52.9494 130.091 52.9646 129.986 52.9781C129.881 52.9917 129.791 53.0018 129.717 53.0086C129.646 53.012 129.575 53.0137 129.504 53.0137C129.409 53.0137 129.331 53.0035 129.27 52.9832C129.213 52.9595 129.165 52.924 129.128 52.8766C129.094 52.8293 129.071 52.7701 129.057 52.699C129.043 52.6246 129.037 52.5383 129.037 52.4402C129.037 52.4334 129.038 52.3911 129.042 52.3133C129.045 52.2321 129.05 52.1289 129.057 52.0037C129.064 51.8785 129.071 51.7381 129.077 51.5824C129.087 51.4234 129.096 51.261 129.103 51.0952C129.109 50.9294 129.116 50.767 129.123 50.6079C129.133 50.4489 129.142 50.3051 129.148 50.1765C129.155 50.0446 129.16 49.9363 129.164 49.8517C129.167 49.7671 129.169 49.7164 129.169 49.6994C129.169 49.4085 129.143 49.1581 129.093 48.9483C129.045 48.7351 128.962 48.5609 128.844 48.4255C128.729 48.2868 128.575 48.1853 128.382 48.121C128.189 48.0567 127.949 48.0246 127.661 48.0246C127.38 48.0246 127.157 48.0398 126.991 48.0702C126.826 48.0973 126.741 48.1345 126.738 48.1819L126.606 51.0292H126.697C126.846 51.0292 126.964 51.0241 127.052 51.014C127.14 51.0038 127.216 50.9937 127.281 50.9835C127.345 50.97 127.406 50.9581 127.463 50.948C127.524 50.9378 127.602 50.9328 127.697 50.9328C127.788 50.9328 127.879 50.9514 127.971 50.9886C128.066 51.0224 128.15 51.0749 128.225 51.1459C128.299 51.217 128.358 51.305 128.402 51.4099C128.45 51.5147 128.473 51.6366 128.473 51.7753C128.473 51.9614 128.445 52.1204 128.387 52.2524C128.33 52.3843 128.25 52.4926 128.148 52.5772C128.05 52.6584 127.932 52.7193 127.793 52.7599C127.658 52.7971 127.511 52.8157 127.352 52.8157H126.748C126.677 52.8157 126.599 52.8259 126.514 52.8462C126.433 52.8665 126.345 52.8902 126.25 52.9172C126.159 52.9409 126.061 52.9629 125.956 52.9832C125.854 53.0035 125.751 53.0137 125.646 53.0137C125.558 53.0137 125.486 53.0103 125.428 53.0035C125.374 52.9934 125.332 52.9748 125.301 52.9477C125.271 52.9172 125.249 52.8783 125.235 52.831C125.225 52.7802 125.22 52.7142 125.22 52.633C125.22 52.5856 125.22 52.5332 125.22 52.4757C125.223 52.4182 125.227 52.3556 125.23 52.2879C125.264 51.5841 125.296 50.9497 125.327 50.3846C125.34 50.1444 125.352 49.9075 125.362 49.6741C125.376 49.4406 125.387 49.2308 125.398 49.0447C125.408 48.8552 125.415 48.6996 125.418 48.5778C125.425 48.456 125.428 48.3866 125.428 48.3697C125.428 48.3426 125.425 48.3206 125.418 48.3037C125.415 48.2868 125.401 48.2733 125.377 48.2631C125.357 48.253 125.325 48.2462 125.281 48.2428C125.237 48.236 125.176 48.2327 125.098 48.2327C124.824 48.2327 124.564 48.2851 124.317 48.39C124.073 48.4949 123.858 48.6573 123.672 48.8772C123.486 49.0972 123.337 49.378 123.225 49.7197C123.117 50.0615 123.061 50.4692 123.058 50.9429C123.19 50.9395 123.301 50.9328 123.393 50.9226C123.488 50.9091 123.574 50.8955 123.652 50.882C123.73 50.8651 123.806 50.8516 123.88 50.8414C123.955 50.8279 124.037 50.8211 124.129 50.8211C124.224 50.8211 124.315 50.8414 124.403 50.882C124.491 50.9226 124.569 50.9818 124.636 51.0596C124.707 51.1341 124.763 51.2271 124.804 51.3388C124.848 51.4471 124.87 51.5723 124.87 51.7144C124.87 52.0832 124.763 52.3505 124.55 52.5163C124.337 52.6787 124.034 52.7684 123.642 52.7853L123.109 52.8056C123.038 52.809 122.965 52.8225 122.89 52.8462C122.816 52.8665 122.735 52.8902 122.647 52.9172C122.559 52.9409 122.462 52.9629 122.357 52.9832C122.253 53.0035 122.136 53.0137 122.007 53.0137C121.936 53.0137 121.872 53.0086 121.814 52.9984C121.76 52.9849 121.713 52.9595 121.672 52.9223C121.635 52.8817 121.605 52.8276 121.581 52.7599C121.561 52.6888 121.55 52.5941 121.55 52.4757C121.55 51.9478 121.576 51.4877 121.627 51.0952C121.677 50.7027 121.752 50.3609 121.85 50.0699C121.948 49.7756 122.068 49.5252 122.21 49.3188C122.352 49.1124 122.515 48.9331 122.698 48.7808C122.86 48.6455 123.041 48.5236 123.241 48.4154C123.444 48.3071 123.648 48.2124 123.855 48.1312C124.061 48.0499 124.262 47.984 124.459 47.9332C124.655 47.8825 124.829 47.8469 124.981 47.8266C125.181 47.7928 125.379 47.7606 125.575 47.7302C125.744 47.7031 125.92 47.6778 126.103 47.6541C126.289 47.6304 126.457 47.6152 126.606 47.6084L126.798 47.6997C127.103 47.6625 127.348 47.6405 127.534 47.6338C127.72 47.6236 127.851 47.6185 127.925 47.6185C128.243 47.6185 128.551 47.6608 128.849 47.7454C129.147 47.8266 129.411 47.962 129.641 48.1515C129.871 48.3409 130.055 48.593 130.194 48.9077C130.336 49.2224 130.407 49.6098 130.407 50.0699C130.407 50.1139 130.405 50.1833 130.402 50.278C130.402 50.3728 130.4 50.4827 130.397 50.6079C130.394 50.7297 130.39 50.8634 130.387 51.0089C130.387 51.1544 130.385 51.2982 130.382 51.4403C130.372 51.7787 130.363 52.1475 130.356 52.5467L132.447 52.3082C132.424 52.3657 132.403 52.4283 132.386 52.496C132.37 52.5535 132.356 52.6229 132.346 52.7041C132.336 52.7819 132.331 52.8648 132.331 52.9528C132.331 53.0204 132.336 53.0898 132.346 53.1609C132.359 53.2319 132.376 53.2996 132.397 53.3639C132.417 53.4315 132.442 53.4908 132.473 53.5415C132.503 53.5923 132.539 53.6312 132.579 53.6582ZM127.291 51.8616C127.291 51.7804 127.284 51.7042 127.27 51.6332C127.257 51.5621 127.233 51.5012 127.199 51.4505C127.169 51.3963 127.127 51.354 127.073 51.3236C127.022 51.2931 126.956 51.2779 126.875 51.2779C126.831 51.2779 126.78 51.2847 126.722 51.2982C126.668 51.3117 126.617 51.3286 126.57 51.3489C126.567 51.3895 126.563 51.4403 126.56 51.5012C126.557 51.5587 126.553 51.6196 126.55 51.6839C126.546 51.7482 126.543 51.8125 126.54 51.8768C126.54 51.9377 126.54 51.9901 126.54 52.0341C126.54 52.1322 126.543 52.2101 126.55 52.2676C126.557 52.3251 126.57 52.3691 126.59 52.3996C126.614 52.43 126.646 52.4503 126.687 52.4605C126.731 52.4706 126.79 52.4757 126.864 52.4757C126.915 52.4757 126.966 52.4689 127.017 52.4554C127.067 52.4385 127.113 52.408 127.154 52.364C127.194 52.32 127.226 52.2574 127.25 52.1762C127.277 52.095 127.291 51.9901 127.291 51.8616ZM123.733 51.8514C123.733 51.7804 123.728 51.711 123.718 51.6433C123.708 51.5723 123.687 51.5114 123.657 51.4606C123.63 51.4065 123.589 51.3625 123.535 51.3286C123.481 51.2948 123.411 51.2779 123.327 51.2779C123.286 51.2779 123.239 51.2847 123.185 51.2982C123.134 51.3117 123.085 51.3286 123.038 51.3489C123.031 51.3862 123.026 51.4352 123.022 51.4961C123.019 51.5537 123.014 51.6146 123.007 51.6788C123.004 51.7431 123 51.8074 122.997 51.8717C122.997 51.936 122.997 51.9901 122.997 52.0341C122.997 52.1322 123.004 52.2101 123.017 52.2676C123.031 52.3251 123.049 52.3691 123.073 52.3996C123.1 52.43 123.134 52.4503 123.175 52.4605C123.215 52.4706 123.263 52.4757 123.317 52.4757C123.357 52.4757 123.401 52.4672 123.449 52.4503C123.499 52.4334 123.545 52.4029 123.586 52.3589C123.63 52.3116 123.665 52.2473 123.692 52.1661C123.719 52.0849 123.733 51.98 123.733 51.8514Z" fill="white"/>
<path d="M96.4781 34.8366C96.4781 35.0667 96.429 35.2697 96.3309 35.4457C96.2328 35.6216 96.0788 35.7739 95.869 35.9025C95.6593 36.031 95.3886 36.1376 95.057 36.2222C94.7288 36.3068 94.3329 36.3711 93.8693 36.4151L93.6308 37.8311C93.624 37.8548 93.619 37.8852 93.6156 37.9225C93.6122 37.9597 93.6071 37.9986 93.6003 38.0392C93.597 38.0764 93.5936 38.1136 93.5902 38.1509C93.5902 38.1881 93.5902 38.2185 93.5902 38.2422C93.5902 38.364 93.6037 38.4638 93.6308 38.5417C93.6579 38.6161 93.7306 38.6702 93.849 38.7041V38.8563L92.905 38.9731C92.861 38.9798 92.812 38.9883 92.7578 38.9984C92.7071 39.0086 92.6479 39.0137 92.5802 39.0137C92.5024 39.0137 92.4347 39.0069 92.3772 38.9934C92.3197 38.9798 92.2723 38.9545 92.2351 38.9172C92.1978 38.88 92.1691 38.8276 92.1488 38.7599C92.1319 38.6888 92.1234 38.5975 92.1234 38.4858C92.1234 38.4621 92.1251 38.4283 92.1285 38.3843C92.1353 38.337 92.142 38.2896 92.1488 38.2422C92.1589 38.1948 92.1674 38.1509 92.1742 38.1103C92.1809 38.0663 92.186 38.0341 92.1894 38.0138L92.4482 36.542C92.3839 36.5487 92.2994 36.5572 92.1945 36.5673C92.093 36.5775 91.9881 36.5876 91.8798 36.5978C91.7749 36.6079 91.6751 36.6164 91.5803 36.6232C91.489 36.6299 91.4179 36.6333 91.3672 36.6333C91.2352 36.6333 91.1016 36.6232 90.9662 36.6029C90.8343 36.5826 90.7141 36.5403 90.6059 36.476C90.4976 36.4117 90.4079 36.322 90.3369 36.207C90.2692 36.0919 90.2354 35.9397 90.2354 35.7502C90.2354 35.4897 90.2861 35.2579 90.3876 35.0549C90.4925 34.8485 90.6532 34.6725 90.8698 34.527C91.0863 34.3815 91.3604 34.2665 91.692 34.1819C92.027 34.0939 92.4245 34.0381 92.8847 34.0144L92.9862 33.3901C92.9896 33.3665 92.993 33.3343 92.9964 33.2937C93.0031 33.2497 93.0082 33.204 93.0116 33.1567C93.0184 33.1093 93.0218 33.0653 93.0218 33.0247C93.0251 32.9807 93.0268 32.9469 93.0268 32.9232C93.0268 32.7709 92.9964 32.6559 92.9355 32.5781C92.8746 32.5003 92.7917 32.4461 92.6868 32.4157V32.2989L93.5699 32.1924C93.6376 32.1788 93.712 32.1687 93.7932 32.1619C93.8744 32.1551 93.9421 32.1518 93.9962 32.1518C94.1789 32.1518 94.3041 32.1974 94.3718 32.2888C94.4395 32.3768 94.4733 32.502 94.4733 32.6644C94.4733 32.7084 94.4682 32.7693 94.4581 32.8471C94.4513 32.9215 94.4429 33.001 94.4327 33.0856C94.4226 33.1668 94.4124 33.243 94.4023 33.314C94.3921 33.3851 94.3853 33.4375 94.382 33.4714L94.3058 33.8875C94.3667 33.8808 94.4361 33.874 94.5139 33.8672C94.5951 33.8571 94.6814 33.8486 94.7728 33.8419C94.8641 33.8351 94.9572 33.83 95.0519 33.8266C95.15 33.8199 95.2482 33.8165 95.3463 33.8165C95.4782 33.8165 95.6102 33.8317 95.7422 33.8622C95.8775 33.8926 95.9993 33.9467 96.1076 34.0246C96.2159 34.1024 96.3038 34.2073 96.3715 34.3392C96.4426 34.4712 96.4781 34.637 96.4781 34.8366ZM92.8086 34.4204C92.4296 34.4272 92.1488 34.5135 91.9661 34.6793C91.7867 34.8417 91.6971 35.0989 91.6971 35.4508C91.6971 35.6842 91.7428 35.8619 91.8341 35.9837C91.9255 36.1055 92.0743 36.1664 92.2807 36.1664C92.318 36.1664 92.3552 36.1647 92.3924 36.1613C92.4296 36.1579 92.4685 36.1528 92.5091 36.1461L92.8086 34.4204ZM94.9707 34.9889C94.9707 34.769 94.9267 34.5998 94.8387 34.4814C94.7508 34.3595 94.6222 34.2936 94.453 34.2834H94.2449L93.9455 36.0293C93.9624 36.0327 93.9793 36.0361 93.9962 36.0395C94.0131 36.0395 94.0301 36.0395 94.047 36.0395C94.0639 36.0395 94.0791 36.0395 94.0927 36.0395C94.1096 36.0361 94.1265 36.0327 94.1434 36.0293C94.2686 36.0158 94.382 35.9752 94.4835 35.9075C94.5884 35.8399 94.6763 35.757 94.7474 35.6588C94.8184 35.5607 94.8726 35.4541 94.9098 35.3391C94.9504 35.2207 94.9707 35.1039 94.9707 34.9889ZM104.517 34.3139C104.517 34.3579 104.507 34.4458 104.487 34.5778C104.47 34.7064 104.446 34.8637 104.416 35.0498C104.389 35.2325 104.357 35.4355 104.32 35.6588C104.282 35.8822 104.243 36.1089 104.203 36.3389C104.166 36.5656 104.128 36.7873 104.091 37.0038C104.054 37.2204 104.02 37.4166 103.99 37.5926C103.963 37.7651 103.939 37.9089 103.919 38.024C103.902 38.139 103.893 38.2084 103.893 38.2321C103.893 38.3471 103.925 38.4571 103.99 38.562C104.054 38.6635 104.14 38.7278 104.249 38.7548V38.9223L103.208 39.0137C103.181 39.0171 103.156 39.0187 103.132 39.0187H103.056C102.87 39.0187 102.721 38.9781 102.609 38.8969C102.501 38.8123 102.447 38.6635 102.447 38.4503C102.447 38.4131 102.455 38.3302 102.472 38.2016C102.492 38.073 102.516 37.914 102.543 37.7245C102.574 37.535 102.607 37.3253 102.645 37.0952C102.682 36.8617 102.719 36.6249 102.756 36.3846C102.797 36.141 102.836 35.9025 102.873 35.669C102.91 35.4355 102.942 35.2224 102.97 35.0295C103 34.8366 103.024 34.6742 103.041 34.5423C103.061 34.4069 103.071 34.3172 103.071 34.2733C103.071 34.0499 103.041 33.8672 102.98 33.7251C102.922 33.583 102.846 33.4714 102.751 33.3901C102.657 33.3089 102.547 33.2548 102.421 33.2277C102.3 33.1973 102.176 33.1821 102.051 33.1821H102.01L101.564 35.8111C101.543 35.9498 101.533 36.0615 101.533 36.1461C101.533 36.2848 101.553 36.3779 101.594 36.4252C101.638 36.4726 101.691 36.503 101.751 36.5166V36.6536L100.762 36.7805C100.714 36.7873 100.67 36.7923 100.63 36.7957C100.593 36.7991 100.555 36.8008 100.518 36.8008C100.386 36.8008 100.286 36.7754 100.219 36.7247C100.151 36.6705 100.117 36.5724 100.117 36.4303C100.117 36.3762 100.122 36.3153 100.132 36.2476L100.579 33.2024C100.461 33.2227 100.335 33.2616 100.203 33.3191C100.071 33.3766 99.9412 33.4561 99.8126 33.5576C99.684 33.6591 99.5605 33.7826 99.4421 33.9281C99.3271 34.0736 99.2239 34.2428 99.1325 34.4357C99.0445 34.6285 98.9735 34.8485 98.9193 35.0955C98.8686 35.3391 98.8432 35.6098 98.8432 35.9075C98.8432 36.0903 98.8669 36.229 98.9143 36.3237C98.9616 36.4151 99.0479 36.4794 99.1731 36.5166V36.6536L97.884 36.7907C97.8569 36.794 97.8315 36.7957 97.8078 36.7957H97.7419C97.6437 36.7957 97.5625 36.7839 97.4982 36.7602C97.434 36.7365 97.3832 36.7027 97.346 36.6587C97.3088 36.6113 97.2834 36.5538 97.2698 36.4861C97.2563 36.4185 97.2495 36.3423 97.2495 36.2577C97.2495 35.8077 97.3291 35.3848 97.4881 34.9889C97.6471 34.593 97.8721 34.2428 98.1631 33.9383C98.4575 33.6338 98.8111 33.3851 99.2239 33.1922C99.6401 32.9993 100.105 32.8775 100.62 32.8268C100.762 32.8065 100.909 32.7896 101.061 32.776C101.19 32.7625 101.33 32.749 101.482 32.7354C101.638 32.7219 101.79 32.7117 101.939 32.705L102.076 32.8522C102.201 32.8217 102.31 32.7963 102.401 32.776C102.496 32.7557 102.58 32.7405 102.655 32.7303C102.733 32.7202 102.805 32.7134 102.873 32.71C102.941 32.7067 103.01 32.705 103.081 32.705C103.264 32.705 103.442 32.7287 103.614 32.776C103.787 32.8234 103.939 32.908 104.071 33.0298C104.206 33.1482 104.314 33.3123 104.396 33.5221C104.477 33.7285 104.517 33.9924 104.517 34.3139ZM110.344 37.0495C110.344 37.2965 110.303 37.4995 110.222 37.6585C110.141 37.8142 110.018 37.9478 109.852 38.0595C109.686 38.1678 109.476 38.2659 109.222 38.3539C108.972 38.4385 108.676 38.5332 108.334 38.6381C108.118 38.7024 107.925 38.7582 107.756 38.8056C107.586 38.853 107.432 38.8919 107.294 38.9223C107.158 38.9528 107.037 38.9765 106.928 38.9934C106.823 39.0069 106.727 39.0137 106.639 39.0137C106.436 39.0137 106.25 38.9832 106.081 38.9223C105.915 38.8614 105.771 38.7768 105.649 38.6685C105.531 38.5569 105.44 38.4249 105.375 38.2727C105.311 38.1204 105.279 37.9512 105.279 37.7651C105.279 37.5283 105.324 37.2999 105.416 37.08C105.511 36.86 105.632 36.6502 105.781 36.4506C105.934 36.2476 106.106 36.053 106.299 35.8669C106.495 35.6808 106.693 35.5015 106.893 35.3289C107.096 35.153 107.294 34.9838 107.487 34.8214C107.683 34.659 107.855 34.5017 108.004 34.3494C108.157 34.1937 108.278 34.0432 108.37 33.8977C108.464 33.7488 108.512 33.6033 108.512 33.4612C108.512 33.3935 108.497 33.3394 108.466 33.2988C108.439 33.2582 108.407 33.2243 108.37 33.1973C108.329 33.1668 108.283 33.1448 108.233 33.1313V32.974L109.405 32.7354C109.442 32.7287 109.49 32.7236 109.547 32.7202C109.605 32.7168 109.652 32.7151 109.689 32.7151C109.777 32.7151 109.85 32.7523 109.908 32.8268C109.968 32.9012 109.999 33.0027 109.999 33.1313C109.999 33.3512 109.953 33.5576 109.862 33.7505C109.774 33.94 109.655 34.1227 109.507 34.2986C109.361 34.4746 109.195 34.6455 109.009 34.8113C108.823 34.977 108.632 35.1428 108.436 35.3086C108.239 35.4744 108.048 35.6453 107.862 35.8213C107.676 35.9972 107.509 36.1833 107.36 36.3795C107.214 36.5724 107.096 36.7788 107.004 36.9987C106.916 37.2187 106.872 37.4572 106.872 37.7144C106.872 37.958 106.935 38.1339 107.06 38.2422C107.189 38.3471 107.399 38.3996 107.69 38.3996C107.886 38.3996 108.058 38.3657 108.207 38.298C108.356 38.227 108.478 38.1373 108.573 38.029C108.671 37.9174 108.744 37.7939 108.791 37.6585C108.842 37.5232 108.867 37.3895 108.867 37.2576C108.867 37.1595 108.845 37.0833 108.801 37.0292C108.757 36.9751 108.696 36.9429 108.618 36.9328V36.8008L109.562 36.4354C109.586 36.4286 109.613 36.4202 109.644 36.41C109.671 36.4032 109.699 36.3982 109.73 36.3948C109.76 36.388 109.791 36.3846 109.821 36.3846C110.011 36.3846 110.144 36.4421 110.222 36.5572C110.303 36.6722 110.344 36.8363 110.344 37.0495Z" fill="white"/>
<path d="M94.1942 24.9934C94.1231 25.0035 94.0588 25.0086 94.0013 25.0086C93.8457 25.0086 93.7357 24.9663 93.6714 24.8817C93.6105 24.7971 93.58 24.6533 93.58 24.4503C93.58 24.2507 93.5851 24.0257 93.5953 23.7753C93.6054 23.5215 93.6156 23.2694 93.6257 23.019C93.6359 22.7687 93.646 22.5335 93.6562 22.3136C93.6663 22.0903 93.6714 21.9092 93.6714 21.7705C93.6714 21.175 93.5936 20.7233 93.4379 20.4154C93.2857 20.1075 93.0556 19.9535 92.7477 19.9535C92.5684 19.9535 92.4161 19.9958 92.2909 20.0804C92.1657 20.165 92.0642 20.3206 91.9864 20.5473C91.9086 20.7707 91.851 21.0819 91.8138 21.4812C91.78 21.8771 91.7631 22.3863 91.7631 23.0089C91.7631 23.3676 91.7647 23.6518 91.7681 23.8616C91.7749 24.0713 91.7901 24.2338 91.8138 24.3488C91.8375 24.4638 91.873 24.545 91.9204 24.5924C91.9678 24.6364 92.0321 24.6736 92.1133 24.7041V24.836L91.0627 24.9934C91.0221 25.0001 90.9831 25.0069 90.9459 25.0137C90.9087 25.0171 90.8732 25.0187 90.8393 25.0187C90.7615 25.0187 90.6938 25.0001 90.6363 24.9629C90.5822 24.9223 90.5365 24.8428 90.4993 24.7244C90.4621 24.6059 90.4333 24.4385 90.413 24.2219C90.3961 24.0054 90.3876 23.7211 90.3876 23.3692C90.3876 22.9091 90.3978 22.5267 90.4181 22.2222C90.4418 21.9177 90.4722 21.6656 90.5094 21.466C90.55 21.2663 90.5974 21.1056 90.6515 20.9838C90.7057 20.8586 90.7666 20.7436 90.8343 20.6387C90.9595 20.4458 91.1354 20.2682 91.3621 20.1058C91.5888 19.9434 91.8646 19.8131 92.1894 19.715V18.7253C92.1894 18.6542 92.1792 18.5984 92.1589 18.5578C92.1386 18.5172 92.1166 18.4884 92.093 18.4715C92.0659 18.4512 92.0354 18.4394 92.0016 18.436L91.9813 18.3091L93.1537 18.1111C93.2146 18.101 93.2688 18.0959 93.3161 18.0959C93.3804 18.0959 93.4312 18.1061 93.4684 18.1264C93.509 18.1433 93.5377 18.167 93.5547 18.1974C93.575 18.2245 93.5868 18.2583 93.5902 18.2989C93.597 18.3362 93.6003 18.3751 93.6003 18.4157V19.5576C93.8846 19.5779 94.118 19.6355 94.3007 19.7302C94.4835 19.8249 94.6273 19.9552 94.7322 20.121C94.837 20.2834 94.9081 20.4797 94.9453 20.7097C94.9859 20.9364 95.0062 21.1936 95.0062 21.4812C95.0062 21.6944 95.0012 21.9008 94.991 22.1004C94.9842 22.3 94.9758 22.5014 94.9656 22.7044C94.9589 22.9074 94.9504 23.1172 94.9402 23.3337C94.9335 23.5469 94.9301 23.777 94.9301 24.024C94.9301 24.1153 94.9318 24.1948 94.9352 24.2625C94.9386 24.3302 94.9504 24.3894 94.9707 24.4402C94.9944 24.4909 95.0282 24.5349 95.0722 24.5721C95.1196 24.6093 95.1872 24.6415 95.2752 24.6685V24.836L94.1942 24.9934ZM103.096 23.3591C103.052 23.3862 103 23.4082 102.939 23.4251C102.885 23.442 102.819 23.4572 102.741 23.4708C102.663 23.4809 102.57 23.486 102.462 23.486C102.327 23.486 102.196 23.4724 102.071 23.4454C101.946 23.4149 101.834 23.3625 101.736 23.288C101.641 23.2136 101.564 23.1138 101.503 22.9886C101.445 22.86 101.416 22.6959 101.416 22.4963C101.166 22.5166 100.971 22.5606 100.833 22.6282C100.694 22.6925 100.589 22.7907 100.518 22.9226C100.45 23.0546 100.408 23.2271 100.391 23.4403C100.378 23.6535 100.369 23.9174 100.366 24.2321L98.422 24.8665C98.3137 24.9037 98.1885 24.9375 98.0464 24.968C97.9077 24.9984 97.7233 25.0137 97.4932 25.0137C97.2868 25.0137 97.099 24.9832 96.9298 24.9223C96.764 24.8614 96.6219 24.7768 96.5035 24.6685C96.385 24.5569 96.2937 24.4249 96.2294 24.2727C96.1651 24.1204 96.133 23.9512 96.133 23.7651C96.133 23.5215 96.1769 23.2897 96.2649 23.0698C96.3563 22.8499 96.4747 22.6384 96.6202 22.4354C96.7691 22.2324 96.9366 22.0395 97.1227 21.8568C97.3121 21.6707 97.505 21.4914 97.7013 21.3188C97.9009 21.1428 98.0938 20.9737 98.2799 20.8113C98.4693 20.6455 98.6368 20.483 98.7823 20.324C98.9312 20.1616 99.0496 20.0009 99.1376 19.8419C99.2289 19.6828 99.2746 19.5221 99.2746 19.3597C99.2746 19.336 99.2729 19.3106 99.2696 19.2836C99.2662 19.2565 99.2577 19.2311 99.2442 19.2074C99.234 19.1837 99.2188 19.1634 99.1985 19.1465C99.1782 19.1296 99.1511 19.1212 99.1173 19.1212V18.9334L100.249 18.7354C100.286 18.7287 100.334 18.7236 100.391 18.7202C100.449 18.7168 100.496 18.7151 100.533 18.7151C100.577 18.7151 100.618 18.7219 100.655 18.7354C100.692 18.7456 100.724 18.7693 100.752 18.8065C100.779 18.8403 100.801 18.8911 100.818 18.9587C100.834 19.023 100.843 19.111 100.843 19.2227C100.843 19.4257 100.799 19.6185 100.711 19.8013C100.626 19.9806 100.513 20.1548 100.371 20.324C100.229 20.4932 100.066 20.659 99.8837 20.8214C99.701 20.9838 99.5149 21.1479 99.3254 21.3137C99.1359 21.4795 98.9498 21.6487 98.7671 21.8213C98.5844 21.9938 98.422 22.1748 98.2799 22.3643C98.1377 22.5538 98.0227 22.7551 97.9347 22.9683C97.8501 23.1815 97.8078 23.4099 97.8078 23.6535C97.8078 23.7854 97.8231 23.8954 97.8535 23.9834C97.8874 24.068 97.9415 24.1373 98.0159 24.1915C98.0904 24.2456 98.1885 24.2845 98.3103 24.3082C98.4321 24.3285 98.5827 24.3386 98.762 24.3386H98.828C98.8415 24.024 98.894 23.7516 98.9853 23.5215C99.0767 23.288 99.2019 23.0901 99.3609 22.9277C99.5199 22.7619 99.7128 22.6232 99.9395 22.5115C100.17 22.3998 100.428 22.3085 100.716 22.2374C101.007 22.163 101.325 22.1021 101.67 22.0547C102.019 22.004 102.394 21.9583 102.797 21.9177C102.797 22.0767 102.8 22.2239 102.807 22.3592C102.817 22.4912 102.834 22.6164 102.858 22.7348C102.882 22.8499 102.912 22.9598 102.949 23.0647C102.986 23.1662 103.035 23.2644 103.096 23.3591ZM110.77 21.6538C110.716 21.6978 110.655 21.7384 110.588 21.7756C110.53 21.806 110.461 21.8348 110.38 21.8619C110.302 21.8855 110.214 21.8974 110.116 21.8974C109.99 21.8974 109.87 21.8822 109.755 21.8517C109.64 21.8213 109.539 21.7688 109.451 21.6944C109.363 21.6199 109.292 21.5201 109.238 21.3949C109.187 21.2663 109.161 21.1073 109.161 20.9178C109.161 20.8975 109.161 20.8772 109.161 20.8569C109.165 20.8366 109.167 20.8163 109.167 20.796L108.141 20.8671L107.756 23.552C107.749 23.6095 107.74 23.6721 107.73 23.7398C107.723 23.804 107.717 23.8666 107.71 23.9275C107.703 23.9851 107.7 24.0257 107.7 24.0493C107.7 24.1678 107.718 24.2811 107.756 24.3894C107.793 24.4977 107.869 24.5772 107.984 24.6279V24.7954L107.035 24.9731C106.994 24.9832 106.947 24.9934 106.893 25.0035C106.842 25.0103 106.783 25.0137 106.715 25.0137C106.556 25.0137 106.439 24.9731 106.365 24.8919C106.294 24.8073 106.258 24.6533 106.258 24.43C106.258 24.4063 106.26 24.3725 106.263 24.3285C106.27 24.2845 106.275 24.2388 106.279 24.1915C106.285 24.1407 106.291 24.095 106.294 24.0544C106.301 24.0104 106.306 23.98 106.309 23.9631L106.725 20.9787L105.604 21.065V21.1158C105.604 21.312 105.565 21.4897 105.487 21.6487C105.412 21.8077 105.314 21.9448 105.193 22.0598C105.074 22.1715 104.939 22.2594 104.786 22.3237C104.638 22.3846 104.49 22.4151 104.345 22.4151C104.267 22.4151 104.199 22.4083 104.142 22.3948C104.088 22.3812 104.042 22.366 104.005 22.3491C103.964 22.3288 103.929 22.3051 103.898 22.278C103.949 22.2239 103.993 22.1545 104.03 22.0699C104.064 21.9989 104.095 21.9092 104.122 21.801C104.152 21.6927 104.167 21.5607 104.167 21.4051C104.167 21.3002 104.164 21.2105 104.157 21.1361C104.154 21.0616 104.149 21.0007 104.142 20.9534C104.132 20.8958 104.123 20.8502 104.117 20.8163L106.776 20.6184L106.913 19.6591C106.916 19.6355 106.92 19.6033 106.923 19.5627C106.927 19.5187 106.93 19.4747 106.933 19.4307C106.94 19.3834 106.945 19.3377 106.949 19.2937C106.952 19.2497 106.954 19.2159 106.954 19.1922C106.954 19.0399 106.922 18.9097 106.857 18.8014C106.796 18.6931 106.713 18.6221 106.609 18.5882V18.507L107.497 18.4461C107.564 18.4394 107.639 18.436 107.72 18.436H107.918C108.101 18.436 108.226 18.4783 108.294 18.5629C108.365 18.6474 108.4 18.7709 108.4 18.9334C108.4 18.9706 108.397 19.018 108.39 19.0755C108.387 19.133 108.38 19.1956 108.37 19.2633L108.344 19.4612C108.338 19.5255 108.331 19.583 108.324 19.6338C108.324 19.6405 108.322 19.6524 108.319 19.6693C108.316 19.6862 108.309 19.7234 108.299 19.781C108.292 19.8385 108.28 19.9248 108.263 20.0398C108.246 20.1515 108.223 20.3054 108.192 20.5017L110.613 20.324C110.6 20.368 110.588 20.4188 110.578 20.4763C110.567 20.5236 110.559 20.5829 110.552 20.6539C110.545 20.725 110.542 20.8062 110.542 20.8975C110.542 21.0566 110.554 21.1851 110.578 21.2833C110.601 21.378 110.627 21.4541 110.654 21.5117C110.687 21.5759 110.726 21.6233 110.77 21.6538ZM117.698 18.4664C117.658 18.5036 117.598 18.5375 117.521 18.5679C117.446 18.5984 117.36 18.6255 117.262 18.6491C117.167 18.6694 117.066 18.6864 116.957 18.6999C116.849 18.71 116.742 18.7151 116.638 18.7151C116.367 18.7151 116.166 18.6762 116.034 18.5984C115.905 18.5172 115.815 18.4004 115.765 18.2482H115.171L115.024 19.243C115.267 19.2802 115.485 19.3174 115.678 19.3546C115.875 19.3885 116.062 19.4071 116.242 19.4104H116.658C116.712 19.4104 116.763 19.4088 116.81 19.4054C116.861 19.402 116.912 19.3986 116.962 19.3952C117.013 19.3918 117.069 19.3868 117.13 19.38C117.052 19.4578 117.003 19.5593 116.983 19.6845C116.966 19.8063 116.957 19.9264 116.957 20.0449C116.957 20.1836 116.971 20.2969 116.998 20.3849C117.025 20.4729 117.055 20.5423 117.089 20.593C117.126 20.6539 117.17 20.6996 117.221 20.73C117.191 20.7808 117.145 20.8248 117.084 20.862C117.03 20.8958 116.956 20.9263 116.861 20.9534C116.766 20.977 116.643 20.9889 116.49 20.9889C116.372 20.9889 116.248 20.9703 116.12 20.9331C115.991 20.8958 115.873 20.8332 115.765 20.7453C115.656 20.6573 115.567 20.5406 115.496 20.3951C115.428 20.2462 115.394 20.0618 115.394 19.8419V19.7759C115.394 19.7522 115.396 19.7268 115.399 19.6997C115.26 19.6727 115.123 19.6473 114.988 19.6236C114.873 19.6067 114.751 19.5898 114.623 19.5729C114.494 19.5559 114.379 19.5475 114.277 19.5475C113.841 19.5475 113.509 19.6828 113.283 19.9535C113.056 20.2242 112.943 20.6099 112.943 21.1107C112.943 21.1919 112.944 21.2748 112.948 21.3594C112.954 21.444 112.965 21.532 112.978 21.6233C113.039 21.6233 113.115 21.6199 113.207 21.6132C113.298 21.6064 113.398 21.5996 113.506 21.5929C113.614 21.5827 113.724 21.5726 113.836 21.5624C113.951 21.5523 114.061 21.5438 114.166 21.537C114.274 21.5269 114.372 21.5184 114.46 21.5117C114.552 21.5049 114.626 21.5015 114.683 21.5015C114.876 21.5015 115.027 21.5421 115.135 21.6233C115.243 21.7011 115.298 21.8365 115.298 22.0293C115.298 22.0564 115.291 22.1055 115.277 22.1765C115.267 22.2476 115.254 22.3322 115.237 22.4303C115.22 22.5284 115.199 22.6367 115.176 22.7551C115.152 22.8702 115.128 22.9852 115.105 23.1003C115.047 23.3743 114.983 23.6755 114.912 24.0037C114.895 24.0883 114.885 24.1593 114.881 24.2168C114.881 24.271 114.881 24.3082 114.881 24.3285C114.881 24.3894 114.897 24.4402 114.927 24.4808C114.961 24.5214 115.022 24.5603 115.11 24.5975V24.7447L113.998 25.0035C113.92 25.0137 113.851 25.0187 113.79 25.0187C113.618 25.0187 113.498 24.9832 113.43 24.9122C113.366 24.8377 113.333 24.7227 113.333 24.567C113.333 24.5264 113.335 24.474 113.339 24.4097C113.345 24.342 113.357 24.2693 113.374 24.1915C113.469 23.8091 113.553 23.4623 113.628 23.151L113.719 22.7551C113.75 22.6232 113.777 22.503 113.8 22.3948C113.824 22.2865 113.843 22.1951 113.856 22.1207C113.873 22.0429 113.882 21.9921 113.882 21.9684C113.783 21.9684 113.662 21.9752 113.516 21.9887C113.371 22.0023 113.223 22.0192 113.075 22.0395C112.926 22.0564 112.785 22.0716 112.653 22.0852C112.521 22.0987 112.422 22.1055 112.354 22.1055C112.208 22.1055 112.08 22.0835 111.968 22.0395C111.86 21.9955 111.769 21.9346 111.694 21.8568C111.62 21.779 111.564 21.6859 111.527 21.5776C111.489 21.4694 111.471 21.3492 111.471 21.2173C111.471 20.9635 111.525 20.7216 111.633 20.4915C111.741 20.2614 111.892 20.0567 112.085 19.8774C112.278 19.6981 112.51 19.5492 112.78 19.4307C113.051 19.3089 113.349 19.2328 113.673 19.2024L113.8 18.2482H113.176C113.119 18.3565 113.054 18.4529 112.983 18.5375C112.912 18.6221 112.824 18.6931 112.719 18.7506C112.614 18.8082 112.488 18.8522 112.339 18.8826C112.19 18.9097 112.009 18.9232 111.796 18.9232C111.708 18.9232 111.626 18.9198 111.552 18.9131C111.478 18.9063 111.412 18.8995 111.354 18.8928C111.29 18.8826 111.229 18.8725 111.171 18.8623C111.225 18.8116 111.273 18.7557 111.313 18.6948C111.357 18.6305 111.393 18.5662 111.42 18.502C111.45 18.4343 111.472 18.3683 111.486 18.304C111.503 18.2397 111.511 18.1822 111.511 18.1315C111.511 18.0232 111.498 17.9098 111.471 17.7914C111.447 17.6696 111.381 17.5444 111.273 17.4158C111.354 17.3955 111.423 17.3769 111.481 17.36C111.538 17.3397 111.598 17.3228 111.659 17.3092C111.719 17.2923 111.785 17.2805 111.857 17.2737C111.931 17.2636 112.024 17.2585 112.136 17.2585C112.254 17.2585 112.373 17.2686 112.491 17.2889C112.613 17.3059 112.723 17.3363 112.821 17.3803C112.919 17.4243 113 17.4818 113.064 17.5529C113.132 17.6205 113.173 17.7068 113.186 17.8117H115.754C115.812 17.6797 115.878 17.5732 115.952 17.492C116.027 17.4074 116.113 17.3431 116.211 17.2991C116.313 17.2551 116.428 17.2263 116.556 17.2128C116.688 17.1959 116.837 17.1874 117.003 17.1874C117.04 17.1874 117.089 17.1942 117.15 17.2077C117.211 17.2179 117.272 17.2297 117.333 17.2433C117.404 17.2602 117.48 17.2788 117.561 17.2991C117.524 17.3566 117.499 17.4378 117.485 17.5427C117.475 17.6476 117.466 17.7593 117.46 17.8777V17.9183C117.46 18.0367 117.48 18.1433 117.521 18.238C117.565 18.3328 117.624 18.4089 117.698 18.4664Z" fill="white"/>
<path d="M53.3809 59.5189V49.5094L56.7174 48.1748L59.887 49.3426V51.3445H66.2264V57.6838H59.887C59.887 58.2399 59.8203 59.4855 59.5534 60.0194C59.2865 60.5532 58.7749 60.7979 58.5524 60.8535H54.3818C53.848 60.8535 53.4921 59.9638 53.3809 59.5189Z" fill="white"/>
<path d="M6.83692 71.0283V41.5003H18.6815V65.8568L6.83692 71.0283Z" fill="white"/>
<path d="M18.6815 27.6539H2.49947C2.38825 27.6539 2.06573 27.7206 1.66535 27.9875C1.26497 28.2544 1.05366 28.766 0.998047 28.9885V38.6643C0.998047 39.4651 1.77656 39.7765 2.16582 39.8321H18.6815L24.3535 33.6596L18.6815 27.6539Z" fill="white"/>
<path d="M18.6815 25.9856H6.83692V5.633C6.83692 4.9657 7.1372 3.36417 9.00564 1.62919C10.8741 -0.105786 13.6211 -0.150272 14.6777 0.12777L38.5336 10.1373V57.6823L30.6929 60.6852V20.1467L18.6815 17.4776V25.9856Z" fill="white"/>
<path d="M53.5479 18.1448V11.9723C53.6035 11.7499 53.8148 11.2383 54.2152 10.9714C54.6155 10.7045 55.0493 10.6377 55.2161 10.6377H57.8853C58.0521 10.6377 58.4859 10.7045 58.8863 10.9714C59.2866 11.2383 59.6092 11.7499 59.7204 11.9723V18.1448L56.5507 19.3126L53.5479 18.1448Z" fill="white"/>
<path fill-rule="evenodd" clip-rule="evenodd" d="M40.5355 56.6814V10.9714L52.0464 15.4756V19.4794L56.8844 20.9809L61.3886 19.4794L72.8995 23.9837V43.5022L61.3886 48.1733L56.8844 46.5051L52.0464 48.1733V52.0103L40.5355 56.6814ZM46.708 23.4832V44.1695L53.5479 42.6681V24.8178L46.708 23.4832ZM59.8872 41.5003V26.1524L66.5602 27.487V39.9989L59.8872 41.5003Z" fill="white"/>
</svg>
