<svg width="61" height="62" viewBox="0 0 61 62" fill="none" xmlns="http://www.w3.org/2000/svg">
<g clip-path="url(#clip0_16191_37449)">
<path d="M11.9946 10.853C11.9946 11.2586 11.9946 11.5345 11.9946 11.8133C11.9946 15.7699 11.9779 19.7293 12.0085 23.6859C12.014 24.3871 11.8332 24.6011 11.1185 24.587C8.75994 24.5363 6.39865 24.5504 4.04013 24.5814C3.48109 24.5898 3.32812 24.4011 3.32812 23.8633C3.34203 17.5891 3.317 11.3121 3.34759 5.03787C3.35872 2.47243 4.70207 0.712386 6.98549 0.14354C8.02291 -0.115538 9.05754 -0.0113439 10.0282 0.447675C13.6689 2.15984 17.3012 3.88609 20.9363 5.60953C24.4463 7.27382 27.9451 8.95783 31.4634 10.6024C31.9418 10.8249 31.9335 11.1487 31.9335 11.5542C31.9307 20.7572 31.9335 29.9601 31.9335 39.163C31.9335 41.903 31.9251 44.643 31.9418 47.3831C31.9446 47.8449 31.8111 48.0477 31.3717 48.2504C29.2718 49.2107 27.2025 50.2386 25.1166 51.2355C24.5381 51.5114 23.9512 51.7649 23.267 52.0718C23.267 51.7311 23.267 51.4861 23.267 51.2383C23.267 39.9993 23.2615 28.7576 23.2837 17.5187C23.2837 16.8794 23.0779 16.5781 22.53 16.2965C19.1758 14.5703 15.8438 12.7989 12.5035 11.0474C12.3867 10.9854 12.256 10.9544 11.9973 10.8587L11.9946 10.853Z" fill="white"/>
<path d="M33.2871 47.2055V11.4724C33.8823 11.7371 34.433 11.9596 34.9642 12.2187C37.6287 13.5084 40.2959 14.7982 42.9437 16.1246C43.1578 16.2316 43.3636 16.623 43.3497 16.868C43.3108 17.5439 43.5639 17.8677 44.1925 18.0817C45.2827 18.4534 46.3368 18.935 47.4187 19.3349C47.6301 19.4137 47.9221 19.3968 48.1363 19.3152C49.3656 18.8505 50.5866 18.3633 51.7992 17.8564C51.9856 17.7804 52.1163 17.5692 52.3166 17.3749C53.379 17.879 54.5054 18.4028 55.6263 18.9434C57.0836 19.6475 58.5299 20.3796 59.9929 21.0724C60.3767 21.2526 60.5352 21.4723 60.5352 21.9172C60.5185 26.8819 60.5296 31.8467 60.513 36.8114C60.513 37.0451 60.3961 37.4112 60.2265 37.4957C57.5815 38.808 54.917 40.0837 52.069 41.4579C52.3861 40.461 51.6908 40.2554 51.2068 39.9119C50.2223 39.2163 49.2099 38.5545 48.2337 37.8477C47.8999 37.6083 47.6301 37.5802 47.2991 37.8111C46.1227 38.6306 44.9239 39.4163 43.7781 40.278C43.5444 40.4554 43.372 40.9172 43.4054 41.2214C43.5055 42.1338 43.13 42.5871 42.3235 42.9589C39.4893 44.2627 36.6914 45.6454 33.8795 46.9915C33.7182 47.0675 33.5402 47.1098 33.2899 47.1971L33.2871 47.2055ZM39.2863 20.5204V38.2729C41.0719 37.2704 42.7685 36.3355 44.44 35.3583C44.6236 35.2513 44.7598 34.8993 44.7626 34.6599C44.7821 30.892 44.7682 27.1213 44.7877 23.3534C44.7877 22.9197 44.6097 22.7367 44.2509 22.5874C43.3136 22.2016 42.3874 21.7849 41.4529 21.3906C40.7604 21.1005 40.0595 20.8274 39.2863 20.5176V20.5204ZM50.8647 36.8283C51.1484 36.6959 51.357 36.6143 51.5489 36.5073C52.6976 35.8624 53.8296 35.1922 54.9921 34.5754C55.3787 34.3699 55.4928 34.122 55.49 33.6968C55.4733 30.9117 55.4149 28.121 55.5122 25.3387C55.554 24.1729 55.2536 23.5477 54.1216 23.207C53.0313 22.8775 51.9995 22.3509 50.8647 21.8806V36.8311V36.8283Z" fill="white"/>
<path d="M3.37209 61.6326C3.35819 61.3369 3.33594 61.0666 3.33594 60.7934C3.33594 52.7141 3.33594 44.632 3.33594 36.5527C3.33594 35.6037 3.33594 35.6037 4.28435 35.6037C6.62062 35.6037 8.95967 35.6206 11.2959 35.5896C11.8605 35.5812 12.0052 35.7783 12.0024 36.3133C11.9912 43.1986 11.9968 50.0839 11.9801 56.9692C11.9801 57.217 11.8188 57.5972 11.6241 57.6929C8.97635 59.0165 6.3119 60.2978 3.64744 61.5876C3.59181 61.6157 3.5195 61.6073 3.37488 61.6298L3.37209 61.6326Z" fill="white"/>
<path d="M50.741 43.8969C51.8479 43.8969 52.8409 43.925 53.8282 43.8856C54.3622 43.8631 54.504 44.0687 54.4985 44.5727C54.4762 46.1159 54.4735 47.662 54.4985 49.2052C54.5068 49.7543 54.3121 49.9571 53.7726 49.9345C52.966 49.9036 52.1539 49.943 51.3445 49.9233C50.8967 49.912 50.7243 50.1007 50.7354 50.5456C50.7493 51.0356 50.716 51.5284 50.7104 52.0184C50.7048 52.7224 50.2821 53.0519 49.6646 53.0716C48.3936 53.1111 47.1226 53.1082 45.8515 53.0716C45.095 53.0519 44.7752 52.6915 44.7724 51.9142C44.7613 48.4983 44.7585 45.0824 44.778 41.6666C44.778 41.4525 44.9198 41.1653 45.0895 41.0414C45.8348 40.4894 46.5997 39.9628 47.3896 39.4785C47.5648 39.3715 47.9124 39.3771 48.096 39.4841C48.6912 39.8305 49.2169 40.3148 49.8287 40.6218C50.6242 41.016 50.8383 41.613 50.7493 42.4382C50.7021 42.8944 50.741 43.359 50.741 43.8941V43.8969Z" fill="white"/>
<path d="M6.78457 34.187C5.46624 34.187 4.1507 34.1983 2.83238 34.1842C1.55856 34.1701 0.896618 33.4746 0.893837 32.1736C0.891055 30.7712 0.888274 29.3688 0.893837 27.9635C0.896618 26.7019 1.5975 25.9331 2.83794 25.9247C5.56359 25.9022 8.29201 25.9078 11.0177 25.936C11.2207 25.936 11.5238 26.1612 11.6101 26.3556C12.0773 27.4426 12.5112 28.5436 12.9117 29.6588C13.0007 29.9094 12.984 30.2558 12.8895 30.5121C12.5112 31.5596 12.0551 32.5819 11.6852 33.6323C11.5322 34.066 11.2986 34.1983 10.873 34.1927C9.51021 34.1758 8.14739 34.187 6.78457 34.187Z" fill="white"/>
<path d="M50.7377 13.7817C50.7377 14.5759 50.721 15.37 50.7433 16.1641C50.7572 16.6175 50.6487 16.9357 50.1592 17.0343C49.9812 17.0709 49.8004 17.1469 49.653 17.2511C48.0427 18.3776 46.5602 17.6003 45.0834 16.9188C44.9332 16.8484 44.7941 16.564 44.7914 16.3753C44.7691 14.6941 44.7691 13.0101 44.783 11.3289C44.7886 10.6531 45.1529 10.2983 45.8121 10.2926C47.0831 10.2814 48.3514 10.2814 49.6224 10.2926C50.4012 10.2983 50.7015 10.5883 50.7266 11.3993C50.7516 12.1935 50.7321 12.9876 50.7321 13.7817C50.7321 13.7817 50.7321 13.7817 50.7349 13.7817H50.7377Z" fill="white"/>
</g>
<defs>
<clipPath id="clip0_16191_37449">
<rect width="59.6443" height="61.6325" fill="white" transform="translate(0.894531)"/>
</clipPath>
</defs>
</svg>
