<svg width="680" height="588" viewBox="0 0 680 588" fill="none" xmlns="http://www.w3.org/2000/svg">
<mask id="mask0_39_1693" style="mask-type:alpha" maskUnits="userSpaceOnUse" x="0" y="0" width="680" height="588">
<rect width="680" height="588" fill="#D9D9D9"/>
</mask>
<g mask="url(#mask0_39_1693)">
<path opacity="0.1" d="M340 713.534C527.777 713.534 680 561.311 680 373.534C680 185.757 527.777 33.5342 340 33.5342C152.223 33.5342 0 185.757 0 373.534C0 561.311 152.223 713.534 340 713.534Z" fill="#32A583"/>
<path opacity="0.3" d="M340.002 630.895C482.138 630.895 597.363 515.67 597.363 373.534C597.363 231.397 482.138 116.173 340.002 116.173C197.865 116.173 82.6406 231.397 82.6406 373.534C82.6406 515.67 197.865 630.895 340.002 630.895Z" fill="#32A583"/>
<path opacity="0.9" d="M340 567.46C447.103 567.46 533.926 480.637 533.926 373.534C533.926 266.432 447.103 179.608 340 179.608C232.898 179.608 146.074 266.432 146.074 373.534C146.074 480.637 232.898 567.46 340 567.46Z" fill="white"/>
<path d="M212.379 327.058L214.26 326.295C222.054 323.241 228.865 318.113 233.955 311.468C239.046 304.822 242.223 296.912 243.142 288.591C243.356 286.416 243.412 284.228 243.308 282.045C242.821 274.121 240.385 266.441 236.216 259.686C232.047 252.931 226.273 247.31 219.409 243.323C211.286 238.683 201.459 236.141 195.599 228.908C187.972 219.475 189.891 205.912 192.218 194.102C194.544 182.292 196.438 168.678 188.76 159.309C183.942 153.423 176.213 150.537 168.624 149.698C148.513 147.499 128.415 158.457 116.657 174.678C104.898 190.898 100.703 211.543 101.402 231.514C102.419 259.48 113.199 287.701 133.805 306.986C154.412 326.27 185.353 335.346 212.379 327.058Z" fill="#F5F5F5"/>
<path d="M249.785 73.8258C254.714 52.663 241.553 31.5118 220.39 26.5831C199.228 21.6545 178.076 34.8149 173.148 55.9777C168.219 77.1405 181.379 98.2917 202.542 103.22C223.705 108.149 244.856 94.9886 249.785 73.8258Z" fill="#F5F5F5"/>
<path d="M538.063 92.4804C524.995 69.713 489.516 48.9667 463.062 50.0473L464.918 49.8312C443.498 47.8989 421.506 69.3952 422.294 90.8914C422.866 106.769 433.061 120.396 441.553 133.82C450.045 147.244 457.341 163.732 451.748 178.631C445.951 194.038 427.595 203.254 425.053 219.513C423.26 230.852 430.417 242.395 440.434 247.963C450.451 253.53 462.668 254.039 473.931 251.776C511.673 244.289 542.83 215.114 551.195 177.563C558.644 144.308 552.25 117.066 538.063 92.4804Z" fill="#F5F5F5"/>
<path d="M527.996 145.859C556.241 145.859 579.137 122.962 579.137 94.7182C579.137 66.4738 556.241 43.5771 527.996 43.5771C499.752 43.5771 476.855 66.4738 476.855 94.7182C476.855 122.962 499.752 145.859 527.996 145.859Z" fill="#EBEBEB"/>
<path d="M533.537 140.024C523.755 140.028 514.178 137.225 505.941 131.949C497.703 126.673 491.153 119.145 487.066 110.257C482.979 101.37 481.527 91.4969 482.883 81.8094C484.239 72.1218 488.345 63.0264 494.715 55.6025C489.353 60.1847 484.998 65.8262 481.922 72.1725C478.846 78.5188 477.115 85.4328 476.84 92.4799C476.564 99.5271 477.749 106.555 480.32 113.122C482.891 119.689 486.793 125.654 491.78 130.641C496.766 135.628 502.731 139.529 509.298 142.1C515.865 144.671 522.893 145.856 529.94 145.581C536.988 145.305 543.902 143.575 550.248 140.499C556.594 137.422 562.236 133.067 566.818 127.706C557.559 135.667 545.749 140.039 533.537 140.024Z" fill="#E0E0E0"/>
<path d="M569.262 84.6701C570.924 77.6612 566.589 70.6321 559.58 68.9701C552.572 67.3081 545.542 71.6426 543.88 78.6515C542.218 85.6604 546.553 92.6895 553.562 94.3515C560.571 96.0135 567.6 91.679 569.262 84.6701Z" fill="#FAFAFA"/>
<path d="M547.42 60.9923C547.42 62.0332 547.112 63.0507 546.533 63.9162C545.955 64.7817 545.133 65.4562 544.171 65.8545C543.21 66.2529 542.152 66.3571 541.131 66.154C540.11 65.951 539.172 65.4497 538.436 64.7137C537.7 63.9777 537.199 63.0399 536.996 62.019C536.793 60.9982 536.897 59.94 537.295 58.9783C537.693 58.0167 538.368 57.1947 539.234 56.6164C540.099 56.0382 541.116 55.7295 542.157 55.7295C543.553 55.7295 544.892 56.284 545.879 57.2709C546.866 58.2579 547.42 59.5965 547.42 60.9923Z" fill="#FAFAFA"/>
<path d="M556.599 129.651C558.761 129.651 560.514 127.898 560.514 125.736C560.514 123.573 558.761 121.82 556.599 121.82C554.437 121.82 552.684 123.573 552.684 125.736C552.684 127.898 554.437 129.651 556.599 129.651Z" fill="#E0E0E0"/>
<path d="M204.536 14.2373L207.281 19.2586L212.29 21.9917L207.281 24.7375L204.536 29.7588L201.79 24.7375L196.781 21.9917L201.79 19.2586L204.536 14.2373Z" fill="#FAFAFA"/>
<path d="M501.454 184.974L504.199 189.982L509.208 192.728L504.199 195.474L501.454 200.482L498.708 195.474L493.699 192.728L498.708 189.982L501.454 184.974Z" fill="#E0E0E0"/>
<path d="M173.723 389.232L176.469 394.254L181.478 396.987L176.469 399.733L173.723 404.741L170.977 399.733L165.969 396.987L170.977 394.254L173.723 389.232Z" fill="#E0E0E0"/>
<path d="M154.716 407.64L155.911 409.826L158.085 411.008L155.911 412.203L154.716 414.377L153.534 412.203L151.348 411.008L153.534 409.826L154.716 407.64Z" fill="#E0E0E0"/>
<path d="M150.904 201.207C151.654 195.779 143.976 191.305 138.192 190.834C135.446 190.618 132.585 191.038 129.98 190.122C124.335 188.165 122.085 180.868 116.581 178.541C112.462 176.813 107.682 178.351 103.729 180.359C99.7755 182.368 95.7966 184.898 91.3346 185.19C87.4574 185.431 83.237 183.995 79.8937 185.889C77.3513 187.3 76.08 190.211 73.7156 191.94C71.3511 193.669 68.4528 193.974 65.6307 194.127C62.8086 194.279 59.8721 194.305 57.2915 195.487C54.7109 196.669 52.588 199.389 53.1219 202.173L150.904 201.207Z" fill="#FAFAFA"/>
<path d="M226.275 325.494C227.369 317.549 216.106 311.002 207.716 310.328C203.686 309.998 199.516 310.621 195.703 309.286C187.452 306.413 184.147 295.748 176.101 292.354C170.075 289.811 163.147 292.074 157.312 295.01C151.477 297.947 145.706 301.646 139.184 302.066C133.502 302.422 127.349 300.324 122.379 303.095C118.68 305.155 116.748 309.451 113.341 311.93C109.934 314.409 105.713 314.918 101.518 315.134C97.3234 315.35 93.1411 315.401 89.3275 317.193C85.5138 318.985 82.4375 322.901 83.2257 326.969L226.275 325.494Z" fill="#EBEBEB"/>
<path d="M622.055 239.572C623.008 232.657 613.245 226.962 605.91 226.377C602.414 226.085 598.779 226.631 595.461 225.474C588.278 222.932 585.418 213.69 578.414 210.741C573.176 208.529 567.138 210.5 562.066 213.055C556.994 215.61 551.972 218.826 546.29 219.182C541.358 219.5 536.006 217.669 531.684 220.084C528.468 221.877 526.777 225.589 523.815 227.712C520.853 229.835 517.129 230.254 513.531 230.496C509.933 230.737 506.209 230.725 502.929 232.225C499.649 233.725 496.942 237.195 497.615 240.742L622.055 239.572Z" fill="#FAFAFA"/>
<path d="M78.3175 102.714L78.9531 103.782C79.6753 104.982 80.7248 105.953 81.9786 106.578L83.0972 107.125L82.0294 107.773C80.8297 108.493 79.8631 109.543 79.2454 110.799L78.6861 111.917L78.0505 110.85C77.3283 109.649 76.2788 108.679 75.025 108.053L73.9062 107.506L74.9742 106.858C76.1712 106.135 77.137 105.085 77.7581 103.833L78.3175 102.714Z" fill="#E0E0E0"/>
<path d="M197.992 103.284C203.648 89.4178 196.992 73.5921 183.126 67.9363C169.26 62.2805 153.435 68.9363 147.779 82.8023C142.123 96.6684 148.779 112.494 162.645 118.15C176.511 123.806 192.337 117.15 197.992 103.284Z" fill="#EBEBEB"/>
<path d="M169.414 101.519C169.414 102.394 169.155 103.249 168.669 103.976C168.182 104.704 167.492 105.271 166.683 105.606C165.875 105.94 164.985 106.028 164.127 105.857C163.269 105.687 162.481 105.265 161.862 104.647C161.243 104.028 160.822 103.24 160.651 102.382C160.481 101.523 160.568 100.634 160.903 99.8256C161.238 99.0173 161.805 98.3264 162.532 97.8403C163.26 97.3542 164.115 97.0947 164.99 97.0947C165.572 97.0931 166.148 97.2063 166.685 97.4281C167.223 97.6498 167.711 97.9756 168.122 98.3867C168.533 98.7978 168.859 99.2862 169.081 99.8237C169.302 100.361 169.416 100.937 169.414 101.519Z" fill="white"/>
<path d="M163.058 88.7553C163.058 89.2582 162.908 89.7497 162.629 90.1678C162.35 90.5859 161.953 90.9118 161.488 91.1042C161.023 91.2966 160.512 91.347 160.019 91.2489C159.526 91.1508 159.073 90.9086 158.717 90.5531C158.362 90.1975 158.12 89.7445 158.022 89.2513C157.923 88.7581 157.974 88.2469 158.166 87.7824C158.359 87.3178 158.684 86.9207 159.103 86.6414C159.521 86.362 160.012 86.2129 160.515 86.2129C161.189 86.2129 161.836 86.4808 162.313 86.9575C162.79 87.4343 163.058 88.081 163.058 88.7553Z" fill="white"/>
<path d="M146.593 99.6498C146.707 100.12 123.38 122.532 129.393 127.261C135.406 131.99 160.703 119.799 182.263 102.383C203.823 84.9673 223.526 63.8143 218.136 58.221C212.747 52.6276 185.797 69.1916 185.797 69.1916L189.026 71.2509C189.026 71.2509 205.31 60.8015 210.471 64.8948C215.632 68.9882 200.924 84.8021 180.191 99.9295C159.457 115.057 139.423 125.697 136.321 121.54C133.219 117.383 147.876 103.552 147.876 103.552L146.593 99.6498Z" fill="#E0E0E0"/>
<path d="M157.972 73.9466C158.188 74.2136 156.345 75.7772 154.273 78.9044C151.509 82.9202 149.985 87.6585 149.888 92.5324C149.79 97.4063 151.125 102.202 153.726 106.324C155.671 109.541 157.451 111.168 157.222 111.409C156.993 111.651 154.909 110.341 152.493 107.138C151.087 105.264 149.976 103.184 149.201 100.973C147.205 95.4875 147.323 89.4558 149.531 84.0528C150.404 81.8733 151.599 79.8377 153.078 78.0145C155.595 74.9254 157.82 73.7559 157.972 73.9466Z" fill="white"/>
<path d="M90.065 38.1872C90.1083 36.3243 90.7031 34.5162 91.7742 32.9914C92.8453 31.4667 94.3446 30.2938 96.0823 29.6213C97.8201 28.9488 99.7182 28.8067 101.537 29.2131C103.355 29.6195 105.012 30.5562 106.298 31.9045C107.585 33.2529 108.442 34.9524 108.762 36.788C109.082 38.6237 108.85 40.5131 108.097 42.2171C107.343 43.9211 106.1 45.3633 104.527 46.3612C102.953 47.359 101.119 47.8678 99.2559 47.823C96.7597 47.763 94.3894 46.7144 92.666 44.9075C90.9425 43.1007 90.007 40.6835 90.065 38.1872Z" fill="#E0E0E0"/>
<path d="M102.547 34.8052C102.555 34.5012 102.653 34.2062 102.828 33.9575C103.003 33.7089 103.248 33.5179 103.532 33.4085C103.816 33.2992 104.126 33.2764 104.423 33.3431C104.719 33.4099 104.99 33.5631 105.199 33.7835C105.409 34.0038 105.549 34.2814 105.601 34.5811C105.653 34.8808 105.614 35.1892 105.491 35.4673C105.368 35.7454 105.165 35.9806 104.908 36.1434C104.651 36.3061 104.351 36.389 104.047 36.3815C103.845 36.3766 103.646 36.3319 103.462 36.25C103.277 36.1681 103.11 36.0506 102.971 35.9042C102.831 35.7578 102.722 35.5854 102.65 35.3968C102.577 35.2083 102.542 35.0072 102.547 34.8052Z" fill="#F5F5F5"/>
<path d="M105.609 38.3905C105.612 38.2115 105.668 38.0373 105.77 37.89C105.872 37.7428 106.015 37.6292 106.182 37.5636C106.348 37.4981 106.53 37.4836 106.705 37.5219C106.88 37.5603 107.04 37.6498 107.164 37.7791C107.287 37.9083 107.37 38.0715 107.401 38.2478C107.432 38.4242 107.41 38.6057 107.337 38.7694C107.264 38.9331 107.145 39.0714 106.993 39.167C106.842 39.2625 106.666 39.3108 106.487 39.3057C106.249 39.2991 106.024 39.1993 105.86 39.028C105.696 38.8567 105.606 38.6277 105.609 38.3905Z" fill="#F5F5F5"/>
<path d="M104.417 41.1357C104.46 41.1357 104.502 41.1443 104.541 41.1611C104.581 41.1778 104.616 41.2024 104.646 41.2333C104.676 41.2641 104.699 41.3007 104.714 41.3407C104.729 41.3808 104.736 41.4235 104.735 41.4663C104.735 41.5097 104.726 41.5526 104.709 41.5927C104.693 41.6328 104.668 41.6693 104.638 41.7C104.607 41.7307 104.571 41.755 104.53 41.7716C104.49 41.7882 104.447 41.7968 104.404 41.7968C104.361 41.7951 104.318 41.785 104.278 41.7668C104.239 41.7487 104.203 41.7229 104.174 41.691C104.144 41.6592 104.121 41.6218 104.106 41.581C104.091 41.5403 104.084 41.497 104.086 41.4535C104.089 41.3681 104.126 41.2873 104.187 41.228C104.249 41.1687 104.331 41.1357 104.417 41.1357Z" fill="#F5F5F5"/>
<path d="M246.421 573.152C247.864 568.436 247.978 563.413 246.751 558.637C245.523 553.86 243.002 549.514 239.465 546.078C235.927 542.641 231.51 540.247 226.7 539.159C221.889 538.071 216.872 538.331 212.2 539.91C212.296 534.66 210.955 529.483 208.32 524.941C205.686 520.399 201.859 516.664 197.254 514.141C192.649 511.618 187.441 510.403 182.195 510.627C176.949 510.851 171.864 512.507 167.491 515.414C162.61 506.083 149.694 502.079 140.338 507.024C130.982 511.969 127.118 524.96 132.126 534.228C128.287 533.281 124.247 533.576 120.586 535.068C116.924 536.56 113.83 539.174 111.746 542.534C109.662 545.894 108.696 549.828 108.987 553.771C109.277 557.714 110.809 561.464 113.363 564.482C98.1085 557.783 78.1886 571.258 78.697 587.86L263.277 587.326C261.955 584.86 257.404 573.597 246.421 573.152Z" fill="#005656"/>
<path d="M579.672 573.152C581.114 568.436 581.229 563.413 580.001 558.637C578.774 553.86 576.253 549.514 572.715 546.078C569.178 542.641 564.761 540.247 559.95 539.159C555.14 538.071 550.123 538.331 545.45 539.91C545.547 534.66 544.205 529.483 541.571 524.941C538.936 520.399 535.109 516.664 530.504 514.141C525.899 511.618 520.692 510.403 515.446 510.627C510.199 510.851 505.115 512.507 500.742 515.414C495.848 506.083 482.881 502.079 473.589 507.024C464.296 511.969 460.368 524.96 465.377 534.228C461.538 533.281 457.498 533.576 453.836 535.068C450.175 536.56 447.08 539.174 444.997 542.534C442.913 545.894 441.947 549.828 442.237 553.771C442.528 557.714 444.06 561.464 446.614 564.482C431.359 557.783 411.439 571.258 411.935 587.86L596.541 587.326C595.269 584.86 590.655 573.597 579.672 573.152Z" fill="#005656"/>
<path d="M398.622 587.326C401.997 577.365 401.858 566.548 398.228 556.677C395.927 550.499 392.114 544.677 386.52 541.194C380.927 537.711 373.376 536.986 367.77 540.444C367.774 536.41 366.86 532.429 365.098 528.8C363.337 525.172 360.773 521.991 357.602 519.499C354.43 517.007 350.733 515.269 346.791 514.416C342.848 513.562 338.764 513.617 334.845 514.575C335.289 511.214 334.893 507.796 333.692 504.626C332.491 501.456 330.523 498.633 327.964 496.41C325.404 494.187 322.334 492.633 319.027 491.888C315.72 491.142 312.28 491.228 309.014 492.138C312.231 481.625 303.18 471.086 292.4 468.938H288.815C288.815 468.938 266.162 468.379 263.391 468.938C252.611 471.086 243.56 481.65 246.776 492.138C243.51 491.228 240.07 491.142 236.763 491.888C233.456 492.633 230.386 494.187 227.827 496.41C225.267 498.633 223.299 501.456 222.098 504.626C220.897 507.796 220.501 511.214 220.945 514.575C217.027 513.617 212.942 513.562 208.999 514.416C205.057 515.269 201.36 517.007 198.189 519.499C195.017 521.991 192.453 525.172 190.692 528.8C188.93 532.429 188.017 536.41 188.02 540.444C182.414 536.986 174.876 537.711 169.27 541.194C163.664 544.677 159.863 550.499 157.562 556.677C153.932 566.548 153.793 577.365 157.168 587.326H398.622Z" fill="#005656"/>
<g opacity="0.6">
<path opacity="0.6" d="M398.622 587.326C401.997 577.365 401.858 566.548 398.228 556.677C395.927 550.499 392.114 544.677 386.52 541.194C380.927 537.711 373.376 536.986 367.77 540.444C367.774 536.41 366.86 532.429 365.098 528.8C363.337 525.172 360.773 521.991 357.602 519.499C354.43 517.007 350.733 515.269 346.791 514.416C342.848 513.562 338.764 513.617 334.845 514.575C335.289 511.214 334.893 507.796 333.692 504.626C332.491 501.456 330.523 498.633 327.964 496.41C325.404 494.187 322.334 492.633 319.027 491.888C315.72 491.142 312.28 491.228 309.014 492.138C312.231 481.625 303.18 471.086 292.4 468.938H288.815C288.815 468.938 266.162 468.379 263.391 468.938C252.611 471.086 243.56 481.65 246.776 492.138C243.51 491.228 240.07 491.142 236.763 491.888C233.456 492.633 230.386 494.187 227.827 496.41C225.267 498.633 223.299 501.456 222.098 504.626C220.897 507.796 220.501 511.214 220.945 514.575C217.027 513.617 212.942 513.562 208.999 514.416C205.057 515.269 201.36 517.007 198.189 519.499C195.017 521.991 192.453 525.172 190.692 528.8C188.93 532.429 188.017 536.41 188.02 540.444C182.414 536.986 174.876 537.711 169.27 541.194C163.664 544.677 159.863 550.499 157.562 556.677C153.932 566.548 153.793 577.365 157.168 587.326H398.622Z" fill="white"/>
</g>
<path d="M515.742 587.326C519.113 577.364 518.969 566.547 515.335 556.677C513.034 550.499 509.221 544.677 503.627 541.194C498.034 537.711 490.483 536.986 484.877 540.444C484.883 536.409 483.971 532.427 482.21 528.797C480.449 525.167 477.886 521.985 474.713 519.493C471.541 517 467.843 515.262 463.9 514.41C459.956 513.558 455.871 513.614 451.952 514.575C452.396 511.214 452 507.796 450.799 504.626C449.598 501.456 447.63 498.633 445.07 496.41C442.511 494.187 439.441 492.633 436.134 491.888C432.827 491.142 429.387 491.228 426.121 492.138C429.338 481.625 420.286 471.086 409.507 468.938H405.934C405.934 468.938 383.269 468.379 380.51 468.938C369.73 471.086 360.679 481.65 363.895 492.138C360.63 491.228 357.19 491.142 353.883 491.888C350.576 492.633 347.506 494.187 344.946 496.41C342.387 498.633 340.419 501.456 339.218 504.626C338.017 507.796 337.621 511.214 338.064 514.575C334.147 513.614 330.062 513.557 326.119 514.41C322.176 515.262 318.479 517 315.307 519.493C312.136 521.986 309.573 525.167 307.814 528.797C306.055 532.427 305.145 536.41 305.153 540.444C299.547 536.986 291.996 537.711 286.402 541.194C280.809 544.677 276.983 550.499 274.694 556.677C271.054 566.546 270.911 577.365 274.288 587.326H515.742Z" fill="#005656"/>
<g opacity="0.8">
<path opacity="0.8" d="M515.742 587.352C519.113 577.389 518.969 566.572 515.335 556.703C513.034 550.524 509.221 544.702 503.627 541.219C498.034 537.736 490.483 537.012 484.877 540.469C484.883 536.435 483.971 532.452 482.21 528.822C480.449 525.192 477.886 522.011 474.713 519.518C471.541 517.026 467.843 515.287 463.9 514.435C459.956 513.583 455.871 513.64 451.952 514.6C452.396 511.239 452 507.821 450.799 504.651C449.598 501.481 447.63 498.658 445.07 496.435C442.511 494.212 439.441 492.658 436.134 491.913C432.827 491.167 429.387 491.253 426.121 492.163C429.338 481.65 420.286 471.112 409.507 468.963H405.934C405.934 468.963 383.269 468.404 380.51 468.963C369.73 471.112 360.679 481.676 363.895 492.163C360.63 491.253 357.19 491.167 353.883 491.913C350.576 492.658 347.506 494.212 344.946 496.435C342.387 498.658 340.419 501.481 339.218 504.651C338.017 507.821 337.621 511.239 338.064 514.6C334.147 513.639 330.062 513.583 326.119 514.435C322.176 515.287 318.479 517.025 315.307 519.518C312.136 522.011 309.573 525.193 307.814 528.823C306.055 532.453 305.145 536.435 305.153 540.469C299.547 537.012 291.996 537.736 286.402 541.219C280.809 544.702 276.983 550.524 274.694 556.703C271.054 566.571 270.911 577.39 274.288 587.352H515.742Z" fill="white"/>
</g>
<path d="M289.545 460.764L265.125 461.425V416.043L289.545 415.382V460.764Z" fill="#455A64"/>
<path d="M290.917 426.543H264.081C263.12 426.543 262.34 427.323 262.34 428.285V428.323C262.34 429.285 263.12 430.064 264.081 430.064H290.917C291.879 430.064 292.658 429.285 292.658 428.323V428.285C292.658 427.323 291.879 426.543 290.917 426.543Z" fill="#455A64"/>
<path d="M290.917 433.624H264.081C263.12 433.624 262.34 434.404 262.34 435.366V435.404C262.34 436.366 263.12 437.145 264.081 437.145H290.917C291.879 437.145 292.658 436.366 292.658 435.404V435.366C292.658 434.404 291.879 433.624 290.917 433.624Z" fill="#455A64"/>
<path d="M290.917 440.704H264.081C263.12 440.704 262.34 441.484 262.34 442.446V442.484C262.34 443.446 263.12 444.225 264.081 444.225H290.917C291.879 444.225 292.658 443.446 292.658 442.484V442.446C292.658 441.484 291.879 440.704 290.917 440.704Z" fill="#455A64"/>
<path d="M290.917 447.785H264.081C263.12 447.785 262.34 448.565 262.34 449.527V449.565C262.34 450.527 263.12 451.306 264.081 451.306H290.917C291.879 451.306 292.658 450.527 292.658 449.565V449.527C292.658 448.565 291.879 447.785 290.917 447.785Z" fill="#455A64"/>
<path d="M290.917 454.865H264.081C263.12 454.865 262.34 455.645 262.34 456.607V456.645C262.34 457.607 263.12 458.387 264.081 458.387H290.917C291.879 458.387 292.658 457.607 292.658 456.645V456.607C292.658 455.645 291.879 454.865 290.917 454.865Z" fill="#455A64"/>
<path d="M260.688 469.205L265.124 460.764H289.544L294.883 469.205H260.688Z" fill="#455A64"/>
<path d="M291.45 426.518C291.45 426.709 285.208 426.849 277.467 426.849C269.725 426.849 263.547 426.709 263.547 426.518C263.547 426.327 269.776 426.188 277.467 426.188C285.158 426.188 291.45 426.365 291.45 426.518Z" fill="#263238"/>
<path d="M290.88 430.077C290.88 430.255 284.702 430.407 277.1 430.407C269.498 430.407 263.32 430.255 263.32 430.077C263.32 429.899 269.486 429.733 277.1 429.733C284.715 429.733 290.88 429.886 290.88 430.077Z" fill="#263238"/>
<path d="M291.628 433.623C291.628 433.801 285.336 433.954 277.568 433.954C269.801 433.954 263.496 433.801 263.496 433.623C263.496 433.446 269.852 433.293 277.568 433.293C285.285 433.293 291.628 433.446 291.628 433.623Z" fill="#263238"/>
<path d="M290.267 437.145C285.822 437.48 281.363 437.59 276.906 437.475C272.454 437.59 267.999 437.48 263.559 437.145C263.559 436.967 269.533 436.814 276.906 436.814C284.279 436.814 290.267 436.967 290.267 437.145Z" fill="#263238"/>
<path d="M291.234 440.768C291.234 440.959 285.12 441.099 277.569 441.099C270.018 441.099 263.891 440.959 263.891 440.768C263.891 440.577 270.005 440.438 277.569 440.438C285.133 440.438 291.234 440.59 291.234 440.768Z" fill="#263238"/>
<path d="M291.59 444.227C291.59 444.418 285.387 444.557 277.734 444.557C270.081 444.557 263.891 444.418 263.891 444.227C263.891 444.036 270.094 443.896 277.734 443.896C285.374 443.896 291.59 444.049 291.59 444.227Z" fill="#263238"/>
<path d="M290.803 447.785C290.803 447.963 284.956 448.115 277.735 448.115C270.515 448.115 264.68 447.963 264.68 447.785C269.023 447.45 273.38 447.339 277.735 447.454C282.094 447.339 286.456 447.45 290.803 447.785Z" fill="#263238"/>
<path d="M291.018 451.306C286.671 451.641 282.309 451.752 277.95 451.637C273.595 451.751 269.238 451.641 264.895 451.306C264.895 451.128 270.742 450.976 277.95 450.976C285.158 450.976 291.018 451.128 291.018 451.306Z" fill="#263238"/>
<path d="M290.179 454.777C285.857 455.104 281.521 455.214 277.187 455.107C272.854 455.214 268.518 455.104 264.195 454.777C268.518 454.449 272.854 454.339 277.187 454.446C281.521 454.339 285.857 454.449 290.179 454.777Z" fill="#263238"/>
<path d="M290.076 458.387C285.898 458.714 281.706 458.825 277.517 458.717C273.327 458.824 269.135 458.714 264.957 458.387C269.135 458.06 273.327 457.949 277.517 458.056C281.706 457.949 285.898 458.059 290.076 458.387Z" fill="#263238"/>
<path d="M406.583 460.764L382.176 461.425V416.043L406.583 415.382V460.764Z" fill="#455A64"/>
<path d="M407.956 426.543H381.12C380.159 426.543 379.379 427.323 379.379 428.285V428.323C379.379 429.285 380.159 430.064 381.12 430.064H407.956C408.918 430.064 409.697 429.285 409.697 428.323V428.285C409.697 427.323 408.918 426.543 407.956 426.543Z" fill="#455A64"/>
<path d="M407.956 433.624H381.12C380.159 433.624 379.379 434.404 379.379 435.366V435.404C379.379 436.366 380.159 437.145 381.12 437.145H407.956C408.918 437.145 409.697 436.366 409.697 435.404V435.366C409.697 434.404 408.918 433.624 407.956 433.624Z" fill="#455A64"/>
<path d="M407.956 440.704H381.12C380.159 440.704 379.379 441.484 379.379 442.446V442.484C379.379 443.446 380.159 444.225 381.12 444.225H407.956C408.918 444.225 409.697 443.446 409.697 442.484V442.446C409.697 441.484 408.918 440.704 407.956 440.704Z" fill="#455A64"/>
<path d="M407.956 447.785H381.12C380.159 447.785 379.379 448.565 379.379 449.527V449.565C379.379 450.527 380.159 451.306 381.12 451.306H407.956C408.918 451.306 409.697 450.527 409.697 449.565V449.527C409.697 448.565 408.918 447.785 407.956 447.785Z" fill="#455A64"/>
<path d="M407.956 454.865H381.12C380.159 454.865 379.379 455.645 379.379 456.607V456.645C379.379 457.607 380.159 458.387 381.12 458.387H407.956C408.918 458.387 409.697 457.607 409.697 456.645V456.607C409.697 455.645 408.918 454.865 407.956 454.865Z" fill="#455A64"/>
<path d="M377.742 469.205L382.179 460.764H406.586L411.938 469.205H377.742Z" fill="#455A64"/>
<path d="M408.492 426.518C408.492 426.709 402.263 426.849 394.572 426.849C386.881 426.849 380.652 426.709 380.652 426.518C380.652 426.327 386.881 426.188 394.572 426.188C402.263 426.188 408.492 426.365 408.492 426.518Z" fill="#263238"/>
<path d="M407.919 430.077C407.919 430.255 401.754 430.407 394.139 430.407C386.525 430.407 380.359 430.255 380.359 430.077C380.359 429.899 386.525 429.733 394.139 429.733C401.754 429.733 407.919 429.886 407.919 430.077Z" fill="#263238"/>
<path d="M408.684 433.623C408.684 433.801 402.328 433.954 394.611 433.954C386.895 433.954 380.539 433.801 380.539 433.623C380.539 433.446 386.895 433.293 394.611 433.293C402.328 433.293 408.684 433.446 408.684 433.623Z" fill="#263238"/>
<path d="M407.309 437.145C402.868 437.48 398.413 437.59 393.961 437.475C389.509 437.59 385.054 437.48 380.613 437.145C380.613 436.967 386.588 436.814 393.961 436.814C401.334 436.814 407.309 436.967 407.309 437.145Z" fill="#263238"/>
<path d="M408.286 440.768C408.286 440.959 402.159 441.099 394.608 441.099C387.057 441.099 380.93 440.959 380.93 440.768C380.93 440.577 387.057 440.438 394.608 440.438C402.159 440.438 408.286 440.59 408.286 440.768Z" fill="#263238"/>
<path d="M408.629 444.227C408.629 444.418 402.439 444.557 394.786 444.557C387.133 444.557 380.93 444.418 380.93 444.227C380.93 444.036 387.133 443.896 394.786 443.896C402.439 443.896 408.629 444.049 408.629 444.227Z" fill="#263238"/>
<path d="M407.842 447.785C407.842 447.963 401.995 448.115 394.787 448.115C387.579 448.115 381.719 447.963 381.719 447.785C386.066 447.45 390.428 447.339 394.787 447.454C399.141 447.339 403.499 447.45 407.842 447.785Z" fill="#263238"/>
<path d="M408.061 451.306C403.718 451.641 399.36 451.751 395.006 451.637C390.647 451.752 386.285 451.641 381.938 451.306C381.938 451.128 387.785 450.976 395.006 450.976C402.226 450.976 408.061 451.128 408.061 451.306Z" fill="#263238"/>
<path d="M407.194 454.777C402.875 455.104 398.544 455.214 394.214 455.107C389.881 455.214 385.545 455.104 381.223 454.777C385.545 454.449 389.881 454.339 394.214 454.446C398.544 454.339 402.875 454.449 407.194 454.777Z" fill="#263238"/>
<path d="M407.131 458.387C402.953 458.714 398.761 458.824 394.571 458.717C390.382 458.825 386.19 458.714 382.012 458.387C386.19 458.059 390.382 457.949 394.571 458.056C398.761 457.949 402.953 458.06 407.131 458.387Z" fill="#263238"/>
<path d="M298.457 140.406L298.851 365.588H270.363V141.41C270.361 137.381 270.9 133.371 271.965 129.486L283.825 86.1247C284.296 84.4213 286.292 84.4594 286.851 87.5103L297.173 129.765C298.019 133.249 298.45 136.821 298.457 140.406Z" fill="#E0E0E0"/>
<path d="M297.731 167.686C297.731 167.864 291.833 168.017 284.536 168.017C277.239 168.017 271.328 167.864 271.328 167.686C275.722 167.351 280.131 167.241 284.536 167.356C288.937 167.24 293.341 167.351 297.731 167.686Z" fill="#005656"/>
<path d="M297.896 195.894C297.896 196.072 291.807 196.225 284.294 196.225C276.782 196.225 270.68 196.072 270.68 195.894C275.209 195.551 279.753 195.436 284.294 195.551C288.831 195.436 293.371 195.551 297.896 195.894Z" fill="#263238"/>
<path d="M277.237 189.983C277.059 189.983 276.906 189.182 276.906 188.178C276.906 187.174 277.059 186.373 277.237 186.373C277.415 186.373 277.567 187.187 277.567 188.178C277.567 189.17 277.466 189.983 277.237 189.983Z" fill="#263238"/>
<path d="M280.022 189.652C280.204 189.652 280.352 188.992 280.352 188.178C280.352 187.363 280.204 186.703 280.022 186.703C279.839 186.703 279.691 187.363 279.691 188.178C279.691 188.992 279.839 189.652 280.022 189.652Z" fill="#263238"/>
<path d="M298.748 268.557C298.748 268.748 292.481 268.9 284.765 268.9C277.048 268.9 270.781 268.748 270.781 268.557C270.781 268.366 277.048 268.227 284.765 268.227C292.481 268.227 298.748 268.379 298.748 268.557Z" fill="#263238"/>
<path d="M277.366 277.01C277.188 277.01 277.035 276.196 277.035 275.192C277.035 274.188 277.188 273.374 277.366 273.374C277.544 273.374 277.696 274.188 277.696 275.192C277.696 276.196 277.556 277.01 277.366 277.01Z" fill="#263238"/>
<path d="M279.526 277.341C279.335 277.341 279.195 276.489 279.195 275.434C279.195 274.379 279.335 273.54 279.526 273.54C279.717 273.54 279.856 274.392 279.856 275.434C279.856 276.477 279.704 277.341 279.526 277.341Z" fill="#263238"/>
<path d="M289.467 338.804C286.275 339.131 283.064 339.241 279.856 339.135C276.649 339.242 273.438 339.132 270.246 338.804C273.438 338.469 276.649 338.359 279.856 338.474C283.064 338.359 286.275 338.469 289.467 338.804Z" fill="#263238"/>
<path d="M298.047 137.469C298.047 137.647 291.92 137.8 284.356 137.8C276.792 137.8 270.652 137.647 270.652 137.469C270.652 137.291 276.792 137.139 284.356 137.139C291.92 137.139 298.047 137.291 298.047 137.469Z" fill="#263238"/>
<path d="M273.285 139.223C273.285 139.147 273.602 139.121 273.78 139.49C273.838 139.597 273.868 139.718 273.868 139.84C273.868 139.962 273.838 140.082 273.78 140.189C273.682 140.318 273.547 140.415 273.393 140.466C273.239 140.517 273.073 140.52 272.918 140.474C272.762 140.429 272.624 140.337 272.521 140.211C272.419 140.085 272.357 139.931 272.344 139.77C272.342 139.648 272.372 139.528 272.43 139.422C272.488 139.315 272.572 139.225 272.674 139.16C273.018 138.943 273.272 139.16 273.234 139.16C273.196 139.16 273.068 139.299 272.992 139.465C272.916 139.63 272.929 139.732 273.107 139.795C273.285 139.859 273.348 139.795 273.373 139.579C273.399 139.363 273.259 139.223 273.285 139.223Z" fill="#263238"/>
<path d="M284.523 139.223C284.523 139.147 284.841 139.121 285.019 139.49C285.076 139.597 285.107 139.718 285.107 139.84C285.107 139.962 285.076 140.082 285.019 140.189C284.921 140.318 284.786 140.415 284.632 140.466C284.477 140.517 284.312 140.52 284.156 140.474C284 140.429 283.862 140.337 283.759 140.211C283.657 140.085 283.595 139.931 283.582 139.77C283.581 139.648 283.61 139.528 283.668 139.422C283.726 139.315 283.81 139.225 283.913 139.16C284.256 138.943 284.51 139.16 284.472 139.16C284.434 139.16 284.307 139.299 284.23 139.465C284.154 139.63 284.167 139.732 284.345 139.795C284.523 139.859 284.586 139.795 284.624 139.579C284.663 139.363 284.497 139.223 284.523 139.223Z" fill="#263238"/>
<path d="M295.761 139.223C295.761 139.147 296.079 139.121 296.257 139.49C296.315 139.597 296.345 139.718 296.345 139.84C296.345 139.962 296.315 140.082 296.257 140.189C296.163 140.32 296.029 140.417 295.876 140.467C295.723 140.518 295.558 140.518 295.405 140.469C295.246 140.429 295.104 140.34 294.999 140.214C294.894 140.089 294.832 139.933 294.82 139.77C294.819 139.648 294.848 139.528 294.906 139.422C294.964 139.315 295.048 139.225 295.151 139.16C295.507 138.943 295.748 139.16 295.71 139.16C295.672 139.16 295.545 139.299 295.469 139.465C295.392 139.63 295.469 139.732 295.583 139.795C295.698 139.859 295.825 139.795 295.863 139.579C295.901 139.363 295.736 139.223 295.761 139.223Z" fill="#263238"/>
<path d="M273.284 198.347C273.284 198.258 273.602 198.233 273.78 198.601C273.838 198.709 273.868 198.829 273.868 198.951C273.868 199.073 273.838 199.193 273.78 199.301C273.682 199.43 273.547 199.526 273.393 199.577C273.239 199.628 273.073 199.631 272.918 199.585C272.762 199.54 272.624 199.448 272.521 199.322C272.419 199.197 272.357 199.043 272.344 198.881C272.343 198.76 272.373 198.64 272.431 198.534C272.489 198.427 272.573 198.337 272.674 198.271C273.017 198.055 273.272 198.271 273.234 198.271C273.195 198.271 273.068 198.423 272.992 198.576C272.916 198.728 272.929 198.856 273.106 198.906C273.284 198.957 273.348 198.906 273.373 198.69C273.399 198.474 273.259 198.436 273.284 198.347Z" fill="#263238"/>
<path d="M284.523 198.347C284.523 198.258 284.841 198.233 285.019 198.601C285.076 198.709 285.107 198.829 285.107 198.951C285.107 199.073 285.076 199.193 285.019 199.301C284.92 199.43 284.786 199.526 284.631 199.577C284.477 199.628 284.312 199.631 284.156 199.585C284 199.54 283.862 199.448 283.759 199.322C283.657 199.197 283.595 199.043 283.582 198.881C283.582 198.76 283.612 198.64 283.669 198.534C283.727 198.427 283.811 198.337 283.913 198.271C284.256 198.055 284.51 198.271 284.472 198.271C284.434 198.271 284.307 198.423 284.23 198.576C284.154 198.728 284.167 198.856 284.345 198.906C284.523 198.957 284.586 198.906 284.624 198.69C284.663 198.474 284.497 198.436 284.523 198.347Z" fill="#263238"/>
<path d="M295.761 198.347C295.761 198.258 296.079 198.233 296.257 198.601C296.315 198.709 296.345 198.829 296.345 198.951C296.345 199.073 296.315 199.193 296.257 199.301C296.163 199.431 296.029 199.528 295.876 199.579C295.723 199.629 295.558 199.629 295.405 199.58C295.246 199.54 295.104 199.451 294.999 199.326C294.894 199.2 294.831 199.044 294.82 198.881C294.82 198.76 294.85 198.64 294.908 198.534C294.966 198.427 295.049 198.337 295.151 198.271C295.507 198.055 295.748 198.271 295.71 198.271C295.672 198.271 295.545 198.423 295.469 198.576C295.392 198.728 295.469 198.856 295.583 198.906C295.697 198.957 295.825 198.906 295.863 198.69C295.901 198.474 295.736 198.436 295.761 198.347Z" fill="#263238"/>
<path d="M273.284 263.243C273.284 263.154 273.602 263.128 273.78 263.497C273.838 263.604 273.868 263.724 273.868 263.846C273.868 263.968 273.838 264.089 273.78 264.196C273.684 264.328 273.55 264.428 273.395 264.48C273.24 264.532 273.072 264.535 272.916 264.488C272.759 264.442 272.621 264.349 272.518 264.222C272.416 264.095 272.355 263.939 272.344 263.777C272.343 263.655 272.373 263.536 272.431 263.429C272.489 263.323 272.573 263.232 272.674 263.166C273.017 262.95 273.272 263.166 273.234 263.166C273.195 263.166 273.068 263.306 272.992 263.459C272.916 263.611 272.929 263.738 273.106 263.789C273.284 263.84 273.348 263.789 273.373 263.573C273.399 263.357 273.259 263.332 273.284 263.243Z" fill="#263238"/>
<path d="M284.523 263.243C284.523 263.154 284.841 263.128 285.019 263.497C285.076 263.604 285.107 263.724 285.107 263.846C285.107 263.968 285.076 264.089 285.019 264.196C284.924 264.33 284.789 264.43 284.634 264.483C284.479 264.535 284.311 264.537 284.154 264.488C283.998 264.442 283.859 264.349 283.757 264.222C283.654 264.095 283.593 263.939 283.582 263.777C283.582 263.655 283.612 263.536 283.669 263.429C283.727 263.323 283.811 263.232 283.913 263.166C284.256 262.95 284.51 263.166 284.472 263.166C284.434 263.166 284.307 263.306 284.23 263.459C284.154 263.611 284.167 263.738 284.345 263.789C284.523 263.84 284.586 263.789 284.624 263.573C284.663 263.357 284.497 263.332 284.523 263.243Z" fill="#263238"/>
<path d="M295.761 263.243C295.761 263.154 296.079 263.128 296.257 263.497C296.315 263.604 296.345 263.724 296.345 263.846C296.345 263.968 296.315 264.089 296.257 264.196C296.164 264.329 296.032 264.429 295.879 264.481C295.726 264.534 295.56 264.536 295.405 264.488C295.246 264.444 295.105 264.352 295 264.225C294.895 264.098 294.833 263.941 294.82 263.777C294.82 263.655 294.85 263.536 294.908 263.429C294.966 263.323 295.049 263.232 295.151 263.166C295.507 262.95 295.748 263.166 295.71 263.166C295.672 263.166 295.545 263.306 295.469 263.459C295.392 263.611 295.469 263.738 295.583 263.789C295.697 263.84 295.825 263.789 295.863 263.573C295.901 263.357 295.736 263.332 295.761 263.243Z" fill="#263238"/>
<path d="M273.284 333.998C273.284 333.91 273.602 333.884 273.78 334.253C273.838 334.36 273.868 334.48 273.868 334.602C273.868 334.724 273.838 334.844 273.78 334.952C273.682 335.081 273.547 335.178 273.393 335.229C273.239 335.279 273.073 335.282 272.918 335.237C272.762 335.191 272.624 335.1 272.521 334.974C272.419 334.848 272.357 334.694 272.344 334.532C272.343 334.411 272.373 334.292 272.431 334.185C272.489 334.079 272.573 333.988 272.674 333.922C273.017 333.706 273.272 333.922 273.234 333.922C273.195 333.922 273.068 334.075 272.992 334.227C272.916 334.38 272.929 334.507 273.106 334.558C273.284 334.609 273.348 334.558 273.373 334.342C273.399 334.126 273.259 334.087 273.284 333.998Z" fill="#263238"/>
<path d="M284.523 333.998C284.523 333.91 284.841 333.884 285.019 334.253C285.076 334.36 285.107 334.48 285.107 334.602C285.107 334.724 285.076 334.844 285.019 334.952C284.92 335.081 284.786 335.178 284.631 335.229C284.477 335.279 284.312 335.282 284.156 335.237C284 335.191 283.862 335.1 283.759 334.974C283.657 334.848 283.595 334.694 283.582 334.532C283.582 334.411 283.612 334.292 283.669 334.185C283.727 334.079 283.811 333.988 283.913 333.922C284.256 333.706 284.51 333.922 284.472 333.922C284.434 333.922 284.307 334.075 284.23 334.227C284.154 334.38 284.167 334.507 284.345 334.558C284.523 334.609 284.586 334.558 284.624 334.342C284.663 334.126 284.497 334.087 284.523 333.998Z" fill="#263238"/>
<path d="M375.352 140.406L374.945 365.588H403.433V141.41C403.429 137.382 402.89 133.372 401.831 129.486L389.971 86.1247C389.501 84.4213 387.505 84.4594 386.946 87.5103L376.623 129.765C375.775 133.249 375.349 136.821 375.352 140.406Z" fill="#E0E0E0"/>
<path d="M376.102 167.686C380.491 167.351 384.896 167.241 389.297 167.356C393.702 167.241 398.111 167.351 402.505 167.686C402.505 167.864 396.594 168.017 389.297 168.017C382 168.017 376.102 167.864 376.102 167.686Z" fill="#005656"/>
<path d="M375.938 195.894C380.466 195.551 385.011 195.436 389.552 195.551C394.089 195.436 398.629 195.551 403.154 195.894C403.154 196.072 397.065 196.225 389.552 196.225C382.039 196.225 375.938 196.072 375.938 195.894Z" fill="#263238"/>
<path d="M396.592 189.983C396.414 189.983 396.262 189.182 396.262 188.178C396.262 187.174 396.414 186.373 396.592 186.373C396.77 186.373 396.923 187.187 396.923 188.178C396.923 189.17 396.783 189.983 396.592 189.983Z" fill="#263238"/>
<path d="M393.807 189.652C393.99 189.652 394.138 188.992 394.138 188.178C394.138 187.363 393.99 186.703 393.807 186.703C393.625 186.703 393.477 187.363 393.477 188.178C393.477 188.992 393.625 189.652 393.807 189.652Z" fill="#263238"/>
<path d="M375.086 268.557C375.086 268.379 381.366 268.227 389.069 268.227C396.773 268.227 403.053 268.379 403.053 268.557C403.053 268.735 396.786 268.9 389.069 268.9C381.353 268.9 375.086 268.748 375.086 268.557Z" fill="#263238"/>
<path d="M396.467 277.01C396.289 277.01 396.137 276.196 396.137 275.192C396.137 274.188 396.289 273.374 396.467 273.374C396.645 273.374 396.798 274.188 396.798 275.192C396.798 276.196 396.645 277.01 396.467 277.01Z" fill="#263238"/>
<path d="M394.319 277.341C394.128 277.341 393.988 276.489 393.988 275.434C393.988 274.379 394.128 273.54 394.319 273.54C394.509 273.54 394.649 274.392 394.649 275.434C394.649 276.477 394.497 277.341 394.319 277.341Z" fill="#263238"/>
<path d="M384.363 338.804C387.555 338.469 390.766 338.359 393.974 338.474C397.185 338.359 400.401 338.469 403.597 338.804C400.4 339.131 397.185 339.242 393.974 339.135C390.766 339.241 387.556 339.131 384.363 338.804Z" fill="#263238"/>
<path d="M375.781 137.469C375.781 137.291 381.921 137.139 389.485 137.139C397.049 137.139 403.176 137.291 403.176 137.469C403.176 137.647 397.049 137.8 389.485 137.8C381.921 137.8 375.781 137.647 375.781 137.469Z" fill="#263238"/>
<path d="M400.546 139.223C400.546 139.312 400.482 139.44 400.546 139.617C400.609 139.795 400.647 139.872 400.813 139.834C400.978 139.795 401.016 139.694 400.94 139.503C400.864 139.312 400.711 139.287 400.686 139.198C400.66 139.109 400.902 138.944 401.245 139.198C401.347 139.263 401.432 139.353 401.49 139.46C401.547 139.567 401.577 139.687 401.575 139.808C401.567 139.97 401.507 140.126 401.404 140.252C401.301 140.377 401.161 140.467 401.003 140.507C400.848 140.558 400.681 140.558 400.526 140.507C400.371 140.457 400.235 140.359 400.139 140.228C400.081 140.12 400.051 140 400.051 139.878C400.051 139.756 400.081 139.636 400.139 139.529C400.228 139.084 400.546 139.109 400.546 139.223Z" fill="#263238"/>
<path d="M389.335 139.223C389.335 139.312 389.271 139.44 389.335 139.617C389.398 139.795 389.424 139.872 389.602 139.834C389.78 139.795 389.805 139.694 389.716 139.503C389.627 139.312 389.5 139.287 389.475 139.198C389.449 139.109 389.691 138.944 390.034 139.198C390.137 139.263 390.221 139.353 390.279 139.46C390.336 139.567 390.366 139.687 390.364 139.808C390.356 139.97 390.296 140.126 390.193 140.252C390.09 140.377 389.95 140.467 389.792 140.507C389.637 140.558 389.47 140.558 389.315 140.507C389.16 140.457 389.024 140.359 388.928 140.228C388.87 140.12 388.84 140 388.84 139.878C388.84 139.756 388.87 139.636 388.928 139.529C388.992 139.084 389.335 139.109 389.335 139.223Z" fill="#263238"/>
<path d="M378.073 139.223C378.073 139.312 378.01 139.44 378.073 139.617C378.137 139.795 378.162 139.872 378.34 139.834C378.518 139.795 378.543 139.694 378.454 139.503C378.365 139.312 378.238 139.287 378.213 139.198C378.187 139.109 378.429 138.944 378.772 139.198C378.875 139.263 378.959 139.353 379.017 139.46C379.075 139.567 379.104 139.687 379.103 139.808C379.09 139.97 379.028 140.124 378.925 140.25C378.823 140.375 378.685 140.467 378.529 140.513C378.373 140.558 378.207 140.555 378.053 140.504C377.899 140.453 377.764 140.357 377.666 140.228C377.608 140.12 377.578 140 377.578 139.878C377.578 139.756 377.608 139.636 377.666 139.529C377.755 139.084 378.073 139.109 378.073 139.223Z" fill="#263238"/>
<path d="M400.546 198.347C400.546 198.436 400.482 198.551 400.546 198.729C400.609 198.907 400.647 198.996 400.813 198.945C400.978 198.894 401.016 198.805 400.94 198.614C400.864 198.424 400.711 198.398 400.686 198.309C400.66 198.22 400.902 198.055 401.245 198.309C401.347 198.375 401.43 198.466 401.488 198.572C401.546 198.679 401.576 198.798 401.575 198.919C401.567 199.082 401.507 199.237 401.404 199.363C401.301 199.489 401.161 199.578 401.003 199.619C400.848 199.669 400.681 199.669 400.526 199.619C400.371 199.568 400.235 199.471 400.139 199.339C400.081 199.232 400.051 199.111 400.051 198.989C400.051 198.867 400.081 198.747 400.139 198.64C400.228 198.233 400.546 198.258 400.546 198.347Z" fill="#263238"/>
<path d="M389.335 198.347C389.335 198.436 389.271 198.551 389.335 198.729C389.398 198.907 389.424 198.996 389.602 198.945C389.78 198.894 389.805 198.805 389.716 198.614C389.627 198.424 389.5 198.398 389.475 198.309C389.449 198.22 389.691 198.055 390.034 198.309C390.136 198.375 390.219 198.466 390.277 198.572C390.335 198.679 390.365 198.798 390.364 198.919C390.356 199.082 390.296 199.237 390.193 199.363C390.09 199.489 389.95 199.578 389.792 199.619C389.637 199.669 389.47 199.669 389.315 199.619C389.16 199.568 389.024 199.471 388.928 199.339C388.87 199.232 388.84 199.111 388.84 198.989C388.84 198.867 388.87 198.747 388.928 198.64C388.992 198.233 389.335 198.258 389.335 198.347Z" fill="#263238"/>
<path d="M378.073 198.347C378.073 198.436 378.01 198.551 378.073 198.729C378.137 198.907 378.162 198.996 378.34 198.945C378.518 198.894 378.543 198.805 378.454 198.614C378.365 198.424 378.238 198.398 378.213 198.309C378.187 198.22 378.429 198.055 378.772 198.309C378.874 198.375 378.958 198.466 379.015 198.572C379.073 198.679 379.103 198.798 379.103 198.919C379.09 199.081 379.028 199.235 378.925 199.361C378.823 199.487 378.685 199.578 378.529 199.624C378.373 199.669 378.207 199.667 378.053 199.616C377.899 199.565 377.764 199.468 377.666 199.339C377.608 199.232 377.578 199.111 377.578 198.989C377.578 198.867 377.608 198.747 377.666 198.64C377.755 198.233 378.073 198.258 378.073 198.347Z" fill="#263238"/>
<path d="M400.546 263.243C400.546 263.332 400.482 263.446 400.546 263.624C400.609 263.802 400.647 263.891 400.813 263.84C400.978 263.789 401.016 263.713 400.94 263.51C400.864 263.306 400.711 263.306 400.686 263.217C400.66 263.128 400.902 262.95 401.245 263.217C401.347 263.283 401.43 263.374 401.488 263.48C401.546 263.587 401.576 263.706 401.575 263.827C401.562 263.989 401.501 264.143 401.398 264.269C401.296 264.395 401.157 264.486 401.002 264.532C400.846 264.577 400.68 264.574 400.526 264.523C400.372 264.473 400.237 264.376 400.139 264.247C400.081 264.139 400.051 264.019 400.051 263.897C400.051 263.775 400.081 263.655 400.139 263.548C400.228 263.128 400.546 263.154 400.546 263.243Z" fill="#263238"/>
<path d="M389.335 263.243C389.335 263.332 389.271 263.446 389.335 263.624C389.398 263.802 389.424 263.891 389.602 263.84C389.78 263.789 389.805 263.713 389.716 263.51C389.627 263.306 389.5 263.306 389.475 263.217C389.449 263.128 389.691 262.95 390.034 263.217C390.136 263.283 390.219 263.374 390.277 263.48C390.335 263.587 390.365 263.706 390.364 263.827C390.351 263.989 390.29 264.143 390.187 264.269C390.085 264.395 389.946 264.486 389.791 264.532C389.635 264.577 389.469 264.574 389.315 264.523C389.161 264.473 389.026 264.376 388.928 264.247C388.87 264.139 388.84 264.019 388.84 263.897C388.84 263.775 388.87 263.655 388.928 263.548C388.992 263.128 389.335 263.154 389.335 263.243Z" fill="#263238"/>
<path d="M378.073 263.243C378.073 263.332 378.01 263.446 378.073 263.624C378.137 263.802 378.162 263.891 378.34 263.84C378.518 263.789 378.543 263.713 378.454 263.51C378.365 263.306 378.238 263.306 378.213 263.217C378.187 263.128 378.429 262.95 378.772 263.217C378.874 263.283 378.958 263.374 379.015 263.48C379.073 263.587 379.103 263.706 379.103 263.827C379.091 263.99 379.03 264.146 378.928 264.273C378.826 264.4 378.687 264.493 378.531 264.539C378.374 264.586 378.207 264.583 378.052 264.531C377.897 264.478 377.762 264.379 377.666 264.247C377.608 264.139 377.578 264.019 377.578 263.897C377.578 263.775 377.608 263.655 377.666 263.548C377.755 263.128 378.073 263.154 378.073 263.243Z" fill="#263238"/>
<path d="M400.546 333.999C400.546 334.088 400.482 334.202 400.546 334.38C400.609 334.558 400.647 334.647 400.813 334.596C400.978 334.545 401.016 334.456 400.94 334.266C400.864 334.075 400.711 334.05 400.686 333.961C400.66 333.872 400.902 333.706 401.245 333.961C401.347 334.027 401.43 334.117 401.488 334.224C401.546 334.33 401.576 334.45 401.575 334.571C401.567 334.733 401.507 334.888 401.404 335.014C401.301 335.14 401.161 335.23 401.003 335.27C400.848 335.32 400.681 335.32 400.526 335.27C400.371 335.22 400.235 335.122 400.139 334.99C400.081 334.883 400.051 334.763 400.051 334.641C400.051 334.519 400.081 334.399 400.139 334.291C400.228 333.884 400.546 333.91 400.546 333.999Z" fill="#263238"/>
<path d="M389.335 333.999C389.335 334.088 389.271 334.202 389.335 334.38C389.398 334.558 389.424 334.647 389.602 334.596C389.78 334.545 389.805 334.456 389.716 334.266C389.627 334.075 389.5 334.05 389.475 333.961C389.449 333.872 389.691 333.706 390.034 333.961C390.136 334.027 390.219 334.117 390.277 334.224C390.335 334.33 390.365 334.45 390.364 334.571C390.356 334.733 390.296 334.888 390.193 335.014C390.09 335.14 389.95 335.23 389.792 335.27C389.637 335.32 389.47 335.32 389.315 335.27C389.16 335.22 389.024 335.122 388.928 334.99C388.87 334.883 388.84 334.763 388.84 334.641C388.84 334.519 388.87 334.399 388.928 334.291C388.992 333.884 389.335 333.91 389.335 333.999Z" fill="#263238"/>
<path d="M428.298 404.233L427.968 413.729L359.996 423.67L360.288 406.344L428.298 404.233Z" fill="#263238"/>
<path d="M336.363 0C336.363 0 302.358 39.7636 301.442 76.7559C300.553 112.719 301.442 212.166 301.442 212.166V333.35H371.359V86.0103C371.359 86.0103 370.711 71.3787 364.367 48.929C358.469 28.3481 336.363 0 336.363 0Z" fill="#005656"/>
<path d="M371.271 108.155C371.271 108.333 355.558 108.485 336.172 108.485C316.786 108.485 301.074 108.333 301.074 108.155C301.074 107.977 316.786 107.824 336.172 107.824C355.558 107.824 371.271 107.977 371.271 108.155Z" fill="#263238"/>
<path d="M305.436 176.725C305.436 176.725 305.436 176.725 305.436 176.864V176.966H305.36V176.903H305.436V177.131H305.334C305.169 174.589 305.055 160.199 305.055 142.923C305.055 133.363 305.118 124.719 305.144 118.338C305.144 115.261 305.233 112.744 305.258 110.888C305.258 110.075 305.258 109.401 305.322 108.867C305.286 108.631 305.286 108.391 305.322 108.155C305.37 108.389 305.392 108.628 305.385 108.867C305.385 109.401 305.385 110.075 305.449 110.888C305.449 112.744 305.449 115.261 305.55 118.338C305.55 124.694 305.614 133.363 305.652 142.923C305.652 160.199 305.525 174.525 305.372 177.131H305.271V176.903H305.436V176.966H305.36V176.864C305.347 176.775 305.36 176.725 305.436 176.725Z" fill="#263238"/>
<path d="M310.377 177.131C310.199 177.131 310.047 161.686 310.047 142.643C310.047 123.601 310.199 108.155 310.377 108.155C310.555 108.155 310.708 123.601 310.708 142.643C310.708 161.686 310.517 177.131 310.377 177.131Z" fill="#263238"/>
<path d="M315.526 177.131C315.348 177.131 315.17 161.686 315.132 142.643C315.094 123.601 315.209 108.155 315.399 108.155C315.59 108.155 315.755 123.601 315.793 142.643C315.831 161.686 315.717 177.131 315.526 177.131Z" fill="#263238"/>
<path d="M320.409 177.131C320.218 177.131 320.078 161.686 320.078 142.643C320.078 123.601 320.218 108.155 320.409 108.155C320.599 108.155 320.739 123.601 320.739 142.643C320.739 161.686 320.587 177.131 320.409 177.131Z" fill="#263238"/>
<path d="M325.416 178.733C325.238 178.733 325.086 162.932 325.086 143.444C325.086 123.956 325.238 108.155 325.416 108.155C325.594 108.155 325.772 123.969 325.772 143.444C325.772 162.919 325.607 178.733 325.416 178.733Z" fill="#263238"/>
<path d="M330.428 178.733C330.25 178.733 330.098 162.932 330.098 143.444C330.098 123.956 330.25 108.155 330.428 108.155C330.606 108.155 330.771 123.956 330.771 143.444C330.771 162.932 330.619 178.733 330.428 178.733Z" fill="#263238"/>
<path d="M335.448 178.733C335.257 178.733 335.117 162.932 335.117 143.444C335.117 123.956 335.257 108.155 335.448 108.155C335.638 108.155 335.778 123.956 335.778 143.444C335.778 162.932 335.626 178.733 335.448 178.733Z" fill="#263238"/>
<path d="M340.456 178.733C340.278 178.733 340.125 162.932 340.125 143.444C340.125 123.956 340.278 108.155 340.456 108.155C340.633 108.155 340.786 123.956 340.786 143.444C340.786 162.932 340.633 178.733 340.456 178.733Z" fill="#263238"/>
<path d="M345.463 178.733C345.285 178.733 345.133 162.932 345.133 143.444C345.133 123.956 345.285 108.155 345.463 108.155C345.641 108.155 345.794 123.956 345.794 143.444C345.794 162.932 345.654 178.733 345.463 178.733Z" fill="#263238"/>
<path d="M350.726 177.131C350.548 177.131 350.345 161.686 350.281 142.643C350.218 123.601 350.281 108.155 350.485 108.155C350.688 108.155 350.866 123.601 350.942 142.643C351.019 161.686 350.917 177.131 350.726 177.131Z" fill="#263238"/>
<path d="M355.494 177.131C355.446 176.902 355.425 176.667 355.431 176.432C355.431 175.898 355.431 175.237 355.367 174.424C355.367 172.58 355.367 170.076 355.266 167.025C355.266 160.669 355.202 152.127 355.164 142.643C355.126 133.16 355.24 124.579 355.266 118.261C355.266 115.211 355.342 112.706 355.367 110.863C355.367 110.049 355.367 109.388 355.431 108.854C355.425 108.62 355.446 108.385 355.494 108.155C355.551 108.384 355.572 108.62 355.558 108.854C355.558 109.388 355.558 110.049 355.622 110.863C355.622 112.706 355.622 115.211 355.723 118.261C355.723 124.617 355.787 133.16 355.825 142.643C355.863 152.127 355.749 160.707 355.723 167.025C355.723 170.076 355.647 172.58 355.622 174.424C355.622 175.237 355.622 175.898 355.558 176.432C355.572 176.667 355.551 176.903 355.494 177.131Z" fill="#263238"/>
<path d="M360.502 177.131C360.324 177.131 360.172 161.686 360.172 142.643C360.172 123.601 360.324 108.155 360.502 108.155C360.68 108.155 360.833 123.601 360.833 142.643C360.833 161.686 360.693 177.131 360.502 177.131Z" fill="#263238"/>
<path d="M365.526 177.131C365.335 177.131 365.195 161.686 365.195 142.643C365.195 123.601 365.335 108.155 365.526 108.155C365.716 108.155 365.856 123.601 365.856 142.643C365.856 161.686 365.704 177.131 365.526 177.131Z" fill="#263238"/>
<path d="M370.534 177.131C370.356 177.131 370.203 161.686 370.203 142.643C370.203 123.601 370.356 108.155 370.534 108.155C370.712 108.155 370.864 123.601 370.864 142.643C370.864 161.686 370.712 177.131 370.534 177.131Z" fill="#263238"/>
<path d="M371.269 177.131C371.269 177.309 355.608 177.462 336.298 177.462C316.988 177.462 301.34 177.309 301.34 177.131C301.34 176.953 316.988 176.801 336.298 176.801C355.608 176.801 371.269 176.953 371.269 177.131Z" fill="#263238"/>
<path d="M310.735 407.755L243.742 405.683C243.742 405.683 246.285 383.64 248.42 381.53C251.547 378.415 304.544 323.74 304.544 323.74C304.544 323.74 313.85 206.28 314.625 202.899C315.4 199.517 330.21 156.423 330.986 155.393C331.761 154.364 332.536 152.012 336.439 151.758C340.342 151.503 342.668 155.902 342.668 155.902C342.668 155.902 357.732 203.687 358.507 207.577L370.813 326.372C371.016 327.795 424.788 383.576 426.009 386.258C427.229 388.941 428.259 404.246 428.259 404.246L361.368 409.153L310.735 407.755Z" fill="#E0E0E0"/>
<path d="M358.467 206.102C356.268 197.94 342.895 155.533 342.895 155.533C342.895 155.533 340.569 151.122 336.666 151.376C332.764 151.63 332.001 153.982 331.213 155.011C330.424 156.041 315.602 199.148 314.865 202.529C314.789 202.835 314.649 204.08 314.445 206.102H358.467Z" fill="#F5F5F5"/>
<path d="M312.071 426.797L311.512 393.949L315.389 381.631L315.173 281.79L314.448 206.102H358.47L357.657 381.732L362.106 393.364V442.293H339.084L338.716 391.902C338.712 391.291 338.467 390.706 338.034 390.274C337.6 389.843 337.013 389.601 336.402 389.601C335.787 389.605 335.199 389.851 334.765 390.287C334.332 390.723 334.088 391.313 334.088 391.928L334.203 442.293H312.274L312.071 426.797Z" fill="#F5F5F5"/>
<path d="M243.742 405.683L244.073 415.166L312.044 425.107L311.752 407.793L243.742 405.683Z" fill="#263238"/>
<path d="M244.582 399.822C244.582 399.631 259.455 399.491 277.786 399.491C296.117 399.491 310.99 399.631 310.99 399.822C310.99 400.012 296.13 400.152 277.786 400.152C259.443 400.152 244.582 399.936 244.582 399.822Z" fill="#263238"/>
<path d="M249.817 405.873C249.496 404.886 249.383 403.843 249.487 402.81C249.383 401.781 249.495 400.741 249.817 399.759C250.147 400.74 250.26 401.781 250.148 402.81C250.259 403.843 250.146 404.888 249.817 405.873Z" fill="#263238"/>
<path d="M255.248 405.746C254.808 403.839 254.808 401.856 255.248 399.949C255.689 401.856 255.689 403.839 255.248 405.746Z" fill="#263238"/>
<path d="M261.424 406.178C260.984 404.083 260.984 401.918 261.424 399.822C261.865 401.918 261.865 404.083 261.424 406.178Z" fill="#263238"/>
<path d="M267.413 406.42C266.956 404.223 266.956 401.956 267.413 399.759C267.854 401.957 267.854 404.221 267.413 406.42Z" fill="#263238"/>
<path d="M273.019 406.598C272.577 404.34 272.577 402.017 273.019 399.759C273.461 402.017 273.461 404.34 273.019 406.598Z" fill="#263238"/>
<path d="M278.89 406.598C278.448 404.34 278.448 402.017 278.89 399.759C279.332 402.017 279.332 404.34 278.89 406.598Z" fill="#263238"/>
<path d="M284.765 406.598C284.323 404.34 284.323 402.017 284.765 399.759C285.207 402.017 285.207 404.34 284.765 406.598Z" fill="#263238"/>
<path d="M290.639 407.132C290.198 404.694 290.198 402.197 290.639 399.759C291.08 402.197 291.08 404.694 290.639 407.132Z" fill="#263238"/>
<path d="M296.538 407.322C296.097 404.821 296.097 402.261 296.538 399.759C296.978 402.261 296.978 404.821 296.538 407.322Z" fill="#263238"/>
<path d="M302.385 407.958C301.945 405.243 301.945 402.474 302.385 399.759C302.826 402.474 302.826 405.243 302.385 407.958Z" fill="#263238"/>
<path d="M308.257 406.598C308.435 407.178 308.513 407.784 308.485 408.39V408.823V409.255H307.977V408.212C307.977 407.437 307.977 406.661 307.977 405.848C307.863 403.808 307.974 401.762 308.308 399.746C308.634 401.763 308.744 403.808 308.638 405.848C308.638 406.661 308.638 407.437 308.638 408.212V409.255H307.977V408.39C307.962 407.781 308.057 407.174 308.257 406.598Z" fill="#263238"/>
<path d="M291.49 393.835C296.334 393.835 300.261 389.908 300.261 385.063C300.261 380.219 296.334 376.292 291.49 376.292C286.646 376.292 282.719 380.219 282.719 385.063C282.719 389.908 286.646 393.835 291.49 393.835Z" fill="#005656"/>
<path d="M247.579 396.415C247.579 395.729 249.817 385.063 249.817 385.063L306.106 326.587L306.932 293.739L304.542 323.689L249.067 380.436C247.754 381.792 246.889 383.518 246.588 385.381L244.414 399.949L247.579 396.415Z" fill="#263238"/>
<path d="M335.713 228.856C335.904 228.856 336.044 264.781 336.044 309.07C336.044 353.359 335.904 389.296 335.713 389.296C335.523 389.296 335.383 353.385 335.383 309.07C335.383 264.756 335.535 228.856 335.713 228.856Z" fill="#263238"/>
<path d="M335.067 215.826H331.965V221.292H335.067V215.826Z" fill="#455A64"/>
<path d="M342.031 215.826H338.93V221.292H342.031V215.826Z" fill="#455A64"/>
<path d="M323.867 201.792L327.884 206.026H345.084L349.113 201.983C349.113 201.983 344.906 197.737 336.401 197.737C331.904 197.758 327.524 199.175 323.867 201.792Z" fill="#263238"/>
<path d="M358.369 227.242C358.369 227.432 348.581 227.572 336.517 227.572C324.453 227.572 314.652 227.432 314.652 227.242C314.652 227.051 324.441 226.911 336.517 226.911C348.594 226.911 358.369 227.064 358.369 227.242Z" fill="#263238"/>
<path d="M351.581 182.953C351.581 183.131 344.971 183.283 336.81 183.283C328.648 183.283 322.051 183.131 322.051 182.953C322.051 182.775 328.661 182.622 336.81 182.622C344.958 182.622 351.581 182.775 351.581 182.953Z" fill="#263238"/>
<path d="M318.388 230.954C318.388 231.056 318.223 231.132 318.159 231.348C318.096 231.564 318.159 231.742 318.413 231.768C318.668 231.793 318.744 231.615 318.706 231.374C318.668 231.132 318.515 231.056 318.528 230.967C318.541 230.878 318.846 230.802 319.125 231.158C319.202 231.267 319.251 231.394 319.269 231.527C319.286 231.659 319.272 231.794 319.227 231.92C319.151 232.078 319.029 232.21 318.878 232.3C318.727 232.389 318.553 232.432 318.377 232.422C318.202 232.413 318.034 232.351 317.893 232.246C317.752 232.141 317.646 231.997 317.587 231.831C317.554 231.7 317.554 231.563 317.588 231.432C317.621 231.301 317.686 231.181 317.778 231.081C318.146 230.751 318.413 230.878 318.388 230.954Z" fill="#263238"/>
<path d="M322.785 230.954C322.785 231.056 322.62 231.132 322.556 231.348C322.493 231.564 322.556 231.742 322.811 231.768C323.065 231.793 323.141 231.615 323.103 231.374C323.065 231.132 322.912 231.056 322.925 230.967C322.938 230.878 323.243 230.802 323.523 231.158C323.599 231.267 323.648 231.394 323.666 231.527C323.684 231.659 323.669 231.794 323.624 231.92C323.552 232.082 323.431 232.218 323.279 232.309C323.126 232.4 322.95 232.442 322.773 232.429C322.595 232.426 322.423 232.366 322.281 232.259C322.139 232.151 322.036 232.002 321.984 231.831C321.949 231.701 321.948 231.563 321.981 231.431C322.015 231.3 322.081 231.179 322.175 231.081C322.48 230.751 322.811 230.878 322.785 230.954Z" fill="#263238"/>
<path d="M327.555 230.954C327.555 231.056 327.39 231.132 327.326 231.348C327.262 231.564 327.326 231.742 327.58 231.768C327.834 231.793 327.911 231.615 327.873 231.374C327.834 231.132 327.682 231.056 327.695 230.967C327.707 230.878 328.012 230.802 328.292 231.158C328.369 231.267 328.418 231.394 328.436 231.527C328.453 231.659 328.439 231.794 328.394 231.92C328.321 232.082 328.2 232.218 328.048 232.309C327.896 232.4 327.719 232.442 327.542 232.429C327.364 232.426 327.192 232.366 327.051 232.259C326.909 232.151 326.805 232.002 326.754 231.831C326.719 231.701 326.717 231.563 326.751 231.431C326.784 231.3 326.851 231.179 326.945 231.081C327.25 230.751 327.58 230.878 327.555 230.954Z" fill="#263238"/>
<path d="M332.32 230.954C332.32 231.056 332.155 231.132 332.092 231.348C332.028 231.564 332.092 231.742 332.346 231.768C332.6 231.793 332.676 231.615 332.638 231.374C332.6 231.132 332.448 231.056 332.46 230.967C332.473 230.878 332.778 230.802 333.058 231.158C333.134 231.267 333.183 231.394 333.201 231.527C333.219 231.659 333.205 231.794 333.159 231.92C333.087 232.082 332.966 232.218 332.814 232.309C332.661 232.4 332.485 232.442 332.308 232.429C332.13 232.426 331.958 232.366 331.816 232.259C331.675 232.151 331.571 232.002 331.52 231.831C331.484 231.701 331.483 231.563 331.516 231.431C331.55 231.3 331.617 231.179 331.71 231.081C332.015 230.751 332.346 230.878 332.32 230.954Z" fill="#263238"/>
<path d="M357.668 344.397C357.668 344.588 348.121 344.727 336.35 344.727C324.578 344.727 315.031 344.588 315.031 344.397C315.031 344.206 324.565 344.066 336.35 344.066C348.134 344.066 357.668 344.219 357.668 344.397Z" fill="#263238"/>
<path d="M358.086 268.748C358.086 268.925 348.45 269.078 336.565 269.078C324.679 269.078 315.043 268.925 315.043 268.748C315.043 268.57 324.679 268.417 336.565 268.417C348.45 268.417 358.086 268.557 358.086 268.748Z" fill="#263238"/>
<path d="M358.089 309.566C358.089 309.744 348.568 309.896 336.822 309.896C325.076 309.896 315.605 309.68 315.605 309.566C315.605 309.451 325.127 309.235 336.86 309.235C348.593 309.235 358.089 309.324 358.089 309.566Z" fill="#263238"/>
<path d="M333.526 394.254C329.841 394.581 326.14 394.692 322.441 394.585C318.739 394.692 315.033 394.581 311.344 394.254C315.033 393.919 318.739 393.809 322.441 393.924C326.14 393.809 329.842 393.92 333.526 394.254Z" fill="#263238"/>
<path d="M333.68 403.28C330.114 403.624 326.531 403.738 322.951 403.624C319.375 403.738 315.795 403.624 312.234 403.28C315.796 402.953 319.375 402.843 322.951 402.95C326.53 402.843 330.113 402.953 333.68 403.28Z" fill="#263238"/>
<path d="M334.125 411.009C330.461 411.344 326.781 411.454 323.103 411.339C319.426 411.454 315.746 411.344 312.082 411.009C315.746 410.681 319.426 410.571 323.103 410.678C326.781 410.571 330.461 410.681 334.125 411.009Z" fill="#263238"/>
<path d="M333.82 419.323C330.232 419.65 326.628 419.76 323.027 419.653C319.426 419.76 315.822 419.65 312.234 419.323C315.822 418.988 319.426 418.877 323.027 418.992C326.628 418.877 330.232 418.988 333.82 419.323Z" fill="#263238"/>
<path d="M333.82 426.912C330.232 427.239 326.628 427.35 323.027 427.243C319.426 427.35 315.822 427.239 312.234 426.912C315.822 426.585 319.426 426.474 323.027 426.582C326.628 426.474 330.232 426.585 333.82 426.912Z" fill="#263238"/>
<path d="M333.82 434.501C330.232 434.836 326.628 434.946 323.027 434.832C319.426 434.946 315.822 434.836 312.234 434.501C315.822 434.174 319.426 434.063 323.027 434.17C326.628 434.063 330.232 434.174 333.82 434.501Z" fill="#263238"/>
<path d="M361.151 394.254C357.462 394.582 353.756 394.692 350.054 394.585C346.355 394.692 342.654 394.582 338.969 394.254C342.654 393.919 346.355 393.809 350.054 393.924C353.756 393.809 357.462 393.92 361.151 394.254Z" fill="#263238"/>
<path d="M361.292 403.28C357.731 403.624 354.151 403.738 350.576 403.624C347 403.738 343.42 403.624 339.859 403.28C343.421 402.953 347 402.843 350.576 402.95C354.151 402.843 357.73 402.953 361.292 403.28Z" fill="#263238"/>
<path d="M361.737 411.009C358.078 411.344 354.401 411.454 350.728 411.339C347.051 411.454 343.371 411.344 339.707 411.009C343.371 410.681 347.051 410.571 350.728 410.678C354.401 410.571 358.077 410.682 361.737 411.009Z" fill="#263238"/>
<path d="M361.445 419.323C357.857 419.65 354.253 419.76 350.652 419.653C347.051 419.76 343.447 419.65 339.859 419.323C343.447 418.988 347.051 418.877 350.652 418.992C354.253 418.877 357.857 418.988 361.445 419.323Z" fill="#263238"/>
<path d="M361.445 426.912C357.857 427.239 354.253 427.35 350.652 427.243C347.051 427.35 343.447 427.239 339.859 426.912C343.447 426.585 347.051 426.474 350.652 426.582C354.253 426.474 357.857 426.585 361.445 426.912Z" fill="#263238"/>
<path d="M361.445 434.501C357.857 434.836 354.253 434.946 350.652 434.832C347.051 434.946 343.447 434.836 339.859 434.501C343.447 434.174 347.051 434.063 350.652 434.17C354.253 434.063 357.857 434.174 361.445 434.501Z" fill="#263238"/>
<path d="M338.258 200.152C338.359 200.305 337.164 201.207 335.601 202.161C334.697 202.83 333.675 203.322 332.588 203.61C332.486 203.445 333.681 202.555 335.245 201.602C336.145 200.927 337.169 200.434 338.258 200.152Z" fill="white"/>
<path d="M340.329 200.344C340.482 200.522 339.401 201.373 338.003 202.225C337.201 202.844 336.272 203.279 335.283 203.496C335.194 203.331 336.261 202.518 337.66 201.666C338.467 201.075 339.37 200.628 340.329 200.344Z" fill="white"/>
<path d="M314.576 203.42C314.767 203.42 315.046 243.209 315.224 292.278C315.402 341.347 315.377 381.161 315.224 381.161C315.072 381.161 314.754 341.385 314.589 292.29C314.423 243.196 314.398 203.42 314.576 203.42Z" fill="#263238"/>
<path d="M357.67 380.753C357.479 380.753 357.517 343.329 357.734 297.171C357.95 251.013 358.28 213.589 358.471 213.589C358.662 213.589 358.623 251.001 358.395 297.171C358.166 343.342 357.848 380.753 357.67 380.753Z" fill="#263238"/>
<path d="M427.471 399.886C427.471 400.064 412.61 400.217 394.267 400.217C375.923 400.217 361.062 400.064 361.062 399.886C361.062 399.708 375.923 399.556 394.267 399.556C412.61 399.556 427.471 399.695 427.471 399.886Z" fill="#263238"/>
<path d="M422.22 406C421.898 405.013 421.786 403.97 421.889 402.937C421.785 401.908 421.898 400.868 422.22 399.886C422.542 400.868 422.655 401.908 422.55 402.937C422.654 403.97 422.541 405.013 422.22 406Z" fill="#263238"/>
<path d="M416.794 405.872C416.472 404.942 416.359 403.953 416.463 402.975C416.36 401.992 416.473 400.998 416.794 400.062C417.121 400.997 417.234 401.992 417.124 402.975C417.235 403.953 417.122 404.943 416.794 405.872Z" fill="#263238"/>
<path d="M410.627 406.242C410.187 404.146 410.187 401.982 410.627 399.886C411.068 401.982 411.068 404.146 410.627 406.242Z" fill="#263238"/>
<path d="M404.588 406.547C404.148 404.348 404.148 402.084 404.588 399.886C405.029 402.084 405.029 404.348 404.588 406.547Z" fill="#263238"/>
<path d="M399.019 406.725C398.577 404.467 398.577 402.144 399.019 399.886C399.461 402.144 399.461 404.467 399.019 406.725Z" fill="#263238"/>
<path d="M393.148 406.725C392.706 404.467 392.706 402.144 393.148 399.886C393.59 402.144 393.59 404.467 393.148 406.725Z" fill="#263238"/>
<path d="M387.277 406.725C386.835 404.467 386.835 402.144 387.277 399.886C387.719 402.144 387.719 404.467 387.277 406.725Z" fill="#263238"/>
<path d="M381.401 408.085C380.96 405.37 380.96 402.601 381.401 399.886C381.842 402.601 381.842 405.37 381.401 408.085Z" fill="#263238"/>
<path d="M375.53 408.568C375.089 405.691 375.089 402.763 375.53 399.886C375.97 402.763 375.97 405.691 375.53 408.568Z" fill="#263238"/>
<path d="M368.51 409.153C368.07 406.08 368.07 402.959 368.51 399.886C368.951 402.959 368.951 406.08 368.51 409.153Z" fill="#263238"/>
<path d="M424.584 394.737L423.58 386.869L368.346 328.393L367.723 296.574L370.901 326.537L424.152 383.296C425.474 384.646 426.341 386.375 426.631 388.241L427.8 397.75L424.584 394.737Z" fill="#263238"/>
<path d="M393.147 385.062H367.723V391.915H393.147V385.062Z" fill="#005656"/>
<path d="M336.363 0C336.541 0 336.732 24.0259 336.77 53.6579C336.808 83.2899 336.706 107.316 336.528 107.316C336.35 107.316 336.16 83.2899 336.109 53.6579C336.058 24.0259 336.185 0 336.363 0Z" fill="#263238"/>
<path d="M338.829 100.871C338.829 100.795 339.147 100.604 339.592 100.871C339.719 100.969 339.821 101.097 339.89 101.243C339.958 101.389 339.991 101.549 339.986 101.71C339.96 101.916 339.876 102.111 339.743 102.271C339.609 102.431 339.433 102.548 339.234 102.61C339.035 102.672 338.823 102.675 338.623 102.619C338.422 102.563 338.242 102.45 338.104 102.295C338.007 102.166 337.943 102.015 337.916 101.856C337.889 101.696 337.902 101.533 337.952 101.379C338.117 100.858 338.524 100.807 338.537 100.896C338.549 100.985 338.397 101.151 338.409 101.468C338.422 101.786 338.626 102.117 339.032 101.977C339.111 101.957 339.184 101.916 339.242 101.86C339.301 101.803 339.344 101.732 339.367 101.654C339.39 101.576 339.393 101.493 339.374 101.414C339.355 101.334 339.317 101.261 339.261 101.201C339.083 100.998 338.842 100.96 338.829 100.871Z" fill="#263238"/>
<path d="M338.829 82.8826C338.829 82.8063 339.147 82.6156 339.592 82.8826C339.716 82.9838 339.816 83.1119 339.884 83.2571C339.953 83.4024 339.987 83.5611 339.986 83.7216C339.962 83.9291 339.88 84.1255 339.747 84.2869C339.614 84.4483 339.438 84.5678 339.239 84.631C339.04 84.6943 338.827 84.6984 338.625 84.6431C338.424 84.5877 338.243 84.4752 338.104 84.3191C338.007 84.19 337.943 84.0394 337.916 83.8801C337.889 83.7208 337.902 83.5574 337.952 83.4038C338.117 82.8826 338.524 82.8317 338.537 82.9207C338.549 83.0097 338.397 83.175 338.409 83.4928C338.422 83.8106 338.626 84.1284 339.032 84.0013C339.111 83.9811 339.184 83.9408 339.242 83.8842C339.301 83.8277 339.344 83.7568 339.367 83.6786C339.39 83.6004 339.393 83.5176 339.374 83.4382C339.355 83.3588 339.317 83.2856 339.261 83.2258C339.083 83.0097 338.842 82.9716 338.829 82.8826Z" fill="#263238"/>
<path d="M338.828 64.8826C338.828 64.8063 339.146 64.6156 339.591 64.8826C339.718 64.9812 339.821 65.1087 339.889 65.2546C339.958 65.4005 339.991 65.5605 339.985 65.7216C339.965 65.93 339.883 66.1275 339.749 66.2885C339.615 66.4494 339.436 66.5664 339.235 66.6242C339.057 66.6948 338.863 66.7119 338.676 66.6732C338.488 66.6346 338.316 66.5419 338.181 66.4067C338.046 66.2715 337.953 66.0997 337.915 65.9124C337.876 65.7251 337.893 65.5306 337.964 65.3529C338.129 64.8445 338.536 64.7936 338.549 64.8699C338.561 64.9462 338.409 65.1368 338.421 65.4419C338.434 65.747 338.638 66.0903 339.044 65.9631C339.451 65.836 339.464 65.4546 339.273 65.175C339.082 64.8953 338.841 64.9843 338.828 64.8826Z" fill="#263238"/>
<path d="M338.829 46.8947C338.829 46.8185 339.147 46.6278 339.592 46.9583C339.719 47.0569 339.821 47.1844 339.89 47.3303C339.958 47.4762 339.991 47.6362 339.986 47.7973C339.966 48.0057 339.884 48.2032 339.75 48.3642C339.616 48.5251 339.437 48.6421 339.236 48.6999C339.037 48.7686 338.822 48.775 338.62 48.7182C338.418 48.6614 338.238 48.5441 338.104 48.3821C338.007 48.253 337.943 48.1024 337.916 47.9431C337.889 47.7838 337.902 47.6204 337.952 47.4668C338.117 46.9456 338.524 46.9075 338.537 46.9837C338.549 47.06 338.397 47.238 338.409 47.5558C338.422 47.8736 338.626 48.2041 339.032 48.0643C339.111 48.0441 339.184 48.0038 339.242 47.9472C339.301 47.8907 339.344 47.8198 339.367 47.7416C339.39 47.6634 339.393 47.5806 339.374 47.5012C339.355 47.4218 339.317 47.3486 339.261 47.2888C339.083 47.0219 338.842 46.9837 338.829 46.8947Z" fill="#263238"/>
<path d="M338.829 28.907C338.829 28.8307 339.147 28.6401 339.592 28.907C339.718 29.0096 339.819 29.1396 339.887 29.2873C339.956 29.4349 339.989 29.5961 339.986 29.7587C339.96 29.9652 339.876 30.16 339.743 30.3197C339.609 30.4794 339.433 30.5972 339.234 30.6589C339.035 30.7207 338.823 30.7238 338.623 30.6678C338.422 30.6119 338.242 30.4992 338.104 30.3435C338.007 30.2144 337.943 30.0639 337.916 29.9045C337.889 29.7452 337.902 29.5818 337.952 29.4282C338.117 28.907 338.524 28.8562 338.537 28.9451C338.549 29.0341 338.397 29.1994 338.409 29.5172C338.422 29.835 338.626 30.1528 339.032 30.0257C339.111 30.0055 339.184 29.9652 339.242 29.9086C339.301 29.8521 339.344 29.7812 339.367 29.703C339.39 29.6248 339.393 29.542 339.374 29.4626C339.355 29.3832 339.317 29.31 339.261 29.2502C339.083 29.0341 338.842 28.996 338.829 28.907Z" fill="#263238"/>
<path d="M338.829 10.9068C338.829 10.9068 339.147 10.6526 339.592 10.9704C339.718 11.0704 339.819 11.1981 339.887 11.3437C339.955 11.4892 339.989 11.6486 339.986 11.8094C339.965 12.0189 339.883 12.2176 339.749 12.3804C339.616 12.5433 339.437 12.663 339.236 12.7247C339.037 12.7916 338.823 12.7971 338.621 12.7404C338.419 12.6837 338.239 12.5675 338.104 12.4069C338.007 12.2778 337.943 12.1272 337.916 11.9679C337.889 11.8086 337.902 11.6452 337.952 11.4916C338.117 10.9704 338.524 10.9195 338.537 11.0085C338.549 11.0975 338.397 11.2628 338.409 11.5806C338.422 11.8984 338.626 12.2162 339.032 12.0891C339.439 11.9619 339.452 11.5806 339.261 11.3009C339.07 11.0212 338.842 11.0085 338.829 10.9068Z" fill="#263238"/>
<path d="M319.482 30.6621C319.19 31.3236 318.845 31.9612 318.453 32.5689C317.741 33.7639 316.775 35.5309 315.643 37.7428C314.512 39.9547 313.253 42.6369 311.995 45.6751C310.736 48.7133 309.567 52.1329 308.512 55.7686C307.457 59.4043 306.707 62.9509 306.135 66.1798C305.563 69.4087 305.219 72.3579 305.029 74.8368C304.838 77.3157 304.711 79.3369 304.685 80.7225C304.689 81.4452 304.642 82.1673 304.546 82.8836C304.442 82.1681 304.399 81.4452 304.419 80.7225C304.419 79.3242 304.419 77.3029 304.558 74.8114C304.738 71.8857 305.064 68.9709 305.537 66.0781C306.124 62.5421 306.905 59.041 307.876 55.5906C308.873 52.1372 310.061 48.742 311.436 45.4209C312.573 42.7187 313.846 40.0755 315.249 37.5012C316.444 35.302 317.487 33.5732 318.262 32.4164C318.618 31.7977 319.026 31.2107 319.482 30.6621Z" fill="white"/>
<path d="M325.393 20.1868C325.546 20.2758 325.164 21.3055 324.516 22.4877C323.868 23.6699 323.245 24.5598 323.054 24.4708C322.863 24.3818 323.283 23.3521 323.931 22.1699C324.58 20.9877 325.228 20.0978 325.393 20.1868Z" fill="white"/>
<path d="M307.088 174.411C306.91 174.411 306.758 160.287 306.758 142.859C306.758 125.431 306.91 111.32 307.088 111.32C307.266 111.32 307.419 125.443 307.419 142.859C307.419 160.275 307.266 174.411 307.088 174.411Z" fill="white"/>
<path d="M311.79 154.542C311.455 151.376 311.345 148.19 311.459 145.008C311.342 141.805 311.453 138.598 311.79 135.41C312.117 138.581 312.227 141.771 312.12 144.957C312.23 148.156 312.119 151.358 311.79 154.542Z" fill="white"/>
<path d="M317.22 147.931C316.882 146.794 316.766 145.603 316.877 144.423C316.766 143.242 316.882 142.051 317.22 140.914C317.661 143.232 317.661 145.613 317.22 147.931Z" fill="white"/>
<path d="M304.367 259.302C304.176 259.302 304.023 242.65 304.023 222.119C304.023 201.589 304.163 184.987 304.367 184.987C304.57 184.987 304.697 201.64 304.697 222.183C304.697 242.726 304.545 259.302 304.367 259.302Z" fill="white"/>
<path d="M436.051 30.6621L438.797 35.6707L443.806 38.4165L438.797 41.1496L436.051 46.1709L433.318 41.1496L428.297 38.4165L433.318 35.6707L436.051 30.6621Z" fill="#263238"/>
<path d="M448.558 53.6582L449.804 55.9591L452.105 57.2049L449.804 58.4634L448.558 60.7516L447.3 58.4634L445.012 57.2049L447.3 55.9591L448.558 53.6582Z" fill="#263238"/>
<path d="M189.193 205.327L191.926 210.348L196.947 213.082L191.926 215.827L189.193 220.849L186.447 215.827L181.426 213.082L186.447 210.348L189.193 205.327Z" fill="#263238"/>
<path d="M455.309 275.435L458.055 280.443L463.076 283.189L458.055 285.935L455.309 290.943L452.576 285.935L447.555 283.189L452.576 280.443L455.309 275.435Z" fill="#263238"/>
<path d="M170.976 221.738L172.235 224.039L174.523 225.285L172.235 226.543L170.976 228.832L169.731 226.543L167.43 225.285L169.731 224.039L170.976 221.738Z" fill="#263238"/>
<path d="M207.906 176.444L209.165 178.733L211.453 179.991L209.165 181.237L207.906 183.538L206.648 181.237L204.359 179.991L206.648 178.733L207.906 176.444Z" fill="#263238"/>
<path d="M502.8 263.446H497.562V587.847H502.8V263.446Z" fill="#263238"/>
<path d="M558.429 263.205H553.191V587.466H558.429V263.205Z" fill="#263238"/>
<path d="M556.394 263.446H497.562V267.501H556.394V263.446Z" fill="#263238"/>
<path d="M558.428 334.876H497.562V338.931H558.428V334.876Z" fill="#263238"/>
<path d="M557.857 495.431H497.562V499.486H557.857V495.431Z" fill="#263238"/>
<path d="M555.273 420.812L499.02 497.898L502.295 500.289L558.549 423.202L555.273 420.812Z" fill="#263238"/>
<path d="M554.7 338.307L497.977 421.087L501.322 423.379L558.045 340.599L554.7 338.307Z" fill="#263238"/>
<path d="M554.688 498.998L497.965 581.778L501.31 584.071L558.033 501.29L554.688 498.998Z" fill="#263238"/>
<path d="M555.32 265.912L499.238 333.057L502.351 335.656L558.433 268.511L555.32 265.912Z" fill="#263238"/>
<path d="M558.428 419.284H497.562V423.339H558.428V419.284Z" fill="#263238"/>
<path d="M523.596 587.53C523.418 587.53 523.266 515.452 523.266 426.569C523.266 337.685 523.418 265.582 523.596 265.582C523.774 265.582 523.927 337.647 523.927 426.569C523.927 515.49 523.787 587.53 523.596 587.53Z" fill="#263238"/>
<path d="M525.936 587.466C525.758 587.466 525.605 515.922 525.605 427.7C525.605 339.478 525.758 267.921 525.936 267.921C526.114 267.921 526.266 339.439 526.266 427.7C526.266 515.96 526.127 587.466 525.936 587.466Z" fill="#263238"/>
<path d="M537.112 587.618C536.921 587.618 536.781 516.049 536.781 427.776C536.781 339.503 536.921 267.921 537.112 267.921C537.302 267.921 537.442 339.477 537.442 427.776C537.442 516.074 537.29 587.618 537.112 587.618Z" fill="#263238"/>
<path d="M545.474 587.466C545.296 587.466 545.145 515.922 545.145 427.7C545.145 339.478 545.296 267.921 545.474 267.921C545.652 267.921 545.806 339.439 545.806 427.7C545.806 515.96 545.69 587.466 545.474 587.466Z" fill="#263238"/>
<path d="M545.476 292.888C542.714 293.329 539.899 293.329 537.137 292.888C539.899 292.447 542.714 292.447 545.476 292.888Z" fill="#263238"/>
<path d="M545.476 285.883C542.714 286.324 539.899 286.324 537.137 285.883C539.899 285.443 542.714 285.443 545.476 285.883Z" fill="#263238"/>
<path d="M545.476 278.879C542.714 279.32 539.899 279.32 537.137 278.879C539.899 278.439 542.714 278.439 545.476 278.879Z" fill="#263238"/>
<path d="M545.476 271.874C542.714 272.315 539.899 272.315 537.137 271.874C539.899 271.434 542.714 271.434 545.476 271.874Z" fill="#263238"/>
<path d="M545.476 300.782C542.714 301.222 539.899 301.222 537.137 300.782C539.899 300.341 542.714 300.341 545.476 300.782Z" fill="#263238"/>
<path d="M545.476 308.676C542.714 309.117 539.899 309.117 537.137 308.676C539.899 308.236 542.714 308.236 545.476 308.676Z" fill="#263238"/>
<path d="M545.476 316.571C542.714 317.011 539.899 317.011 537.137 316.571C539.899 316.13 542.714 316.13 545.476 316.571Z" fill="#263238"/>
<path d="M545.476 324.465C542.714 324.906 539.899 324.906 537.137 324.465C539.898 324.008 542.715 324.008 545.476 324.465Z" fill="#263238"/>
<path d="M545.476 332.346C542.715 332.804 539.898 332.804 537.137 332.346C539.899 331.905 542.714 331.905 545.476 332.346Z" fill="#263238"/>
<path d="M545.476 340.241C542.714 340.681 539.899 340.681 537.137 340.241C539.899 339.8 542.714 339.8 545.476 340.241Z" fill="#263238"/>
<path d="M545.476 348.135C542.714 348.576 539.899 348.576 537.137 348.135C539.899 347.695 542.714 347.695 545.476 348.135Z" fill="#263238"/>
<path d="M545.476 356.029C542.714 356.469 539.899 356.469 537.137 356.029C539.899 355.588 542.714 355.588 545.476 356.029Z" fill="#263238"/>
<path d="M545.476 363.923C542.714 364.364 539.899 364.364 537.137 363.923C539.899 363.483 542.714 363.483 545.476 363.923Z" fill="#263238"/>
<path d="M545.476 371.856C542.714 372.297 539.899 372.297 537.137 371.856C539.899 371.415 542.714 371.415 545.476 371.856Z" fill="#263238"/>
<path d="M545.476 379.711C542.714 380.152 539.899 380.152 537.137 379.711C539.899 379.271 542.714 379.271 545.476 379.711Z" fill="#263238"/>
<path d="M545.476 387.606C542.714 388.047 539.899 388.047 537.137 387.606C539.899 387.165 542.714 387.165 545.476 387.606Z" fill="#263238"/>
<path d="M545.476 395.5C542.714 395.941 539.899 395.941 537.137 395.5C539.899 395.06 542.714 395.06 545.476 395.5Z" fill="#263238"/>
<path d="M545.476 403.395C542.714 403.836 539.899 403.836 537.137 403.395C539.899 402.954 542.714 402.954 545.476 403.395Z" fill="#263238"/>
<path d="M545.476 411.263C542.714 411.704 539.899 411.704 537.137 411.263C539.899 410.822 542.714 410.822 545.476 411.263Z" fill="#263238"/>
<path d="M545.476 419.183C542.714 419.624 539.899 419.624 537.137 419.183C539.899 418.742 542.714 418.742 545.476 419.183Z" fill="#263238"/>
<path d="M545.476 427.078C542.714 427.518 539.899 427.518 537.137 427.078C539.899 426.637 542.714 426.637 545.476 427.078Z" fill="#263238"/>
<path d="M545.476 434.971C542.714 435.412 539.899 435.412 537.137 434.971C539.899 434.53 542.714 434.53 545.476 434.971Z" fill="#263238"/>
<path d="M545.476 442.866C542.714 443.306 539.899 443.306 537.137 442.866C539.899 442.425 542.714 442.425 545.476 442.866Z" fill="#263238"/>
<path d="M545.476 450.76C542.714 451.201 539.899 451.201 537.137 450.76C539.899 450.32 542.714 450.32 545.476 450.76Z" fill="#263238"/>
<path d="M545.476 458.654C542.714 459.094 539.899 459.094 537.137 458.654C539.899 458.213 542.714 458.213 545.476 458.654Z" fill="#263238"/>
<path d="M545.476 466.548C542.714 466.989 539.899 466.989 537.137 466.548C539.899 466.108 542.714 466.108 545.476 466.548Z" fill="#263238"/>
<path d="M545.476 474.443C542.714 474.883 539.899 474.883 537.137 474.443C539.899 474.002 542.714 474.002 545.476 474.443Z" fill="#263238"/>
<path d="M545.476 482.336C542.714 482.777 539.899 482.777 537.137 482.336C539.899 481.896 542.714 481.896 545.476 482.336Z" fill="#263238"/>
<path d="M545.476 490.231C542.714 490.672 539.899 490.672 537.137 490.231C539.899 489.79 542.714 489.79 545.476 490.231Z" fill="#263238"/>
<path d="M545.476 498.125C542.714 498.566 539.899 498.566 537.137 498.125C539.899 497.685 542.714 497.685 545.476 498.125Z" fill="#263238"/>
<path d="M545.476 506.02C542.714 506.461 539.899 506.461 537.137 506.02C539.899 505.579 542.714 505.579 545.476 506.02Z" fill="#263238"/>
<path d="M545.476 513.914C542.714 514.354 539.899 514.354 537.137 513.914C539.899 513.473 542.714 513.473 545.476 513.914Z" fill="#263238"/>
<path d="M545.476 521.859C542.714 522.299 539.899 522.299 537.137 521.859C539.898 521.401 542.715 521.401 545.476 521.859Z" fill="#263238"/>
<path d="M545.476 529.69C542.715 530.147 539.898 530.147 537.137 529.69C539.899 529.249 542.714 529.249 545.476 529.69Z" fill="#263238"/>
<path d="M545.476 537.583C542.714 538.024 539.899 538.024 537.137 537.583C539.899 537.143 542.714 537.143 545.476 537.583Z" fill="#263238"/>
<path d="M545.476 545.478C542.714 545.919 539.899 545.919 537.137 545.478C539.899 545.037 542.714 545.037 545.476 545.478Z" fill="#263238"/>
<path d="M545.476 553.372C542.714 553.813 539.899 553.813 537.137 553.372C539.899 552.932 542.714 552.932 545.476 553.372Z" fill="#263238"/>
<path d="M545.476 561.266C542.714 561.707 539.899 561.707 537.137 561.266C539.899 560.825 542.714 560.825 545.476 561.266Z" fill="#263238"/>
<path d="M545.476 569.161C542.714 569.601 539.899 569.601 537.137 569.161C539.899 568.72 542.714 568.72 545.476 569.161Z" fill="#263238"/>
<path d="M545.476 577.055C542.714 577.496 539.899 577.496 537.137 577.055C539.899 576.614 542.714 576.614 545.476 577.055Z" fill="#263238"/>
<path d="M545.476 584.95C542.714 585.39 539.899 585.39 537.137 584.95C539.899 584.509 542.714 584.509 545.476 584.95Z" fill="#263238"/>
<path d="M500.181 427.256C500.051 427.273 499.918 427.273 499.787 427.256H498.643L494.207 427.319L477.821 427.421L423.159 427.523L423.489 427.192V438.557L423.159 438.226L477.821 438.328L494.207 438.442H498.643H499.787H500.181C500.051 438.459 499.918 438.459 499.787 438.442H498.643L494.207 438.506L477.821 438.608L423.159 438.709H422.828V426.684H423.159L477.821 426.785L494.207 426.887H498.643H499.787C499.94 426.985 500.073 427.11 500.181 427.256Z" fill="#263238"/>
<path d="M497.676 437.959L497.472 437.806L496.9 437.285L494.714 435.238L486.565 427.458L486.883 427.306C487.048 430.484 487.239 434.094 487.455 438.086V438.683L487.01 438.264L475.874 427.522L476.345 427.318C476.345 430.776 476.243 434.399 476.192 438.162V438.861L475.684 438.378L464.497 427.547L465.044 427.331C464.98 430.7 464.904 434.285 464.84 437.933V438.683L464.294 438.162L458.993 433.077L453.348 427.611L453.908 427.369V438.81L453.361 438.302L442.035 427.636L442.543 427.42C442.543 431.386 442.543 435.175 442.543 438.772V439.459L442.06 438.975L430.746 427.535L431.14 427.369C431.14 431.577 431.14 435.238 431.14 438.391V438.95L430.823 438.492C428.382 434.984 426.475 432.213 425.14 430.293L423.678 428.132L423.31 427.573L423.195 427.369C423.195 427.369 423.195 427.369 423.348 427.535L423.755 428.081L425.305 430.191L431.102 438.289L430.784 438.391C430.784 435.238 430.784 431.577 430.784 427.369V426.81L431.179 427.204L442.619 438.518L442.136 438.721C442.136 435.124 442.136 431.335 442.136 427.369V426.518L442.645 427.001L453.997 437.615L453.45 437.857C453.45 434.391 453.45 430.844 453.45 427.217V426.518L454.01 427.052L459.666 432.53L464.955 437.615L464.395 437.844C464.472 434.208 464.548 430.624 464.611 427.255V426.518L465.145 427.039L476.319 437.882L475.798 438.098C475.862 434.285 475.938 430.713 476.002 427.268V426.607L476.472 427.064L487.544 437.87L487.15 438.047C486.972 434.069 486.82 430.42 486.68 427.28V426.797L487.023 427.128L495.044 435.035L497.167 437.158L497.701 437.717C497.625 437.831 497.688 437.959 497.676 437.959Z" fill="#263238"/>
<path d="M501.415 338.931H501.021H499.864L495.427 338.995L479.054 339.097L424.392 339.198L424.722 338.868V350.245L424.392 349.915L479.054 350.016L495.44 350.118L499.927 350.245H501.084C501.215 350.226 501.348 350.226 501.478 350.245H501.084H499.927L495.504 350.309L479.118 350.41L424.456 350.512H424.125V338.486H424.456L479.118 338.588L495.491 338.69L499.927 338.753H501.084C501.201 338.8 501.312 338.86 501.415 338.931Z" fill="#263238"/>
<path d="M498.909 349.572C498.909 349.572 498.832 349.572 498.705 349.406L498.133 348.898L495.947 346.851L487.798 339.071L488.116 338.919C488.281 342.097 488.472 345.707 488.688 349.699V350.296L488.256 349.877L477.107 339.135L477.59 338.932C477.59 342.389 477.489 346.012 477.438 349.775V350.474L476.929 349.991C473.395 346.559 469.632 342.936 465.73 339.16L466.289 338.932C466.213 342.313 466.149 345.898 466.073 349.534V350.296L465.526 349.775L460.238 344.69L454.594 339.224L455.153 338.983V350.423L454.619 349.902L443.293 339.249L443.801 339.033C443.801 343 443.801 346.783 443.801 350.385V351.059L443.331 350.589L432.017 339.148L432.411 338.983C432.411 343.178 432.411 346.839 432.411 350.004V350.563L432.094 350.106L426.424 341.906C425.801 340.991 425.305 340.266 424.962 339.745L424.593 339.186C424.504 339.059 424.466 338.983 424.479 338.983C424.492 338.983 424.479 338.982 424.631 339.148C424.784 339.313 424.873 339.466 425.038 339.682L426.576 341.805L432.386 349.902L432.068 350.004C432.068 346.839 432.068 343.178 432.005 338.983V338.423L432.399 338.817L443.84 350.131L443.356 350.334C443.356 346.733 443.356 342.949 443.356 338.983V338.283L443.878 338.766L455.217 349.381L454.683 349.623C454.683 346.148 454.683 342.601 454.683 338.983V338.207L455.242 338.741L460.887 344.22L466.175 349.305L465.615 349.534C465.692 345.898 465.768 342.313 465.844 338.932V338.194L466.378 338.716L477.539 349.559L477.031 349.775C477.031 345.961 477.158 342.389 477.222 338.944V338.283L477.692 338.741L488.777 349.546L488.37 349.724C488.205 345.745 488.04 342.097 487.9 338.957V338.474L488.23 338.805L496.264 346.711L498.375 348.834L498.909 349.381C498.912 349.445 498.912 349.508 498.909 349.572Z" fill="#263238"/>
<path d="M632.934 587.479C632.934 587.657 501.669 587.809 339.767 587.809C177.865 587.809 46.5742 587.657 46.5742 587.479C46.5742 587.301 177.814 587.148 339.767 587.148C501.72 587.148 632.934 587.288 632.934 587.479Z" fill="#263238"/>
</g>
</svg>
