<svg width="227" height="80" viewBox="0 0 227 80" fill="none" xmlns="http://www.w3.org/2000/svg">
<path opacity="0.2" fill-rule="evenodd" clip-rule="evenodd" d="M1.37891 53.6208C1.37891 53.6208 10.2333 51.7558 20.3002 56.2361C39.4469 64.7573 40.5391 49.1529 47.6389 41.6288C54.1344 34.7451 59.514 38.9451 66.7462 47.3634C72.0804 53.5722 79.8542 63.9944 87.9048 62.3165C95.2639 60.7828 100.481 48.559 110.681 45.4503C118.766 42.9865 125.336 49.7553 134.645 47.3634C147.274 44.1185 152.915 25.0155 161.941 25.0155C173.081 25.0155 180.925 8.85889 191.059 8.85889C201.133 8.85889 202.501 18.3594 213.521 25.0155C221.946 30.1042 226 25.0155 226 25.0155V79.5443H1.37891V53.6208Z" fill="url(#paint0_linear_18407_39428)"/>
<path d="M1.37891 45.1524C1.37891 45.1524 10.2333 43.3145 20.3002 47.7299C39.4469 56.1278 40.5391 40.7493 47.6389 33.3341C54.1344 26.55 59.514 30.6892 66.7462 38.9856C72.0804 45.1046 79.8542 55.3759 87.9048 53.7223C95.2639 52.2108 100.481 40.164 110.681 37.1003C118.766 34.6721 125.336 41.3429 134.645 38.9856C147.274 35.7877 152.915 16.9613 161.941 16.9613C173.081 16.9613 180.925 1 191.059 1C201.133 1 201.669 10.4014 212.689 16.9612C221.114 21.9763 226 16.9613 226 16.9613" stroke="white" stroke-width="2" stroke-linecap="round" stroke-linejoin="round"/>
<defs>
<linearGradient id="paint0_linear_18407_39428" x1="41.9738" y1="44.725" x2="41.9738" y2="79.5443" gradientUnits="userSpaceOnUse">
<stop stop-color="white"/>
<stop offset="1" stop-color="white" stop-opacity="0.01"/>
</linearGradient>
</defs>
</svg>
