<svg width="1029" height="715" viewBox="0 0 1029 715" fill="none" xmlns="http://www.w3.org/2000/svg">
<g opacity="0.03" clip-path="url(#clip0_28027_6651)">
<path d="M383.255 498.241C397.045 490.243 410.834 482.327 424.624 474.329C429.03 471.799 425.032 464.943 420.626 467.473C406.836 475.471 393.047 483.387 379.257 491.385C374.851 493.915 378.849 500.771 383.255 498.241Z" fill="#005656"/>
<path d="M382.681 254.303C396.47 246.305 410.26 238.389 424.05 230.391C428.456 227.861 424.458 221.006 420.052 223.536C406.262 231.534 392.472 239.45 378.683 247.448C374.277 249.978 378.275 256.833 382.681 254.303Z" fill="#005656"/>
<path d="M589.362 222.064C603.234 230.062 617.105 238.141 631.058 246.139C635.464 248.669 639.462 241.895 635.056 239.284C621.185 231.286 607.313 223.206 593.361 215.208C588.954 212.678 584.956 219.452 589.362 222.064Z" fill="#005656"/>
<path d="M800.858 344.24C814.73 352.238 828.601 360.317 842.554 368.315C846.96 370.845 850.958 364.071 846.552 361.46C832.681 353.462 818.809 345.382 804.857 337.384C800.45 334.854 796.452 341.628 800.858 344.24Z" fill="#005656"/>
<path d="M819.79 490.405C833.58 482.407 847.369 474.491 861.159 466.493C865.565 463.963 861.567 457.107 857.161 459.637C843.371 467.635 829.582 475.552 815.792 483.549C811.386 486.079 815.384 492.935 819.79 490.405Z" fill="#005656"/>
<path d="M608.864 612.171C622.654 604.173 636.444 596.256 650.233 588.258C654.64 585.728 650.641 578.873 646.235 581.403C632.446 589.401 618.656 597.317 604.866 605.315C600.46 607.845 604.458 614.7 608.864 612.171Z" fill="#005656"/>
<path d="M171.759 376.147C185.549 368.149 199.338 360.233 213.128 352.235C217.534 349.705 213.536 342.849 209.13 345.379C195.34 353.377 181.55 361.294 167.761 369.292C163.355 371.822 167.353 378.677 171.759 376.147Z" fill="#005656"/>
<path d="M303.292 348.972L210.926 295.598V259.117L303.292 312.491V348.972Z" fill="#005656"/>
<path d="M303.293 348.973L395.169 295.926V259.445L303.293 312.493V348.973Z" fill="#008080"/>
<path d="M303.293 348.973L395.169 295.926V259.445L303.293 312.493V348.973Z" fill="#008080"/>
<path d="M303.292 312.492L210.926 259.118L302.721 206.152L395.168 259.445L303.292 312.492Z" fill="#008080"/>
<path d="M92.366 470.734L0 417.36V380.961L92.366 434.253V470.734Z" fill="#005656"/>
<path d="M92.3672 470.735L184.244 417.688V381.289L92.3672 434.255V470.735Z" fill="#008080"/>
<path d="M92.366 434.254L0 380.962L91.7949 327.914L184.243 381.288L92.366 434.254Z" fill="#008080"/>
<path d="M725.711 349.298L817.506 296.25V259.77L725.711 312.817V349.298Z" fill="#008080"/>
<path d="M725.71 312.815V349.296L633.344 295.922V259.441L725.71 312.815Z" fill="#005656"/>
<path d="M817.505 259.769L725.71 312.817L633.344 259.443L725.139 206.477L817.505 259.769Z" fill="#008080"/>
<path d="M726.281 593.235L818.076 540.187V503.707L726.281 556.755V593.235Z" fill="#008080"/>
<path d="M726.28 556.753V593.233L633.914 539.859V503.379L726.28 556.753Z" fill="#005656"/>
<path d="M818.075 503.706L726.28 556.754L633.914 503.38L725.709 450.332L818.075 503.706Z" fill="#008080"/>
<path d="M303.863 592.911L395.74 539.863V503.383L303.863 556.43V592.911Z" fill="#008080"/>
<path d="M303.863 592.911L395.74 539.863V503.383L303.863 556.43V592.911Z" fill="#008080"/>
<path d="M303.862 556.429V592.909L211.496 539.535V503.055L303.862 556.429Z" fill="#005656"/>
<path d="M395.739 503.382L303.862 556.429L211.496 503.055L303.291 450.008L395.739 503.382Z" fill="#008080"/>
<path d="M303.292 306.777L210.926 253.403V217.004L303.292 270.296V306.777Z" fill="#005656"/>
<path d="M303.293 306.778L395.169 253.731V217.332L303.293 270.298V306.778Z" fill="#008080"/>
<path d="M303.293 306.778L395.169 253.731V217.332L303.293 270.298V306.778Z" fill="#008080"/>
<path d="M303.292 270.297L210.926 217.005L302.721 163.957L395.168 217.331L303.292 270.297Z" fill="#66B6B6"/>
<path d="M92.366 428.624L0 375.25V338.77L92.366 392.144V428.624Z" fill="#005656"/>
<path d="M92.3672 428.626L184.244 375.578V339.098L92.3672 392.145V428.626Z" fill="#008080"/>
<path d="M92.366 392.144L0 338.77L91.7949 285.723L184.243 339.097L92.366 392.144Z" fill="#66B6B6"/>
<path d="M92.3669 381.125L19.1758 338.85L91.8773 296.82L165.068 339.095L92.3669 381.125Z" fill="#008080"/>
<path d="M725.711 307.107L817.506 254.141V217.66L725.711 270.708V307.107Z" fill="#008080"/>
<path d="M725.71 270.706V307.105L633.344 253.731V217.332L725.71 270.706Z" fill="#005656"/>
<path d="M817.505 217.659L725.71 270.707L633.344 217.333L725.139 164.285L817.505 217.659Z" fill="#66B6B6"/>
<path d="M726.281 551.044L818.076 497.996V461.598L726.281 514.564V551.044Z" fill="#008080"/>
<path d="M726.28 514.562V551.042L633.914 497.668V461.27L726.28 514.562Z" fill="#005656"/>
<path d="M818.075 461.597L726.28 514.563L633.914 461.27L725.709 408.223L818.075 461.597Z" fill="#66B6B6"/>
<path d="M937.205 471.39L844.758 418.016V381.617L937.205 434.991V471.39Z" fill="#005656"/>
<path d="M937.207 471.392L1029 418.426V381.945L937.207 434.993V471.392Z" fill="#008080"/>
<path d="M937.205 434.992L844.758 381.618L936.634 328.57L1029 381.944L937.205 434.992Z" fill="#008080"/>
<path d="M937.205 429.28L844.758 375.906V339.426L937.205 392.8V429.28Z" fill="#005656"/>
<path d="M937.207 429.282L1029 376.234V339.754L937.207 392.802V429.282Z" fill="#008080"/>
<path d="M937.205 392.801L844.758 339.427L936.634 286.379L1029 339.753L937.205 392.801Z" fill="#66B6B6"/>
<path d="M937.125 381.781L863.934 339.507L936.717 297.477L1009.83 339.751L937.125 381.781Z" fill="#008080"/>
<path d="M937.125 364.97L863.934 322.695V286.215L937.125 328.49V364.97Z" fill="#005656"/>
<path d="M937.125 364.968L1009.83 322.938V286.539L937.125 328.487V364.968Z" fill="#008080"/>
<path d="M937.125 328.489L863.934 286.214L936.717 244.266L1009.83 286.54L937.125 328.489Z" fill="#66B6B6"/>
<path d="M966.825 286.54L936.961 303.76L907.016 286.458L936.798 269.238L966.825 286.54Z" fill="#66B6B6"/>
<path d="M515.358 714.999L422.992 661.625V625.227L515.358 678.519V714.999Z" fill="#005656"/>
<path d="M515.359 715.001L607.236 661.953V625.555L515.359 678.521V715.001Z" fill="#008080"/>
<path d="M515.358 678.52L422.992 625.227L514.787 572.18L607.235 625.554L515.358 678.52Z" fill="#008080"/>
<path d="M515.358 672.808L422.992 619.516V583.035L515.358 636.409V672.808Z" fill="#005656"/>
<path d="M515.359 672.81L607.236 619.844V583.363L515.359 636.411V672.81Z" fill="#008080"/>
<path d="M515.358 636.41L422.992 583.036L514.787 529.988L607.235 583.362L515.358 636.41Z" fill="#66B6B6"/>
<path d="M515.278 625.391L442.168 583.116L514.87 541.086L588.061 583.361L515.278 625.391Z" fill="#008080"/>
<path d="M515.277 608.58L442.168 566.305V529.824L515.277 572.099V608.58Z" fill="#005656"/>
<path d="M515.277 608.577L588.06 566.547V530.066L515.277 572.096V608.577Z" fill="#008080"/>
<path d="M515.278 572.098L442.168 529.823L514.87 487.875L588.061 530.068L515.278 572.098Z" fill="#66B6B6"/>
<path d="M544.977 530.149L515.195 547.369L485.168 530.068L515.032 512.848L544.977 530.149Z" fill="#66B6B6"/>
<path d="M303.863 550.716L395.74 497.668V461.27L303.863 514.235V550.716Z" fill="#008080"/>
<path d="M303.863 550.716L395.74 497.668V461.27L303.863 514.235V550.716Z" fill="#008080"/>
<path d="M303.862 514.233V550.714L211.496 497.34V460.859L303.862 514.233Z" fill="#005656"/>
<path d="M395.739 461.269L303.862 514.235L211.496 460.861L303.291 407.895L395.739 461.269Z" fill="#66B6B6"/>
<path d="M514.214 227.124L421.848 173.832V137.352L514.214 190.726V227.124Z" fill="#005656"/>
<path d="M514.215 227.126L606.01 174.16V137.68L514.215 190.727V227.126Z" fill="#008080"/>
<path d="M514.214 190.726L421.848 137.352L513.643 84.3047L606.009 137.679L514.214 190.726Z" fill="#008080"/>
<path d="M514.214 185.011L421.848 131.637V95.1562L514.214 148.53V185.011Z" fill="#005656"/>
<path d="M514.215 185.012L606.01 131.965V95.4844L514.215 148.532V185.012Z" fill="#008080"/>
<path d="M514.214 148.531L421.848 95.1574L513.643 42.1914L606.009 95.4838L514.214 148.531Z" fill="#66B6B6"/>
<path d="M514.132 137.512L440.941 95.2375L513.725 53.2891L586.916 95.4823L514.132 137.512Z" fill="#008080"/>
<path d="M514.132 120.705L440.941 78.4301V42.0312L514.132 84.2245V120.705Z" fill="#005656"/>
<path d="M514.133 120.702L586.916 78.7539V42.2734L514.133 84.2218V120.702Z" fill="#008080"/>
<path d="M514.132 84.2233L440.941 42.03L513.725 0L586.916 42.2749L514.132 84.2233Z" fill="#66B6B6"/>
<path d="M543.833 42.3559L514.051 59.576L484.023 42.1927L513.806 24.9727L543.833 42.3559Z" fill="#66B6B6"/>
<path d="M92.3669 364.314L19.1758 322.039V285.559L92.3669 327.833V364.314Z" fill="#005656"/>
<path d="M92.3672 364.312L165.069 322.282V285.883L92.3672 327.831V364.312Z" fill="#008080"/>
<path d="M92.3669 327.833L19.1758 285.558L91.8773 243.609L165.068 285.884L92.3669 327.833Z" fill="#66B6B6"/>
<path d="M763.159 217.579L725.543 239.287L687.602 217.415L725.299 195.625L763.159 217.579Z" fill="#66B6B6"/>
<path d="M340.823 217.25L303.126 238.959L265.266 217.087L302.881 195.297L340.823 217.25Z" fill="#66B6B6"/>
<path d="M764.057 464.208L726.36 485.998L688.5 464.126L726.197 442.336L764.057 464.208Z" fill="#66B6B6"/>
<path d="M341.393 461.106L303.696 482.897L265.836 461.025L303.451 439.234L341.393 461.106Z" fill="#66B6B6"/>
<path d="M121.739 285.806L91.9568 303.026L61.9297 285.724L91.712 268.504L121.739 285.806Z" fill="#66B6B6"/>
<path d="M354.452 284.826C380.971 300.169 407.489 315.43 434.008 330.773C438.414 333.303 442.412 326.529 438.006 323.918C411.487 308.575 384.969 293.313 358.45 277.97C354.044 275.44 350.046 282.214 354.452 284.826Z" fill="#005656"/>
<path d="M167.515 465.677C181.386 473.675 195.257 481.755 209.21 489.753C213.616 492.282 217.614 485.509 213.208 482.897C199.337 474.899 185.466 466.82 171.513 458.822C167.107 456.292 163.109 463.066 167.515 465.677Z" fill="#005656"/>
<path d="M594.177 376.475C607.967 368.477 621.756 360.561 635.546 352.563C639.952 350.033 635.954 343.178 631.548 345.708C617.758 353.705 603.968 361.622 590.179 369.62C585.773 372.15 589.771 379.005 594.177 376.475Z" fill="#005656"/>
<path d="M589.937 466.001C603.808 473.999 617.679 482.079 631.632 490.077C636.038 492.607 640.036 485.833 635.63 483.221C621.759 475.223 607.888 467.144 593.935 459.146C589.529 456.616 585.53 463.39 589.937 466.001Z" fill="#005656"/>
<path d="M379.011 587.767C392.882 595.765 406.753 603.844 420.706 611.842C425.112 614.372 429.11 607.599 424.704 604.987C410.833 596.989 396.962 588.91 383.009 580.912C378.603 578.382 374.605 585.155 379.011 587.767Z" fill="#005656"/>
<path d="M383.009 365.867C382.274 369.621 379.337 373.375 376.4 374.192L355.022 380.231C354.042 380.476 353.145 380.394 352.492 379.986L522.374 478.736C523.027 479.144 523.924 479.226 524.903 478.981L546.281 472.942C549.219 472.126 552.156 468.371 552.891 464.617L383.009 365.867Z" fill="url(#paint0_linear_28027_6651)"/>
<path d="M367.018 357.625L359.021 359.91C354.778 361.053 350.535 366.439 349.475 371.907L348.74 375.498C348.006 379.089 348.903 381.864 350.78 382.925L520.662 481.675C518.785 480.614 517.888 477.839 518.622 474.248L519.356 470.657C520.417 465.189 524.742 459.803 528.903 458.66L536.899 456.457L367.018 357.707V357.625Z" fill="url(#paint1_linear_28027_6651)"/>
<path d="M631.061 157.919L461.18 59.2501L461.751 56.2305L631.633 154.899L631.061 157.919Z" fill="#B7C3DD"/>
<path d="M640.362 126.582L470.562 27.832C472.194 28.8114 473.01 31.1781 472.357 34.361L470.154 45.6234C469.257 50.4385 465.422 55.1719 461.75 56.1513L631.632 154.901C635.304 153.84 639.057 149.107 640.036 144.374L642.239 133.111C642.892 129.928 642.076 127.562 640.444 126.582H640.362Z" fill="url(#paint2_linear_28027_6651)"/>
<path d="M552.893 464.614L383.012 365.864L446.575 41.6211L616.456 140.371L552.893 464.614Z" fill="#005656"/>
<path d="M637.831 123.318C642.808 121.93 645.827 126.011 644.522 132.458L642.319 143.721C641.095 150.168 635.954 156.534 630.977 157.921L631.548 154.901C635.22 153.84 638.973 149.107 639.952 144.373L642.155 133.111C643.053 128.296 640.85 125.276 637.178 126.337L627.142 129.194C623.47 130.255 619.717 134.988 618.738 139.722L555.175 463.965C554.114 469.433 549.789 474.819 545.628 475.962L524.25 482.001C520.007 483.144 517.478 479.716 518.538 474.248L519.273 470.657C520.333 465.189 524.658 459.803 528.819 458.66L536.816 456.457L536.245 459.476L528.248 461.68C525.311 462.496 522.373 466.25 521.639 470.004L520.905 473.595C520.17 477.349 521.965 479.797 524.903 478.981L546.281 472.942C549.218 472.126 552.156 468.372 552.89 464.618L616.453 140.374C617.677 133.927 622.817 127.561 627.795 126.174L637.831 123.318Z" fill="#E4E7ED"/>
<path d="M472.195 24.8924C471.053 24.2395 469.584 24.0763 467.952 24.566L457.916 27.4224C452.939 28.8098 447.88 35.1755 446.574 41.6228L616.456 140.373C617.68 133.926 622.82 127.56 627.798 126.173L637.834 123.316C639.547 122.826 640.935 122.99 642.077 123.643L472.195 24.8924Z" fill="url(#paint3_linear_28027_6651)"/>
<path d="M560.398 172.691L482.638 127.723C480.435 126.417 479.129 122.989 479.7 120.051C480.272 117.113 482.475 115.726 484.759 117.032L562.52 162C564.723 163.305 566.028 166.733 565.457 169.671C564.886 172.609 562.683 173.997 560.398 172.691Z" fill="#66B6B6"/>
<path d="M567.989 225.901L458.243 162.488C456.04 161.183 454.735 157.755 455.306 154.817C455.877 151.879 458.08 150.491 460.365 151.797L570.111 215.209C572.314 216.515 573.619 219.943 573.048 222.881C572.477 225.819 570.274 227.206 567.989 225.901Z" fill="#66B6B6"/>
<path d="M563.173 251.037L453.427 187.625C451.224 186.319 449.918 182.892 450.49 179.954C451.061 177.016 453.264 175.628 455.548 176.934L565.294 240.346C567.497 241.652 568.803 245.08 568.232 248.018C567.661 250.956 565.457 252.343 563.173 251.037Z" fill="#66B6B6"/>
<path d="M535.432 262.953L448.614 212.762C446.411 211.456 445.106 208.028 445.677 205.09C446.248 202.152 448.451 200.765 450.736 202.071L537.553 252.262C539.757 253.568 541.062 256.995 540.491 259.933C539.92 262.871 537.717 264.259 535.432 262.953Z" fill="#66B6B6"/>
<path d="M553.466 301.311L443.72 237.898C441.517 236.593 440.211 233.165 440.782 230.227C441.354 227.289 443.557 225.902 445.841 227.207L555.587 290.62C557.79 291.925 559.096 295.353 558.525 298.291C557.953 301.229 555.75 302.617 553.466 301.311Z" fill="#66B6B6"/>
<path d="M544.161 393.778L485.739 359.99C485.331 359.745 485.086 359.093 485.168 358.521C485.25 357.95 485.739 357.705 486.147 357.95L544.569 391.737C544.977 391.982 545.222 392.635 545.141 393.206C545.059 393.778 544.569 394.022 544.161 393.778Z" fill="#E0E0E0"/>
<path d="M472.521 282.459L438.986 263.035C436.782 261.729 435.477 258.302 436.048 255.364C436.619 252.426 438.822 251.038 441.107 252.344L474.643 271.768C476.846 273.073 478.151 276.501 477.58 279.439C477.009 282.377 474.806 283.765 472.521 282.459Z" fill="#66B6B6"/>
<path d="M543.1 379.985C537.47 379.087 533.879 376.149 532.166 371.008C531.432 371.008 530.86 371.008 530.616 370.926C524.822 370.191 520.498 367.743 517.805 363.744C515.52 360.48 514.541 356.726 515.112 353.706C514.378 355.257 512.909 356.481 510.87 357.297C505.892 359.255 499.854 357.95 495.122 354.032C492.837 352.074 490.797 349.544 489.328 346.524C487.778 343.341 487.86 339.587 489.492 337.139C491.123 334.772 494.142 334.854 495.04 334.854C500.262 334.854 504.587 338.281 508.585 341.954C510.054 343.26 511.114 344.647 512.093 346.034C511.604 344.892 510.951 343.668 510.135 342.28L509.564 341.301C507.606 338.118 505.566 334.935 505.239 331.263C504.75 325.876 508.503 322.53 512.257 322.122C514.378 321.877 516.01 322.53 517.724 323.428C519.192 324.244 520.906 325.223 522.211 326.937C523.517 328.57 524.578 331.181 523.843 333.303L521.477 332.568C521.803 331.508 521.232 329.794 520.253 328.488C519.192 327.182 517.805 326.284 516.5 325.631C514.868 324.734 513.725 324.407 512.501 324.571C509.972 324.815 507.361 327.182 507.687 331.018C507.932 334.037 509.809 337.057 511.604 339.995L512.175 340.974C514.541 344.892 515.765 348.075 515.684 350.768C515.847 350.931 515.928 351.094 516.092 351.176C516.663 350.278 517.397 349.544 518.295 348.972C519.355 348.32 520.498 347.748 521.803 347.422C524.251 346.851 527.76 347.748 530.208 349.625C532.003 350.931 533.145 352.808 533.308 354.767C533.471 356.399 533.063 357.95 532.003 359.092C529.963 361.459 525.149 362.194 518.05 356.481C517.805 356.317 517.56 356.073 517.316 355.909C517.397 357.95 518.295 360.235 519.682 362.357C522.048 365.784 525.638 367.825 530.779 368.478C530.86 368.478 531.105 368.478 531.432 368.478C530.942 365.54 531.432 362.52 532.737 360.316C533.471 359.092 536.001 355.665 539.02 356.073C540.081 356.154 541.549 356.807 542.365 359.337C543.263 361.867 542.529 364.887 541.468 366.437C539.591 369.212 536.817 370.355 534.614 370.763C535.675 373.619 537.878 376.639 543.426 377.537L543.018 379.985H543.1ZM538.775 358.521C537.551 358.521 535.675 360.316 534.94 361.622C533.879 363.418 533.553 365.948 534.043 368.396C535.838 368.07 538.122 367.253 539.591 365.05C540.325 363.989 540.733 361.704 540.162 360.072C539.917 359.419 539.51 358.521 538.857 358.521C538.857 358.521 538.857 358.521 538.775 358.521ZM517.887 353.053C518.458 353.543 519.029 354.114 519.682 354.604C524.986 358.847 528.821 359.174 530.208 357.542C530.779 356.889 531.024 355.991 530.942 355.093C530.779 353.787 530.044 352.563 528.739 351.666C526.862 350.278 524.088 349.462 522.293 349.87C521.314 350.115 520.416 350.605 519.519 351.094C518.784 351.584 518.213 352.237 517.805 353.053H517.887ZM494.877 337.302C493.163 337.302 492.103 337.71 491.531 338.526C490.307 340.24 490.307 343.096 491.531 345.463C492.837 348.075 494.632 350.523 496.672 352.155C500.67 355.501 505.811 356.562 509.972 355.012C511.767 354.359 512.746 353.298 513.154 351.91C513.154 351.829 513.154 351.666 513.154 351.584C512.338 350.605 511.685 349.625 511.033 348.728C509.809 346.932 508.585 345.3 506.953 343.749C503.363 340.485 499.446 337.384 495.04 337.302H494.877Z" fill="white"/>
<path d="M378.684 261.809L387.741 256.586C404.957 269.725 415.402 272.255 423.153 274.377C430.905 281.233 441.349 290.7 458.566 297.473V334.77C458.566 349.868 452.609 357.376 445.592 361.049L436.535 366.272L437.024 363.824C429.599 365.048 423.153 363.579 423.153 363.579C423.153 363.579 387.741 330.608 387.741 293.882V271.929L378.684 261.809Z" fill="#66B6B6"/>
<path d="M458.485 297.393L449.428 302.616L429.927 297.311L414.016 279.52L423.073 274.297C430.824 281.152 441.268 290.619 458.485 297.393Z" fill="#B7CCFF"/>
<path d="M379.663 261.238L387.741 256.586C404.957 269.725 415.402 272.255 423.153 274.377L414.096 279.6H394.595L378.684 261.809L379.663 261.238Z" fill="#66B6B6"/>
<path d="M414.014 279.6C421.766 286.455 432.21 295.922 449.427 302.696V339.993C449.427 376.718 414.096 368.801 414.096 368.801C414.096 368.801 378.684 335.83 378.684 299.105V261.809C395.9 274.948 406.344 277.478 414.096 279.6H414.014Z" fill="white"/>
<path d="M414.013 360.966C416.869 361.292 422.418 361.7 427.966 359.986C437.921 356.967 442.98 348.969 442.98 336.237V307.183C440.613 306.041 438.329 304.817 436.126 303.511C426.579 297.961 419.399 291.84 414.013 287.107C408.628 285.638 401.448 283.516 391.901 278.048C389.698 276.742 387.332 275.273 385.047 273.723V302.776C385.047 315.508 390.106 329.382 400.06 343.909C405.609 351.907 411.157 358.028 414.013 360.966Z" fill="#66B6B6"/>
<path d="M416.298 359.663C413.443 356.725 407.894 350.604 402.346 342.607C392.391 328.08 387.332 314.206 387.332 301.474V275.195C388.882 276.175 390.433 277.154 391.983 278.052C401.53 283.601 408.71 285.723 414.095 287.111C419.481 291.844 426.661 297.965 436.208 303.515C438.411 304.82 440.777 306.045 443.062 307.187V336.241C443.062 346.279 439.961 353.298 433.841 357.378C432.781 357.95 431.557 358.358 430.333 358.766C424.784 360.398 419.236 360.071 416.38 359.745L416.298 359.663Z" fill="#00D158"/>
<path d="M418.176 341.955L414.504 344.077C414.504 344.077 414.83 343.914 414.993 343.751L418.665 341.629C418.665 341.629 418.339 341.874 418.176 341.955Z" fill="#C6C0D0"/>
<path d="M392.879 309.963L396.551 307.841C397.775 307.107 399.488 307.351 401.12 308.331C402.67 309.229 404.221 310.698 405.445 312.738L401.773 314.86C400.549 312.901 398.999 311.35 397.448 310.453C395.816 309.473 394.103 309.31 392.879 309.963Z" fill="#66B6B6"/>
<path d="M401.773 314.778L405.445 312.656L412.218 323.592L408.546 325.796L401.773 314.778Z" fill="#66B6B6"/>
<path d="M433.678 328.571L437.349 326.449L418.664 341.629L414.992 343.751L433.678 328.571Z" fill="#66B6B6"/>
<path d="M424.133 313.147L427.805 311.025C429.029 310.29 430.742 310.535 432.374 311.514L428.702 313.636C426.989 312.657 425.357 312.494 424.133 313.147Z" fill="#66B6B6"/>
<path d="M428.699 313.555L432.371 311.434C433.84 312.25 435.227 313.637 436.451 315.514C439.225 319.676 439.551 324.573 437.267 326.45L433.595 328.572C435.88 326.695 435.472 321.88 432.779 317.636C431.555 315.841 430.168 314.453 428.699 313.555Z" fill="#66B6B6"/>
<path d="M428.701 313.553C430.17 314.369 431.557 315.757 432.781 317.634C435.555 321.796 435.881 326.693 433.597 328.57L414.911 343.831C413.361 345.055 411.24 344.892 409.036 343.586C407.241 342.526 405.446 340.73 403.978 338.445L393.125 320.898C390.514 316.655 390.269 311.84 392.636 310.126C393.941 309.228 395.655 309.391 397.45 310.452C399 311.35 400.551 312.819 401.774 314.859L408.547 325.795L423.724 313.472C425.029 312.411 426.824 312.574 428.701 313.635V313.553Z" fill="white"/>
</g>
<path d="M514.671 581.201C641.862 581.201 744.971 521.673 744.971 448.241C744.971 374.809 641.862 315.281 514.671 315.281C387.48 315.281 284.371 374.809 284.371 448.241C284.371 521.673 387.48 581.201 514.671 581.201Z" fill="#F5F5F5" fill-opacity="0.6"/>
<path d="M561.101 451.361L497.101 488.361L496.951 488.281L472.601 474.211C470.482 472.85 468.799 470.909 467.753 468.618C466.707 466.327 466.341 463.784 466.701 461.291L475.701 414.371L539.701 377.371L530.701 424.291C530.341 426.784 530.707 429.327 531.753 431.618C532.799 433.909 534.482 435.85 536.601 437.211L561.101 451.361Z" fill="#37474F"/>
<path d="M475.73 414.372L466.77 460.882L530.79 423.932L539.07 380.912L535.03 380.102L475.73 414.372Z" fill="#263238"/>
<path d="M497.082 488.353L472.592 474.213C470.475 472.85 468.794 470.908 467.748 468.618C466.702 466.328 466.335 463.786 466.692 461.293L475.692 414.373L465.022 408.203L454.702 461.883C453.332 468.983 457.342 477.753 463.602 481.363L497.052 500.673L497.082 488.353Z" fill="#263238"/>
<path d="M561.102 451.363L497.082 488.353V500.683L561.102 463.693V451.363Z" fill="#455A64"/>
<path d="M623.73 147.312C626.67 149.012 629.06 153.312 629.06 156.962V353.422C628.953 355.395 628.382 357.316 627.393 359.027C626.404 360.739 625.026 362.193 623.37 363.272L378.5 504.662C375.36 506.472 370.42 506.562 367.5 504.862C364.58 503.162 362.16 498.862 362.16 495.212V298.752C362.268 296.777 362.84 294.856 363.828 293.143C364.817 291.43 366.194 289.974 367.85 288.892L612.7 147.512C615.84 145.692 620.78 145.602 623.73 147.312Z" fill="#455A64"/>
<path d="M377.821 505.001C374.681 506.471 370.211 506.441 367.461 504.861C364.511 503.161 362.121 498.861 362.121 495.211V298.751C362.192 296.769 362.767 294.838 363.791 293.141L374.501 299.311C373.476 301.004 372.901 302.932 372.831 304.911V501.371C372.801 504.741 374.991 506.251 377.821 505.001Z" fill="#263238"/>
<path d="M629.062 353.422V157.002C629.062 153.372 626.522 151.902 623.372 153.712L378.503 295.062C376.846 296.141 375.468 297.595 374.48 299.306C373.491 301.018 372.92 302.938 372.812 304.912V501.372C372.812 505.002 375.363 506.472 378.503 504.662L623.372 363.272C625.029 362.193 626.407 360.739 627.395 359.027C628.384 357.316 628.955 355.396 629.062 353.422Z" fill="#37474F"/>
<path d="M616.561 163.702L382.691 298.802C381.366 299.666 380.264 300.829 379.474 302.198C378.683 303.567 378.227 305.104 378.141 306.682V481.112C378.141 484.012 380.141 485.192 382.691 483.742L616.571 348.642C617.895 347.779 618.997 346.615 619.787 345.246C620.578 343.877 621.035 342.341 621.121 340.762V166.332C621.121 163.432 619.081 162.252 616.561 163.702Z" fill="#008080"/>
<path opacity="0.8" d="M616.561 163.702L382.691 298.802C381.366 299.666 380.264 300.829 379.474 302.198C378.683 303.567 378.227 305.104 378.141 306.682V481.112C378.141 484.012 380.141 485.192 382.691 483.742L616.571 348.642C617.895 347.779 618.997 346.615 619.787 345.246C620.578 343.877 621.035 342.341 621.121 340.762V166.332C621.121 163.432 619.081 162.252 616.561 163.702Z" fill="white"/>
<path d="M394.812 462.291C393.572 462.291 392.812 461.291 392.812 459.581V321.441L606.432 198.121V335.681C606.349 337.147 605.923 338.573 605.188 339.844C604.453 341.115 603.431 342.197 602.203 343.001L396.562 461.741C396.037 462.073 395.434 462.263 394.812 462.291Z" fill="#F5F5F5"/>
<path d="M605.932 199.004V335.704C605.847 337.086 605.441 338.429 604.747 339.626C604.053 340.824 603.089 341.844 601.932 342.604L396.312 461.314C395.861 461.598 395.345 461.764 394.812 461.794C393.472 461.794 393.332 460.254 393.332 459.584V321.734L605.932 199.004ZM606.932 197.274L392.332 321.174V459.584C392.332 461.584 393.332 462.794 394.812 462.794C395.522 462.768 396.212 462.555 396.812 462.174L602.442 343.454C603.749 342.603 604.837 341.456 605.617 340.106C606.397 338.756 606.848 337.241 606.932 335.684V197.254V197.274Z" fill="#E0E0E0"/>
<path d="M392.332 321.154V340.584L606.932 216.684V197.254L392.332 321.154Z" fill="#008080"/>
<path d="M526.98 251.002V255.182C526.98 256.032 527.59 256.382 528.33 255.962L594.33 217.862V210.602L528.33 248.702C527.943 248.955 527.62 249.294 527.386 249.693C527.152 250.092 527.013 250.54 526.98 251.002Z" fill="#FAFAFA"/>
<path d="M601.383 206.524C602.123 206.094 602.723 206.444 602.723 207.304V211.484C602.696 211.95 602.561 212.403 602.328 212.807C602.095 213.212 601.772 213.556 601.383 213.814L594.312 217.894V210.604L601.383 206.524Z" fill="#455A64"/>
<path d="M600.854 212.252L600.074 212.012C600.151 211.685 600.192 211.349 600.194 211.012C600.229 210.694 600.182 210.372 600.056 210.077C599.929 209.783 599.729 209.526 599.474 209.332C599.3 209.227 599.101 209.172 598.899 209.172C598.696 209.172 598.497 209.227 598.324 209.332C597.821 209.716 597.417 210.214 597.144 210.784C596.871 211.354 596.738 211.981 596.754 212.612C596.718 212.932 596.766 213.256 596.892 213.552C597.018 213.848 597.218 214.106 597.474 214.302C597.626 214.389 597.798 214.434 597.974 214.432C598.204 214.429 598.428 214.363 598.624 214.242C599.222 213.83 599.668 213.233 599.894 212.542L600.684 212.782H600.774C600.836 212.781 600.897 212.76 600.947 212.722C600.998 212.685 601.035 212.632 601.054 212.572C601.06 212.504 601.044 212.436 601.008 212.378C600.972 212.321 600.918 212.276 600.854 212.252ZM598.324 213.772C598.239 213.823 598.142 213.849 598.044 213.849C597.945 213.849 597.848 213.823 597.764 213.772C597.603 213.624 597.48 213.44 597.405 213.235C597.331 213.029 597.306 212.809 597.334 212.592C597.325 212.063 597.437 211.539 597.66 211.059C597.884 210.579 598.213 210.157 598.624 209.822C598.729 209.756 598.849 209.718 598.974 209.712C599.043 209.696 599.115 209.696 599.184 209.712C599.342 209.862 599.464 210.047 599.538 210.251C599.613 210.456 599.639 210.676 599.614 210.892C599.636 211.44 599.531 211.984 599.307 212.484C599.083 212.984 598.747 213.425 598.324 213.772Z" fill="#FAFAFA"/>
<path d="M392.332 311.763C392.414 310.206 392.863 308.691 393.642 307.341C394.42 305.991 395.506 304.844 396.812 303.993L602.442 185.273C604.922 183.843 606.932 185.003 606.932 187.863V197.253L392.332 321.153V311.763Z" fill="#37474F"/>
<path d="M581.682 202.103C581.071 202.502 580.562 203.039 580.197 203.672C579.833 204.304 579.622 205.014 579.582 205.743C579.582 207.093 580.522 207.633 581.682 206.963C582.298 206.565 582.81 206.026 583.177 205.392C583.543 204.757 583.754 204.045 583.792 203.313C583.792 202.003 582.852 201.433 581.682 202.103Z" fill="#008080"/>
<path d="M589.051 197.862C588.437 198.259 587.926 198.796 587.559 199.428C587.192 200.061 586.981 200.772 586.941 201.502C586.941 202.842 587.881 203.392 589.051 202.722C589.664 202.322 590.173 201.782 590.538 201.148C590.903 200.514 591.113 199.803 591.151 199.072C591.151 197.732 590.211 197.192 589.051 197.862Z" fill="#008080"/>
<path d="M596.413 193.621C595.801 194.02 595.293 194.558 594.928 195.19C594.563 195.823 594.352 196.532 594.312 197.261C594.312 198.601 595.253 199.151 596.413 198.481C597.024 198.08 597.533 197.541 597.898 196.907C598.263 196.273 598.474 195.562 598.513 194.831C598.503 193.491 597.573 193.001 596.413 193.621Z" fill="#008080"/>
<path d="M486.41 325.721L512.85 310.461C514.52 309.461 515.85 310.271 515.85 312.211V342.731C515.795 343.78 515.495 344.801 514.974 345.713C514.453 346.624 513.726 347.401 512.85 347.981L486.41 363.241C484.74 364.241 483.41 363.421 483.41 361.491V331.001C483.458 329.947 483.755 328.919 484.277 328.001C484.798 327.084 485.529 326.302 486.41 325.721Z" fill="#008080"/>
<path d="M493.67 363.74L509.67 354.52C510.87 353.82 511.83 354.32 511.83 355.61C511.776 356.337 511.552 357.042 511.177 357.667C510.802 358.292 510.286 358.821 509.67 359.21L493.67 368.43C492.47 369.12 491.5 368.63 491.5 367.34C491.553 366.612 491.777 365.906 492.154 365.281C492.531 364.655 493.05 364.127 493.67 363.74Z" fill="#455A64"/>
<path d="M499.402 324.601C502.212 322.981 504.482 324.291 504.482 327.531C504.387 329.293 503.878 331.007 502.995 332.534C502.112 334.062 500.881 335.359 499.402 336.321C496.602 337.941 494.332 336.631 494.332 333.391C494.427 331.63 494.936 329.917 495.817 328.39C496.697 326.863 497.926 325.565 499.402 324.601Z" fill="#FAFAFA"/>
<path d="M509.412 341.911C509.412 336.601 505.672 334.231 501.072 336.911L498.192 338.581C493.582 341.241 489.852 347.701 489.852 353.021V354.451L509.412 343.171V341.911Z" fill="#FAFAFA"/>
<path d="M535.18 297.542L561.61 282.282C563.29 281.282 564.61 282.092 564.61 284.032V314.552C564.556 315.601 564.257 316.622 563.736 317.534C563.215 318.446 562.486 319.223 561.61 319.802L535.18 335.062C533.51 336.062 532.18 335.242 532.18 333.312V302.792C532.233 301.743 532.533 300.721 533.054 299.809C533.575 298.897 534.303 298.12 535.18 297.542Z" fill="#008080"/>
<path opacity="0.2" d="M535.18 297.542L561.61 282.282C563.29 281.282 564.61 282.092 564.61 284.032V314.552C564.556 315.601 564.257 316.622 563.736 317.534C563.215 318.446 562.486 319.223 561.61 319.802L535.18 335.062C533.51 336.062 532.18 335.242 532.18 333.312V302.792C532.233 301.743 532.533 300.721 533.054 299.809C533.575 298.897 534.303 298.12 535.18 297.542Z" fill="black"/>
<path d="M542.44 335.56L558.44 326.34C559.63 325.65 560.6 326.14 560.6 327.43C560.547 328.158 560.324 328.862 559.949 329.488C559.574 330.113 559.057 330.642 558.44 331.03L542.44 340.25C541.24 340.94 540.27 340.45 540.27 339.16C540.322 338.432 540.546 337.726 540.923 337.1C541.301 336.475 541.82 335.947 542.44 335.56Z" fill="#455A64"/>
<path d="M548.172 296.421C550.982 294.801 553.252 296.111 553.252 299.351C553.158 301.113 552.649 302.828 551.766 304.355C550.883 305.883 549.651 307.18 548.172 308.141C545.372 309.761 543.102 308.451 543.102 305.211C543.197 303.451 543.706 301.738 544.587 300.211C545.468 298.684 546.696 297.385 548.172 296.421Z" fill="#FAFAFA"/>
<path d="M558.181 313.731C558.181 308.421 554.441 306.051 549.841 308.731L546.961 310.401C542.351 313.061 538.621 319.521 538.621 324.841V326.271L558.181 315.001V313.731Z" fill="#FAFAFA"/>
<path d="M437.691 353.833L464.131 338.573C465.801 337.573 467.131 338.393 467.131 340.323V370.843C467.079 371.892 466.78 372.914 466.258 373.826C465.737 374.738 465.009 375.515 464.131 376.093L437.691 391.353C436.021 392.353 434.691 391.543 434.691 389.603V359.083C434.746 358.034 435.047 357.013 435.568 356.101C436.089 355.189 436.816 354.413 437.691 353.833Z" fill="#008080"/>
<path opacity="0.5" d="M437.691 353.833L464.131 338.573C465.801 337.573 467.131 338.393 467.131 340.323V370.843C467.079 371.892 466.78 372.914 466.258 373.826C465.737 374.738 465.009 375.515 464.131 376.093L437.691 391.353C436.021 392.353 434.691 391.543 434.691 389.603V359.083C434.746 358.034 435.047 357.013 435.568 356.101C436.089 355.189 436.816 354.413 437.691 353.833Z" fill="white"/>
<path d="M444.951 391.853L460.951 382.633C462.151 381.943 463.111 382.433 463.111 383.723C463.059 384.451 462.836 385.155 462.461 385.781C462.085 386.406 461.568 386.935 460.951 387.323L444.951 396.543C443.751 397.233 442.781 396.743 442.781 395.453C442.834 394.725 443.058 394.019 443.435 393.393C443.812 392.768 444.332 392.24 444.951 391.853Z" fill="#455A64"/>
<path d="M450.679 352.712C453.489 351.092 455.759 352.412 455.759 355.642C455.665 357.405 455.155 359.121 454.273 360.65C453.39 362.179 452.159 363.479 450.679 364.442C447.879 366.052 445.609 364.742 445.609 361.502C445.705 359.742 446.214 358.029 447.095 356.502C447.976 354.975 449.204 353.677 450.679 352.712Z" fill="#FAFAFA"/>
<path d="M460.69 370.002C460.69 364.682 456.95 362.322 452.35 365.002L449.5 366.672C444.89 369.332 441.16 375.802 441.16 381.122V382.552L460.72 371.262L460.69 370.002Z" fill="#FAFAFA"/>
<path d="M691.179 290.628L680.559 284.498C669.849 278.498 655.169 279.348 638.899 288.738C623.679 297.508 609.799 312.148 599.339 329.088C587.239 348.588 579.629 371.168 579.629 391.408C579.629 410.288 586.239 423.528 596.929 429.738L607.659 435.888C618.459 442.768 633.659 442.158 650.659 432.398C683.399 413.488 709.939 367.518 709.939 329.718C709.899 309.998 702.699 296.468 691.179 290.628Z" fill="#008080"/>
<path opacity="0.1" d="M607.241 435.638L596.931 429.738C586.241 423.538 579.641 410.278 579.641 391.398C579.641 371.158 587.251 348.598 599.341 329.098L611.021 335.888C598.921 355.388 591.331 377.938 591.331 398.158C591.331 416.208 597.371 429.108 607.241 435.638Z" fill="black"/>
<path opacity="0.4" d="M690.75 290.378C680.19 285.258 666.1 286.558 650.63 295.478C635.39 304.288 621.51 318.938 611.02 335.888L599.34 329.098C609.81 312.098 623.7 297.518 638.91 288.748C655.17 279.348 669.86 278.458 680.58 284.498L690.75 290.378Z" fill="white"/>
<path d="M624.027 432.478C619.717 432.568 615.473 431.408 611.807 429.138L611.638 429.028L611.297 428.838C603.487 423.518 599.188 412.638 599.188 398.148C599.188 380.148 605.918 359.038 617.668 340.148C627.868 323.668 640.937 310.278 654.487 302.448C662.437 297.858 670.217 295.448 676.957 295.448C680.382 295.397 683.774 296.111 686.888 297.538L687.247 297.738L687.427 297.828C696.537 302.438 701.758 314.078 701.758 329.768C701.758 364.978 676.957 407.928 646.467 425.518C638.497 430.058 630.767 432.478 624.027 432.478Z" fill="#FAFAFA"/>
<mask id="mask0_28027_6651" style="mask-type:luminance" maskUnits="userSpaceOnUse" x="599" y="295" width="103" height="138">
<path d="M624.027 432.478C619.717 432.568 615.473 431.408 611.807 429.138L611.638 429.028L611.297 428.838C603.487 423.518 599.188 412.638 599.188 398.148C599.188 380.148 605.918 359.038 617.668 340.148C627.868 323.668 640.937 310.278 654.487 302.448C662.437 297.858 670.217 295.448 676.957 295.448C680.382 295.397 683.774 296.111 686.888 297.538L687.247 297.738L687.427 297.828C696.537 302.438 701.758 314.078 701.758 329.768C701.758 364.978 676.957 407.928 646.467 425.518C638.497 430.058 630.767 432.478 624.027 432.478Z" fill="white"/>
</mask>
<g mask="url(#mask0_28027_6651)">
<path d="M653.217 375.486C638.127 379.486 625.887 370.566 625.887 355.486V345.816C625.887 333.026 636.257 319.886 649.047 316.456L657.377 314.226C670.167 310.796 680.537 318.386 680.537 331.176V340.846C680.497 355.926 668.307 371.436 653.217 375.486Z" fill="#263238"/>
<path d="M690.365 413.605L702.425 451.355L687.345 459.615L678.305 424.105L690.365 413.605Z" fill="#FFA8A7"/>
<path d="M663.965 381.277C671.965 379.277 680.835 380.277 683.875 386.677C686.915 393.077 693.565 416.067 693.565 416.067C689.428 421.642 683.371 425.486 676.565 426.857L663.965 381.277Z" fill="#008080"/>
<path opacity="0.3" d="M663.965 381.277C671.965 379.277 680.835 380.277 683.875 386.677C686.915 393.077 693.565 416.067 693.565 416.067C689.428 421.642 683.371 425.486 676.565 426.857L663.965 381.277Z" fill="black"/>
<path d="M647.347 386.058L640.667 388.168C633.397 392.168 630.777 398.588 627.727 406.858C625.501 412.73 625.297 419.176 627.147 425.178L635.657 451.328C635.657 451.328 631.657 463.508 627.047 475.258C648.397 483.258 675.047 468.918 681.477 457.158C681.757 454.948 681.387 445.448 681.897 434.388C682.457 422.588 683.837 409.068 682.257 402.288C679.307 389.718 673.797 378.648 662.817 381.588L647.347 386.058Z" fill="#F5F5F5"/>
<path d="M640.665 388.168C633.385 391.308 622.665 395.868 618.995 416.858C615.255 438.128 614.535 443.148 614.535 443.148C614.535 443.148 620.905 448.778 632.995 445.468C632.995 445.468 643.655 402.818 640.665 388.168Z" fill="#008080"/>
<path opacity="0.3" d="M640.665 388.168C633.385 391.308 622.665 395.868 618.995 416.858C615.255 438.128 614.535 443.148 614.535 443.148C614.535 443.148 620.905 448.778 632.995 445.468C632.995 445.468 643.655 402.818 640.665 388.168Z" fill="black"/>
<path d="M629.316 416.478C637.866 414.188 644.806 405.398 644.806 396.848V369.348C636.246 371.648 629.316 380.438 629.316 388.988V416.478Z" fill="#263238"/>
<path d="M633.316 444.145C634.666 438.475 636.086 432.025 637.426 425.145C637.426 425.145 637.366 439.365 635.266 450.145L633.316 444.145Z" fill="#E0E0E0"/>
<path d="M671.566 323.176C674.446 324.366 678.016 331.796 677.666 349.466C677.366 364.466 673.186 369.236 671.086 370.856C668.986 372.476 664.936 372.916 661.006 373.216V382.156C661.006 382.156 666.446 387.996 666.096 392.156C665.746 396.316 658.246 399.326 653.156 396.686C649.795 394.757 646.935 392.064 644.806 388.826V367.246C644.806 367.246 642.146 372.056 637.806 369.886C633.466 367.716 633.296 359.516 635.806 355.886C638.316 352.256 643.806 351.726 644.806 355.546C644.806 355.546 651.076 354.136 659.436 346.546C666.141 340.455 670.445 332.165 671.566 323.176Z" fill="#FFA8A7"/>
<path d="M663.267 349.577C663.29 350.093 663.155 350.605 662.88 351.042C662.604 351.48 662.202 351.823 661.727 352.027C660.837 352.307 660.067 351.687 660.027 350.627C660.001 350.111 660.134 349.6 660.408 349.162C660.681 348.724 661.082 348.38 661.557 348.177C662.497 347.897 663.217 348.517 663.267 349.577Z" fill="#263238"/>
<path d="M663.696 362.086L667.466 362.466C667.373 363.06 667.079 363.605 666.633 364.009C666.187 364.413 665.617 364.652 665.016 364.686C663.976 364.576 663.386 363.416 663.696 362.086Z" fill="#F28F8F"/>
<path d="M676.567 340.268L673.277 338.518C673.877 337.278 675.097 336.658 676.007 337.148C676.917 337.638 677.157 338.998 676.567 340.268Z" fill="#263238"/>
<path d="M675.805 344.865C675.831 345.381 675.697 345.892 675.421 346.329C675.145 346.765 674.742 347.106 674.265 347.305C673.375 347.595 672.615 346.965 672.565 345.905C672.541 345.391 672.674 344.881 672.948 344.445C673.221 344.009 673.622 343.667 674.095 343.465C674.995 343.175 675.755 343.805 675.805 344.865Z" fill="#263238"/>
<path d="M668.156 345.848L668.416 357.048L673.546 353.838L668.156 345.848Z" fill="#F28F8F"/>
<path d="M661.008 373.217C656.858 373.697 648.328 373.157 647.008 369.617C647.476 371.322 648.541 372.801 650.008 373.787C652.558 375.627 661.008 376.197 661.008 376.197V373.217Z" fill="#F28F8F"/>
</g>
<path d="M636.057 414.12L627.887 409.4H627.797C623.737 407.1 618.167 407.4 611.997 411C606.227 414.33 600.997 419.88 596.997 426.3C592.417 433.7 589.527 442.3 589.527 449.94C589.527 457.09 592.037 462.12 596.087 464.47L604.387 469.21C608.477 471.82 614.257 471.59 620.677 467.88C633.087 460.71 643.157 443.28 643.157 428.95C643.157 421.47 640.427 416.33 636.057 414.12Z" fill="#37474F"/>
<path d="M604.217 469.097L596.087 464.457C592.027 462.107 589.527 457.077 589.527 449.917C589.527 442.247 592.407 433.687 596.997 426.297L605.677 431.297C601.087 438.697 598.207 447.237 598.207 454.907C598.187 461.727 600.497 466.627 604.217 469.097Z" fill="#263238"/>
<path d="M635.89 413.998C631.89 412.058 626.55 412.548 620.68 415.938C614.81 419.328 609.68 424.828 605.68 431.258L597 426.258C601 419.828 606.24 414.258 612 410.958C618.17 407.398 623.74 407.058 627.8 409.348H627.89L635.89 413.998Z" fill="#455A64"/>
<path d="M630.43 433.267L622.94 437.597V425.597C622.94 423.667 621.94 422.697 620.68 423.417C619.42 424.137 618.42 426.277 618.42 428.207V440.207L610.92 444.537C610.299 445.03 609.801 445.659 609.463 446.375C609.125 447.091 608.956 447.875 608.97 448.667C608.97 450.327 609.85 451.167 610.92 450.537L618.42 446.217V458.217C618.42 460.147 619.42 461.117 620.68 460.397C621.94 459.677 622.94 457.527 622.94 455.607V443.607L630.43 439.277C631.051 438.786 631.551 438.158 631.889 437.441C632.228 436.725 632.396 435.94 632.38 435.147C632.38 433.487 631.5 432.647 630.43 433.267Z" fill="#F5F5F5"/>
<path d="M293.86 567.718C293.86 566.494 294.136 565.396 294.688 564.424C295.24 563.44 295.99 562.672 296.938 562.12C297.898 561.568 298.96 561.292 300.124 561.292C301.492 561.292 302.686 561.622 303.706 562.282C304.726 562.942 305.47 563.878 305.938 565.09H303.976C303.628 564.334 303.124 563.752 302.464 563.344C301.816 562.936 301.036 562.732 300.124 562.732C299.248 562.732 298.462 562.936 297.766 563.344C297.07 563.752 296.524 564.334 296.128 565.09C295.732 565.834 295.534 566.71 295.534 567.718C295.534 568.714 295.732 569.59 296.128 570.346C296.524 571.09 297.07 571.666 297.766 572.074C298.462 572.482 299.248 572.686 300.124 572.686C301.036 572.686 301.816 572.488 302.464 572.092C303.124 571.684 303.628 571.102 303.976 570.346H305.938C305.47 571.546 304.726 572.476 303.706 573.136C302.686 573.784 301.492 574.108 300.124 574.108C298.96 574.108 297.898 573.838 296.938 573.298C295.99 572.746 295.24 571.984 294.688 571.012C294.136 570.04 293.86 568.942 293.86 567.718ZM310.014 560.68V574H308.376V560.68H310.014ZM313.652 562.534C313.34 562.534 313.076 562.426 312.86 562.21C312.644 561.994 312.536 561.73 312.536 561.418C312.536 561.106 312.644 560.842 312.86 560.626C313.076 560.41 313.34 560.302 313.652 560.302C313.952 560.302 314.204 560.41 314.408 560.626C314.624 560.842 314.732 561.106 314.732 561.418C314.732 561.73 314.624 561.994 314.408 562.21C314.204 562.426 313.952 562.534 313.652 562.534ZM314.444 564.136V574H312.806V564.136H314.444ZM316.624 569.05C316.624 568.03 316.828 567.142 317.236 566.386C317.644 565.618 318.208 565.024 318.928 564.604C319.66 564.184 320.494 563.974 321.43 563.974C322.642 563.974 323.638 564.268 324.418 564.856C325.21 565.444 325.732 566.26 325.984 567.304H324.22C324.052 566.704 323.722 566.23 323.23 565.882C322.75 565.534 322.15 565.36 321.43 565.36C320.494 565.36 319.738 565.684 319.162 566.332C318.586 566.968 318.298 567.874 318.298 569.05C318.298 570.238 318.586 571.156 319.162 571.804C319.738 572.452 320.494 572.776 321.43 572.776C322.15 572.776 322.75 572.608 323.23 572.272C323.71 571.936 324.04 571.456 324.22 570.832H325.984C325.72 571.84 325.192 572.65 324.4 573.262C323.608 573.862 322.618 574.162 321.43 574.162C320.494 574.162 319.66 573.952 318.928 573.532C318.208 573.112 317.644 572.518 317.236 571.75C316.828 570.982 316.624 570.082 316.624 569.05ZM333.677 574L329.807 569.644V574H328.169V560.68H329.807V568.51L333.605 564.136H335.891L331.247 569.05L335.909 574H333.677ZM346.534 574.162C345.61 574.162 344.77 573.952 344.014 573.532C343.27 573.112 342.682 572.518 342.25 571.75C341.83 570.97 341.62 570.07 341.62 569.05C341.62 568.042 341.836 567.154 342.268 566.386C342.712 565.606 343.312 565.012 344.068 564.604C344.824 564.184 345.67 563.974 346.606 563.974C347.542 563.974 348.388 564.184 349.144 564.604C349.9 565.012 350.494 565.6 350.926 566.368C351.37 567.136 351.592 568.03 351.592 569.05C351.592 570.07 351.364 570.97 350.908 571.75C350.464 572.518 349.858 573.112 349.09 573.532C348.322 573.952 347.47 574.162 346.534 574.162ZM346.534 572.722C347.122 572.722 347.674 572.584 348.19 572.308C348.706 572.032 349.12 571.618 349.432 571.066C349.756 570.514 349.918 569.842 349.918 569.05C349.918 568.258 349.762 567.586 349.45 567.034C349.138 566.482 348.73 566.074 348.226 565.81C347.722 565.534 347.176 565.396 346.588 565.396C345.988 565.396 345.436 565.534 344.932 565.81C344.44 566.074 344.044 566.482 343.744 567.034C343.444 567.586 343.294 568.258 343.294 569.05C343.294 569.854 343.438 570.532 343.726 571.084C344.026 571.636 344.422 572.05 344.914 572.326C345.406 572.59 345.946 572.722 346.534 572.722ZM358.551 563.956C359.751 563.956 360.723 564.322 361.467 565.054C362.211 565.774 362.583 566.818 362.583 568.186V574H360.963V568.42C360.963 567.436 360.717 566.686 360.225 566.17C359.733 565.642 359.061 565.378 358.209 565.378C357.345 565.378 356.655 565.648 356.139 566.188C355.635 566.728 355.383 567.514 355.383 568.546V574H353.745V564.136H355.383V565.54C355.707 565.036 356.145 564.646 356.697 564.37C357.261 564.094 357.879 563.956 358.551 563.956ZM372.056 565.486V571.3C372.056 571.78 372.158 572.122 372.362 572.326C372.566 572.518 372.92 572.614 373.424 572.614H374.63V574H373.154C372.242 574 371.558 573.79 371.102 573.37C370.646 572.95 370.418 572.26 370.418 571.3V565.486H369.14V564.136H370.418V561.652H372.056V564.136H374.63V565.486H372.056ZM381.511 563.956C382.255 563.956 382.927 564.118 383.527 564.442C384.127 564.754 384.595 565.228 384.931 565.864C385.279 566.5 385.453 567.274 385.453 568.186V574H383.833V568.42C383.833 567.436 383.587 566.686 383.095 566.17C382.603 565.642 381.931 565.378 381.079 565.378C380.215 565.378 379.525 565.648 379.009 566.188C378.505 566.728 378.253 567.514 378.253 568.546V574H376.615V560.68H378.253V565.54C378.577 565.036 379.021 564.646 379.585 564.37C380.161 564.094 380.803 563.956 381.511 563.956ZM397.128 568.69C397.128 569.002 397.11 569.332 397.074 569.68H389.19C389.25 570.652 389.58 571.414 390.18 571.966C390.792 572.506 391.53 572.776 392.394 572.776C393.102 572.776 393.69 572.614 394.158 572.29C394.638 571.954 394.974 571.51 395.166 570.958H396.93C396.666 571.906 396.138 572.68 395.346 573.28C394.554 573.868 393.57 574.162 392.394 574.162C391.458 574.162 390.618 573.952 389.874 573.532C389.142 573.112 388.566 572.518 388.146 571.75C387.726 570.97 387.516 570.07 387.516 569.05C387.516 568.03 387.72 567.136 388.128 566.368C388.536 565.6 389.106 565.012 389.838 564.604C390.582 564.184 391.434 563.974 392.394 563.974C393.33 563.974 394.158 564.178 394.878 564.586C395.598 564.994 396.15 565.558 396.534 566.278C396.93 566.986 397.128 567.79 397.128 568.69ZM395.436 568.348C395.436 567.724 395.298 567.19 395.022 566.746C394.746 566.29 394.368 565.948 393.888 565.72C393.42 565.48 392.898 565.36 392.322 565.36C391.494 565.36 390.786 565.624 390.198 566.152C389.622 566.68 389.292 567.412 389.208 568.348H395.436ZM403.477 569.032C403.477 568.024 403.681 567.142 404.089 566.386C404.497 565.618 405.055 565.024 405.763 564.604C406.483 564.184 407.281 563.974 408.157 563.974C409.021 563.974 409.771 564.16 410.407 564.532C411.043 564.904 411.517 565.372 411.829 565.936V564.136H413.485V574H411.829V572.164C411.505 572.74 411.019 573.22 410.371 573.604C409.735 573.976 408.991 574.162 408.139 574.162C407.263 574.162 406.471 573.946 405.763 573.514C405.055 573.082 404.497 572.476 404.089 571.696C403.681 570.916 403.477 570.028 403.477 569.032ZM411.829 569.05C411.829 568.306 411.679 567.658 411.379 567.106C411.079 566.554 410.671 566.134 410.155 565.846C409.651 565.546 409.093 565.396 408.481 565.396C407.869 565.396 407.311 565.54 406.807 565.828C406.303 566.116 405.901 566.536 405.601 567.088C405.301 567.64 405.151 568.288 405.151 569.032C405.151 569.788 405.301 570.448 405.601 571.012C405.901 571.564 406.303 571.99 406.807 572.29C407.311 572.578 407.869 572.722 408.481 572.722C409.093 572.722 409.651 572.578 410.155 572.29C410.671 571.99 411.079 571.564 411.379 571.012C411.679 570.448 411.829 569.794 411.829 569.05ZM415.641 569.032C415.641 568.024 415.845 567.142 416.253 566.386C416.661 565.618 417.219 565.024 417.927 564.604C418.647 564.184 419.451 563.974 420.339 563.974C421.107 563.974 421.821 564.154 422.481 564.514C423.141 564.862 423.645 565.324 423.993 565.9V560.68H425.649V574H423.993V572.146C423.669 572.734 423.189 573.22 422.553 573.604C421.917 573.976 421.173 574.162 420.321 574.162C419.445 574.162 418.647 573.946 417.927 573.514C417.219 573.082 416.661 572.476 416.253 571.696C415.845 570.916 415.641 570.028 415.641 569.032ZM423.993 569.05C423.993 568.306 423.843 567.658 423.543 567.106C423.243 566.554 422.835 566.134 422.319 565.846C421.815 565.546 421.257 565.396 420.645 565.396C420.033 565.396 419.475 565.54 418.971 565.828C418.467 566.116 418.065 566.536 417.765 567.088C417.465 567.64 417.315 568.288 417.315 569.032C417.315 569.788 417.465 570.448 417.765 571.012C418.065 571.564 418.467 571.99 418.971 572.29C419.475 572.578 420.033 572.722 420.645 572.722C421.257 572.722 421.815 572.578 422.319 572.29C422.835 571.99 423.243 571.564 423.543 571.012C423.843 570.448 423.993 569.794 423.993 569.05ZM427.805 569.032C427.805 568.024 428.009 567.142 428.417 566.386C428.825 565.618 429.383 565.024 430.091 564.604C430.811 564.184 431.615 563.974 432.503 563.974C433.271 563.974 433.985 564.154 434.645 564.514C435.305 564.862 435.809 565.324 436.157 565.9V560.68H437.813V574H436.157V572.146C435.833 572.734 435.353 573.22 434.717 573.604C434.081 573.976 433.337 574.162 432.485 574.162C431.609 574.162 430.811 573.946 430.091 573.514C429.383 573.082 428.825 572.476 428.417 571.696C428.009 570.916 427.805 570.028 427.805 569.032ZM436.157 569.05C436.157 568.306 436.007 567.658 435.707 567.106C435.407 566.554 434.999 566.134 434.483 565.846C433.979 565.546 433.421 565.396 432.809 565.396C432.197 565.396 431.639 565.54 431.135 565.828C430.631 566.116 430.229 566.536 429.929 567.088C429.629 567.64 429.479 568.288 429.479 569.032C429.479 569.788 429.629 570.448 429.929 571.012C430.229 571.564 430.631 571.99 431.135 572.29C431.639 572.578 432.197 572.722 432.809 572.722C433.421 572.722 433.979 572.578 434.483 572.29C434.999 571.99 435.407 571.564 435.707 571.012C436.007 570.448 436.157 569.794 436.157 569.05ZM447.018 565.972C447.354 565.384 447.846 564.904 448.494 564.532C449.142 564.16 449.88 563.974 450.708 563.974C451.596 563.974 452.394 564.184 453.102 564.604C453.81 565.024 454.368 565.618 454.776 566.386C455.184 567.142 455.388 568.024 455.388 569.032C455.388 570.028 455.184 570.916 454.776 571.696C454.368 572.476 453.804 573.082 453.084 573.514C452.376 573.946 451.584 574.162 450.708 574.162C449.856 574.162 449.106 573.976 448.458 573.604C447.822 573.232 447.342 572.758 447.018 572.182V574H445.38V560.68H447.018V565.972ZM453.714 569.032C453.714 568.288 453.564 567.64 453.264 567.088C452.964 566.536 452.556 566.116 452.04 565.828C451.536 565.54 450.978 565.396 450.366 565.396C449.766 565.396 449.208 565.546 448.692 565.846C448.188 566.134 447.78 566.56 447.468 567.124C447.168 567.676 447.018 568.318 447.018 569.05C447.018 569.794 447.168 570.448 447.468 571.012C447.78 571.564 448.188 571.99 448.692 572.29C449.208 572.578 449.766 572.722 450.366 572.722C450.978 572.722 451.536 572.578 452.04 572.29C452.556 571.99 452.964 571.564 453.264 571.012C453.564 570.448 453.714 569.788 453.714 569.032ZM466.292 564.136V574H464.654V572.542C464.342 573.046 463.904 573.442 463.34 573.73C462.788 574.006 462.176 574.144 461.504 574.144C460.736 574.144 460.046 573.988 459.434 573.676C458.822 573.352 458.336 572.872 457.976 572.236C457.628 571.6 457.454 570.826 457.454 569.914V564.136H459.074V569.698C459.074 570.67 459.32 571.42 459.812 571.948C460.304 572.464 460.976 572.722 461.828 572.722C462.704 572.722 463.394 572.452 463.898 571.912C464.402 571.372 464.654 570.586 464.654 569.554V564.136H466.292ZM471.056 565.486V571.3C471.056 571.78 471.158 572.122 471.362 572.326C471.566 572.518 471.92 572.614 472.424 572.614H473.63V574H472.154C471.242 574 470.558 573.79 470.102 573.37C469.646 572.95 469.418 572.26 469.418 571.3V565.486H468.14V564.136H469.418V561.652H471.056V564.136H473.63V565.486H471.056ZM477.613 565.486V571.3C477.613 571.78 477.715 572.122 477.919 572.326C478.123 572.518 478.477 572.614 478.981 572.614H480.187V574H478.711C477.799 574 477.115 573.79 476.659 573.37C476.203 572.95 475.975 572.26 475.975 571.3V565.486H474.697V564.136H475.975V561.652H477.613V564.136H480.187V565.486H477.613ZM486.473 574.162C485.549 574.162 484.709 573.952 483.953 573.532C483.209 573.112 482.621 572.518 482.189 571.75C481.769 570.97 481.559 570.07 481.559 569.05C481.559 568.042 481.775 567.154 482.207 566.386C482.651 565.606 483.251 565.012 484.007 564.604C484.763 564.184 485.609 563.974 486.545 563.974C487.481 563.974 488.327 564.184 489.083 564.604C489.839 565.012 490.433 565.6 490.865 566.368C491.309 567.136 491.531 568.03 491.531 569.05C491.531 570.07 491.303 570.97 490.847 571.75C490.403 572.518 489.797 573.112 489.029 573.532C488.261 573.952 487.409 574.162 486.473 574.162ZM486.473 572.722C487.061 572.722 487.613 572.584 488.129 572.308C488.645 572.032 489.059 571.618 489.371 571.066C489.695 570.514 489.857 569.842 489.857 569.05C489.857 568.258 489.701 567.586 489.389 567.034C489.077 566.482 488.669 566.074 488.165 565.81C487.661 565.534 487.115 565.396 486.527 565.396C485.927 565.396 485.375 565.534 484.871 565.81C484.379 566.074 483.983 566.482 483.683 567.034C483.383 567.586 483.233 568.258 483.233 569.05C483.233 569.854 483.377 570.532 483.665 571.084C483.965 571.636 484.361 572.05 484.853 572.326C485.345 572.59 485.885 572.722 486.473 572.722ZM498.491 563.956C499.691 563.956 500.663 564.322 501.407 565.054C502.151 565.774 502.523 566.818 502.523 568.186V574H500.903V568.42C500.903 567.436 500.657 566.686 500.165 566.17C499.673 565.642 499.001 565.378 498.149 565.378C497.285 565.378 496.595 565.648 496.079 566.188C495.575 566.728 495.323 567.514 495.323 568.546V574H493.685V564.136H495.323V565.54C495.647 565.036 496.085 564.646 496.637 564.37C497.201 564.094 497.819 563.956 498.491 563.956ZM511.995 565.486V571.3C511.995 571.78 512.097 572.122 512.301 572.326C512.505 572.518 512.859 572.614 513.363 572.614H514.569V574H513.093C512.181 574 511.497 573.79 511.041 573.37C510.585 572.95 510.357 572.26 510.357 571.3V565.486H509.079V564.136H510.357V561.652H511.995V564.136H514.569V565.486H511.995ZM520.856 574.162C519.932 574.162 519.092 573.952 518.336 573.532C517.592 573.112 517.004 572.518 516.572 571.75C516.152 570.97 515.942 570.07 515.942 569.05C515.942 568.042 516.158 567.154 516.59 566.386C517.034 565.606 517.634 565.012 518.39 564.604C519.146 564.184 519.992 563.974 520.928 563.974C521.864 563.974 522.71 564.184 523.466 564.604C524.222 565.012 524.816 565.6 525.248 566.368C525.692 567.136 525.914 568.03 525.914 569.05C525.914 570.07 525.686 570.97 525.23 571.75C524.786 572.518 524.18 573.112 523.412 573.532C522.644 573.952 521.792 574.162 520.856 574.162ZM520.856 572.722C521.444 572.722 521.996 572.584 522.512 572.308C523.028 572.032 523.442 571.618 523.754 571.066C524.078 570.514 524.24 569.842 524.24 569.05C524.24 568.258 524.084 567.586 523.772 567.034C523.46 566.482 523.052 566.074 522.548 565.81C522.044 565.534 521.498 565.396 520.91 565.396C520.31 565.396 519.758 565.534 519.254 565.81C518.762 566.074 518.366 566.482 518.066 567.034C517.766 567.586 517.616 568.258 517.616 569.05C517.616 569.854 517.76 570.532 518.048 571.084C518.348 571.636 518.744 572.05 519.236 572.326C519.728 572.59 520.268 572.722 520.856 572.722ZM536.358 574.162C535.602 574.162 534.924 574.036 534.324 573.784C533.724 573.52 533.25 573.16 532.902 572.704C532.554 572.236 532.362 571.702 532.326 571.102H534.018C534.066 571.594 534.294 571.996 534.702 572.308C535.122 572.62 535.668 572.776 536.34 572.776C536.964 572.776 537.456 572.638 537.816 572.362C538.176 572.086 538.356 571.738 538.356 571.318C538.356 570.886 538.164 570.568 537.78 570.364C537.396 570.148 536.802 569.938 535.998 569.734C535.266 569.542 534.666 569.35 534.198 569.158C533.742 568.954 533.346 568.66 533.01 568.276C532.686 567.88 532.524 567.364 532.524 566.728C532.524 566.224 532.674 565.762 532.974 565.342C533.274 564.922 533.7 564.592 534.252 564.352C534.804 564.1 535.434 563.974 536.142 563.974C537.234 563.974 538.116 564.25 538.788 564.802C539.46 565.354 539.82 566.11 539.868 567.07H538.23C538.194 566.554 537.984 566.14 537.6 565.828C537.228 565.516 536.724 565.36 536.088 565.36C535.5 565.36 535.032 565.486 534.684 565.738C534.336 565.99 534.162 566.32 534.162 566.728C534.162 567.052 534.264 567.322 534.468 567.538C534.684 567.742 534.948 567.91 535.26 568.042C535.584 568.162 536.028 568.3 536.592 568.456C537.3 568.648 537.876 568.84 538.32 569.032C538.764 569.212 539.142 569.488 539.454 569.86C539.778 570.232 539.946 570.718 539.958 571.318C539.958 571.858 539.808 572.344 539.508 572.776C539.208 573.208 538.782 573.55 538.23 573.802C537.69 574.042 537.066 574.162 536.358 574.162ZM544.269 565.486V571.3C544.269 571.78 544.371 572.122 544.575 572.326C544.779 572.518 545.133 572.614 545.637 572.614H546.843V574H545.367C544.455 574 543.771 573.79 543.315 573.37C542.859 572.95 542.631 572.26 542.631 571.3V565.486H541.353V564.136H542.631V561.652H544.269V564.136H546.843V565.486H544.269ZM548.215 569.032C548.215 568.024 548.419 567.142 548.827 566.386C549.235 565.618 549.793 565.024 550.501 564.604C551.221 564.184 552.019 563.974 552.895 563.974C553.759 563.974 554.509 564.16 555.145 564.532C555.781 564.904 556.255 565.372 556.567 565.936V564.136H558.223V574H556.567V572.164C556.243 572.74 555.757 573.22 555.109 573.604C554.473 573.976 553.729 574.162 552.877 574.162C552.001 574.162 551.209 573.946 550.501 573.514C549.793 573.082 549.235 572.476 548.827 571.696C548.419 570.916 548.215 570.028 548.215 569.032ZM556.567 569.05C556.567 568.306 556.417 567.658 556.117 567.106C555.817 566.554 555.409 566.134 554.893 565.846C554.389 565.546 553.831 565.396 553.219 565.396C552.607 565.396 552.049 565.54 551.545 565.828C551.041 566.116 550.639 566.536 550.339 567.088C550.039 567.64 549.889 568.288 549.889 569.032C549.889 569.788 550.039 570.448 550.339 571.012C550.639 571.564 551.041 571.99 551.545 572.29C552.049 572.578 552.607 572.722 553.219 572.722C553.831 572.722 554.389 572.578 554.893 572.29C555.409 571.99 555.817 571.564 556.117 571.012C556.417 570.448 556.567 569.794 556.567 569.05ZM562.629 565.738C562.917 565.174 563.325 564.736 563.853 564.424C564.393 564.112 565.047 563.956 565.815 563.956V565.648H565.383C563.547 565.648 562.629 566.644 562.629 568.636V574H560.991V564.136H562.629V565.738ZM569.704 565.486V571.3C569.704 571.78 569.806 572.122 570.01 572.326C570.214 572.518 570.568 572.614 571.072 572.614H572.278V574H570.802C569.89 574 569.206 573.79 568.75 573.37C568.294 572.95 568.066 572.26 568.066 571.3V565.486H566.788V564.136H568.066V561.652H569.704V564.136H572.278V565.486H569.704ZM578.45 569.032C578.45 568.024 578.654 567.142 579.062 566.386C579.47 565.618 580.028 565.024 580.736 564.604C581.456 564.184 582.254 563.974 583.13 563.974C583.994 563.974 584.744 564.16 585.38 564.532C586.016 564.904 586.49 565.372 586.802 565.936V564.136H588.458V574H586.802V572.164C586.478 572.74 585.992 573.22 585.344 573.604C584.708 573.976 583.964 574.162 583.112 574.162C582.236 574.162 581.444 573.946 580.736 573.514C580.028 573.082 579.47 572.476 579.062 571.696C578.654 570.916 578.45 570.028 578.45 569.032ZM586.802 569.05C586.802 568.306 586.652 567.658 586.352 567.106C586.052 566.554 585.644 566.134 585.128 565.846C584.624 565.546 584.066 565.396 583.454 565.396C582.842 565.396 582.284 565.54 581.78 565.828C581.276 566.116 580.874 566.536 580.574 567.088C580.274 567.64 580.124 568.288 580.124 569.032C580.124 569.788 580.274 570.448 580.574 571.012C580.874 571.564 581.276 571.99 581.78 572.29C582.284 572.578 582.842 572.722 583.454 572.722C584.066 572.722 584.624 572.578 585.128 572.29C585.644 571.99 586.052 571.564 586.352 571.012C586.652 570.448 586.802 569.794 586.802 569.05ZM590.614 569.032C590.614 568.024 590.818 567.142 591.226 566.386C591.634 565.618 592.192 565.024 592.9 564.604C593.62 564.184 594.424 563.974 595.312 563.974C596.08 563.974 596.794 564.154 597.454 564.514C598.114 564.862 598.618 565.324 598.966 565.9V560.68H600.622V574H598.966V572.146C598.642 572.734 598.162 573.22 597.526 573.604C596.89 573.976 596.146 574.162 595.294 574.162C594.418 574.162 593.62 573.946 592.9 573.514C592.192 573.082 591.634 572.476 591.226 571.696C590.818 570.916 590.614 570.028 590.614 569.032ZM598.966 569.05C598.966 568.306 598.816 567.658 598.516 567.106C598.216 566.554 597.808 566.134 597.292 565.846C596.788 565.546 596.23 565.396 595.618 565.396C595.006 565.396 594.448 565.54 593.944 565.828C593.44 566.116 593.038 566.536 592.738 567.088C592.438 567.64 592.288 568.288 592.288 569.032C592.288 569.788 592.438 570.448 592.738 571.012C593.038 571.564 593.44 571.99 593.944 572.29C594.448 572.578 595.006 572.722 595.618 572.722C596.23 572.722 596.788 572.578 597.292 572.29C597.808 571.99 598.216 571.564 598.516 571.012C598.816 570.448 598.966 569.794 598.966 569.05ZM602.778 569.032C602.778 568.024 602.982 567.142 603.39 566.386C603.798 565.618 604.356 565.024 605.064 564.604C605.784 564.184 606.588 563.974 607.476 563.974C608.244 563.974 608.958 564.154 609.618 564.514C610.278 564.862 610.782 565.324 611.13 565.9V560.68H612.786V574H611.13V572.146C610.806 572.734 610.326 573.22 609.69 573.604C609.054 573.976 608.31 574.162 607.458 574.162C606.582 574.162 605.784 573.946 605.064 573.514C604.356 573.082 603.798 572.476 603.39 571.696C602.982 570.916 602.778 570.028 602.778 569.032ZM611.13 569.05C611.13 568.306 610.98 567.658 610.68 567.106C610.38 566.554 609.972 566.134 609.456 565.846C608.952 565.546 608.394 565.396 607.782 565.396C607.17 565.396 606.612 565.54 606.108 565.828C605.604 566.116 605.202 566.536 604.902 567.088C604.602 567.64 604.452 568.288 604.452 569.032C604.452 569.788 604.602 570.448 604.902 571.012C605.202 571.564 605.604 571.99 606.108 572.29C606.612 572.578 607.17 572.722 607.782 572.722C608.394 572.722 608.952 572.578 609.456 572.29C609.972 571.99 610.38 571.564 610.68 571.012C610.98 570.448 611.13 569.794 611.13 569.05ZM616.4 562.534C616.088 562.534 615.824 562.426 615.608 562.21C615.392 561.994 615.284 561.73 615.284 561.418C615.284 561.106 615.392 560.842 615.608 560.626C615.824 560.41 616.088 560.302 616.4 560.302C616.7 560.302 616.952 560.41 617.156 560.626C617.372 560.842 617.48 561.106 617.48 561.418C617.48 561.73 617.372 561.994 617.156 562.21C616.952 562.426 616.7 562.534 616.4 562.534ZM617.192 564.136V574H615.554V564.136H617.192ZM624.79 563.956C625.99 563.956 626.962 564.322 627.706 565.054C628.45 565.774 628.822 566.818 628.822 568.186V574H627.202V568.42C627.202 567.436 626.956 566.686 626.464 566.17C625.972 565.642 625.3 565.378 624.448 565.378C623.584 565.378 622.894 565.648 622.378 566.188C621.874 566.728 621.622 567.514 621.622 568.546V574H619.984V564.136H621.622V565.54C621.946 565.036 622.384 564.646 622.936 564.37C623.5 564.094 624.118 563.956 624.79 563.956ZM635.565 563.974C636.417 563.974 637.161 564.16 637.797 564.532C638.445 564.904 638.925 565.372 639.237 565.936V564.136H640.893V574.216C640.893 575.116 640.701 575.914 640.317 576.61C639.933 577.318 639.381 577.87 638.661 578.266C637.953 578.662 637.125 578.86 636.177 578.86C634.881 578.86 633.801 578.554 632.937 577.942C632.073 577.33 631.563 576.496 631.407 575.44H633.027C633.207 576.04 633.579 576.52 634.143 576.88C634.707 577.252 635.385 577.438 636.177 577.438C637.077 577.438 637.809 577.156 638.373 576.592C638.949 576.028 639.237 575.236 639.237 574.216V572.146C638.913 572.722 638.433 573.202 637.797 573.586C637.161 573.97 636.417 574.162 635.565 574.162C634.689 574.162 633.891 573.946 633.171 573.514C632.463 573.082 631.905 572.476 631.497 571.696C631.089 570.916 630.885 570.028 630.885 569.032C630.885 568.024 631.089 567.142 631.497 566.386C631.905 565.618 632.463 565.024 633.171 564.604C633.891 564.184 634.689 563.974 635.565 563.974ZM639.237 569.05C639.237 568.306 639.087 567.658 638.787 567.106C638.487 566.554 638.079 566.134 637.563 565.846C637.059 565.546 636.501 565.396 635.889 565.396C635.277 565.396 634.719 565.54 634.215 565.828C633.711 566.116 633.309 566.536 633.009 567.088C632.709 567.64 632.559 568.288 632.559 569.032C632.559 569.788 632.709 570.448 633.009 571.012C633.309 571.564 633.711 571.99 634.215 572.29C634.719 572.578 635.277 572.722 635.889 572.722C636.501 572.722 637.059 572.578 637.563 572.29C638.079 571.99 638.487 571.564 638.787 571.012C639.087 570.448 639.237 569.794 639.237 569.05ZM657.208 564.136V574H655.57V572.542C655.258 573.046 654.82 573.442 654.256 573.73C653.704 574.006 653.092 574.144 652.42 574.144C651.652 574.144 650.962 573.988 650.35 573.676C649.738 573.352 649.252 572.872 648.892 572.236C648.544 571.6 648.37 570.826 648.37 569.914V564.136H649.99V569.698C649.99 570.67 650.236 571.42 650.728 571.948C651.22 572.464 651.892 572.722 652.744 572.722C653.62 572.722 654.31 572.452 654.814 571.912C655.318 571.372 655.57 570.586 655.57 569.554V564.136H657.208ZM663.466 574.162C662.71 574.162 662.032 574.036 661.432 573.784C660.832 573.52 660.358 573.16 660.01 572.704C659.662 572.236 659.47 571.702 659.434 571.102H661.126C661.174 571.594 661.402 571.996 661.81 572.308C662.23 572.62 662.776 572.776 663.448 572.776C664.072 572.776 664.564 572.638 664.924 572.362C665.284 572.086 665.464 571.738 665.464 571.318C665.464 570.886 665.272 570.568 664.888 570.364C664.504 570.148 663.91 569.938 663.106 569.734C662.374 569.542 661.774 569.35 661.306 569.158C660.85 568.954 660.454 568.66 660.118 568.276C659.794 567.88 659.632 567.364 659.632 566.728C659.632 566.224 659.782 565.762 660.082 565.342C660.382 564.922 660.808 564.592 661.36 564.352C661.912 564.1 662.542 563.974 663.25 563.974C664.342 563.974 665.224 564.25 665.896 564.802C666.568 565.354 666.928 566.11 666.976 567.07H665.338C665.302 566.554 665.092 566.14 664.708 565.828C664.336 565.516 663.832 565.36 663.196 565.36C662.608 565.36 662.14 565.486 661.792 565.738C661.444 565.99 661.27 566.32 661.27 566.728C661.27 567.052 661.372 567.322 661.576 567.538C661.792 567.742 662.056 567.91 662.368 568.042C662.692 568.162 663.136 568.3 663.7 568.456C664.408 568.648 664.984 568.84 665.428 569.032C665.872 569.212 666.25 569.488 666.562 569.86C666.886 570.232 667.054 570.718 667.066 571.318C667.066 571.858 666.916 572.344 666.616 572.776C666.316 573.208 665.89 573.55 665.338 573.802C664.798 574.042 664.174 574.162 663.466 574.162ZM678.378 568.69C678.378 569.002 678.36 569.332 678.324 569.68H670.44C670.5 570.652 670.83 571.414 671.43 571.966C672.042 572.506 672.78 572.776 673.644 572.776C674.352 572.776 674.94 572.614 675.408 572.29C675.888 571.954 676.224 571.51 676.416 570.958H678.18C677.916 571.906 677.388 572.68 676.596 573.28C675.804 573.868 674.82 574.162 673.644 574.162C672.708 574.162 671.868 573.952 671.124 573.532C670.392 573.112 669.816 572.518 669.396 571.75C668.976 570.97 668.766 570.07 668.766 569.05C668.766 568.03 668.97 567.136 669.378 566.368C669.786 565.6 670.356 565.012 671.088 564.604C671.832 564.184 672.684 563.974 673.644 563.974C674.58 563.974 675.408 564.178 676.128 564.586C676.848 564.994 677.4 565.558 677.784 566.278C678.18 566.986 678.378 567.79 678.378 568.69ZM676.686 568.348C676.686 567.724 676.548 567.19 676.272 566.746C675.996 566.29 675.618 565.948 675.138 565.72C674.67 565.48 674.148 565.36 673.572 565.36C672.744 565.36 672.036 565.624 671.448 566.152C670.872 566.68 670.542 567.412 670.458 568.348H676.686ZM682.178 565.738C682.466 565.174 682.874 564.736 683.402 564.424C683.942 564.112 684.596 563.956 685.364 563.956V565.648H684.932C683.096 565.648 682.178 566.644 682.178 568.636V574H680.54V564.136H682.178V565.738ZM690.747 574.162C689.991 574.162 689.313 574.036 688.713 573.784C688.113 573.52 687.639 573.16 687.291 572.704C686.943 572.236 686.751 571.702 686.715 571.102H688.407C688.455 571.594 688.683 571.996 689.091 572.308C689.511 572.62 690.057 572.776 690.729 572.776C691.353 572.776 691.845 572.638 692.205 572.362C692.565 572.086 692.745 571.738 692.745 571.318C692.745 570.886 692.553 570.568 692.169 570.364C691.785 570.148 691.191 569.938 690.387 569.734C689.655 569.542 689.055 569.35 688.587 569.158C688.131 568.954 687.735 568.66 687.399 568.276C687.075 567.88 686.913 567.364 686.913 566.728C686.913 566.224 687.063 565.762 687.363 565.342C687.663 564.922 688.089 564.592 688.641 564.352C689.193 564.1 689.823 563.974 690.531 563.974C691.623 563.974 692.505 564.25 693.177 564.802C693.849 565.354 694.209 566.11 694.257 567.07H692.619C692.583 566.554 692.373 566.14 691.989 565.828C691.617 565.516 691.113 565.36 690.477 565.36C689.889 565.36 689.421 565.486 689.073 565.738C688.725 565.99 688.551 566.32 688.551 566.728C688.551 567.052 688.653 567.322 688.857 567.538C689.073 567.742 689.337 567.91 689.649 568.042C689.973 568.162 690.417 568.3 690.981 568.456C691.689 568.648 692.265 568.84 692.709 569.032C693.153 569.212 693.531 569.488 693.843 569.86C694.167 570.232 694.335 570.718 694.347 571.318C694.347 571.858 694.197 572.344 693.897 572.776C693.597 573.208 693.171 573.55 692.619 573.802C692.079 574.042 691.455 574.162 690.747 574.162ZM700.846 569.032C700.846 568.024 701.05 567.142 701.458 566.386C701.866 565.618 702.424 565.024 703.132 564.604C703.852 564.184 704.65 563.974 705.526 563.974C706.39 563.974 707.14 564.16 707.776 564.532C708.412 564.904 708.886 565.372 709.198 565.936V564.136H710.854V574H709.198V572.164C708.874 572.74 708.388 573.22 707.74 573.604C707.104 573.976 706.36 574.162 705.508 574.162C704.632 574.162 703.84 573.946 703.132 573.514C702.424 573.082 701.866 572.476 701.458 571.696C701.05 570.916 700.846 570.028 700.846 569.032ZM709.198 569.05C709.198 568.306 709.048 567.658 708.748 567.106C708.448 566.554 708.04 566.134 707.524 565.846C707.02 565.546 706.462 565.396 705.85 565.396C705.238 565.396 704.68 565.54 704.176 565.828C703.672 566.116 703.27 566.536 702.97 567.088C702.67 567.64 702.52 568.288 702.52 569.032C702.52 569.788 702.67 570.448 702.97 571.012C703.27 571.564 703.672 571.99 704.176 572.29C704.68 572.578 705.238 572.722 705.85 572.722C706.462 572.722 707.02 572.578 707.524 572.29C708.04 571.99 708.448 571.564 708.748 571.012C709.048 570.448 709.198 569.794 709.198 569.05ZM718.428 563.956C719.628 563.956 720.6 564.322 721.344 565.054C722.088 565.774 722.46 566.818 722.46 568.186V574H720.84V568.42C720.84 567.436 720.594 566.686 720.102 566.17C719.61 565.642 718.938 565.378 718.086 565.378C717.222 565.378 716.532 565.648 716.016 566.188C715.512 566.728 715.26 567.514 715.26 568.546V574H713.622V564.136H715.26V565.54C715.584 565.036 716.022 564.646 716.574 564.37C717.138 564.094 717.756 563.956 718.428 563.956ZM724.524 569.032C724.524 568.024 724.728 567.142 725.136 566.386C725.544 565.618 726.102 565.024 726.81 564.604C727.53 564.184 728.334 563.974 729.222 563.974C729.99 563.974 730.704 564.154 731.364 564.514C732.024 564.862 732.528 565.324 732.876 565.9V560.68H734.532V574H732.876V572.146C732.552 572.734 732.072 573.22 731.436 573.604C730.8 573.976 730.056 574.162 729.204 574.162C728.328 574.162 727.53 573.946 726.81 573.514C726.102 573.082 725.544 572.476 725.136 571.696C724.728 570.916 724.524 570.028 724.524 569.032ZM732.876 569.05C732.876 568.306 732.726 567.658 732.426 567.106C732.126 566.554 731.718 566.134 731.202 565.846C730.698 565.546 730.14 565.396 729.528 565.396C728.916 565.396 728.358 565.54 727.854 565.828C727.35 566.116 726.948 566.536 726.648 567.088C726.348 567.64 726.198 568.288 726.198 569.032C726.198 569.788 726.348 570.448 726.648 571.012C726.948 571.564 727.35 571.99 727.854 572.29C728.358 572.578 728.916 572.722 729.528 572.722C730.14 572.722 730.698 572.578 731.202 572.29C731.718 571.99 732.126 571.564 732.426 571.012C732.726 570.448 732.876 569.794 732.876 569.05ZM472.128 596.05C472.128 595.03 472.332 594.142 472.74 593.386C473.148 592.618 473.712 592.024 474.432 591.604C475.164 591.184 475.998 590.974 476.934 590.974C478.146 590.974 479.142 591.268 479.922 591.856C480.714 592.444 481.236 593.26 481.488 594.304H479.724C479.556 593.704 479.226 593.23 478.734 592.882C478.254 592.534 477.654 592.36 476.934 592.36C475.998 592.36 475.242 592.684 474.666 593.332C474.09 593.968 473.802 594.874 473.802 596.05C473.802 597.238 474.09 598.156 474.666 598.804C475.242 599.452 475.998 599.776 476.934 599.776C477.654 599.776 478.254 599.608 478.734 599.272C479.214 598.936 479.544 598.456 479.724 597.832H481.488C481.224 598.84 480.696 599.65 479.904 600.262C479.112 600.862 478.122 601.162 476.934 601.162C475.998 601.162 475.164 600.952 474.432 600.532C473.712 600.112 473.148 599.518 472.74 598.75C472.332 597.982 472.128 597.082 472.128 596.05ZM487.976 601.162C487.052 601.162 486.212 600.952 485.456 600.532C484.712 600.112 484.124 599.518 483.692 598.75C483.272 597.97 483.062 597.07 483.062 596.05C483.062 595.042 483.278 594.154 483.71 593.386C484.154 592.606 484.754 592.012 485.51 591.604C486.266 591.184 487.112 590.974 488.048 590.974C488.984 590.974 489.83 591.184 490.586 591.604C491.342 592.012 491.936 592.6 492.368 593.368C492.812 594.136 493.034 595.03 493.034 596.05C493.034 597.07 492.806 597.97 492.35 598.75C491.906 599.518 491.3 600.112 490.532 600.532C489.764 600.952 488.912 601.162 487.976 601.162ZM487.976 599.722C488.564 599.722 489.116 599.584 489.632 599.308C490.148 599.032 490.562 598.618 490.874 598.066C491.198 597.514 491.36 596.842 491.36 596.05C491.36 595.258 491.204 594.586 490.892 594.034C490.58 593.482 490.172 593.074 489.668 592.81C489.164 592.534 488.618 592.396 488.03 592.396C487.43 592.396 486.878 592.534 486.374 592.81C485.882 593.074 485.486 593.482 485.186 594.034C484.886 594.586 484.736 595.258 484.736 596.05C484.736 596.854 484.88 597.532 485.168 598.084C485.468 598.636 485.864 599.05 486.356 599.326C486.848 599.59 487.388 599.722 487.976 599.722ZM499.994 590.956C501.194 590.956 502.166 591.322 502.91 592.054C503.654 592.774 504.026 593.818 504.026 595.186V601H502.406V595.42C502.406 594.436 502.16 593.686 501.668 593.17C501.176 592.642 500.504 592.378 499.652 592.378C498.788 592.378 498.098 592.648 497.582 593.188C497.078 593.728 496.826 594.514 496.826 595.546V601H495.188V591.136H496.826V592.54C497.15 592.036 497.588 591.646 498.14 591.37C498.704 591.094 499.322 590.956 499.994 590.956ZM508.699 592.486V598.3C508.699 598.78 508.801 599.122 509.005 599.326C509.209 599.518 509.563 599.614 510.067 599.614H511.273V601H509.797C508.885 601 508.201 600.79 507.745 600.37C507.289 599.95 507.061 599.26 507.061 598.3V592.486H505.783V591.136H507.061V588.652H508.699V591.136H511.273V592.486H508.699ZM514.896 592.738C515.184 592.174 515.592 591.736 516.12 591.424C516.66 591.112 517.314 590.956 518.082 590.956V592.648H517.65C515.814 592.648 514.896 593.644 514.896 595.636V601H513.258V591.136H514.896V592.738ZM519.361 596.032C519.361 595.024 519.565 594.142 519.973 593.386C520.381 592.618 520.939 592.024 521.647 591.604C522.367 591.184 523.165 590.974 524.041 590.974C524.905 590.974 525.655 591.16 526.291 591.532C526.927 591.904 527.401 592.372 527.713 592.936V591.136H529.369V601H527.713V599.164C527.389 599.74 526.903 600.22 526.255 600.604C525.619 600.976 524.875 601.162 524.023 601.162C523.147 601.162 522.355 600.946 521.647 600.514C520.939 600.082 520.381 599.476 519.973 598.696C519.565 597.916 519.361 597.028 519.361 596.032ZM527.713 596.05C527.713 595.306 527.563 594.658 527.263 594.106C526.963 593.554 526.555 593.134 526.039 592.846C525.535 592.546 524.977 592.396 524.365 592.396C523.753 592.396 523.195 592.54 522.691 592.828C522.187 593.116 521.785 593.536 521.485 594.088C521.185 594.64 521.035 595.288 521.035 596.032C521.035 596.788 521.185 597.448 521.485 598.012C521.785 598.564 522.187 598.99 522.691 599.29C523.195 599.578 523.753 599.722 524.365 599.722C524.977 599.722 525.535 599.578 526.039 599.29C526.555 598.99 526.963 598.564 527.263 598.012C527.563 597.448 527.713 596.794 527.713 596.05ZM531.525 596.05C531.525 595.03 531.729 594.142 532.137 593.386C532.545 592.618 533.109 592.024 533.829 591.604C534.561 591.184 535.395 590.974 536.331 590.974C537.543 590.974 538.539 591.268 539.319 591.856C540.111 592.444 540.633 593.26 540.885 594.304H539.121C538.953 593.704 538.623 593.23 538.131 592.882C537.651 592.534 537.051 592.36 536.331 592.36C535.395 592.36 534.639 592.684 534.063 593.332C533.487 593.968 533.199 594.874 533.199 596.05C533.199 597.238 533.487 598.156 534.063 598.804C534.639 599.452 535.395 599.776 536.331 599.776C537.051 599.776 537.651 599.608 538.131 599.272C538.611 598.936 538.941 598.456 539.121 597.832H540.885C540.621 598.84 540.093 599.65 539.301 600.262C538.509 600.862 537.519 601.162 536.331 601.162C535.395 601.162 534.561 600.952 533.829 600.532C533.109 600.112 532.545 599.518 532.137 598.75C531.729 597.982 531.525 597.082 531.525 596.05ZM545.069 592.486V598.3C545.069 598.78 545.171 599.122 545.375 599.326C545.579 599.518 545.933 599.614 546.437 599.614H547.643V601H546.167C545.255 601 544.571 600.79 544.115 600.37C543.659 599.95 543.431 599.26 543.431 598.3V592.486H542.153V591.136H543.431V588.652H545.069V591.136H547.643V592.486H545.069ZM553.119 601.162C552.363 601.162 551.685 601.036 551.085 600.784C550.485 600.52 550.011 600.16 549.663 599.704C549.315 599.236 549.123 598.702 549.087 598.102H550.779C550.827 598.594 551.055 598.996 551.463 599.308C551.883 599.62 552.429 599.776 553.101 599.776C553.725 599.776 554.217 599.638 554.577 599.362C554.937 599.086 555.117 598.738 555.117 598.318C555.117 597.886 554.925 597.568 554.541 597.364C554.157 597.148 553.563 596.938 552.759 596.734C552.027 596.542 551.427 596.35 550.959 596.158C550.503 595.954 550.107 595.66 549.771 595.276C549.447 594.88 549.285 594.364 549.285 593.728C549.285 593.224 549.435 592.762 549.735 592.342C550.035 591.922 550.461 591.592 551.013 591.352C551.565 591.1 552.195 590.974 552.903 590.974C553.995 590.974 554.877 591.25 555.549 591.802C556.221 592.354 556.581 593.11 556.629 594.07H554.991C554.955 593.554 554.745 593.14 554.361 592.828C553.989 592.516 553.485 592.36 552.849 592.36C552.261 592.36 551.793 592.486 551.445 592.738C551.097 592.99 550.923 593.32 550.923 593.728C550.923 594.052 551.025 594.322 551.229 594.538C551.445 594.742 551.709 594.91 552.021 595.042C552.345 595.162 552.789 595.3 553.353 595.456C554.061 595.648 554.637 595.84 555.081 596.032C555.525 596.212 555.903 596.488 556.215 596.86C556.539 597.232 556.707 597.718 556.719 598.318C556.719 598.858 556.569 599.344 556.269 599.776C555.969 600.208 555.543 600.55 554.991 600.802C554.451 601.042 553.827 601.162 553.119 601.162Z" fill="#008080"/>
<defs>
<linearGradient id="paint0_linear_28027_6651" x1="452.691" y1="340.876" x2="452.691" y2="479.119" gradientUnits="userSpaceOnUse">
<stop stop-color="#00A8A8"/>
<stop offset="0.758028" stop-color="#036666"/>
<stop offset="1" stop-color="#004343"/>
</linearGradient>
<linearGradient id="paint1_linear_28027_6651" x1="432.947" y1="430.994" x2="448.21" y2="404.554" gradientUnits="userSpaceOnUse">
<stop offset="0.13" stop-color="#BDC8E0"/>
<stop offset="0.67" stop-color="#F2F2F2"/>
</linearGradient>
<linearGradient id="paint2_linear_28027_6651" x1="544.896" y1="104.873" x2="559.669" y2="79.3315" gradientUnits="userSpaceOnUse">
<stop stop-color="#BDC8E0"/>
<stop offset="0.56" stop-color="#96A7CD"/>
</linearGradient>
<linearGradient id="paint3_linear_28027_6651" x1="544.326" y1="-1.33675" x2="544.326" y2="140.373" gradientUnits="userSpaceOnUse">
<stop stop-color="#00A8A8"/>
<stop offset="0.758028" stop-color="#036666"/>
<stop offset="1" stop-color="#004343"/>
</linearGradient>
<clipPath id="clip0_28027_6651">
<rect width="1029" height="715" fill="white"/>
</clipPath>
</defs>
</svg>
