<svg width="1029" height="715" viewBox="0 0 1029 715" fill="none" xmlns="http://www.w3.org/2000/svg">
<g opacity="0.03" clip-path="url(#clip0_27667_4854)">
<path d="M383.255 498.241C397.045 490.243 410.834 482.327 424.624 474.329C429.03 471.799 425.032 464.943 420.626 467.473C406.836 475.471 393.047 483.387 379.257 491.385C374.851 493.915 378.849 500.771 383.255 498.241Z" fill="#005656"/>
<path d="M382.681 254.303C396.47 246.305 410.26 238.389 424.05 230.391C428.456 227.861 424.458 221.006 420.052 223.536C406.262 231.534 392.472 239.45 378.683 247.448C374.277 249.978 378.275 256.833 382.681 254.303Z" fill="#005656"/>
<path d="M589.362 222.064C603.234 230.062 617.105 238.141 631.058 246.139C635.464 248.669 639.462 241.895 635.056 239.284C621.185 231.286 607.313 223.206 593.361 215.208C588.954 212.678 584.956 219.452 589.362 222.064Z" fill="#005656"/>
<path d="M800.858 344.24C814.73 352.238 828.601 360.317 842.554 368.315C846.96 370.845 850.958 364.071 846.552 361.46C832.681 353.462 818.809 345.382 804.857 337.384C800.45 334.854 796.452 341.628 800.858 344.24Z" fill="#005656"/>
<path d="M819.79 490.405C833.58 482.407 847.369 474.491 861.159 466.493C865.565 463.963 861.567 457.107 857.161 459.637C843.371 467.635 829.582 475.552 815.792 483.549C811.386 486.079 815.384 492.935 819.79 490.405Z" fill="#005656"/>
<path d="M608.864 612.171C622.654 604.173 636.444 596.256 650.233 588.258C654.64 585.728 650.641 578.873 646.235 581.403C632.446 589.401 618.656 597.317 604.866 605.315C600.46 607.845 604.458 614.7 608.864 612.171Z" fill="#005656"/>
<path d="M171.759 376.147C185.549 368.149 199.338 360.233 213.128 352.235C217.534 349.705 213.536 342.849 209.13 345.379C195.34 353.377 181.55 361.294 167.761 369.292C163.355 371.822 167.353 378.677 171.759 376.147Z" fill="#005656"/>
<path d="M303.292 348.972L210.926 295.598V259.117L303.292 312.491V348.972Z" fill="#005656"/>
<path d="M303.293 348.973L395.169 295.926V259.445L303.293 312.493V348.973Z" fill="#008080"/>
<path d="M303.293 348.973L395.169 295.926V259.445L303.293 312.493V348.973Z" fill="#008080"/>
<path d="M303.292 312.492L210.926 259.118L302.721 206.152L395.168 259.445L303.292 312.492Z" fill="#008080"/>
<path d="M92.366 470.734L0 417.36V380.961L92.366 434.253V470.734Z" fill="#005656"/>
<path d="M92.3672 470.735L184.244 417.688V381.289L92.3672 434.255V470.735Z" fill="#008080"/>
<path d="M92.366 434.254L0 380.962L91.7949 327.914L184.243 381.288L92.366 434.254Z" fill="#008080"/>
<path d="M725.711 349.298L817.506 296.25V259.77L725.711 312.817V349.298Z" fill="#008080"/>
<path d="M725.71 312.815V349.296L633.344 295.922V259.441L725.71 312.815Z" fill="#005656"/>
<path d="M817.505 259.769L725.71 312.817L633.344 259.443L725.139 206.477L817.505 259.769Z" fill="#008080"/>
<path d="M726.281 593.235L818.076 540.187V503.707L726.281 556.755V593.235Z" fill="#008080"/>
<path d="M726.28 556.753V593.233L633.914 539.859V503.379L726.28 556.753Z" fill="#005656"/>
<path d="M818.075 503.706L726.28 556.754L633.914 503.38L725.709 450.332L818.075 503.706Z" fill="#008080"/>
<path d="M303.863 592.911L395.74 539.863V503.383L303.863 556.43V592.911Z" fill="#008080"/>
<path d="M303.863 592.911L395.74 539.863V503.383L303.863 556.43V592.911Z" fill="#008080"/>
<path d="M303.862 556.429V592.909L211.496 539.535V503.055L303.862 556.429Z" fill="#005656"/>
<path d="M395.739 503.382L303.862 556.429L211.496 503.055L303.291 450.008L395.739 503.382Z" fill="#008080"/>
<path d="M303.292 306.777L210.926 253.403V217.004L303.292 270.296V306.777Z" fill="#005656"/>
<path d="M303.293 306.778L395.169 253.731V217.332L303.293 270.298V306.778Z" fill="#008080"/>
<path d="M303.293 306.778L395.169 253.731V217.332L303.293 270.298V306.778Z" fill="#008080"/>
<path d="M303.292 270.297L210.926 217.005L302.721 163.957L395.168 217.331L303.292 270.297Z" fill="#66B6B6"/>
<path d="M92.366 428.624L0 375.25V338.77L92.366 392.144V428.624Z" fill="#005656"/>
<path d="M92.3672 428.626L184.244 375.578V339.098L92.3672 392.145V428.626Z" fill="#008080"/>
<path d="M92.366 392.144L0 338.77L91.7949 285.723L184.243 339.097L92.366 392.144Z" fill="#66B6B6"/>
<path d="M92.3669 381.125L19.1758 338.85L91.8773 296.82L165.068 339.095L92.3669 381.125Z" fill="#008080"/>
<path d="M725.711 307.107L817.506 254.141V217.66L725.711 270.708V307.107Z" fill="#008080"/>
<path d="M725.71 270.706V307.105L633.344 253.731V217.332L725.71 270.706Z" fill="#005656"/>
<path d="M817.505 217.659L725.71 270.707L633.344 217.333L725.139 164.285L817.505 217.659Z" fill="#66B6B6"/>
<path d="M726.281 551.044L818.076 497.996V461.598L726.281 514.564V551.044Z" fill="#008080"/>
<path d="M726.28 514.562V551.042L633.914 497.668V461.27L726.28 514.562Z" fill="#005656"/>
<path d="M818.075 461.597L726.28 514.563L633.914 461.27L725.709 408.223L818.075 461.597Z" fill="#66B6B6"/>
<path d="M937.205 471.39L844.758 418.016V381.617L937.205 434.991V471.39Z" fill="#005656"/>
<path d="M937.207 471.392L1029 418.426V381.945L937.207 434.993V471.392Z" fill="#008080"/>
<path d="M937.205 434.992L844.758 381.618L936.634 328.57L1029 381.944L937.205 434.992Z" fill="#008080"/>
<path d="M937.205 429.28L844.758 375.906V339.426L937.205 392.8V429.28Z" fill="#005656"/>
<path d="M937.207 429.282L1029 376.234V339.754L937.207 392.802V429.282Z" fill="#008080"/>
<path d="M937.205 392.801L844.758 339.427L936.634 286.379L1029 339.753L937.205 392.801Z" fill="#66B6B6"/>
<path d="M937.125 381.781L863.934 339.507L936.717 297.477L1009.83 339.751L937.125 381.781Z" fill="#008080"/>
<path d="M937.125 364.97L863.934 322.695V286.215L937.125 328.49V364.97Z" fill="#005656"/>
<path d="M937.125 364.968L1009.83 322.938V286.539L937.125 328.487V364.968Z" fill="#008080"/>
<path d="M937.125 328.489L863.934 286.214L936.717 244.266L1009.83 286.54L937.125 328.489Z" fill="#66B6B6"/>
<path d="M966.825 286.54L936.961 303.76L907.016 286.458L936.798 269.238L966.825 286.54Z" fill="#66B6B6"/>
<path d="M515.358 714.999L422.992 661.625V625.227L515.358 678.519V714.999Z" fill="#005656"/>
<path d="M515.359 715.001L607.236 661.953V625.555L515.359 678.521V715.001Z" fill="#008080"/>
<path d="M515.358 678.52L422.992 625.227L514.787 572.18L607.235 625.554L515.358 678.52Z" fill="#008080"/>
<path d="M515.358 672.808L422.992 619.516V583.035L515.358 636.409V672.808Z" fill="#005656"/>
<path d="M515.359 672.81L607.236 619.844V583.363L515.359 636.411V672.81Z" fill="#008080"/>
<path d="M515.358 636.41L422.992 583.036L514.787 529.988L607.235 583.362L515.358 636.41Z" fill="#66B6B6"/>
<path d="M515.278 625.391L442.168 583.116L514.87 541.086L588.061 583.361L515.278 625.391Z" fill="#008080"/>
<path d="M515.277 608.58L442.168 566.305V529.824L515.277 572.099V608.58Z" fill="#005656"/>
<path d="M515.277 608.577L588.06 566.547V530.066L515.277 572.096V608.577Z" fill="#008080"/>
<path d="M515.278 572.098L442.168 529.823L514.87 487.875L588.061 530.068L515.278 572.098Z" fill="#66B6B6"/>
<path d="M544.977 530.149L515.195 547.369L485.168 530.068L515.032 512.848L544.977 530.149Z" fill="#66B6B6"/>
<path d="M303.863 550.716L395.74 497.668V461.27L303.863 514.235V550.716Z" fill="#008080"/>
<path d="M303.863 550.716L395.74 497.668V461.27L303.863 514.235V550.716Z" fill="#008080"/>
<path d="M303.862 514.233V550.714L211.496 497.34V460.859L303.862 514.233Z" fill="#005656"/>
<path d="M395.739 461.269L303.862 514.235L211.496 460.861L303.291 407.895L395.739 461.269Z" fill="#66B6B6"/>
<path d="M514.214 227.124L421.848 173.832V137.352L514.214 190.726V227.124Z" fill="#005656"/>
<path d="M514.215 227.126L606.01 174.16V137.68L514.215 190.727V227.126Z" fill="#008080"/>
<path d="M514.214 190.726L421.848 137.352L513.643 84.3047L606.009 137.679L514.214 190.726Z" fill="#008080"/>
<path d="M514.214 185.011L421.848 131.637V95.1562L514.214 148.53V185.011Z" fill="#005656"/>
<path d="M514.215 185.012L606.01 131.965V95.4844L514.215 148.532V185.012Z" fill="#008080"/>
<path d="M514.214 148.531L421.848 95.1574L513.643 42.1914L606.009 95.4838L514.214 148.531Z" fill="#66B6B6"/>
<path d="M514.132 137.512L440.941 95.2375L513.725 53.2891L586.916 95.4823L514.132 137.512Z" fill="#008080"/>
<path d="M514.132 120.705L440.941 78.4301V42.0312L514.132 84.2245V120.705Z" fill="#005656"/>
<path d="M514.133 120.702L586.916 78.7539V42.2734L514.133 84.2218V120.702Z" fill="#008080"/>
<path d="M514.132 84.2233L440.941 42.03L513.725 0L586.916 42.2749L514.132 84.2233Z" fill="#66B6B6"/>
<path d="M543.833 42.3559L514.051 59.576L484.023 42.1927L513.806 24.9727L543.833 42.3559Z" fill="#66B6B6"/>
<path d="M92.3669 364.314L19.1758 322.039V285.559L92.3669 327.833V364.314Z" fill="#005656"/>
<path d="M92.3672 364.312L165.069 322.282V285.883L92.3672 327.831V364.312Z" fill="#008080"/>
<path d="M92.3669 327.833L19.1758 285.558L91.8773 243.609L165.068 285.884L92.3669 327.833Z" fill="#66B6B6"/>
<path d="M763.159 217.579L725.543 239.287L687.602 217.415L725.299 195.625L763.159 217.579Z" fill="#66B6B6"/>
<path d="M340.823 217.25L303.126 238.959L265.266 217.087L302.881 195.297L340.823 217.25Z" fill="#66B6B6"/>
<path d="M764.057 464.208L726.36 485.998L688.5 464.126L726.197 442.336L764.057 464.208Z" fill="#66B6B6"/>
<path d="M341.393 461.106L303.696 482.897L265.836 461.025L303.451 439.234L341.393 461.106Z" fill="#66B6B6"/>
<path d="M121.739 285.806L91.9568 303.026L61.9297 285.724L91.712 268.504L121.739 285.806Z" fill="#66B6B6"/>
<path d="M354.452 284.826C380.971 300.169 407.489 315.43 434.008 330.773C438.414 333.303 442.412 326.529 438.006 323.918C411.487 308.575 384.969 293.313 358.45 277.97C354.044 275.44 350.046 282.214 354.452 284.826Z" fill="#005656"/>
<path d="M167.515 465.677C181.386 473.675 195.257 481.755 209.21 489.753C213.616 492.282 217.614 485.509 213.208 482.897C199.337 474.899 185.466 466.82 171.513 458.822C167.107 456.292 163.109 463.066 167.515 465.677Z" fill="#005656"/>
<path d="M594.177 376.475C607.967 368.477 621.756 360.561 635.546 352.563C639.952 350.033 635.954 343.178 631.548 345.708C617.758 353.705 603.968 361.622 590.179 369.62C585.773 372.15 589.771 379.005 594.177 376.475Z" fill="#005656"/>
<path d="M589.937 466.001C603.808 473.999 617.679 482.079 631.632 490.077C636.038 492.607 640.036 485.833 635.63 483.221C621.759 475.223 607.888 467.144 593.935 459.146C589.529 456.616 585.53 463.39 589.937 466.001Z" fill="#005656"/>
<path d="M379.011 587.767C392.882 595.765 406.753 603.844 420.706 611.842C425.112 614.372 429.11 607.599 424.704 604.987C410.833 596.989 396.962 588.91 383.009 580.912C378.603 578.382 374.605 585.155 379.011 587.767Z" fill="#005656"/>
<path d="M383.009 365.867C382.274 369.621 379.337 373.375 376.4 374.192L355.022 380.231C354.042 380.476 353.145 380.394 352.492 379.986L522.374 478.736C523.027 479.144 523.924 479.226 524.903 478.981L546.281 472.942C549.219 472.126 552.156 468.371 552.891 464.617L383.009 365.867Z" fill="url(#paint0_linear_27667_4854)"/>
<path d="M367.018 357.625L359.021 359.91C354.778 361.053 350.535 366.439 349.475 371.907L348.74 375.498C348.006 379.089 348.903 381.864 350.78 382.925L520.662 481.675C518.785 480.614 517.888 477.839 518.622 474.248L519.356 470.657C520.417 465.189 524.742 459.803 528.903 458.66L536.899 456.457L367.018 357.707V357.625Z" fill="url(#paint1_linear_27667_4854)"/>
<path d="M631.061 157.919L461.18 59.2501L461.751 56.2305L631.633 154.899L631.061 157.919Z" fill="#B7C3DD"/>
<path d="M640.362 126.582L470.562 27.832C472.194 28.8114 473.01 31.1781 472.357 34.361L470.154 45.6234C469.257 50.4385 465.422 55.1719 461.75 56.1513L631.632 154.901C635.304 153.84 639.057 149.107 640.036 144.374L642.239 133.111C642.892 129.928 642.076 127.562 640.444 126.582H640.362Z" fill="url(#paint2_linear_27667_4854)"/>
<path d="M552.893 464.614L383.012 365.864L446.575 41.6211L616.456 140.371L552.893 464.614Z" fill="#005656"/>
<path d="M637.831 123.318C642.808 121.93 645.827 126.011 644.522 132.458L642.319 143.721C641.095 150.168 635.954 156.534 630.977 157.921L631.548 154.901C635.22 153.84 638.973 149.107 639.952 144.373L642.155 133.111C643.053 128.296 640.85 125.276 637.178 126.337L627.142 129.194C623.47 130.255 619.717 134.988 618.738 139.722L555.175 463.965C554.114 469.433 549.789 474.819 545.628 475.962L524.25 482.001C520.007 483.144 517.478 479.716 518.538 474.248L519.273 470.657C520.333 465.189 524.658 459.803 528.819 458.66L536.816 456.457L536.245 459.476L528.248 461.68C525.311 462.496 522.373 466.25 521.639 470.004L520.905 473.595C520.17 477.349 521.965 479.797 524.903 478.981L546.281 472.942C549.218 472.126 552.156 468.372 552.89 464.618L616.453 140.374C617.677 133.927 622.817 127.561 627.795 126.174L637.831 123.318Z" fill="#E4E7ED"/>
<path d="M472.195 24.8924C471.053 24.2395 469.584 24.0763 467.952 24.566L457.916 27.4224C452.939 28.8098 447.88 35.1755 446.574 41.6228L616.456 140.373C617.68 133.926 622.82 127.56 627.798 126.173L637.834 123.316C639.547 122.826 640.935 122.99 642.077 123.643L472.195 24.8924Z" fill="url(#paint3_linear_27667_4854)"/>
<path d="M560.398 172.691L482.638 127.723C480.435 126.417 479.129 122.989 479.7 120.051C480.272 117.113 482.475 115.726 484.759 117.032L562.52 162C564.723 163.305 566.028 166.733 565.457 169.671C564.886 172.609 562.683 173.997 560.398 172.691Z" fill="#66B6B6"/>
<path d="M567.989 225.901L458.243 162.488C456.04 161.183 454.735 157.755 455.306 154.817C455.877 151.879 458.08 150.491 460.365 151.797L570.111 215.209C572.314 216.515 573.619 219.943 573.048 222.881C572.477 225.819 570.274 227.206 567.989 225.901Z" fill="#66B6B6"/>
<path d="M563.173 251.037L453.427 187.625C451.224 186.319 449.918 182.892 450.49 179.954C451.061 177.016 453.264 175.628 455.548 176.934L565.294 240.346C567.497 241.652 568.803 245.08 568.232 248.018C567.661 250.956 565.457 252.343 563.173 251.037Z" fill="#66B6B6"/>
<path d="M535.432 262.953L448.614 212.762C446.411 211.456 445.106 208.028 445.677 205.09C446.248 202.152 448.451 200.765 450.736 202.071L537.553 252.262C539.757 253.568 541.062 256.995 540.491 259.933C539.92 262.871 537.717 264.259 535.432 262.953Z" fill="#66B6B6"/>
<path d="M553.466 301.311L443.72 237.898C441.517 236.593 440.211 233.165 440.782 230.227C441.354 227.289 443.557 225.902 445.841 227.207L555.587 290.62C557.79 291.925 559.096 295.353 558.525 298.291C557.953 301.229 555.75 302.617 553.466 301.311Z" fill="#66B6B6"/>
<path d="M544.161 393.778L485.739 359.99C485.331 359.745 485.086 359.093 485.168 358.521C485.25 357.95 485.739 357.705 486.147 357.95L544.569 391.737C544.977 391.982 545.222 392.635 545.141 393.206C545.059 393.778 544.569 394.022 544.161 393.778Z" fill="#E0E0E0"/>
<path d="M472.521 282.459L438.986 263.035C436.782 261.729 435.477 258.302 436.048 255.364C436.619 252.426 438.822 251.038 441.107 252.344L474.643 271.768C476.846 273.073 478.151 276.501 477.58 279.439C477.009 282.377 474.806 283.765 472.521 282.459Z" fill="#66B6B6"/>
<path d="M543.1 379.985C537.47 379.087 533.879 376.149 532.166 371.008C531.432 371.008 530.86 371.008 530.616 370.926C524.822 370.191 520.498 367.743 517.805 363.744C515.52 360.48 514.541 356.726 515.112 353.706C514.378 355.257 512.909 356.481 510.87 357.297C505.892 359.255 499.854 357.95 495.122 354.032C492.837 352.074 490.797 349.544 489.328 346.524C487.778 343.341 487.86 339.587 489.492 337.139C491.123 334.772 494.142 334.854 495.04 334.854C500.262 334.854 504.587 338.281 508.585 341.954C510.054 343.26 511.114 344.647 512.093 346.034C511.604 344.892 510.951 343.668 510.135 342.28L509.564 341.301C507.606 338.118 505.566 334.935 505.239 331.263C504.75 325.876 508.503 322.53 512.257 322.122C514.378 321.877 516.01 322.53 517.724 323.428C519.192 324.244 520.906 325.223 522.211 326.937C523.517 328.57 524.578 331.181 523.843 333.303L521.477 332.568C521.803 331.508 521.232 329.794 520.253 328.488C519.192 327.182 517.805 326.284 516.5 325.631C514.868 324.734 513.725 324.407 512.501 324.571C509.972 324.815 507.361 327.182 507.687 331.018C507.932 334.037 509.809 337.057 511.604 339.995L512.175 340.974C514.541 344.892 515.765 348.075 515.684 350.768C515.847 350.931 515.928 351.094 516.092 351.176C516.663 350.278 517.397 349.544 518.295 348.972C519.355 348.32 520.498 347.748 521.803 347.422C524.251 346.851 527.76 347.748 530.208 349.625C532.003 350.931 533.145 352.808 533.308 354.767C533.471 356.399 533.063 357.95 532.003 359.092C529.963 361.459 525.149 362.194 518.05 356.481C517.805 356.317 517.56 356.073 517.316 355.909C517.397 357.95 518.295 360.235 519.682 362.357C522.048 365.784 525.638 367.825 530.779 368.478C530.86 368.478 531.105 368.478 531.432 368.478C530.942 365.54 531.432 362.52 532.737 360.316C533.471 359.092 536.001 355.665 539.02 356.073C540.081 356.154 541.549 356.807 542.365 359.337C543.263 361.867 542.529 364.887 541.468 366.437C539.591 369.212 536.817 370.355 534.614 370.763C535.675 373.619 537.878 376.639 543.426 377.537L543.018 379.985H543.1ZM538.775 358.521C537.551 358.521 535.675 360.316 534.94 361.622C533.879 363.418 533.553 365.948 534.043 368.396C535.838 368.07 538.122 367.253 539.591 365.05C540.325 363.989 540.733 361.704 540.162 360.072C539.917 359.419 539.51 358.521 538.857 358.521C538.857 358.521 538.857 358.521 538.775 358.521ZM517.887 353.053C518.458 353.543 519.029 354.114 519.682 354.604C524.986 358.847 528.821 359.174 530.208 357.542C530.779 356.889 531.024 355.991 530.942 355.093C530.779 353.787 530.044 352.563 528.739 351.666C526.862 350.278 524.088 349.462 522.293 349.87C521.314 350.115 520.416 350.605 519.519 351.094C518.784 351.584 518.213 352.237 517.805 353.053H517.887ZM494.877 337.302C493.163 337.302 492.103 337.71 491.531 338.526C490.307 340.24 490.307 343.096 491.531 345.463C492.837 348.075 494.632 350.523 496.672 352.155C500.67 355.501 505.811 356.562 509.972 355.012C511.767 354.359 512.746 353.298 513.154 351.91C513.154 351.829 513.154 351.666 513.154 351.584C512.338 350.605 511.685 349.625 511.033 348.728C509.809 346.932 508.585 345.3 506.953 343.749C503.363 340.485 499.446 337.384 495.04 337.302H494.877Z" fill="white"/>
<path d="M378.684 261.809L387.741 256.586C404.957 269.725 415.402 272.255 423.153 274.377C430.905 281.233 441.349 290.7 458.566 297.473V334.77C458.566 349.868 452.609 357.376 445.592 361.049L436.535 366.272L437.024 363.824C429.599 365.048 423.153 363.579 423.153 363.579C423.153 363.579 387.741 330.608 387.741 293.882V271.929L378.684 261.809Z" fill="#66B6B6"/>
<path d="M458.485 297.393L449.428 302.616L429.927 297.311L414.016 279.52L423.073 274.297C430.824 281.152 441.268 290.619 458.485 297.393Z" fill="#B7CCFF"/>
<path d="M379.663 261.238L387.741 256.586C404.957 269.725 415.402 272.255 423.153 274.377L414.096 279.6H394.595L378.684 261.809L379.663 261.238Z" fill="#66B6B6"/>
<path d="M414.014 279.6C421.766 286.455 432.21 295.922 449.427 302.696V339.993C449.427 376.718 414.096 368.801 414.096 368.801C414.096 368.801 378.684 335.83 378.684 299.105V261.809C395.9 274.948 406.344 277.478 414.096 279.6H414.014Z" fill="white"/>
<path d="M414.013 360.966C416.869 361.292 422.418 361.7 427.966 359.986C437.921 356.967 442.98 348.969 442.98 336.237V307.183C440.613 306.041 438.329 304.817 436.126 303.511C426.579 297.961 419.399 291.84 414.013 287.107C408.628 285.638 401.448 283.516 391.901 278.048C389.698 276.742 387.332 275.273 385.047 273.723V302.776C385.047 315.508 390.106 329.382 400.06 343.909C405.609 351.907 411.157 358.028 414.013 360.966Z" fill="#66B6B6"/>
<path d="M416.298 359.663C413.443 356.725 407.894 350.604 402.346 342.607C392.391 328.08 387.332 314.206 387.332 301.474V275.195C388.882 276.175 390.433 277.154 391.983 278.052C401.53 283.601 408.71 285.723 414.095 287.111C419.481 291.844 426.661 297.965 436.208 303.515C438.411 304.82 440.777 306.045 443.062 307.187V336.241C443.062 346.279 439.961 353.298 433.841 357.378C432.781 357.95 431.557 358.358 430.333 358.766C424.784 360.398 419.236 360.071 416.38 359.745L416.298 359.663Z" fill="#00D158"/>
<path d="M418.176 341.955L414.504 344.077C414.504 344.077 414.83 343.914 414.993 343.751L418.665 341.629C418.665 341.629 418.339 341.874 418.176 341.955Z" fill="#C6C0D0"/>
<path d="M392.879 309.963L396.551 307.841C397.775 307.107 399.488 307.351 401.12 308.331C402.67 309.229 404.221 310.698 405.445 312.738L401.773 314.86C400.549 312.901 398.999 311.35 397.448 310.453C395.816 309.473 394.103 309.31 392.879 309.963Z" fill="#66B6B6"/>
<path d="M401.773 314.778L405.445 312.656L412.218 323.592L408.546 325.796L401.773 314.778Z" fill="#66B6B6"/>
<path d="M433.678 328.571L437.349 326.449L418.664 341.629L414.992 343.751L433.678 328.571Z" fill="#66B6B6"/>
<path d="M424.133 313.147L427.805 311.025C429.029 310.29 430.742 310.535 432.374 311.514L428.702 313.636C426.989 312.657 425.357 312.494 424.133 313.147Z" fill="#66B6B6"/>
<path d="M428.699 313.555L432.371 311.434C433.84 312.25 435.227 313.637 436.451 315.514C439.225 319.676 439.551 324.573 437.267 326.45L433.595 328.572C435.88 326.695 435.472 321.88 432.779 317.636C431.555 315.841 430.168 314.453 428.699 313.555Z" fill="#66B6B6"/>
<path d="M428.701 313.553C430.17 314.369 431.557 315.757 432.781 317.634C435.555 321.796 435.881 326.693 433.597 328.57L414.911 343.831C413.361 345.055 411.24 344.892 409.036 343.586C407.241 342.526 405.446 340.73 403.978 338.445L393.125 320.898C390.514 316.655 390.269 311.84 392.636 310.126C393.941 309.228 395.655 309.391 397.45 310.452C399 311.35 400.551 312.819 401.774 314.859L408.547 325.795L423.724 313.472C425.029 312.411 426.824 312.574 428.701 313.635V313.553Z" fill="white"/>
</g>
<defs>
<linearGradient id="paint0_linear_27667_4854" x1="452.691" y1="340.876" x2="452.691" y2="479.119" gradientUnits="userSpaceOnUse">
<stop stop-color="#00A8A8"/>
<stop offset="0.758028" stop-color="#036666"/>
<stop offset="1" stop-color="#004343"/>
</linearGradient>
<linearGradient id="paint1_linear_27667_4854" x1="432.947" y1="430.994" x2="448.21" y2="404.554" gradientUnits="userSpaceOnUse">
<stop offset="0.13" stop-color="#BDC8E0"/>
<stop offset="0.67" stop-color="#F2F2F2"/>
</linearGradient>
<linearGradient id="paint2_linear_27667_4854" x1="544.896" y1="104.873" x2="559.669" y2="79.3315" gradientUnits="userSpaceOnUse">
<stop stop-color="#BDC8E0"/>
<stop offset="0.56" stop-color="#96A7CD"/>
</linearGradient>
<linearGradient id="paint3_linear_27667_4854" x1="544.326" y1="-1.33675" x2="544.326" y2="140.373" gradientUnits="userSpaceOnUse">
<stop stop-color="#00A8A8"/>
<stop offset="0.758028" stop-color="#036666"/>
<stop offset="1" stop-color="#004343"/>
</linearGradient>
<clipPath id="clip0_27667_4854">
<rect width="1029" height="715" fill="white"/>
</clipPath>
</defs>
</svg>
