<svg width="931" height="981" viewBox="0 0 931 981" fill="none" xmlns="http://www.w3.org/2000/svg">
<ellipse cx="460.235" cy="520.237" rx="458.473" ry="460.237" fill="#005656" fill-opacity="0.1"/>
<ellipse cx="461.117" cy="521.118" rx="371.187" ry="372.95" fill="#005656" fill-opacity="0.2"/>
<ellipse cx="461.118" cy="521.118" rx="284.782" ry="286.546" fill="#005656" fill-opacity="0.2"/>
<path d="M157.434 765.002L151.587 761.557C150.619 760.918 149.813 760.062 149.235 759.057C148.656 758.051 148.32 756.925 148.254 755.766V322.423C148.323 321.268 148.66 320.145 149.239 319.144C149.817 318.142 150.621 317.288 151.587 316.651L420.46 161.398C421.497 160.877 422.641 160.605 423.802 160.605C424.963 160.605 426.107 160.877 427.144 161.398L432.991 164.786C433.96 165.421 434.768 166.274 435.35 167.276C435.931 168.278 436.271 169.402 436.343 170.559V603.976C436.274 605.136 435.936 606.264 435.354 607.269C434.772 608.275 433.963 609.13 432.991 609.767L164.118 765.002C163.081 765.523 161.936 765.794 160.776 765.794C159.615 765.794 158.471 765.523 157.434 765.002Z" fill="#37474F"/>
<path d="M436.306 170.019C436.064 168.306 434.667 167.672 432.991 168.641L164.119 323.876C163.13 324.484 162.316 325.337 161.754 326.352L149.223 319.128C149.79 318.116 150.603 317.264 151.587 316.651L420.46 161.398C421.497 160.877 422.642 160.605 423.802 160.605C424.963 160.605 426.108 160.877 427.145 161.398L432.991 164.786C433.887 165.37 434.646 166.139 435.218 167.042C435.79 167.944 436.161 168.96 436.306 170.019Z" fill="#898989"/>
<path d="M163.522 765.281C163.461 765.296 163.397 765.296 163.336 765.281L162.982 765.411H162.852C162.647 765.411 162.442 765.523 162.238 765.579C160.913 765.835 159.543 765.732 158.271 765.281C158.015 765.188 157.766 765.076 157.527 764.946L151.587 761.557C150.619 760.918 149.813 760.061 149.235 759.056C148.656 758.051 148.32 756.924 148.254 755.766V322.423C148.295 321.26 148.628 320.127 149.222 319.127L161.753 326.352C161.147 327.347 160.807 328.482 160.767 329.647V763.084C160.737 763.707 160.913 764.322 161.269 764.834C161.496 765.093 161.79 765.284 162.119 765.386C162.447 765.488 162.798 765.496 163.131 765.411L163.522 765.281Z" fill="#263238"/>
<path d="M257.795 305.032C257.708 304.577 257.503 304.153 257.199 303.804L256.976 303.617C256.8 303.485 256.593 303.398 256.376 303.366C256.158 303.333 255.935 303.356 255.728 303.431C255.562 303.471 255.404 303.54 255.263 303.636C254.436 304.206 253.79 305 253.401 305.926C252.903 306.974 252.636 308.117 252.619 309.278C252.544 310.145 252.811 311.007 253.363 311.68C253.609 311.916 253.928 312.061 254.268 312.088C254.607 312.115 254.946 312.023 255.225 311.829C255.624 311.588 255.977 311.28 256.268 310.916C256.534 310.57 256.77 310.203 256.976 309.818C257.548 308.698 257.86 307.463 257.888 306.205C257.898 305.812 257.867 305.419 257.795 305.032ZM301.515 207.333C300.544 206.763 299.438 206.467 298.312 206.477C296.176 206.576 294.1 207.217 292.279 208.339C287.197 211.449 283.273 216.138 281.107 221.689C280.753 222.471 280.418 223.291 280.12 224.091C279.822 224.892 279.506 225.711 279.245 226.549C278.985 227.387 278.687 228.225 278.445 229.063C278.351 229.342 278.277 229.64 278.184 229.901L277.7 231.595C277.708 231.676 277.708 231.757 277.7 231.837C277.42 232.861 277.16 233.923 276.862 234.965C276.713 235.543 276.583 236.083 276.434 236.641L276.005 238.298C275.41 240.514 274.814 242.637 274.143 244.666L273.715 245.895C273.51 246.473 273.305 247.05 273.082 247.608C272.859 248.167 272.728 248.465 272.561 248.856C272.281 249.545 271.983 250.197 271.667 250.83C271.35 251.463 271.276 251.63 271.071 252.021C266.36 261.071 260.607 264.608 257.274 269.263C254.35 273.323 253.55 276.562 249.602 282.986C248.355 285.035 246.791 287.399 244.742 290.23C239.063 298.05 237.034 301.923 236.345 304.269C236.337 304.331 236.337 304.393 236.345 304.455C236.345 304.641 236.345 304.809 236.214 304.977C236.208 305.032 236.208 305.089 236.214 305.144C236.207 305.293 236.207 305.442 236.214 305.591C236.149 306.047 236.118 306.508 236.121 306.969V324.36L242.378 327.972V310.563C242.362 309.654 242.494 308.748 242.769 307.881C243.458 305.535 245.469 301.681 251.166 293.86C253.214 291.012 254.779 288.647 256.026 286.599C259.936 280.193 260.774 276.935 263.698 272.913C267.031 268.239 272.784 264.72 277.495 255.652C278.174 254.259 278.777 252.829 279.301 251.37C282.318 243.922 283.677 233.885 287.382 225.451C289.544 219.907 293.47 215.229 298.554 212.137C302.371 209.94 305.164 209.754 307.306 210.759L301.515 207.333ZM328.942 229.566C328.422 229.269 327.865 229.044 327.285 228.895C324.92 228.337 321.401 229.715 317.863 229.305C322.835 235.729 329.743 231.595 333.541 232.508C334.132 232.649 334.697 232.881 335.217 233.196L328.942 229.566ZM342.199 253.455C342.014 253.569 341.839 253.7 341.678 253.846L341.417 254.107L341.175 254.386C340.131 255.736 339.556 257.39 339.537 259.097C339.475 259.954 339.734 260.803 340.263 261.48C340.334 261.547 340.408 261.609 340.486 261.666C340.659 261.799 340.862 261.886 341.077 261.918C341.292 261.951 341.511 261.928 341.715 261.853C341.887 261.812 342.051 261.743 342.199 261.648C342.386 261.536 342.553 261.387 342.739 261.257C343.01 261.003 343.253 260.723 343.466 260.419C344.352 259.123 344.838 257.595 344.862 256.025C344.862 253.772 343.67 252.599 342.199 253.455ZM346.296 237.721C344.286 236.6 342.102 235.826 339.835 235.431C338.866 235.207 337.973 234.965 337.247 234.723C339.738 236.94 342.791 238.429 346.072 239.025C348.064 239.412 350.002 240.037 351.845 240.887L346.296 237.721Z" fill="white"/>
<path d="M352.347 241.203L351.845 240.905C350.002 240.056 348.064 239.431 346.072 239.043C342.79 238.451 339.735 236.962 337.246 234.742C336.623 234.166 335.943 233.654 335.217 233.215C334.696 232.908 334.131 232.681 333.541 232.545C329.817 231.632 322.835 235.766 317.882 229.342L317.714 229.137C314.251 224.464 312.985 214.036 307.79 210.983L307.268 210.685C305.127 209.679 302.334 209.866 298.517 212.063C284.757 220.013 284.291 238.894 279.338 251.314C274.385 263.733 267.347 267.625 263.53 272.969C259.713 278.313 259.452 282.279 250.98 293.935C242.508 305.591 242.191 308.458 242.191 310.693V328.084L354.88 262.914V245.523C354.948 244.631 354.741 243.739 354.289 242.967C353.836 242.195 353.159 241.58 352.347 241.203ZM255.263 311.829C253.792 312.685 252.619 311.549 252.619 309.278C252.604 308.207 252.835 307.146 253.293 306.178C253.751 305.21 254.425 304.359 255.263 303.692C256.734 302.835 257.907 303.99 257.907 306.261C257.921 307.33 257.691 308.387 257.232 309.352C256.774 310.318 256.1 311.165 255.263 311.829ZM298.517 259.432C297.811 259.969 296.987 260.331 296.114 260.486C295.241 260.642 294.343 260.587 293.495 260.327C292.647 260.067 291.873 259.608 291.238 258.99C290.602 258.371 290.123 257.61 289.84 256.769C288.867 254.567 288.402 252.174 288.481 249.768C288.481 241.222 292.968 231.707 298.517 228.504C299.266 228.057 300.084 227.736 300.937 227.555C305.332 226.679 308.553 230.888 308.553 238.168C308.553 246.715 304.066 256.229 298.517 259.432ZM342.199 261.629C340.728 262.486 339.537 261.35 339.537 259.097C339.526 258.024 339.76 256.964 340.221 255.996C340.683 255.027 341.359 254.178 342.199 253.511C343.67 252.673 344.862 253.809 344.862 256.08C344.873 257.147 344.639 258.203 344.177 259.165C343.715 260.127 343.039 260.97 342.199 261.629Z" fill="white"/>
<path opacity="0.1" d="M352.347 241.203L351.845 240.905C350.002 240.056 348.064 239.431 346.072 239.043C342.79 238.451 339.735 236.962 337.246 234.742C336.623 234.166 335.943 233.654 335.217 233.215C334.696 232.908 334.131 232.681 333.541 232.545C329.817 231.632 322.835 235.766 317.882 229.342L317.714 229.137C314.251 224.464 312.985 214.036 307.79 210.983L307.268 210.685C305.127 209.679 302.334 209.866 298.517 212.063C284.757 220.013 284.291 238.894 279.338 251.314C274.385 263.733 267.347 267.625 263.53 272.969C259.713 278.313 259.452 282.279 250.98 293.935C242.508 305.591 242.191 308.458 242.191 310.693V328.084L354.88 262.914V245.523C354.948 244.631 354.741 243.739 354.289 242.967C353.836 242.195 353.159 241.58 352.347 241.203ZM255.263 311.829C253.792 312.685 252.619 311.549 252.619 309.278C252.604 308.207 252.835 307.146 253.293 306.178C253.751 305.21 254.425 304.359 255.263 303.692C256.734 302.835 257.907 303.99 257.907 306.261C257.921 307.33 257.691 308.387 257.232 309.352C256.774 310.318 256.1 311.165 255.263 311.829ZM298.517 259.432C297.811 259.969 296.987 260.331 296.114 260.486C295.241 260.642 294.343 260.587 293.495 260.327C292.647 260.067 291.873 259.608 291.238 258.99C290.602 258.371 290.123 257.61 289.84 256.769C288.867 254.567 288.402 252.174 288.481 249.768C288.481 241.222 292.968 231.707 298.517 228.504C299.266 228.057 300.084 227.736 300.937 227.555C305.332 226.679 308.553 230.888 308.553 238.168C308.553 246.715 304.066 256.229 298.517 259.432ZM342.199 261.629C340.728 262.486 339.537 261.35 339.537 259.097C339.526 258.024 339.76 256.964 340.221 255.996C340.683 255.027 341.359 254.178 342.199 253.511C343.67 252.673 344.862 253.809 344.862 256.08C344.873 257.147 344.639 258.203 344.177 259.165C343.715 260.127 343.039 260.97 342.199 261.629Z" fill="#010101"/>
<path opacity="0.25" d="M242.581 307.956C242.307 308.823 242.174 309.728 242.19 310.637V328.047L235.934 324.435V307.044C235.931 306.583 235.962 306.122 236.027 305.666C236.019 305.517 236.019 305.368 236.027 305.219C236.02 305.163 236.02 305.107 236.027 305.051C236.027 304.884 236.027 304.716 236.157 304.53V304.344L242.581 307.956Z" fill="#010101"/>
<path opacity="0.25" d="M263.511 272.988C260.587 277.009 259.787 280.268 255.839 286.673L249.602 283.024C253.512 276.6 254.35 273.36 257.273 269.301L263.511 272.988Z" fill="#010101"/>
<path opacity="0.25" d="M287.419 225.301C283.695 233.736 282.354 243.679 279.338 251.22C278.751 252.728 278.08 254.201 277.327 255.633L271.07 252.039C271.275 251.648 271.48 251.238 271.666 250.847C271.852 250.456 272.281 249.563 272.56 248.874C272.727 248.483 272.914 248.054 273.081 247.626C273.249 247.198 273.51 246.49 273.714 245.913L274.143 244.684C274.813 242.655 275.409 240.532 276.005 238.316L276.433 236.659C276.582 236.1 276.712 235.56 276.861 234.983C277.159 233.94 277.42 232.879 277.699 231.855C277.707 231.774 277.707 231.693 277.699 231.613L278.183 229.918C278.276 229.658 278.351 229.36 278.444 229.081C278.686 228.243 278.965 227.405 279.244 226.567C279.524 225.729 279.803 224.928 280.12 224.109C280.436 223.29 280.753 222.489 281.106 221.707L287.419 225.301Z" fill="#010101"/>
<path d="M253.384 305.926C252.886 306.974 252.62 308.117 252.602 309.277C252.527 310.145 252.795 311.007 253.347 311.679C252.812 310.998 252.552 310.141 252.621 309.277C252.641 308.119 252.901 306.978 253.384 305.926ZM257.928 306.205C257.926 305.811 257.882 305.417 257.797 305.032C257.876 305.418 257.913 305.811 257.909 306.205C257.887 307.461 257.581 308.696 257.015 309.817C257.587 308.697 257.899 307.462 257.928 306.205ZM340.489 261.666C340.661 261.798 340.864 261.885 341.079 261.918C341.294 261.95 341.514 261.928 341.718 261.852C341.512 261.917 341.295 261.934 341.082 261.901C340.869 261.869 340.666 261.789 340.489 261.666Z" fill="white"/>
<path d="M308.572 238.167C308.572 246.714 304.066 256.229 298.517 259.431C297.806 259.949 296.984 260.294 296.117 260.44C295.25 260.586 294.36 260.529 293.519 260.272C292.678 260.016 291.908 259.568 291.269 258.963C290.631 258.358 290.141 257.613 289.84 256.787C290.701 256.602 291.525 256.275 292.279 255.819C297.865 252.598 302.315 243.101 302.315 234.555C302.397 232.147 301.925 229.752 300.937 227.554C305.369 226.679 308.572 230.887 308.572 238.167Z" fill="white"/>
<path opacity="0.3" d="M308.572 238.167C308.572 246.714 304.066 256.229 298.517 259.431C297.806 259.949 296.984 260.294 296.117 260.44C295.25 260.586 294.36 260.529 293.519 260.272C292.678 260.016 291.908 259.568 291.269 258.963C290.631 258.358 290.141 257.613 289.84 256.787C290.701 256.602 291.525 256.275 292.279 255.819C297.865 252.598 302.315 243.101 302.315 234.555C302.397 232.147 301.925 229.752 300.937 227.554C305.369 226.679 308.572 230.887 308.572 238.167Z" fill="#010101"/>
<path d="M256.956 309.817C256.768 310.208 256.537 310.576 256.267 310.915C255.976 311.279 255.623 311.588 255.225 311.828C254.945 312.022 254.607 312.114 254.267 312.087C253.927 312.06 253.608 311.915 253.363 311.679C252.81 311.006 252.543 310.144 252.618 309.277C252.635 308.117 252.902 306.974 253.4 305.925C253.789 305 254.435 304.205 255.262 303.635C255.404 303.54 255.561 303.47 255.727 303.43C255.982 303.341 256.257 303.329 256.519 303.396C256.78 303.462 257.017 303.603 257.198 303.803C257.502 304.152 257.707 304.576 257.794 305.032C257.879 305.417 257.923 305.81 257.925 306.205C257.896 307.469 257.564 308.708 256.956 309.817Z" fill="#37474F"/>
<path d="M344.862 256.024C344.837 257.594 344.352 259.122 343.465 260.418C343.253 260.722 343.009 261.003 342.739 261.256C342.553 261.387 342.385 261.536 342.199 261.647C342.05 261.742 341.887 261.811 341.715 261.852C341.463 261.937 341.191 261.947 340.934 261.881C340.676 261.815 340.443 261.675 340.263 261.48C339.733 260.803 339.474 259.953 339.536 259.096C339.555 257.39 340.13 255.736 341.175 254.386L341.417 254.106L341.678 253.846C341.839 253.699 342.013 253.568 342.199 253.455C343.67 252.598 344.862 253.771 344.862 256.024Z" fill="#37474F"/>
<path d="M181.566 364.411L415.545 229.323C416.165 229.011 416.851 228.848 417.546 228.848C418.241 228.848 418.927 229.011 419.548 229.323L421.801 230.627C422.384 231.011 422.869 231.525 423.218 232.13C423.567 232.734 423.771 233.412 423.812 234.109V591.054C423.772 591.749 423.569 592.424 423.22 593.026C422.871 593.627 422.384 594.138 421.801 594.517L187.822 729.605C187.204 729.927 186.517 730.095 185.82 730.095C185.123 730.095 184.437 729.927 183.819 729.605L181.566 728.302C180.981 727.924 180.494 727.414 180.145 726.812C179.795 726.21 179.593 725.534 179.555 724.839V367.893C179.592 367.195 179.793 366.516 180.143 365.911C180.492 365.306 180.98 364.792 181.566 364.411Z" fill="#F5F5F5"/>
<path d="M423.735 233.495C423.475 232.676 422.711 232.415 421.873 232.936L187.82 368.025C187.227 368.398 186.74 368.917 186.405 369.533L180.148 365.92C180.471 365.301 180.962 364.785 181.564 364.431L415.542 229.343C416.157 229.021 416.841 228.854 417.535 228.854C418.229 228.854 418.912 229.021 419.527 229.343L421.799 230.628C422.296 230.953 422.723 231.374 423.056 231.866C423.388 232.359 423.619 232.912 423.735 233.495Z" fill="#FAFAFA"/>
<path d="M187.356 729.904C187.116 729.994 186.866 730.057 186.612 730.09H186.221C185.819 730.136 185.412 730.136 185.01 730.09C184.755 730.059 184.505 729.996 184.266 729.904L183.819 729.68L181.566 728.377C180.979 728.001 180.49 727.491 180.141 726.889C179.791 726.286 179.59 725.609 179.555 724.914V367.894C179.574 367.194 179.78 366.513 180.151 365.92L186.407 369.532C186.054 370.132 185.856 370.81 185.83 371.506V728.451C185.83 729.55 186.463 730.09 187.356 729.904Z" fill="#E0E0E0"/>
<path d="M279.784 282.428L279.468 282.949C278.721 284.168 278.18 285.502 277.867 286.897C277.867 287.008 277.867 287.064 277.867 287.12C277.862 287.151 277.862 287.182 277.867 287.213L274.049 308.701L272.858 315.571C272.858 315.851 272.727 316.13 272.653 316.428C272.58 316.705 272.493 316.979 272.392 317.247C272.392 317.433 272.262 317.62 272.188 317.806L278.444 321.418C278.743 320.699 278.961 319.95 279.096 319.184L280.324 312.313L284.048 290.825C284.331 289.103 285 287.467 286.004 286.04L279.784 282.428Z" fill="white"/>
<path d="M236.7 351.751C236.067 352.756 235.472 353.762 234.838 354.767C234.578 355.251 234.317 355.735 234.075 356.219C233.833 356.704 233.479 357.467 233.219 358.081C232.958 358.696 232.623 359.459 232.362 360.167C232.101 360.874 231.841 361.582 231.599 362.29C231.357 362.997 231.059 363.947 230.835 364.785C230.686 365.325 230.537 365.865 230.388 366.442C230.041 367.758 229.724 369.098 229.439 370.464C229.439 370.929 229.234 371.413 229.159 371.879C229.085 372.344 228.917 373.033 228.824 373.592C228.824 373.592 228.824 373.592 228.824 373.685C228.824 374.132 228.824 374.43 229.048 374.56C229.077 374.574 229.109 374.58 229.141 374.58C229.173 374.58 229.205 374.574 229.234 374.56L234.615 370.352L235.49 369.663L235.918 369.347L236.384 368.974L236.756 368.695L237.073 368.434C238.644 362.742 241.265 357.393 244.8 352.663L238.544 349.051C237.929 349.945 237.296 350.857 236.7 351.751Z" fill="white"/>
<path d="M304.399 235.15C304.101 235.635 303.841 236.119 303.58 236.603C303.409 236.87 303.26 237.15 303.133 237.441C302.91 237.832 302.724 238.241 302.519 238.651C302.314 239.061 302.184 239.303 302.035 239.638C301.718 240.271 301.439 240.904 301.178 241.5C300.917 242.096 300.582 242.878 300.322 243.567C300.061 244.181 299.856 244.796 299.651 245.429C299.316 246.36 299.037 247.291 298.776 248.24C298.627 248.743 298.515 249.227 298.385 249.711C298.388 249.748 298.388 249.786 298.385 249.823C298.385 250.084 298.255 250.326 298.218 250.586C298.069 251.164 297.957 251.759 297.864 252.337C297.771 252.914 297.678 253.249 297.547 253.715C297.417 254.18 297.305 254.683 297.156 255.167C297.007 255.651 296.858 256.079 296.709 256.545C296.709 256.545 296.709 256.545 296.709 256.675C296.523 257.178 296.318 257.699 296.095 258.221C295.871 258.742 295.685 259.245 295.425 259.785C295.361 259.924 295.305 260.067 295.257 260.213C295.071 260.604 294.866 260.995 294.68 261.405L293.693 263.267C293.469 263.713 293.246 264.123 293.004 264.551L299.279 268.164C301.534 264.359 303.18 260.225 304.157 255.912C305.341 249.815 307.571 243.969 310.749 238.632L304.399 235.15Z" fill="white"/>
<path d="M341.622 249.079C341.31 248.891 340.96 248.776 340.598 248.744C341.205 249.714 342.022 250.535 342.989 251.147C343.956 251.76 345.047 252.147 346.184 252.282C346.722 252.289 347.254 252.403 347.748 252.617L341.622 249.079Z" fill="white"/>
<path opacity="0.4" d="M341.622 249.079C341.31 248.891 340.96 248.776 340.598 248.744C341.205 249.714 342.022 250.535 342.989 251.147C343.956 251.76 345.047 252.147 346.184 252.282C346.722 252.289 347.254 252.403 347.748 252.617L341.622 249.079Z" fill="white"/>
<path d="M364.955 276.283C363.972 275.802 362.888 275.568 361.794 275.601C360.701 275.633 359.632 275.931 358.68 276.469C351.4 279.671 348.253 281.124 344.492 282.688C343.765 287.529 346.614 287.976 348.029 287.399C353.317 285.313 356.017 284.029 364.955 280.1C365.899 279.57 366.957 279.275 368.039 279.239C369.122 279.203 370.197 279.428 371.174 279.895L364.955 276.283Z" fill="white"/>
<path opacity="0.4" d="M364.955 276.283C363.972 275.802 362.888 275.568 361.794 275.601C360.701 275.633 359.632 275.931 358.68 276.469C351.4 279.671 348.253 281.124 344.492 282.688C343.765 287.529 346.614 287.976 348.029 287.399C353.317 285.313 356.017 284.029 364.955 280.1C365.899 279.57 366.957 279.275 368.039 279.239C369.122 279.203 370.197 279.428 371.174 279.895L364.955 276.283Z" fill="white"/>
<path d="M278.409 321.417C277.062 324.366 275.166 327.033 272.823 329.275L253.235 344.003C250.104 346.553 247.279 349.459 244.819 352.661L238.562 349.049C241.017 345.836 243.842 342.924 246.979 340.372L266.604 325.662C268.905 323.405 270.768 320.741 272.097 317.805L278.409 321.417Z" fill="white"/>
<path opacity="0.4" d="M278.409 321.417C277.062 324.366 275.166 327.033 272.823 329.275L253.235 344.003C250.104 346.553 247.279 349.459 244.819 352.661L238.562 349.049C241.017 345.836 243.842 342.924 246.979 340.372L266.604 325.662C268.905 323.405 270.768 320.741 272.097 317.805L278.409 321.417Z" fill="white"/>
<path d="M299.187 268.313C296.485 273.309 293.157 277.94 289.281 282.092C288.061 283.287 286.975 284.61 286.041 286.04L279.785 282.427C280.703 280.987 281.791 279.661 283.025 278.48C286.894 274.326 290.216 269.696 292.912 264.701L299.187 268.313Z" fill="white"/>
<path opacity="0.4" d="M299.187 268.313C296.485 273.309 293.157 277.94 289.281 282.092C288.061 283.287 286.975 284.61 286.041 286.04L279.785 282.427C280.703 280.987 281.791 279.661 283.025 278.48C286.894 274.326 290.216 269.696 292.912 264.701L299.187 268.313Z" fill="white"/>
<path d="M334.529 222.08C332.22 220.869 329.147 221.074 325.535 222.973C320.173 225.785 314.773 231.743 310.639 238.782L304.383 235.058C308.479 228.019 313.879 222.024 319.279 219.249C321.034 218.259 323 217.703 325.014 217.629C326.219 217.614 327.407 217.916 328.458 218.505L334.529 222.08Z" fill="white"/>
<path opacity="0.4" d="M334.529 222.08C332.22 220.869 329.147 221.074 325.535 222.973C320.173 225.785 314.773 231.743 310.639 238.782L304.383 235.058C308.479 228.019 313.879 222.024 319.279 219.249C321.034 218.259 323 217.703 325.014 217.629C326.219 217.614 327.407 217.916 328.458 218.505L334.529 222.08Z" fill="white"/>
<path opacity="0.15" d="M244.872 352.663C241.337 357.393 238.716 362.742 237.145 368.434L236.828 368.695L236.456 368.974L235.991 369.346L235.562 369.663L234.687 370.352L229.38 374.597C229.351 374.611 229.319 374.618 229.287 374.618C229.255 374.618 229.223 374.611 229.194 374.597C228.989 374.467 228.896 374.169 228.971 373.722C228.971 373.722 228.971 373.722 228.971 373.629C228.971 373.07 229.176 372.493 229.306 371.916C229.436 371.339 229.492 370.966 229.585 370.501C229.871 369.148 230.187 367.807 230.535 366.479C230.684 365.902 230.833 365.362 230.982 364.822C231.205 363.984 231.466 363.165 231.745 362.327C232.024 361.489 232.229 360.912 232.509 360.204C232.788 359.496 233.049 358.808 233.365 358.119C233.682 357.43 233.924 356.834 234.222 356.257C234.52 355.679 234.724 355.288 234.985 354.804C235.525 353.799 236.121 352.793 236.847 351.788C237.573 350.782 238.076 349.926 238.709 349.088L244.872 352.663Z" fill="#010101"/>
<path opacity="0.15" d="M286.043 286.04C285.039 287.467 284.37 289.103 284.088 290.825L280.364 312.313L279.135 319.184C279 319.95 278.782 320.699 278.483 321.418L272.227 317.806C272.227 317.62 272.376 317.433 272.431 317.247C272.532 316.979 272.619 316.705 272.692 316.428C272.692 316.13 272.841 315.851 272.897 315.571L274.089 308.701L277.906 287.213C277.901 287.182 277.901 287.151 277.906 287.12C277.906 287.12 277.906 287.008 277.906 286.897C278.219 285.502 278.76 284.168 279.507 282.949L279.824 282.428L286.043 286.04Z" fill="#010101"/>
<path opacity="0.15" d="M310.659 238.783C307.481 244.119 305.251 249.965 304.067 256.062C303.09 260.375 301.444 264.509 299.189 268.314L292.914 264.702C293.156 264.274 293.38 263.864 293.603 263.417L294.59 261.555C294.776 261.145 294.981 260.754 295.167 260.363C295.215 260.217 295.271 260.075 295.335 259.935C295.577 259.414 295.8 258.874 296.005 258.371C296.21 257.868 296.433 257.328 296.619 256.825C296.619 256.825 296.619 256.732 296.619 256.695C296.768 256.23 296.936 255.783 297.066 255.317C297.197 254.852 297.346 254.349 297.457 253.865C297.569 253.381 297.681 252.934 297.774 252.487C297.867 252.04 297.979 251.314 298.128 250.737C298.128 250.476 298.239 250.234 298.295 249.973C298.298 249.936 298.298 249.899 298.295 249.862C298.426 249.377 298.537 248.893 298.686 248.391C298.947 247.441 299.226 246.529 299.561 245.579C299.766 244.946 299.971 244.331 300.232 243.717C300.492 243.028 300.79 242.339 301.088 241.65C301.386 240.961 301.628 240.384 301.945 239.788C302.094 239.453 302.261 239.136 302.429 238.801C302.596 238.466 302.82 237.982 303.043 237.591C303.17 237.3 303.319 237.02 303.49 236.753C303.751 236.269 304.012 235.785 304.309 235.301L310.659 238.783Z" fill="#010101"/>
<path d="M229.324 374.597L234.612 370.352C232.508 372.046 229.641 374.262 229.324 374.597Z" fill="white"/>
<path d="M371.191 279.932C370.211 279.465 369.135 279.239 368.05 279.271C366.965 279.304 365.904 279.594 364.953 280.118C356.035 284.066 353.335 285.35 348.047 287.454C346.631 288.013 343.783 287.566 344.509 282.725C344.501 282.62 344.501 282.514 344.509 282.408L345.719 275.538L349.108 256.806C349.108 256.806 349.871 253.845 347.916 252.747H347.767C347.287 252.511 346.757 252.395 346.222 252.412C345.083 252.272 343.989 251.878 343.022 251.259C342.056 250.64 341.24 249.812 340.636 248.837C339.59 247.282 338.865 245.534 338.504 243.695C338.143 241.857 338.152 239.965 338.532 238.13C339.965 230.086 338.401 224.463 334.808 222.378L334.528 222.191C332.22 220.981 329.147 221.186 325.535 223.085C316.02 228.075 306.412 242.878 304.066 256.173C302.595 264.552 294.16 277.455 289.282 282.241C284.403 287.026 284.087 290.974 284.087 290.974L280.363 312.461L279.134 319.332C278.24 324.471 272.971 329.443 272.971 329.443L253.233 344.003C245.403 350.233 239.75 358.786 237.09 368.433C237.09 368.433 229.642 374.131 229.27 374.596L231.783 373.162L367.188 295.312C367.188 295.312 368.752 294.474 369.05 294.251C369.348 294.027 374.841 288.888 374.841 288.888C374.748 284.457 373.463 281.291 371.191 279.932ZM332.089 240.439C330.637 248.613 324.753 257.718 318.906 260.791C314.866 262.895 311.905 261.591 310.918 257.867C310.485 255.779 310.485 253.624 310.918 251.536C312.352 243.362 318.273 234.257 324.12 231.203C324.661 230.909 325.228 230.666 325.814 230.477C330.6 229.025 333.299 233.103 332.052 240.439H332.089Z" fill="white"/>
<path d="M229.345 374.615L367.282 295.331L369.144 294.27C369.48 294.065 374.935 288.889 374.935 288.889L237.147 368.433C237.147 368.433 228.805 374.913 229.345 374.615Z" fill="white"/>
<path opacity="0.3" d="M229.345 374.615L367.282 295.331L369.144 294.27C369.48 294.065 374.935 288.889 374.935 288.889L237.147 368.433C237.147 368.433 228.805 374.913 229.345 374.615Z" fill="#010101"/>
<path d="M325.85 230.477C325.264 230.666 324.696 230.909 324.155 231.203C318.309 234.257 312.387 243.362 310.954 251.536C310.521 253.624 310.521 255.779 310.954 257.867C311.941 261.591 314.901 262.894 318.942 260.79C324.788 257.718 330.672 248.613 332.125 240.439C333.298 233.102 330.598 229.025 325.85 230.477ZM311.326 257.718C310.914 255.703 310.914 253.626 311.326 251.611C312.76 243.53 318.588 234.536 324.36 231.538C324.84 231.285 325.338 231.067 325.85 230.887C326.231 232.854 326.231 234.877 325.85 236.845C324.416 245.019 318.513 254.124 312.648 257.197C312.222 257.421 311.78 257.614 311.326 257.774V257.718Z" fill="white"/>
<path opacity="0.4" d="M325.85 230.477C325.264 230.666 324.696 230.909 324.155 231.203C318.309 234.257 312.387 243.362 310.954 251.536C310.521 253.624 310.521 255.779 310.954 257.867C311.941 261.591 314.901 262.894 318.942 260.79C324.788 257.718 330.672 248.613 332.125 240.439C333.298 233.102 330.598 229.025 325.85 230.477ZM311.326 257.718C310.914 255.703 310.914 253.626 311.326 251.611C312.76 243.53 318.588 234.536 324.36 231.538C324.84 231.285 325.338 231.067 325.85 230.887C326.231 232.854 326.231 234.877 325.85 236.845C324.416 245.019 318.513 254.124 312.648 257.197C312.222 257.421 311.78 257.614 311.326 257.774V257.718Z" fill="#010101"/>
<path d="M217.242 479.819C216.948 479.82 216.659 479.743 216.404 479.595C216.098 479.398 215.852 479.119 215.694 478.791C215.537 478.462 215.473 478.096 215.51 477.733V469.783C215.538 469.068 215.739 468.371 216.096 467.752C216.453 467.132 216.955 466.609 217.559 466.226L224.504 462.223C224.792 462.032 225.127 461.926 225.472 461.915C225.817 461.904 226.159 461.989 226.458 462.161C226.758 462.333 227.003 462.585 227.168 462.889C227.332 463.192 227.409 463.535 227.39 463.88V471.905C227.365 472.62 227.166 473.319 226.809 473.939C226.452 474.559 225.948 475.082 225.342 475.462L218.397 479.484C218.048 479.695 217.65 479.81 217.242 479.819ZM225.658 463.545C225.548 463.576 225.442 463.619 225.342 463.675L218.397 467.679C218.048 467.914 217.757 468.225 217.547 468.59C217.338 468.955 217.214 469.363 217.186 469.783V477.808C217.155 477.917 217.155 478.033 217.186 478.143C217.297 478.124 217.405 478.087 217.503 478.031L224.448 474.009C224.797 473.774 225.088 473.462 225.297 473.098C225.507 472.733 225.631 472.325 225.658 471.905V463.88C225.668 463.8 225.668 463.718 225.658 463.638V463.545Z" fill="#898989"/>
<path d="M233.291 461.068L260.662 445.259C261.575 444.738 262.301 445.147 262.301 446.19V448.331C262.268 448.896 262.103 449.445 261.818 449.933C261.533 450.422 261.137 450.836 260.662 451.143L233.291 466.951C232.397 467.473 231.652 467.063 231.652 466.02V463.879C231.685 463.315 231.85 462.766 232.135 462.277C232.42 461.789 232.816 461.374 233.291 461.068Z" fill="#E0E0E0"/>
<path d="M285.072 440.661C284.778 440.664 284.488 440.587 284.234 440.438C283.924 440.243 283.675 439.965 283.514 439.636C283.353 439.307 283.286 438.94 283.322 438.576V430.551C283.353 429.835 283.558 429.137 283.918 428.518C284.278 427.899 284.782 427.376 285.389 426.994L292.334 422.991C292.621 422.785 292.961 422.665 293.314 422.645C293.667 422.626 294.018 422.707 294.326 422.879C294.627 423.06 294.87 423.322 295.028 423.635C295.186 423.948 295.253 424.299 295.22 424.648V432.673C295.195 433.388 294.996 434.086 294.639 434.706C294.282 435.326 293.778 435.849 293.172 436.23L286.227 440.252C285.885 440.489 285.487 440.63 285.072 440.661ZM293.47 424.387C293.368 424.424 293.268 424.468 293.172 424.518L286.227 428.521C285.875 428.755 285.582 429.066 285.369 429.431C285.156 429.795 285.029 430.204 284.998 430.625V438.65C284.961 438.759 284.961 438.877 284.998 438.985C285.108 438.964 285.215 438.926 285.314 438.874L292.259 434.852C292.61 434.619 292.902 434.307 293.112 433.942C293.323 433.577 293.445 433.168 293.47 432.748V424.722C293.503 424.613 293.503 424.497 293.47 424.387Z" fill="#898989"/>
<path d="M301.123 421.909L328.494 406.101C329.407 405.58 330.133 405.989 330.133 407.032V409.173C330.1 409.738 329.935 410.287 329.65 410.775C329.365 411.264 328.969 411.678 328.494 411.985L301.123 427.793C300.211 428.315 299.484 427.905 299.484 426.862V424.721C299.527 424.159 299.696 423.614 299.98 423.127C300.264 422.64 300.655 422.223 301.123 421.909Z" fill="#E0E0E0"/>
<path d="M352.889 401.503C352.594 401.504 352.305 401.427 352.051 401.279C351.747 401.079 351.504 400.8 351.346 400.472C351.189 400.144 351.124 399.78 351.157 399.417V391.392C351.186 390.678 351.388 389.982 351.745 389.363C352.101 388.743 352.602 388.22 353.205 387.836L360.15 383.833C360.44 383.635 360.779 383.524 361.129 383.511C361.479 383.498 361.825 383.584 362.129 383.759C362.432 383.934 362.68 384.191 362.844 384.5C363.007 384.81 363.081 385.159 363.055 385.508V393.515C363.027 394.231 362.824 394.93 362.463 395.55C362.103 396.17 361.597 396.692 360.988 397.071L354.043 401.093C353.703 401.332 353.303 401.474 352.889 401.503ZM354.043 389.363C353.697 389.601 353.409 389.913 353.199 390.277C352.99 390.641 352.864 391.048 352.833 391.467V399.492C352.796 399.601 352.796 399.718 352.833 399.827C352.94 399.815 353.042 399.777 353.131 399.715L360.076 395.693C360.427 395.459 360.721 395.148 360.934 394.784C361.147 394.419 361.274 394.011 361.305 393.589V385.583C361.339 385.467 361.339 385.344 361.305 385.229C361.305 385.229 361.193 385.229 360.988 385.359L354.043 389.363Z" fill="#898989"/>
<path d="M368.955 382.751L396.326 366.943C397.22 366.421 397.965 366.831 397.965 367.874V370.015C397.922 370.577 397.753 371.122 397.469 371.609C397.185 372.096 396.794 372.513 396.326 372.827L368.955 388.635C368.043 389.156 367.316 388.747 367.316 387.704V385.563C367.349 384.998 367.514 384.449 367.799 383.961C368.084 383.472 368.48 383.058 368.955 382.751Z" fill="#E0E0E0"/>
<path d="M233.367 421.891V425.019C233.367 426.732 234.559 427.421 236.03 426.565L396.162 334.191C396.938 333.681 397.584 332.996 398.046 332.19C398.509 331.385 398.775 330.482 398.825 329.555V326.408C398.825 324.713 397.633 324.024 396.162 324.862L236.03 417.255C235.253 417.765 234.608 418.45 234.145 419.255C233.683 420.061 233.416 420.964 233.367 421.891Z" fill="#E0E0E0"/>
<path d="M221.168 397.461V400.59C221.168 402.303 222.36 402.992 223.849 402.135L383.888 309.761C384.67 309.256 385.321 308.572 385.787 307.766C386.253 306.96 386.521 306.055 386.569 305.125V301.978C386.569 300.284 385.378 299.595 383.888 300.433L223.849 392.881C223.075 393.381 222.429 394.056 221.963 394.852C221.497 395.647 221.225 396.541 221.168 397.461Z" fill="#898989"/>
<path d="M233.367 440.828V443.974C233.367 445.669 234.559 446.358 236.03 445.52L396.162 353.146C396.938 352.636 397.584 351.951 398.046 351.145C398.509 350.34 398.775 349.437 398.825 348.51V345.363C398.825 343.668 397.633 342.98 396.162 343.817L236.03 436.21C235.256 436.718 234.612 437.4 234.149 438.202C233.687 439.004 233.419 439.903 233.367 440.828Z" fill="#E0E0E0"/>
<path d="M215.824 442.448C220.014 438.295 221.056 436.527 221.056 435C221.056 433.473 220.442 432.654 218.561 433.734C217.748 434.206 217.048 434.851 216.511 435.623C215.974 436.395 215.612 437.276 215.452 438.202L210.871 439.226C211.27 436.827 212.175 434.539 213.527 432.517C214.879 430.494 216.645 428.782 218.71 427.496C223.291 424.852 225.953 426.826 225.953 431.22C225.697 435.498 223.835 439.521 220.74 442.485V446.116L215.824 448.946V442.448Z" fill="#898989"/>
<path d="M215.77 454.514C215.762 453.619 215.988 452.738 216.426 451.958C216.864 451.177 217.497 450.524 218.265 450.064C219.903 449.114 220.741 449.952 220.741 451.647C220.755 452.546 220.534 453.433 220.1 454.22C219.665 455.007 219.033 455.667 218.265 456.134C216.608 457.084 215.77 456.19 215.77 454.514Z" fill="#898989"/>
<path d="M218.321 469.782L220.369 471.327L218.507 474.865C218.347 475.08 218.261 475.341 218.261 475.61C218.261 475.878 218.347 476.139 218.507 476.355C218.861 476.615 219.364 476.355 219.662 475.796L221.524 472.277L223.572 473.822C223.87 474.046 224.317 473.822 224.578 473.338C224.715 473.152 224.789 472.927 224.789 472.696C224.789 472.464 224.715 472.239 224.578 472.053L222.529 470.508L224.391 466.97C224.552 466.755 224.638 466.494 224.638 466.225C224.638 465.957 224.552 465.696 224.391 465.48C224.038 465.22 223.535 465.48 223.237 466.039L221.375 469.577L219.327 468.031C219.029 467.808 218.582 468.031 218.321 468.497C218.184 468.683 218.109 468.908 218.109 469.139C218.109 469.371 218.184 469.596 218.321 469.782Z" fill="white"/>
<path d="M217.242 550.519C216.95 550.527 216.66 550.456 216.404 550.314C216.098 550.117 215.852 549.838 215.694 549.51C215.537 549.181 215.473 548.815 215.51 548.452V540.427C215.535 539.712 215.735 539.014 216.092 538.394C216.449 537.774 216.953 537.251 217.559 536.871L224.504 532.867C224.792 532.677 225.127 532.57 225.472 532.56C225.817 532.549 226.159 532.634 226.458 532.806C226.758 532.978 227.003 533.23 227.168 533.533C227.332 533.837 227.409 534.18 227.39 534.525V542.55C227.365 543.265 227.166 543.963 226.809 544.583C226.452 545.203 225.948 545.726 225.342 546.106L218.397 550.11C218.055 550.347 217.657 550.488 217.242 550.519ZM225.658 534.264C225.545 534.285 225.437 534.329 225.342 534.394L218.397 538.398C218.048 538.633 217.757 538.944 217.547 539.309C217.338 539.674 217.214 540.082 217.186 540.502V548.527C217.155 548.636 217.155 548.752 217.186 548.862C217.297 548.843 217.405 548.806 217.503 548.75L224.448 544.728C224.797 544.493 225.088 544.182 225.297 543.817C225.507 543.452 225.631 543.044 225.658 542.624V534.599C225.676 534.488 225.676 534.375 225.658 534.264Z" fill="#898989"/>
<path d="M233.291 531.768L260.662 515.978C261.575 515.457 262.301 515.866 262.301 516.909V519.032C262.271 519.599 262.107 520.152 261.822 520.644C261.537 521.136 261.14 521.553 260.662 521.862L233.291 537.67C232.397 538.192 231.652 537.763 231.652 536.721V534.598C231.684 534.031 231.848 533.479 232.133 532.987C232.418 532.495 232.814 532.077 233.291 531.768Z" fill="#E0E0E0"/>
<path d="M285.072 511.361C284.779 511.371 284.49 511.3 284.234 511.156C283.924 510.961 283.675 510.684 283.514 510.355C283.353 510.026 283.286 509.659 283.322 509.294V501.269C283.35 500.553 283.553 499.854 283.913 499.234C284.274 498.614 284.78 498.092 285.389 497.713L292.334 493.71C292.621 493.504 292.961 493.384 293.314 493.364C293.667 493.344 294.018 493.425 294.326 493.598C294.627 493.779 294.87 494.041 295.028 494.353C295.186 494.666 295.253 495.018 295.22 495.367V503.392C295.195 504.107 294.996 504.805 294.639 505.425C294.282 506.045 293.778 506.568 293.172 506.948L286.227 510.952C285.885 511.189 285.487 511.33 285.072 511.361ZM293.47 495.106C293.364 495.132 293.263 495.176 293.172 495.236L286.227 499.24C285.875 499.474 285.582 499.785 285.369 500.15C285.156 500.514 285.029 500.923 284.998 501.344V509.369C284.961 509.478 284.961 509.595 284.998 509.704C285.108 509.682 285.215 509.645 285.314 509.592L292.259 505.57C292.608 505.335 292.899 505.024 293.109 504.659C293.319 504.294 293.442 503.886 293.47 503.466V495.441C293.503 495.332 293.503 495.215 293.47 495.106Z" fill="#898989"/>
<path d="M301.123 492.61L328.494 476.82C329.407 476.298 330.133 476.708 330.133 477.751V479.873C330.103 480.441 329.939 480.994 329.654 481.486C329.369 481.978 328.972 482.395 328.494 482.704L301.123 498.512C300.211 499.033 299.484 498.512 299.484 497.562V495.44C299.524 494.874 299.692 494.326 299.976 493.835C300.26 493.345 300.652 492.925 301.123 492.61Z" fill="#E0E0E0"/>
<path d="M352.889 472.202C352.596 472.21 352.307 472.139 352.051 471.997C351.747 471.797 351.504 471.518 351.346 471.19C351.189 470.862 351.124 470.497 351.157 470.135V462.11C351.186 461.396 351.388 460.7 351.745 460.08C352.101 459.461 352.602 458.937 353.205 458.554L360.15 454.55C360.439 454.355 360.776 454.244 361.124 454.23C361.472 454.216 361.817 454.301 362.119 454.473C362.422 454.646 362.67 454.9 362.836 455.206C363.001 455.513 363.077 455.86 363.055 456.208V464.233C363.027 464.949 362.824 465.648 362.463 466.268C362.103 466.888 361.597 467.41 360.988 467.789L354.043 471.792C353.703 472.031 353.303 472.173 352.889 472.202ZM354.043 460.08C353.697 460.319 353.409 460.631 353.199 460.995C352.99 461.359 352.864 461.766 352.833 462.185V470.21C352.796 470.318 352.796 470.436 352.833 470.545C352.937 470.521 353.037 470.484 353.131 470.433L360.076 466.411C360.427 466.177 360.721 465.866 360.934 465.501C361.147 465.137 361.274 464.728 361.305 464.307V456.282C361.338 456.173 361.338 456.056 361.305 455.947C361.193 455.974 361.087 456.018 360.988 456.077L354.043 460.08Z" fill="#898989"/>
<path d="M368.955 453.451L396.326 437.662C397.22 437.14 397.965 437.55 397.965 438.593V440.715C397.925 441.281 397.757 441.829 397.473 442.32C397.189 442.81 396.797 443.229 396.326 443.545L368.955 459.354C368.043 459.875 367.316 459.447 367.316 458.404V456.282C367.346 455.714 367.51 455.161 367.795 454.669C368.08 454.177 368.477 453.76 368.955 453.451Z" fill="#E0E0E0"/>
<path d="M233.367 492.591V495.738C233.367 497.432 234.559 498.121 236.03 497.284L396.162 404.91C396.938 404.4 397.584 403.715 398.046 402.909C398.509 402.104 398.775 401.201 398.825 400.273V397.127C398.825 395.432 397.633 394.743 396.162 395.581L236.03 487.974C235.256 488.482 234.612 489.164 234.149 489.966C233.687 490.768 233.419 491.667 233.367 492.591Z" fill="#E0E0E0"/>
<path d="M233.367 511.546V514.693C233.367 516.387 234.559 517.076 236.03 516.238L396.162 423.846C396.94 423.342 397.587 422.661 398.05 421.858C398.513 421.055 398.778 420.154 398.825 419.228V416.081C398.825 414.368 397.633 413.679 396.162 414.536L236.03 506.928C235.256 507.436 234.612 508.119 234.149 508.921C233.687 509.723 233.419 510.622 233.367 511.546Z" fill="#E0E0E0"/>
<path d="M215.824 513.166C220.014 509.013 221.056 507.245 221.056 505.718C221.056 504.191 220.442 503.372 218.561 504.452C217.748 504.924 217.048 505.569 216.511 506.341C215.974 507.113 215.612 507.994 215.452 508.92L210.871 509.944C211.27 507.545 212.175 505.257 213.527 503.235C214.879 501.212 216.645 499.5 218.71 498.214C223.291 495.57 225.953 497.543 225.953 502.031C225.697 506.309 223.835 510.332 220.74 513.296V516.927L215.824 519.757V513.166Z" fill="#898989"/>
<path d="M215.77 525.233C215.762 524.338 215.988 523.457 216.426 522.676C216.864 521.896 217.497 521.243 218.265 520.783C219.903 519.833 220.741 520.671 220.741 522.365C220.754 523.264 220.532 524.15 220.097 524.937C219.663 525.724 219.032 526.384 218.265 526.853C216.608 527.802 215.77 526.946 215.77 525.233Z" fill="#898989"/>
<path d="M286.153 501.268L288.201 502.813L286.339 506.351C286.179 506.566 286.093 506.828 286.093 507.096C286.093 507.364 286.179 507.625 286.339 507.841C286.675 508.101 287.196 507.841 287.494 507.282L289.356 503.763L291.404 505.308C291.702 505.532 292.149 505.308 292.391 504.824C292.529 504.638 292.603 504.413 292.603 504.182C292.603 503.951 292.529 503.725 292.391 503.539L290.343 501.994L292.205 498.456C292.355 498.232 292.427 497.965 292.41 497.696C292.393 497.426 292.289 497.17 292.112 496.967C291.777 496.725 291.255 496.967 290.957 497.525L289.095 501.063L287.047 499.518C286.768 499.294 286.321 499.518 286.06 499.983C285.933 500.178 285.873 500.409 285.889 500.641C285.906 500.873 285.999 501.094 286.153 501.268Z" fill="white"/>
<path d="M217.24 621.238C216.946 621.239 216.656 621.162 216.402 621.014C216.101 620.833 215.858 620.572 215.7 620.259C215.542 619.946 215.475 619.594 215.508 619.245V611.22C215.533 610.505 215.732 609.807 216.089 609.187C216.446 608.567 216.95 608.044 217.556 607.664L224.502 603.66C224.79 603.47 225.125 603.363 225.47 603.352C225.815 603.342 226.156 603.427 226.456 603.599C226.755 603.771 227.001 604.023 227.165 604.326C227.33 604.63 227.407 604.973 227.388 605.318V613.343C227.363 614.058 227.163 614.756 226.806 615.376C226.449 615.996 225.946 616.519 225.339 616.899L218.394 620.902C218.045 621.113 217.647 621.229 217.24 621.238ZM225.656 604.982C225.542 605.003 225.435 605.048 225.339 605.113L218.394 609.116C218.045 609.351 217.755 609.663 217.545 610.028C217.335 610.392 217.212 610.8 217.184 611.22V619.245C217.156 619.355 217.156 619.471 217.184 619.58C217.297 619.56 217.405 619.515 217.5 619.45L224.446 615.447C224.795 615.212 225.085 614.9 225.295 614.535C225.505 614.171 225.628 613.763 225.656 613.343V605.318C225.674 605.207 225.674 605.093 225.656 604.982Z" fill="#898989"/>
<path d="M233.291 602.488L260.662 586.679C261.575 586.158 262.301 586.586 262.301 587.629V589.752C262.271 590.319 262.107 590.872 261.822 591.364C261.537 591.856 261.14 592.273 260.662 592.582L233.291 608.39C232.397 608.911 231.652 608.483 231.652 607.441V605.318C231.684 604.75 231.848 604.198 232.133 603.707C232.418 603.215 232.814 602.797 233.291 602.488Z" fill="#E0E0E0"/>
<path d="M285.074 582.079C284.779 582.082 284.49 582.005 284.236 581.856C283.932 581.677 283.685 581.417 283.524 581.103C283.362 580.79 283.293 580.438 283.324 580.087V572.062C283.352 571.345 283.555 570.647 283.915 570.027C284.275 569.407 284.782 568.884 285.39 568.505L292.336 564.502C292.626 564.305 292.964 564.189 293.314 564.166C293.664 564.143 294.014 564.214 294.328 564.372C294.631 564.572 294.875 564.851 295.032 565.179C295.19 565.507 295.255 565.871 295.222 566.234V574.259C295.197 574.974 294.998 575.672 294.64 576.292C294.283 576.912 293.78 577.435 293.174 577.815L286.228 581.818C285.872 582.003 285.475 582.093 285.074 582.079ZM293.471 565.824C293.366 565.85 293.265 565.894 293.174 565.954L286.228 569.958C285.877 570.192 285.583 570.503 285.37 570.867C285.157 571.232 285.031 571.641 284.999 572.062V580.087C284.966 580.196 284.966 580.313 284.999 580.422C285.112 580.398 285.219 580.354 285.316 580.292L292.336 576.288C292.685 576.053 292.975 575.741 293.185 575.377C293.395 575.012 293.518 574.604 293.546 574.184V566.159C293.56 566.042 293.533 565.924 293.471 565.824Z" fill="#898989"/>
<path d="M301.123 563.329L328.494 547.521C329.407 547.018 330.133 547.428 330.133 548.47V550.593C330.103 551.161 329.939 551.713 329.654 552.205C329.369 552.697 328.972 553.115 328.494 553.423L301.123 569.232C300.211 569.753 299.484 569.325 299.484 568.282V566.159C299.524 565.594 299.692 565.045 299.976 564.555C300.26 564.064 300.652 563.645 301.123 563.329Z" fill="#E0E0E0"/>
<path d="M352.888 542.922C352.594 542.923 352.305 542.846 352.05 542.698C351.75 542.518 351.507 542.256 351.349 541.943C351.19 541.63 351.124 541.279 351.157 540.93V532.904C351.181 532.189 351.381 531.491 351.738 530.871C352.095 530.251 352.599 529.728 353.205 529.348L360.15 525.345C360.434 525.142 360.77 525.023 361.119 525.001C361.468 524.98 361.815 525.058 362.122 525.225C362.429 525.392 362.683 525.642 362.854 525.946C363.026 526.25 363.108 526.597 363.092 526.946V534.971C363.064 535.688 362.861 536.386 362.5 537.006C362.14 537.626 361.634 538.148 361.025 538.528L354.08 542.531C353.727 542.77 353.314 542.905 352.888 542.922ZM354.043 530.8C353.697 531.038 353.408 531.351 353.199 531.715C352.989 532.079 352.864 532.486 352.832 532.904V540.93C352.799 541.039 352.799 541.155 352.832 541.265C352.938 541.238 353.039 541.194 353.13 541.134L360.076 537.131C360.427 536.897 360.72 536.586 360.933 536.221C361.146 535.857 361.273 535.448 361.304 535.027V526.946C361.338 526.837 361.338 526.72 361.304 526.611C361.195 526.636 361.089 526.673 360.988 526.723L354.043 530.8Z" fill="#898989"/>
<path d="M368.955 524.171L396.326 508.362C397.22 507.86 397.965 508.362 397.965 509.312V511.435C397.925 512 397.757 512.549 397.473 513.039C397.189 513.53 396.797 513.949 396.326 514.265L368.955 530.073C368.043 530.595 367.316 530.166 367.316 529.124V526.945C367.355 526.387 367.523 525.846 367.807 525.364C368.092 524.882 368.485 524.474 368.955 524.171Z" fill="#E0E0E0"/>
<path d="M233.367 563.31V566.457C233.367 568.152 234.559 568.841 236.03 568.003L396.162 475.61C396.94 475.107 397.587 474.425 398.05 473.622C398.513 472.82 398.778 471.918 398.825 470.992V467.846C398.825 466.151 397.633 465.444 396.162 466.3L236.03 558.693C235.256 559.201 234.612 559.883 234.149 560.685C233.687 561.487 233.419 562.386 233.367 563.31Z" fill="#E0E0E0"/>
<path d="M233.367 582.265V585.412C233.367 587.106 234.559 587.795 236.03 586.939L396.162 494.565C396.938 494.059 397.583 493.377 398.046 492.575C398.509 491.772 398.775 490.872 398.825 489.947V486.8C398.825 485.087 397.633 484.398 396.162 485.255L236.03 577.647C235.254 578.153 234.608 578.835 234.146 579.637C233.683 580.44 233.416 581.34 233.367 582.265Z" fill="#E0E0E0"/>
<path d="M215.824 583.885C220.014 579.733 221.056 577.964 221.056 576.437C221.056 574.91 220.442 574.072 218.561 575.171C217.748 575.644 217.048 576.289 216.511 577.061C215.974 577.833 215.612 578.713 215.452 579.64L210.871 580.645C211.272 578.249 212.179 575.965 213.53 573.946C214.882 571.927 216.648 570.218 218.71 568.933C223.291 566.289 225.953 568.263 225.953 572.657C225.697 576.935 223.835 580.959 220.74 583.922V587.553L215.824 590.384V583.885Z" fill="#898989"/>
<path d="M215.77 595.951C215.761 595.053 215.986 594.169 216.424 593.385C216.862 592.601 217.496 591.945 218.265 591.482C219.903 590.551 220.741 591.389 220.741 593.083C220.752 593.981 220.529 594.867 220.095 595.654C219.661 596.44 219.03 597.1 218.265 597.571C216.608 598.52 215.77 597.701 215.77 595.951Z" fill="#898989"/>
<path d="M353.984 532.829L356.014 534.374L354.152 537.912C353.989 538.126 353.901 538.388 353.901 538.657C353.901 538.926 353.989 539.187 354.152 539.401C354.487 539.662 355.009 539.401 355.306 538.843L357.168 535.305L359.217 536.85C359.515 537.074 359.943 536.85 360.203 536.385C360.344 536.2 360.42 535.975 360.42 535.743C360.42 535.511 360.344 535.285 360.203 535.1L358.155 533.555L360.017 530.017C360.159 529.79 360.226 529.524 360.209 529.257C360.193 528.99 360.093 528.735 359.924 528.527C359.589 528.267 359.068 528.527 358.77 529.086L356.908 532.624L354.86 531.06C354.562 530.836 354.115 531.06 353.873 531.544C353.748 531.74 353.691 531.973 353.711 532.205C353.731 532.437 353.827 532.656 353.984 532.829Z" fill="white"/>
<path d="M217.24 691.956C216.946 691.957 216.656 691.88 216.402 691.732C216.101 691.552 215.858 691.29 215.7 690.977C215.542 690.664 215.475 690.312 215.508 689.963V681.938C215.533 681.223 215.732 680.525 216.089 679.905C216.446 679.285 216.95 678.762 217.556 678.382L224.502 674.36C224.796 674.171 225.134 674.062 225.483 674.042C225.832 674.023 226.18 674.094 226.494 674.248C226.8 674.446 227.046 674.724 227.204 675.053C227.362 675.382 227.425 675.747 227.388 676.11V684.135C227.358 684.849 227.157 685.546 226.8 686.165C226.443 686.784 225.942 687.308 225.339 687.692L218.394 691.695C218.038 691.88 217.641 691.97 217.24 691.956ZM225.656 675.701C225.545 675.719 225.438 675.757 225.339 675.812L218.394 679.834C218.045 680.069 217.755 680.381 217.545 680.746C217.335 681.11 217.212 681.518 217.184 681.938V689.963C217.156 690.073 217.156 690.189 217.184 690.299C217.294 690.268 217.4 690.224 217.5 690.168L224.446 686.165C224.795 685.93 225.085 685.618 225.295 685.253C225.505 684.889 225.628 684.481 225.656 684.061V676.036C225.676 675.925 225.676 675.811 225.656 675.701Z" fill="#898989"/>
<path d="M233.291 673.206L260.662 657.398C261.575 656.877 262.301 657.305 262.301 658.348V660.47C262.271 661.038 262.107 661.591 261.822 662.083C261.537 662.575 261.14 662.992 260.662 663.301L233.291 679.109C232.397 679.63 231.652 679.109 231.652 678.159V676.037C231.684 675.469 231.848 674.917 232.133 674.425C232.418 673.934 232.814 673.516 233.291 673.206Z" fill="#E0E0E0"/>
<path d="M285.072 652.797C284.777 652.801 284.488 652.723 284.234 652.574C283.914 652.389 283.657 652.113 283.495 651.782C283.332 651.45 283.272 651.078 283.322 650.712V642.687C283.35 641.97 283.553 641.272 283.913 640.652C284.273 640.032 284.78 639.51 285.388 639.13L292.334 635.108C292.623 634.917 292.96 634.81 293.307 634.8C293.654 634.789 293.997 634.876 294.297 635.051C294.597 635.225 294.842 635.48 295.005 635.786C295.169 636.092 295.243 636.438 295.22 636.784V644.809C295.195 645.525 294.996 646.223 294.638 646.843C294.281 647.463 293.778 647.986 293.172 648.366L286.226 652.369C285.887 652.613 285.488 652.761 285.072 652.797ZM293.47 636.542C293.366 636.566 293.265 636.604 293.172 636.654L286.226 640.676C285.875 640.91 285.581 641.221 285.369 641.586C285.156 641.95 285.029 642.359 284.997 642.78V650.805C284.964 650.914 284.964 651.031 284.997 651.14C285.106 651.106 285.212 651.062 285.314 651.01L292.259 647.007C292.608 646.772 292.899 646.46 293.109 646.095C293.318 645.73 293.442 645.322 293.47 644.903V636.803C293.492 636.717 293.492 636.628 293.47 636.542Z" fill="#898989"/>
<path d="M301.123 634.048L328.494 618.24C329.407 617.718 330.133 618.24 330.133 619.189V621.312C330.103 621.88 329.939 622.432 329.654 622.924C329.369 623.416 328.972 623.834 328.494 624.142L301.123 639.95C300.211 640.472 299.484 640.044 299.484 639.001V636.804C299.535 636.251 299.708 635.717 299.992 635.24C300.275 634.764 300.662 634.356 301.123 634.048Z" fill="#E0E0E0"/>
<path d="M352.888 613.639C352.594 613.64 352.305 613.563 352.05 613.416C351.75 613.235 351.507 612.973 351.349 612.66C351.19 612.347 351.124 611.996 351.157 611.647V603.622C351.181 602.906 351.381 602.208 351.738 601.588C352.095 600.968 352.599 600.445 353.205 600.065L360.15 596.043C360.448 595.855 360.789 595.745 361.141 595.726C361.493 595.706 361.844 595.777 362.161 595.931C362.464 596.132 362.708 596.411 362.865 596.739C363.023 597.067 363.088 597.431 363.055 597.793V605.819C363.023 606.534 362.819 607.232 362.459 607.851C362.099 608.471 361.594 608.994 360.988 609.375L354.043 613.378C353.687 613.565 353.289 613.655 352.888 613.639ZM354.043 601.517C353.697 601.756 353.408 602.068 353.199 602.432C352.989 602.796 352.864 603.203 352.832 603.622V611.647C352.799 611.756 352.799 611.873 352.832 611.982C352.934 611.945 353.034 611.901 353.13 611.852L360.076 607.848C360.427 607.614 360.72 607.303 360.933 606.938C361.146 606.574 361.273 606.165 361.304 605.744V597.7C361.341 597.592 361.341 597.474 361.304 597.365C361.195 597.39 361.089 597.427 360.988 597.477L354.043 601.517Z" fill="#898989"/>
<path d="M368.955 594.89L396.326 579.082C397.22 578.56 397.965 578.988 397.965 580.031V582.154C397.925 582.719 397.757 583.268 397.473 583.758C397.189 584.249 396.797 584.668 396.326 584.984L368.955 600.792C368.043 601.314 367.316 600.792 367.316 599.843V597.702C367.349 597.137 367.514 596.588 367.799 596.1C368.084 595.611 368.48 595.197 368.955 594.89Z" fill="#E0E0E0"/>
<path d="M233.367 634.029V637.175C233.367 638.87 234.559 639.559 236.03 638.702L396.162 546.328C396.938 545.823 397.583 545.141 398.046 544.338C398.509 543.536 398.775 542.636 398.825 541.711V538.564C398.825 536.851 397.633 536.162 396.162 537.018L236.03 629.411C235.254 629.917 234.608 630.598 234.146 631.401C233.683 632.203 233.416 633.104 233.367 634.029Z" fill="#E0E0E0"/>
<path d="M233.367 652.984V656.13C233.367 657.825 234.559 658.514 236.03 657.657L396.162 565.283C396.936 564.775 397.58 564.093 398.042 563.291C398.505 562.489 398.773 561.59 398.825 560.666V557.519C398.825 555.806 397.633 555.117 396.162 555.973L236.03 648.366C235.254 648.872 234.608 649.554 234.146 650.356C233.683 651.158 233.416 652.059 233.367 652.984Z" fill="#E0E0E0"/>
<path d="M215.824 654.603C220.014 650.451 221.056 648.682 221.056 647.155C221.056 645.628 220.442 644.79 218.561 645.889C217.75 646.36 217.052 647.002 216.515 647.771C215.978 648.539 215.615 649.416 215.452 650.339L210.871 651.363C211.272 648.967 212.179 646.683 213.53 644.664C214.882 642.645 216.648 640.936 218.71 639.651C223.291 637.007 225.953 638.981 225.953 643.468C225.697 647.746 223.835 651.77 220.74 654.734V658.364L215.824 661.195V654.603Z" fill="#898989"/>
<path d="M215.77 666.594C215.761 665.697 215.986 664.813 216.424 664.029C216.862 663.245 217.496 662.589 218.265 662.126C219.903 661.195 220.741 662.014 220.741 663.727C220.754 664.623 220.532 665.507 220.098 666.291C219.663 667.075 219.031 667.731 218.265 668.196C216.608 669.238 215.77 668.456 215.77 666.594Z" fill="#898989"/>
<path d="M353.984 603.846L356.014 605.392L354.152 608.929C353.989 609.143 353.901 609.405 353.901 609.674C353.901 609.943 353.989 610.205 354.152 610.419C354.487 610.68 355.009 610.419 355.306 609.86L357.168 606.323L359.217 607.887C359.515 608.11 359.943 607.887 360.203 607.403C360.344 607.218 360.42 606.992 360.42 606.76C360.42 606.528 360.344 606.302 360.203 606.118L358.155 604.572L360.017 601.035C360.159 600.807 360.226 600.542 360.209 600.275C360.193 600.008 360.093 599.753 359.924 599.545C359.589 599.284 359.068 599.545 358.77 600.104L356.908 603.641L354.86 602.077C354.562 601.872 354.115 602.077 353.873 602.561C353.748 602.758 353.691 602.99 353.711 603.223C353.731 603.455 353.827 603.674 353.984 603.846Z" fill="white"/>
<path d="M535.38 302.5L521.694 294.605L521.564 294.512C514.749 290.658 505.42 291.235 495.086 297.212C485.404 302.798 476.578 312.108 469.931 322.852C462.241 335.253 457.418 349.59 457.418 362.456C457.418 374.466 461.607 382.938 468.404 386.83L482.313 394.781C489.165 399.156 498.866 398.765 509.61 392.565C530.427 380.536 547.297 351.322 547.297 327.302C547.278 314.845 542.698 306.224 535.38 302.5Z" fill="white"/>
<path opacity="0.1" d="M482.014 394.743L468.384 386.941C461.588 382.994 457.398 374.559 457.398 362.568C457.398 349.701 462.221 335.364 469.911 322.963L484.453 331.361C476.763 343.743 471.941 358.08 471.941 370.928C471.903 382.323 475.739 390.535 482.014 394.743Z" fill="#010101"/>
<path opacity="0.4" d="M535.101 302.351C528.398 299.092 519.441 299.912 509.591 305.591C499.741 311.27 491.083 320.487 484.417 331.286L469.875 322.889C476.522 312.108 485.367 302.816 495.031 297.249C505.365 291.272 514.693 290.713 521.508 294.549L521.639 294.642L535.101 302.351Z" fill="white"/>
<path d="M501.269 337.877C501.295 339.328 500.986 340.764 500.366 342.076C499.746 343.387 498.831 344.537 497.694 345.437C495.72 346.573 494.119 345.046 494.119 342.011C494.093 340.561 494.401 339.124 495.022 337.813C495.642 336.502 496.556 335.351 497.694 334.451C499.668 333.297 501.269 334.842 501.269 337.877Z" fill="#898989"/>
<path d="M521.62 326.13C521.647 327.58 521.338 329.017 520.718 330.328C520.097 331.639 519.183 332.79 518.045 333.689C516.072 334.825 514.47 333.298 514.47 330.263C514.444 328.813 514.753 327.376 515.373 326.065C515.993 324.754 516.908 323.603 518.045 322.704C520.019 321.568 521.62 323.095 521.62 326.13Z" fill="#898989"/>
<path d="M489.108 383.273C488.966 383.291 488.822 383.291 488.68 383.273C488.416 383.22 488.165 383.115 487.942 382.964C487.72 382.813 487.529 382.619 487.382 382.394C487.234 382.169 487.133 381.916 487.085 381.652C487.036 381.387 487.04 381.115 487.097 380.852C490.337 365.454 498.586 351.973 508.1 346.48C510.038 345.194 512.249 344.379 514.558 344.101C516.866 343.823 519.208 344.089 521.395 344.878C525.882 346.74 529.346 351.228 531.133 357.596C531.224 358.103 531.122 358.625 530.847 359.06C530.573 359.495 530.146 359.813 529.65 359.95C529.154 360.087 528.625 360.035 528.166 359.803C527.707 359.57 527.351 359.175 527.167 358.695C525.752 353.593 523.145 350.036 519.85 348.677C518.241 348.149 516.533 347.999 514.857 348.238C513.181 348.477 511.583 349.099 510.186 350.055C501.77 354.915 494.117 367.632 491.156 381.709C491.042 382.163 490.778 382.565 490.406 382.849C490.034 383.133 489.576 383.283 489.108 383.273Z" fill="#898989"/>
<path d="M535.38 183.37L521.694 175.475H521.564C514.749 171.621 505.42 172.198 495.086 178.175C485.404 183.761 476.578 193.071 469.931 203.815C462.241 216.216 457.418 230.553 457.418 243.419C457.418 255.429 461.607 263.901 468.404 267.793L482.313 275.744C489.165 280.119 498.866 279.728 509.61 273.528C530.427 261.499 547.297 232.285 547.297 208.358C547.278 195.715 542.698 187.094 535.38 183.37Z" fill="white"/>
<path opacity="0.1" d="M482.014 275.575L468.384 267.773C461.588 263.826 457.398 255.391 457.398 243.4C457.398 230.533 462.221 216.196 469.911 203.795L484.453 212.193C476.763 224.575 471.941 238.912 471.941 251.76C471.903 263.193 475.739 271.404 482.014 275.575Z" fill="#010101"/>
<path opacity="0.4" d="M535.101 183.22C528.398 179.961 519.441 180.781 509.591 186.46C499.741 192.139 491.083 201.356 484.417 212.155L469.875 203.758C476.522 192.977 485.367 183.685 495.031 178.118C505.365 172.141 514.693 171.582 521.508 175.418H521.639L535.101 183.22Z" fill="white"/>
<path d="M501.045 258.24C499.277 258.245 497.525 257.903 495.888 257.235C491.028 255.242 487.304 250.382 485.386 243.512C485.256 242.956 485.346 242.371 485.637 241.88C485.928 241.388 486.398 241.028 486.948 240.875C487.497 240.721 488.085 240.785 488.589 241.055C489.092 241.324 489.473 241.777 489.65 242.32C491.195 247.906 494.007 251.63 497.563 253.138C499.303 253.718 501.153 253.888 502.969 253.632C504.784 253.377 506.516 252.705 508.028 251.667C517.096 246.435 525.363 232.693 528.51 217.499C528.635 216.927 528.981 216.426 529.472 216.105C529.963 215.785 530.56 215.67 531.135 215.786C531.42 215.846 531.691 215.962 531.931 216.126C532.171 216.29 532.377 216.5 532.536 216.744C532.695 216.988 532.805 217.261 532.858 217.547C532.912 217.833 532.908 218.127 532.848 218.412C529.348 235.021 520.447 249.582 510.188 255.522C507.428 257.206 504.277 258.143 501.045 258.24Z" fill="#898989"/>
<path d="M500.633 221.373C500.66 222.94 500.326 224.492 499.658 225.909C498.989 227.326 498.004 228.571 496.778 229.547C494.637 230.776 492.924 229.119 492.924 225.823C492.893 224.258 493.224 222.707 493.893 221.292C494.562 219.877 495.549 218.637 496.778 217.667C498.901 216.438 500.633 218.096 500.633 221.373Z" fill="#898989"/>
<path d="M522.605 208.692C522.632 210.256 522.298 211.805 521.63 213.219C520.961 214.634 519.976 215.875 518.75 216.847C516.628 218.076 514.896 216.419 514.896 213.123C514.869 211.559 515.203 210.01 515.871 208.596C516.54 207.181 517.525 205.94 518.75 204.968C520.873 203.739 522.605 205.415 522.605 208.692Z" fill="#898989"/>
<path d="M563.386 518.678L464.7 575.655C463.708 576.16 462.61 576.424 461.497 576.424C460.384 576.424 459.286 576.16 458.294 575.655L453.062 572.62C452.124 572.009 451.345 571.184 450.788 570.212C450.232 569.241 449.913 568.152 449.859 567.034V453.08C449.913 451.962 450.232 450.872 450.788 449.901C451.345 448.93 452.124 448.105 453.062 447.494L551.748 390.516C552.737 390.011 553.831 389.748 554.941 389.748C556.052 389.748 557.146 390.011 558.135 390.516L563.367 393.57C564.307 394.179 565.087 395.004 565.644 395.975C566.201 396.947 566.519 398.037 566.57 399.156V513.129C566.512 514.239 566.194 515.32 565.64 516.284C565.087 517.248 564.315 518.068 563.386 518.678Z" fill="#898989"/>
<path d="M464.16 575.898C463.221 576.275 462.213 576.448 461.202 576.407C460.191 576.365 459.2 576.109 458.295 575.656L453.063 572.602C452.126 571.992 451.348 571.167 450.794 570.195C450.24 569.224 449.926 568.134 449.879 567.016V453.062C449.907 451.943 450.228 450.852 450.81 449.896L462.429 456.656C461.855 457.608 461.535 458.691 461.498 459.802V573.757C461.498 575.637 462.634 576.494 464.16 575.898Z" fill="#263238"/>
<path d="M563.385 518.677L464.699 575.654C462.93 576.678 461.496 575.859 461.496 573.792V459.912C461.55 458.794 461.868 457.705 462.425 456.734C462.982 455.763 463.761 454.938 464.699 454.326L563.385 397.349C565.154 396.325 566.587 397.163 566.587 399.211V513.184C566.519 514.286 566.194 515.357 565.638 516.311C565.082 517.264 564.31 518.075 563.385 518.677Z" fill="#37474F"/>
<path fill-rule="evenodd" clip-rule="evenodd" d="M511.344 490.283L484.531 528.268C496.374 540.241 519.164 531.247 535.438 508.177C545.214 494.343 550.465 479.409 550.465 465.463L518.01 484.12C515.435 485.756 513.176 487.844 511.344 490.283Z" fill="white"/>
<path opacity="0.3" fill-rule="evenodd" clip-rule="evenodd" d="M511.344 490.283L484.531 528.268C496.374 540.241 519.164 531.247 535.438 508.177C545.214 494.343 550.465 479.409 550.465 465.463L518.01 484.12C515.435 485.756 513.176 487.844 511.344 490.283Z" fill="#010101"/>
<path d="M483.171 527.299L509.984 489.314C511.954 486.699 514.391 484.471 517.171 482.741L549.626 464.01C549.88 463.862 550.17 463.785 550.464 463.785C550.758 463.785 551.047 463.863 551.302 464.01C551.557 464.157 551.768 464.369 551.915 464.624C552.062 464.879 552.139 465.168 552.139 465.462C552.139 479.837 546.833 494.956 536.815 509.144C526.034 524.413 512.181 534.132 499.761 535.212C496.77 535.559 493.739 535.225 490.895 534.235C488.051 533.245 485.468 531.625 483.338 529.496C483.081 529.235 482.916 528.898 482.869 528.535C482.822 528.171 482.895 527.803 483.078 527.485C483.088 527.415 483.121 527.35 483.171 527.299ZM548.713 468.404L518.921 485.646C516.554 487.124 514.473 489.016 512.777 491.232L486.802 528.007C488.565 529.451 490.602 530.526 492.79 531.166C494.979 531.805 497.274 531.998 499.538 531.731C510.821 530.8 524.079 521.378 534.115 507.133C535.828 504.731 537.374 502.292 538.789 499.853C544.522 490.295 547.922 479.521 548.713 468.404Z" fill="white"/>
<path fill-rule="evenodd" clip-rule="evenodd" d="M512.554 482.127L502.741 452.986C483.599 471.215 473.116 501.007 479.335 519.516C480.335 522.805 482.111 525.806 484.512 528.267L511.325 490.282C512.085 489.083 512.587 487.738 512.798 486.334C513.01 484.93 512.926 483.497 512.554 482.127Z" fill="white"/>
<path d="M501.605 451.776C501.806 451.58 502.052 451.438 502.323 451.363C502.593 451.288 502.878 451.283 503.151 451.348C503.424 451.42 503.675 451.558 503.883 451.749C504.091 451.941 504.248 452.18 504.342 452.447L514.136 481.587C514.591 483.207 514.699 484.905 514.456 486.569C514.212 488.234 513.621 489.829 512.721 491.251L485.983 529.236C485.838 529.43 485.654 529.592 485.442 529.711C485.23 529.829 484.996 529.902 484.754 529.925C484.509 529.95 484.261 529.92 484.028 529.836C483.796 529.752 483.586 529.617 483.413 529.44C480.841 526.823 478.926 523.632 477.827 520.13C473.303 506.668 477.325 487.415 486.97 470.713C490.917 463.733 495.846 457.356 501.605 451.776ZM509.984 489.314C510.589 488.327 510.986 487.227 511.153 486.081C511.319 484.935 511.251 483.767 510.952 482.648L502.015 456.059C484.549 473.971 475.128 501.678 480.937 518.995C481.68 521.375 482.847 523.602 484.382 525.568L509.984 489.314Z" fill="white"/>
<path fill-rule="evenodd" clip-rule="evenodd" d="M516.686 482.723L543.498 444.738C534.039 435.167 518.063 438.389 502.758 452.987L512.552 482.127C513.353 484.547 515.215 484.808 516.686 482.723Z" fill="white"/>
<path opacity="0.1" fill-rule="evenodd" clip-rule="evenodd" d="M516.686 482.723L543.498 444.738C534.039 435.167 518.063 438.389 502.758 452.987L512.552 482.127C513.353 484.547 515.215 484.808 516.686 482.723Z" fill="#010101"/>
<path d="M501.603 451.777C517.616 436.508 534.542 433.287 544.69 443.565C544.967 443.844 545.137 444.211 545.172 444.602C545.206 444.993 545.101 445.384 544.876 445.706L518.045 483.691C517.714 484.433 517.149 485.046 516.438 485.437C515.726 485.828 514.906 485.976 514.102 485.858C513.299 485.74 512.556 485.362 511.987 484.783C511.418 484.204 511.054 483.454 510.95 482.649L501.156 453.508C501.083 453.284 501.058 453.047 501.084 452.813C501.11 452.578 501.185 452.352 501.305 452.149C501.378 452.006 501.479 451.879 501.603 451.777ZM541.282 445.018C532.587 437.57 518.473 440.754 504.676 453.508L514.134 481.624C514.237 481.938 514.388 482.233 514.581 482.5C514.884 482.335 515.136 482.091 515.308 481.792L541.282 445.018Z" fill="white"/>
<path fill-rule="evenodd" clip-rule="evenodd" d="M518.01 484.119L550.465 465.499C550.465 456.189 548.231 449.579 543.501 444.775L516.688 482.76C515.217 484.808 515.776 485.46 518.01 484.119Z" fill="white"/>
<path opacity="0.2" fill-rule="evenodd" clip-rule="evenodd" d="M518.01 484.119L550.465 465.499C550.465 456.189 548.231 449.579 543.501 444.775L516.688 482.76C515.217 484.808 515.776 485.46 518.01 484.119Z" fill="#010101"/>
<path d="M515.31 481.754L542.142 443.769C542.283 443.571 542.467 443.407 542.679 443.287C542.892 443.168 543.128 443.098 543.37 443.08C543.613 443.056 543.858 443.087 544.087 443.171C544.316 443.255 544.523 443.389 544.692 443.564C549.776 448.703 552.14 455.667 552.14 465.461C552.141 465.756 552.063 466.045 551.916 466.3C551.769 466.555 551.557 466.767 551.303 466.914L518.867 485.645C518.159 486.055 516.036 487.284 514.733 485.85C514.369 485.371 514.172 484.786 514.172 484.184C514.172 483.582 514.369 482.997 514.733 482.517L515.31 481.754ZM543.706 447.437L519.853 481.233L548.826 464.474C548.64 457.082 547.001 451.589 543.706 447.437Z" fill="white"/>
<path d="M770.402 347.264C768.68 346.434 766.787 346.019 764.876 346.055C762.964 346.09 761.088 346.575 759.398 347.469L589.695 445.448C588.059 446.534 586.701 447.99 585.73 449.697C584.76 451.405 584.205 453.317 584.109 455.279V503.691C584.036 505.627 584.492 507.547 585.428 509.244C586.365 510.94 587.747 512.349 589.425 513.318C591.103 514.288 593.014 514.781 594.951 514.744C596.889 514.708 598.78 514.144 600.42 513.113L770.123 415.134C771.759 414.048 773.118 412.592 774.088 410.884C775.058 409.177 775.614 407.265 775.709 405.303V356.891C775.641 354.983 775.126 353.117 774.204 351.445C773.282 349.773 771.98 348.341 770.402 347.264Z" fill="#263238"/>
<path d="M775.653 355.866C775.187 352.998 772.86 351.993 770.067 353.631L699.311 394.465L600.364 451.591C598.685 452.634 597.3 454.089 596.342 455.818L585.691 449.673C586.648 447.944 588.025 446.484 589.695 445.428L759.397 347.468C760.96 346.477 762.755 345.912 764.604 345.831C766.453 345.749 768.291 346.153 769.935 347.002C771.579 347.852 772.972 349.117 773.975 350.672C774.978 352.227 775.557 354.018 775.653 355.866Z" fill="#898989"/>
<path d="M594.668 461.424V509.836C594.668 513.448 597.219 514.919 600.347 513.113L770.05 415.134C771.686 414.048 773.044 412.592 774.015 410.885C774.985 409.177 775.54 407.265 775.636 405.303V356.891C775.636 353.279 773.103 351.808 770.05 353.614L699.294 394.466L600.328 451.592C598.679 452.672 597.307 454.124 596.324 455.832C595.341 457.54 594.773 459.456 594.668 461.424Z" fill="#37474F"/>
<path d="M623.529 454.328L626.303 460.212C626.335 460.296 626.385 460.373 626.448 460.437C626.512 460.502 626.588 460.552 626.672 460.585C626.756 460.619 626.846 460.634 626.936 460.631C627.027 460.627 627.115 460.605 627.197 460.566L633.397 458.201C634.384 457.81 634.775 459.206 634.068 460.547L629.58 468.963C629.31 469.451 629.187 470.008 629.226 470.564L630.288 478.199C630.455 479.409 629.431 480.992 628.556 480.88L622.97 480.191C622.745 480.201 622.526 480.266 622.331 480.38C622.137 480.493 621.973 480.652 621.853 480.843L616.267 487.937C615.392 489.054 614.405 488.644 614.535 487.248L615.596 478.403C615.643 478.188 615.635 477.965 615.573 477.753C615.511 477.542 615.398 477.349 615.243 477.193L610.755 473.953C610.048 473.432 610.439 471.589 611.426 470.844L617.626 466.058C618.06 465.696 618.372 465.208 618.52 464.662L621.294 455.575C621.909 454.142 623.082 453.415 623.529 454.328Z" fill="white"/>
<path d="M654.902 436.379L657.677 442.263C657.707 442.349 657.755 442.428 657.818 442.494C657.881 442.56 657.957 442.611 658.042 442.645C658.127 442.679 658.218 442.693 658.31 442.689C658.401 442.684 658.49 442.659 658.571 442.616L664.771 440.252C665.758 439.861 666.149 441.257 665.441 442.598L661.01 451.014C660.738 451.509 660.615 452.071 660.656 452.634L661.717 460.25C661.885 461.46 660.861 463.043 659.986 462.931L654.4 462.261C654.175 462.262 653.955 462.322 653.759 462.432C653.564 462.543 653.4 462.702 653.282 462.894L647.696 469.988C646.821 471.105 645.835 470.714 645.965 469.299L647.026 460.454C647.073 460.239 647.065 460.016 647.003 459.804C646.941 459.593 646.827 459.4 646.672 459.244L642.185 456.004C641.477 455.483 641.868 453.658 642.855 452.895L649.056 448.109C649.49 447.747 649.802 447.259 649.949 446.713L652.724 437.626C653.189 436.174 654.456 435.448 654.902 436.379Z" fill="white"/>
<path d="M686.279 418.429L689.053 424.312C689.085 424.397 689.135 424.474 689.198 424.538C689.262 424.602 689.338 424.653 689.422 424.686C689.506 424.719 689.596 424.735 689.686 424.731C689.777 424.728 689.865 424.706 689.947 424.666L696.147 422.283C697.134 421.91 697.525 423.288 696.818 424.629L692.33 433.045C692.06 433.54 691.938 434.103 691.976 434.665L693.038 442.281C693.205 443.491 692.181 445.092 691.306 444.981L685.72 444.292C685.495 444.302 685.276 444.367 685.081 444.48C684.887 444.594 684.723 444.753 684.603 444.943L679.017 452.019C678.142 453.155 677.155 452.745 677.285 451.349L678.346 442.504C678.393 442.286 678.385 442.06 678.323 441.846C678.261 441.631 678.148 441.435 677.993 441.275L673.505 438.035C672.798 437.533 673.189 435.689 674.176 434.926L680.376 430.14C680.81 429.778 681.122 429.29 681.27 428.744L684.044 419.657C684.566 418.224 685.832 417.479 686.279 418.429Z" fill="white"/>
<path d="M717.654 400.46L720.428 406.344C720.46 406.428 720.51 406.505 720.573 406.57C720.637 406.634 720.713 406.684 720.797 406.718C720.881 406.751 720.971 406.766 721.061 406.763C721.152 406.76 721.24 406.737 721.322 406.698L727.522 404.314C728.509 403.942 728.9 405.32 728.193 406.661L723.705 415.077C723.435 415.572 723.313 416.134 723.351 416.697L724.413 424.312C724.58 425.523 723.556 427.124 722.681 427.012L717.095 426.323C716.87 426.334 716.651 426.399 716.456 426.512C716.262 426.625 716.098 426.784 715.978 426.975L710.392 434.051C709.517 435.186 708.53 434.777 708.66 433.38L709.721 424.536C709.768 424.321 709.76 424.097 709.698 423.886C709.636 423.674 709.523 423.482 709.368 423.325L704.88 420.086C704.173 419.564 704.564 417.721 705.551 416.957L711.751 412.191C712.178 411.821 712.488 411.336 712.645 410.794L715.419 401.708C715.941 400.33 717.207 399.529 717.654 400.46Z" fill="white"/>
<path d="M749.028 382.492L751.803 388.376C751.835 388.46 751.884 388.537 751.948 388.601C752.011 388.666 752.088 388.716 752.172 388.749C752.256 388.783 752.346 388.798 752.436 388.795C752.527 388.791 752.615 388.769 752.696 388.73L758.897 386.365C759.884 385.974 760.275 387.37 759.567 388.711L755.08 397.127C754.81 397.615 754.687 398.172 754.726 398.728L755.787 406.363C755.955 407.573 754.931 409.156 754.056 409.044L748.47 408.355C748.245 408.365 748.026 408.43 747.831 408.544C747.637 408.657 747.472 408.816 747.353 409.007L741.767 416.101C740.891 417.218 739.905 416.808 740.035 415.412L741.096 406.567C741.143 406.352 741.135 406.129 741.073 405.917C741.011 405.706 740.898 405.513 740.742 405.357L736.33 402.192C735.622 401.67 736.013 399.827 737 399.082L743.2 394.297C743.635 393.934 743.947 393.447 744.094 392.9L746.868 383.814C747.315 382.287 748.526 381.561 749.028 382.492Z" fill="white"/>
<path d="M618.853 423.364L609.543 418.002C609.358 417.919 609.202 417.783 609.096 417.61L607.383 414.631L612.969 411.447L612.801 411.931L618.853 423.364Z" fill="white"/>
<path opacity="0.2" d="M618.853 423.364L609.543 418.002C609.358 417.919 609.202 417.783 609.096 417.61L607.383 414.631L612.969 411.447L612.801 411.931L618.853 423.364Z" fill="#010101"/>
<path d="M612.094 411.893L618.536 423.065C618.626 423.227 618.761 423.358 618.925 423.444C619.088 423.529 619.273 423.566 619.457 423.548C619.641 423.53 619.815 423.459 619.959 423.344C620.103 423.228 620.21 423.073 620.268 422.898L627.064 403.291L612.094 411.893Z" fill="white"/>
<path d="M774.592 256.213C774.51 254.656 774.061 253.141 773.281 251.791C772.501 250.442 771.413 249.296 770.105 248.448C768.712 247.75 767.175 247.387 765.617 247.387C764.059 247.387 762.523 247.75 761.13 248.448L588.597 348.009C587.29 348.863 586.203 350.013 585.424 351.365C584.644 352.717 584.194 354.234 584.109 355.792V412.583C584.194 414.142 584.644 415.659 585.424 417.011C586.203 418.363 587.29 419.512 588.597 420.366C589.987 421.073 591.525 421.441 593.084 421.441C594.644 421.441 596.181 421.073 597.572 420.366L770.533 320.526C774.573 318.217 774.611 315.908 774.611 313.078L774.592 256.213Z" fill="white"/>
<path opacity="0.2" d="M584.035 412.564C584.12 414.123 584.57 415.64 585.35 416.992C586.129 418.344 587.216 419.493 588.523 420.348C589.785 420.991 591.171 421.359 592.586 421.426C594.002 421.493 595.416 421.259 596.734 420.739C594.63 421.539 593.01 420.329 593.01 417.759V360.95C593.062 359.389 593.517 357.869 594.332 356.537L585.339 351.342C584.539 352.686 584.09 354.21 584.035 355.773V412.564Z" fill="#010101"/>
<path opacity="0.4" d="M774.386 254.946C773.864 253.084 772.114 252.432 770.047 253.624L597.496 353.185C596.164 354.004 595.072 355.161 594.33 356.537L585.355 351.342C586.113 349.977 587.201 348.824 588.521 347.99L761.054 248.448C762.444 247.741 763.982 247.373 765.541 247.373C767.101 247.373 768.638 247.741 770.029 248.448C771.16 249.177 772.129 250.129 772.879 251.247C773.628 252.364 774.141 253.623 774.386 254.946Z" fill="white"/>
<path d="M605.152 361.955L760.089 272.318C761.597 271.462 762.826 271.853 762.826 273.212C762.715 274.049 762.41 274.849 761.934 275.547C761.459 276.246 760.827 276.823 760.089 277.234L605.152 366.815C603.662 367.69 602.434 367.299 602.434 365.94C602.551 365.112 602.857 364.321 603.329 363.631C603.8 362.94 604.424 362.366 605.152 361.955Z" fill="white"/>
<path d="M605.152 387.296L738.043 310.582C739.551 309.707 740.762 310.098 740.762 311.457C740.652 312.295 740.35 313.096 739.878 313.798C739.406 314.499 738.778 315.081 738.043 315.498L605.152 392.193C603.662 393.069 602.434 392.659 602.434 391.3C602.558 390.471 602.866 389.681 603.337 388.988C603.807 388.295 604.428 387.717 605.152 387.296Z" fill="white"/>
<path d="M605.152 399.623L756.924 311.885C758.413 311.01 759.642 311.42 759.642 312.779C759.521 313.611 759.213 314.404 758.743 315.101C758.272 315.797 757.65 316.378 756.924 316.801L605.152 404.52C603.662 405.395 602.434 405.004 602.434 403.644C602.546 402.81 602.849 402.012 603.321 401.315C603.792 400.617 604.419 400.038 605.152 399.623Z" fill="white"/>
<path d="M605.152 374.263L756.924 286.526C758.413 285.651 759.642 286.06 759.642 287.42C759.529 288.254 759.225 289.051 758.753 289.748C758.282 290.446 757.656 291.025 756.924 291.441L605.152 379.253C603.662 380.11 602.434 379.719 602.434 378.36C602.535 377.512 602.833 376.699 603.305 375.988C603.777 375.276 604.41 374.686 605.152 374.263Z" fill="white"/>
<path d="M770.402 158.624C768.68 157.793 766.787 157.379 764.876 157.414C762.964 157.45 761.088 157.934 759.398 158.829L589.695 256.788C588.062 257.878 586.706 259.334 585.736 261.042C584.766 262.749 584.209 264.659 584.109 266.62V315.032C584.036 316.968 584.492 318.888 585.428 320.585C586.365 322.281 587.747 323.69 589.425 324.659C591.103 325.628 593.014 326.121 594.951 326.085C596.889 326.049 598.78 325.485 600.42 324.453L770.123 226.475C771.759 225.389 773.118 223.933 774.088 222.225C775.058 220.517 775.614 218.606 775.709 216.644V168.232C775.638 166.327 775.121 164.465 774.2 162.796C773.278 161.127 771.977 159.698 770.402 158.624Z" fill="#263238"/>
<path d="M775.653 167.227C775.187 164.36 772.86 163.354 770.067 164.974L699.311 205.808L600.364 262.934C598.688 263.989 597.305 265.449 596.342 267.179L585.691 261.035C586.642 259.302 588.02 257.84 589.695 256.789L759.397 158.83C760.96 157.838 762.755 157.274 764.604 157.192C766.453 157.11 768.291 157.514 769.935 158.364C771.579 159.213 772.972 160.478 773.975 162.033C774.978 163.588 775.557 165.379 775.653 167.227Z" fill="#898989"/>
<path d="M594.668 272.783V321.195C594.668 324.807 597.219 326.278 600.347 324.472L770.05 226.494C771.686 225.408 773.044 223.952 774.015 222.244C774.985 220.536 775.54 218.624 775.636 216.663V168.251C775.636 164.638 773.103 163.167 770.05 164.973L699.294 205.807L600.328 262.952C598.679 264.031 597.307 265.483 596.324 267.191C595.341 268.899 594.773 270.815 594.668 272.783Z" fill="#37474F"/>
<path d="M623.529 265.707L626.303 271.591C626.335 271.675 626.385 271.752 626.448 271.816C626.512 271.881 626.588 271.931 626.672 271.964C626.756 271.998 626.846 272.013 626.936 272.01C627.027 272.006 627.115 271.984 627.197 271.945L633.397 269.561C634.384 269.189 634.775 270.585 634.068 271.907L629.58 280.324C629.31 280.819 629.188 281.381 629.226 281.943L630.288 289.559C630.455 290.769 629.431 292.371 628.556 292.259L622.97 291.57C622.745 291.581 622.526 291.645 622.331 291.759C622.137 291.872 621.973 292.031 621.853 292.222L616.267 299.297C615.392 300.433 614.405 300.024 614.535 298.627L615.596 289.783C615.643 289.567 615.635 289.344 615.573 289.132C615.511 288.921 615.398 288.729 615.243 288.572L610.755 285.332C610.048 284.811 610.439 282.968 611.426 282.204L617.626 277.437C618.056 277.071 618.367 276.585 618.52 276.041L621.294 266.954C621.909 265.502 623.082 264.776 623.529 265.707Z" fill="white"/>
<path d="M654.902 247.74L657.677 253.624C657.709 253.708 657.759 253.785 657.822 253.85C657.886 253.914 657.962 253.964 658.046 253.998C658.13 254.031 658.22 254.046 658.31 254.043C658.401 254.039 658.489 254.017 658.571 253.978L664.771 251.613C665.758 251.222 666.149 252.618 665.441 253.959L661.01 262.375C660.739 262.864 660.617 263.42 660.656 263.977L661.717 271.611C661.885 272.821 660.861 274.404 659.986 274.292L654.4 273.603C654.175 273.614 653.956 273.678 653.761 273.792C653.567 273.905 653.402 274.064 653.282 274.255L647.696 281.349C646.821 282.466 645.835 282.075 645.965 280.66L647.026 271.816C647.073 271.6 647.065 271.377 647.003 271.166C646.941 270.954 646.827 270.762 646.672 270.605L642.185 267.366C641.477 266.844 641.868 265.001 642.855 264.256L649.056 259.471C649.49 259.108 649.802 258.62 649.949 258.074L652.724 248.988C653.189 247.535 654.456 246.809 654.902 247.74Z" fill="white"/>
<path d="M686.279 229.772L689.053 235.674C689.085 235.759 689.135 235.835 689.198 235.9C689.262 235.964 689.338 236.014 689.422 236.048C689.506 236.081 689.596 236.096 689.686 236.093C689.777 236.09 689.865 236.067 689.947 236.028L696.147 233.645C697.134 233.272 697.525 234.65 696.818 235.991L692.33 244.407C692.058 244.901 691.935 245.464 691.976 246.027L693.038 253.642C693.205 254.853 692.181 256.435 691.306 256.342L685.72 255.653C685.495 255.655 685.275 255.714 685.079 255.825C684.884 255.936 684.72 256.095 684.603 256.286L679.017 263.381C678.142 264.498 677.155 264.107 677.285 262.692L678.346 253.847C678.391 253.632 678.383 253.409 678.321 253.198C678.259 252.987 678.146 252.794 677.993 252.637L673.505 249.397C672.798 248.894 673.189 247.051 674.176 246.288L680.376 241.502C680.81 241.139 681.122 240.652 681.27 240.106L684.044 231.019C684.566 229.585 685.832 228.841 686.279 229.772Z" fill="white"/>
<path d="M717.652 211.821L720.427 217.705C720.459 217.789 720.508 217.866 720.572 217.93C720.636 217.995 720.712 218.045 720.796 218.078C720.88 218.112 720.97 218.127 721.06 218.124C721.151 218.12 721.239 218.098 721.321 218.058L727.521 215.675C728.508 215.303 728.899 216.681 728.191 218.021L723.704 226.437C723.434 226.933 723.311 227.495 723.35 228.057L724.411 235.673C724.579 236.883 723.555 238.485 722.68 238.373L717.094 237.684C716.869 237.694 716.65 237.759 716.455 237.873C716.261 237.986 716.096 238.145 715.977 238.336L710.391 245.411C709.515 246.547 708.529 246.137 708.659 244.741L709.72 235.896C709.784 235.675 709.79 235.44 709.738 235.216C709.685 234.991 709.577 234.783 709.422 234.612L704.935 231.372C704.227 230.869 704.618 229.026 705.605 228.262L711.806 223.496C712.236 223.122 712.547 222.63 712.7 222.08L715.474 212.994C715.939 211.616 717.206 210.871 717.652 211.821Z" fill="white"/>
<path d="M749.029 193.853L751.803 199.737C751.835 199.822 751.885 199.898 751.948 199.963C752.012 200.027 752.088 200.077 752.172 200.111C752.256 200.144 752.346 200.159 752.436 200.156C752.527 200.153 752.615 200.13 752.697 200.091L758.897 197.707C759.884 197.335 760.275 198.732 759.568 200.054L755.08 208.544C754.81 209.04 754.688 209.602 754.726 210.164L755.788 217.78C755.955 218.99 754.931 220.591 754.056 220.48L748.47 219.791C748.245 219.801 748.026 219.866 747.831 219.98C747.637 220.093 747.473 220.252 747.353 220.442L741.767 227.518C740.892 228.654 739.905 228.244 740.035 226.848L741.097 218.003C741.143 217.788 741.135 217.565 741.073 217.353C741.011 217.142 740.898 216.949 740.743 216.793L736.255 213.553C735.548 213.032 735.939 211.188 736.926 210.425L743.126 205.658C743.56 205.295 743.872 204.808 744.02 204.262L746.794 195.175C747.316 193.648 748.526 192.922 749.029 193.853Z" fill="#898989"/>
<path d="M618.853 234.725L609.543 229.363C609.358 229.28 609.202 229.144 609.096 228.972L607.383 225.993L612.969 222.809L612.801 223.293L618.853 234.725Z" fill="white"/>
<path opacity="0.2" d="M618.853 234.725L609.543 229.363C609.358 229.28 609.202 229.144 609.096 228.972L607.383 225.993L612.969 222.809L612.801 223.293L618.853 234.725Z" fill="#010101"/>
<path d="M612.094 223.255L618.536 234.427C618.626 234.588 618.761 234.719 618.925 234.805C619.088 234.891 619.273 234.927 619.457 234.909C619.641 234.891 619.815 234.82 619.959 234.705C620.103 234.59 620.21 234.435 620.268 234.259L627.064 214.652L612.094 223.255Z" fill="white"/>
<path d="M774.592 67.5727C774.508 66.0142 774.057 64.4976 773.278 63.1454C772.498 61.7933 771.411 60.6436 770.105 59.7896C768.714 59.0831 767.177 58.7148 765.617 58.7148C764.058 58.7148 762.52 59.0831 761.13 59.7896L588.523 159.351C587.216 160.205 586.129 161.354 585.35 162.707C584.57 164.059 584.12 165.575 584.035 167.134V223.925C584.12 225.483 584.57 227 585.35 228.352C586.129 229.704 587.216 230.854 588.523 231.708C589.913 232.415 591.45 232.783 593.01 232.783C594.57 232.783 596.107 232.415 597.497 231.708L770.459 131.849C774.499 129.559 774.536 127.25 774.536 124.401L774.592 67.5727Z" fill="white"/>
<path opacity="0.2" d="M584.035 223.926C584.12 225.484 584.57 227.001 585.35 228.353C586.129 229.705 587.216 230.855 588.523 231.709C589.785 232.354 591.171 232.721 592.588 232.785C594.004 232.849 595.418 232.609 596.734 232.081C594.63 232.882 593.01 231.69 593.01 229.121V172.311C593.064 170.745 593.52 169.219 594.332 167.879L585.339 162.703C584.539 164.047 584.09 165.571 584.035 167.135V223.926Z" fill="#010101"/>
<path opacity="0.4" d="M774.386 66.3068C773.864 64.4448 772.114 63.7931 770.047 64.9848L597.496 164.546C596.164 165.365 595.072 166.521 594.33 167.898L585.355 162.703C586.113 161.338 587.201 160.185 588.521 159.351L761.054 59.7898C762.447 59.0919 763.983 58.7285 765.541 58.7285C767.099 58.7285 768.636 59.0919 770.029 59.7898C771.162 60.5208 772.133 61.4763 772.882 62.5971C773.631 63.718 774.143 64.9805 774.386 66.3068Z" fill="white"/>
<path d="M605.152 173.298L760.089 83.6796C761.597 82.8231 762.826 83.2141 762.826 84.5734C762.715 85.4107 762.41 86.2105 761.934 86.9088C761.459 87.6071 760.827 88.1847 760.089 88.5953L605.152 178.213C603.662 179.088 602.434 178.697 602.434 177.338C602.552 176.503 602.859 175.706 603.329 175.006C603.8 174.306 604.423 173.722 605.152 173.298Z" fill="white"/>
<path d="M605.152 198.638L738.043 121.924C739.551 121.049 740.762 121.44 740.762 122.799C740.654 123.635 740.352 124.434 739.88 125.133C739.408 125.831 738.779 126.409 738.043 126.821L605.152 203.554C603.662 204.41 602.434 204.019 602.434 202.66C602.547 201.826 602.851 201.029 603.323 200.331C603.794 199.634 604.42 199.054 605.152 198.638Z" fill="white"/>
<path d="M605.152 210.966L756.924 123.247C758.413 122.372 759.642 122.782 759.642 124.122C759.524 124.957 759.217 125.755 758.746 126.455C758.276 127.154 757.653 127.738 756.924 128.163L605.152 215.882C603.662 216.757 602.434 216.366 602.434 215.007C602.552 214.172 602.859 213.374 603.329 212.675C603.8 211.975 604.423 211.391 605.152 210.966Z" fill="white"/>
<path d="M605.152 185.699L756.924 97.9613C758.413 97.0862 759.642 97.4958 759.642 98.8551C759.521 99.6868 759.213 100.48 758.743 101.177C758.272 101.873 757.65 102.454 756.924 102.877L605.152 190.596C603.662 191.471 602.434 191.08 602.434 189.721C602.546 188.886 602.849 188.088 603.321 187.391C603.792 186.693 604.419 186.114 605.152 185.699Z" fill="white"/>
<path d="M669.539 527.877L734.802 515.085C735.214 515.018 735.637 515.079 736.013 515.26C736.389 515.441 736.7 515.734 736.903 516.098C737.107 516.463 737.193 516.881 737.15 517.296C737.107 517.711 736.938 518.103 736.664 518.418L692.404 568.543L669.539 527.877Z" fill="#FFA8A7"/>
<path d="M736.702 518.418C736.975 518.103 737.145 517.711 737.188 517.296C737.231 516.881 737.144 516.463 736.941 516.098C736.737 515.734 736.426 515.441 736.05 515.26C735.674 515.079 735.252 515.018 734.84 515.085L722.066 517.636C723.815 518.72 725.231 520.265 726.157 522.101C727.084 523.938 727.485 525.995 727.317 528.045V529.199L736.702 518.418Z" fill="white"/>
<path d="M449.096 708.1L454.422 705.028L460.883 701.304L692.422 568.487C694.546 561.298 693.881 553.572 690.56 546.851C685.924 536.498 676.949 528.231 669.501 527.84L438.148 660.638L425.84 667.695C434.07 663.561 457.289 703.836 449.096 708.1Z" fill="#37474F"/>
<path d="M469.447 696.501L481.364 689.649C484.883 687.787 482.872 679.128 478.757 670.191C473.302 658.311 462.595 646.804 457.922 649.28L449.133 654.326L446.023 656.188C450.697 653.712 461.422 665.201 466.859 677.099C470.788 685.664 472.799 693.987 469.801 696.259C469.707 696.37 469.585 696.454 469.447 696.501Z" fill="#EBEBEB"/>
<path d="M472.406 694.769C480.58 690.43 457.175 650.081 448.982 654.438L437.047 661.253C445.221 656.933 468.701 697.245 460.452 701.584L472.406 694.769Z" fill="white"/>
<path d="M449.096 708.101L460.883 701.361C468.945 697.152 446.676 658.05 438.148 660.639C437.976 660.671 437.812 660.734 437.664 660.825L425.84 667.696C434.07 663.562 457.289 703.837 449.096 708.101Z" fill="#EBEBEB"/>
<path opacity="0.15" d="M736.998 516.222L734.8 515.086L687.45 540.986L442.597 681.493C442.131 680.767 441.759 680.711 441.461 681.214C448.425 692.069 453.676 705.736 449.095 708.119L454.42 705.047L460.882 701.323L692.421 568.507L736.681 518.382C736.954 518.101 737.132 517.741 737.189 517.353C737.246 516.965 737.179 516.569 736.998 516.222Z" fill="#010101"/>
<path d="M399.064 736.719L449.095 708.1C452.596 706.238 450.66 697.71 446.619 688.828C441.201 676.93 430.531 665.311 425.839 667.694L375.602 696.388C365.622 702.141 374.802 723.778 385.918 733.46C390.051 737.165 394.744 738.785 399.064 736.719Z" fill="#F28F8F"/>
<path opacity="0.1" d="M402.042 721.209C399.175 709.925 390.051 698.865 381.653 696.5C380.42 696.064 379.101 695.929 377.805 696.108C376.509 696.286 375.275 696.772 374.205 697.524C366.757 704.507 375.453 724.356 385.973 733.517C390.014 737.092 394.538 738.693 398.858 736.813C402.545 734.615 404.053 728.843 402.042 721.209Z" fill="#010101"/>
</svg>
