<svg width="15" height="15" viewBox="0 0 15 15" fill="none" xmlns="http://www.w3.org/2000/svg">
<path fill-rule="evenodd" clip-rule="evenodd" d="M6.87446 0.5C5.8579 0.500087 4.85611 0.743273 3.95265 1.20927C3.04919 1.67527 2.27028 2.35056 1.68088 3.17882C1.09149 4.00707 0.708715 4.96426 0.564489 5.97053C0.420263 6.97681 0.51877 8.00298 0.851791 8.96344C1.18481 9.9239 1.74269 10.7908 2.47889 11.4918C3.21508 12.1928 4.10824 12.7076 5.08384 12.9932C6.05945 13.2788 7.08921 13.327 8.08722 13.1337C9.08523 12.9404 10.0225 12.5112 10.821 11.882L13.56 14.621C13.7014 14.7576 13.8909 14.8332 14.0875 14.8315C14.2842 14.8298 14.4723 14.7509 14.6113 14.6119C14.7504 14.4728 14.8293 14.2847 14.831 14.0881C14.8327 13.8914 14.7571 13.702 14.6205 13.5605L11.8815 10.8215C12.6225 9.88146 13.0838 8.7518 13.2128 7.56179C13.3417 6.37179 13.1331 5.16952 12.6106 4.09257C12.0882 3.01562 11.2731 2.10752 10.2587 1.47217C9.24425 0.83683 8.07143 0.49992 6.87446 0.5ZM1.99946 6.875C1.99946 5.58207 2.51307 4.34209 3.42731 3.42785C4.34155 2.51361 5.58153 2 6.87446 2C8.16739 2 9.40736 2.51361 10.3216 3.42785C11.2358 4.34209 11.7495 5.58207 11.7495 6.875C11.7495 8.16793 11.2358 9.40791 10.3216 10.3221C9.40736 11.2364 8.16739 11.75 6.87446 11.75C5.58153 11.75 4.34155 11.2364 3.42731 10.3221C2.51307 9.40791 1.99946 8.16793 1.99946 6.875Z" fill="#8B909A"/>
</svg>
